<svg width="56" height="72" viewBox="0 0 56 72" fill="none" xmlns="http://www.w3.org/2000/svg">
<path fill-rule="evenodd" clip-rule="evenodd" d="M24.9688 0.159354C23.0005 0.535314 20.7497 1.45678 19.224 2.51136C18.0633 3.31351 16.251 5.17811 15.4373 6.40702C14.4593 7.88399 13.6766 9.77491 13.3305 11.4966L13.0639 12.8227L12.4474 12.9837C9.6454 13.7153 7.70063 16.2402 7.70063 19.1465C7.70063 21.0548 8.41511 22.671 9.82027 23.9405C10.5681 24.6162 11.7823 25.2619 12.5361 25.3849C12.8545 25.4368 13.1371 25.6308 13.4327 26.0006C13.9201 26.61 14.5107 26.8321 15.6463 26.8333C16.0505 26.8337 16.3814 26.8928 16.3814 26.9647C16.3814 27.0364 16.4473 27.5904 16.5278 28.1958C16.8781 30.8269 17.9633 32.9775 19.8994 34.8773L21.1417 36.0964V37.5858V39.0753H16.3882C10.6622 39.0753 10.451 39.1071 9.44168 40.1215C8.60791 40.9592 8.40069 41.6048 8.40069 43.3636V44.4017L7.27766 44.8369C5.62496 45.4774 4.30438 46.3275 3.09958 47.5266C1.96898 48.6519 1.31177 49.633 0.746262 51.0401C0.0281426 52.8267 0.00504018 53.167 0.00237996 61.9977L0 70.2164L0.348069 70.8133C0.580068 71.2112 0.898174 71.5084 1.30239 71.7051C1.90332 71.9975 2.01239 72 13.8417 72H25.7749L26.1185 71.6546C26.5566 71.2145 26.5566 70.675 26.1185 70.2349L25.7749 69.8895H17.6758C11.5633 69.8895 9.53563 69.8481 9.40878 69.7206C9.20548 69.5163 9.17986 66.968 9.37783 66.6533C9.49474 66.4674 11.7176 66.4422 28.0023 66.4422C44.2871 66.4422 46.5099 66.4674 46.6268 66.6533C46.8248 66.968 46.7991 69.5163 46.5958 69.7206C46.469 69.8481 44.4103 69.8895 38.1889 69.8895H29.9497L29.6061 70.2349C29.4171 70.4248 29.2624 70.7442 29.2624 70.9447C29.2624 71.1452 29.4171 71.4646 29.6061 71.6546L29.9497 72H42.0375H54.1251L54.7493 71.6834C55.1605 71.4748 55.4803 71.1749 55.6867 70.804L56 70.2412L55.9999 62.01C55.9997 53.1643 55.977 52.828 55.2584 51.0401C54.6929 49.633 54.0356 48.6519 52.905 47.5266C51.7002 46.3275 50.3797 45.4774 48.727 44.8369L47.6039 44.4017V43.3636C47.6039 41.6048 47.3967 40.9592 46.5629 40.1215C45.5536 39.1071 45.3425 39.0753 39.6164 39.0753H34.8629V37.4525V35.8296L35.7552 34.9907C36.2459 34.5293 36.8601 33.84 37.1203 33.4587C37.5713 32.7976 37.6298 32.7614 38.3896 32.6715C40.0499 32.4752 41.6481 31.3147 42.3252 29.8136C42.5593 29.2946 42.638 28.7737 42.6978 27.3454L42.7735 25.5351L43.5436 25.2941C44.6348 24.9526 45.1677 24.6462 45.9678 23.8994C46.833 23.092 47.4639 22.1226 47.4639 21.6005C47.4639 21.017 46.9992 20.6177 46.3815 20.6703C45.9487 20.7072 45.7806 20.8363 45.2253 21.5577C44.6194 22.345 43.3266 23.3165 42.8847 23.3165C42.7405 23.3165 42.7035 22.4665 42.7035 19.1563V14.996L43.0185 15.088C43.7123 15.2906 44.605 15.9732 45.2232 16.7738C45.7797 17.4948 45.949 17.6243 46.3815 17.6612C46.7462 17.6923 46.9686 17.6234 47.1759 17.415C47.7444 16.8437 47.4701 16.0138 46.3032 14.774C45.4752 13.894 44.4504 13.2689 43.392 12.998C42.7128 12.8241 42.6289 12.7612 42.5896 12.3968C42.5653 12.1729 42.4262 11.5012 42.2804 10.9038C41.0253 5.76274 36.9369 1.68303 31.7126 0.35859C30.2508 -0.0120233 26.4536 -0.124164 24.9688 0.159354ZM31.4782 2.48589C34.2045 3.26947 36.5143 4.84226 38.1713 7.04357C38.8711 7.97319 39.7795 9.75464 40.0926 10.8113L40.2852 11.4619L39.4047 11.533C37.9133 11.6533 37.2431 12.3906 37.2431 13.9112V14.6456L36.2694 13.5838C35.7339 12.9997 35.1027 12.4415 34.8669 12.3433C34.2076 12.0688 33.3164 12.2396 32.3597 12.8237C30.149 14.1733 27.3363 15.3116 24.9092 15.8391C23.2372 16.2025 20.797 16.4557 19.5316 16.3971L18.5515 16.3517L18.4804 14.5929C18.4398 13.5857 18.3352 12.7029 18.2357 12.5274C17.9079 11.9482 17.2514 11.6081 16.3154 11.5326L15.4303 11.4612L15.7647 10.4728C17.1751 6.30571 20.8479 3.10597 25.1648 2.28342C26.7409 1.98316 30.1042 2.09093 31.4782 2.48589ZM16.3814 19.1658V24.7236H15.7513H15.1212V19.1658V13.608H15.7513H16.3814V19.1658ZM40.6033 19.1658V24.7236H39.9733H39.3432V19.1658V13.608H39.9733H40.6033V19.1658ZM35.6901 16.0703L37.2403 17.7587L37.2417 22.6223C37.2431 27.6173 37.1712 28.5155 36.6609 29.8865L36.3828 30.6331H34.0127C32.6573 30.6331 31.6426 30.5775 31.6426 30.5032C31.6426 30.2434 30.8942 29.4883 30.3705 29.2199C29.6022 28.826 27.3825 28.826 26.6142 29.2199C24.5685 30.2687 24.5993 33.1423 26.6669 34.1482C27.2384 34.4261 27.4805 34.4572 28.6746 34.4051C30.2558 34.3363 30.7708 34.1233 31.3337 33.3051L31.7126 32.7544L33.3821 32.749L35.0518 32.7437L34.7122 33.111C34.0822 33.793 32.7644 34.7304 31.8497 35.1472C27.9649 36.9174 23.1714 35.8031 20.5772 32.5268C20.1939 32.0428 19.6862 31.23 19.449 30.7205C18.6042 28.9061 18.5825 28.7364 18.5183 23.422L18.4594 18.5326H19.6457C24.3585 18.5326 29.6441 17.0496 33.3928 14.6755C33.7008 14.4805 33.9949 14.3345 34.0463 14.3513C34.0977 14.368 34.8374 15.1416 35.6901 16.0703ZM13.0211 19.1658C13.0211 22.3932 12.9822 23.3162 12.8461 23.3152C12.5189 23.3127 11.2412 22.4907 10.8636 22.0396C10.0646 21.0854 9.87277 20.5292 9.87277 19.1658C9.87277 17.7769 10.0827 17.192 10.928 16.2243C11.2981 15.8007 12.5849 15.015 12.9085 15.015C12.9704 15.015 13.0211 16.8828 13.0211 19.1658ZM40.6033 27.684C40.6033 28.9295 39.9694 30.0087 39.0778 30.2812C38.7749 30.3736 38.7517 30.3513 38.8398 30.0512C39.0064 29.4837 39.3332 27.628 39.3383 27.221C39.343 26.857 39.3805 26.8341 39.9733 26.8341H40.6033V27.684ZM29.6544 31.2241C29.887 31.4578 29.8645 31.8371 29.6025 32.1005C29.4486 32.2551 29.1148 32.3216 28.4923 32.3216C27.3322 32.3216 26.949 32 27.3072 31.3273C27.4301 31.0966 27.6069 31.0552 28.4692 31.0552C29.0737 31.0552 29.5546 31.1237 29.6544 31.2241ZM32.7627 38.0904V39.0753H28.0023H23.2419V38.1608C23.2419 37.6577 23.2724 37.2462 23.3098 37.2462C23.3472 37.2462 23.9299 37.4091 24.6049 37.6084C26.9375 38.2968 29.8184 38.2186 31.8537 37.4114C32.2382 37.259 32.5999 37.1278 32.6577 37.1198C32.7155 37.1119 32.7627 37.5487 32.7627 38.0904ZM45.1148 41.5766L45.4337 41.8971L45.4732 52.4812C45.4949 58.3025 45.4776 63.2094 45.4346 63.3854C45.3917 63.5616 45.2323 63.8306 45.0802 63.9834C44.808 64.2569 44.5452 64.2613 28.0838 64.2613C18.8878 64.2613 11.2618 64.2219 11.1372 64.1739C10.5013 63.9287 10.5007 63.9184 10.503 52.7658C10.5052 41.5099 10.4916 41.7297 11.2037 41.3657C11.4786 41.2251 15.0168 41.1953 28.1734 41.2222L44.796 41.2562L45.1148 41.5766ZM8.58901 64.2613C8.6684 64.5544 8.60973 64.6599 8.23688 64.8945C7.99074 65.0492 7.64337 65.4549 7.465 65.796C7.17657 66.3474 7.14059 66.6089 7.14059 68.156V69.8959L4.65538 69.8575L2.17018 69.8191V61.5879V53.3568L2.50229 52.3381C3.26073 50.012 5.18785 47.9716 7.52996 47.0147L8.33069 46.6877L8.41217 55.2986C8.45698 60.0346 8.5365 64.0678 8.58901 64.2613ZM49.6961 47.6335C51.4661 48.7123 52.8955 50.4761 53.4984 52.3257L53.8344 53.3568V61.5879V69.8191L51.3492 69.8575L48.864 69.8959V68.156C48.864 66.6089 48.828 66.3474 48.5396 65.796C48.3613 65.4549 48.0147 65.0492 47.7698 64.8945C47.4242 64.6761 47.3463 64.55 47.4219 64.3316C47.4757 64.1769 47.5412 60.1452 47.5677 55.3723L47.6158 46.6944L48.2317 46.9054C48.5704 47.0213 49.2293 47.349 49.6961 47.6335ZM27.2322 50.1394C25.8944 50.473 24.9467 51.2234 24.4121 52.3718C23.5408 54.2439 24.4898 56.6285 26.4426 57.4742C27.1872 57.7965 28.63 57.7654 29.4024 57.4104C32.9309 55.7888 32.0692 50.5248 28.2123 50.1396C27.8273 50.101 27.3863 50.101 27.2322 50.1394ZM28.5569 52.369C29.938 53.0868 29.8566 54.9407 28.4179 55.5395C27.4448 55.9446 26.1822 55.0393 26.1822 53.9365C26.1822 53.3176 26.5031 52.7803 27.0862 52.4229C27.6013 52.1072 28.0235 52.0917 28.5569 52.369Z" fill="black"/>
</svg>
