<svg width="83" height="84" viewBox="0 0 83 84" fill="none" xmlns="http://www.w3.org/2000/svg">
<circle cx="19" cy="19" r="19" fill="#F2C94C"/>
<path fill-rule="evenodd" clip-rule="evenodd" d="M39.0914 4.10014C33.5027 4.62714 30.8438 5.14587 26.3112 6.59366C24.6171 7.13488 24.0092 7.40041 23.7706 7.70343C23.465 8.09174 23.457 8.32916 23.457 17.0621C23.457 22.2486 23.3979 26.0223 23.3168 26.0223C23.2395 26.0223 21.6037 24.9783 19.6818 23.7023C17.7597 22.4262 16.034 21.3338 15.8467 21.2744C15.341 21.114 14.4477 21.5512 14.1649 22.0974C13.961 22.4913 13.92 23.2514 13.92 26.6393V30.7082H10.5483C8.53492 30.7082 7.0556 30.773 6.87596 30.8691C6.06422 31.303 6.10284 30.0294 6.10284 56.3947V80.8473H5.15696C4.6368 80.8473 4.01737 80.9474 3.78035 81.0698C2.73988 81.6075 2.73988 83.211 3.78035 83.7486C4.42918 84.0838 81.5708 84.0838 82.2197 83.7486C83.2601 83.211 83.2601 81.6075 82.2197 81.0698C81.9826 80.9474 81.3632 80.8473 80.843 80.8473H79.8972V56.3947C79.8972 30.0294 79.9358 31.303 79.124 30.8691C78.9444 30.773 77.4651 30.7082 75.4517 30.7082H72.08V26.6393C72.08 23.2514 72.039 22.4913 71.8351 22.0974C71.5537 21.5537 70.6588 21.114 70.1574 21.273C69.9726 21.3317 68.2552 22.4242 66.341 23.7009C64.4269 24.9777 62.7892 26.0223 62.7018 26.0223C62.5961 26.0223 62.543 23.023 62.543 17.0498V8.07721L62.1912 7.6925C61.4852 6.92042 55.6132 5.36736 50.5827 4.62199C46.9675 4.08639 41.7503 3.84944 39.0914 4.10014ZM46.0487 7.28639C49.927 7.57457 53.6944 8.23747 57.6572 9.32897L59.4161 9.81349V12.8415C59.4161 14.5069 59.3592 15.8695 59.2896 15.8695C59.2201 15.8695 58.2176 15.6262 57.0617 15.3288C52.0109 14.0292 47.6605 13.4735 42.531 13.4727C37.0811 13.4719 32.3081 14.1448 27.701 15.5635C27.1544 15.7319 26.6796 15.8695 26.6456 15.8695C26.6117 15.8695 26.5839 14.502 26.5839 12.8306V9.79147L27.8737 9.38333C33.5798 7.57785 40.0005 6.83701 46.0487 7.28639ZM47.3776 16.8248C50.0544 17.0512 53.2551 17.6132 56.2229 18.3782C57.5922 18.7312 58.8708 19.0574 59.0643 19.103C59.4145 19.1857 59.4161 19.2004 59.4161 22.2739V25.3619L57.7354 24.911C52.5023 23.5068 47.7621 22.877 42.4848 22.8846C36.9204 22.8926 32.6161 23.5268 26.9357 25.1757L26.5839 25.2777V22.2459V19.214L27.8737 18.7993C33.8741 16.8698 40.2607 16.2232 47.3776 16.8248ZM20.3658 27.9204L23.458 29.9747L23.4184 55.3719L23.3788 80.7692L20.2129 80.8115L17.0469 80.8537V53.36C17.0469 38.2383 17.0979 25.8661 17.1603 25.8661C17.2226 25.8661 18.6651 26.7905 20.3658 27.9204ZM68.9531 53.36V80.8537L65.7871 80.8115L62.6212 80.7692L62.5816 55.3726L62.542 29.9761L65.6303 27.9215C67.3288 26.7916 68.7713 25.8669 68.8358 25.8666C68.9004 25.8663 68.9531 38.2383 68.9531 53.36ZM49.2538 26.4067C51.6655 26.7433 55.1695 27.4607 57.4618 28.0869L59.3379 28.5995L59.3805 31.7024C59.4203 34.618 59.4061 34.7988 59.1459 34.6971C58.3888 34.4016 53.59 33.3292 51.5207 32.993C47.8831 32.4022 44.9867 32.2167 40.9913 32.3191C36.42 32.4359 33.2155 32.8898 29.0854 34.0055C28.0965 34.2726 27.1292 34.5267 26.9357 34.5703L26.5839 34.6495V31.6107V28.5717L28.3102 28.0649C31.3852 27.1621 34.4944 26.5401 37.6843 26.1899C39.6922 25.9694 47.1189 26.1085 49.2538 26.4067ZM13.92 57.3397V80.8473H11.5749H9.22972V57.3397V33.8321H11.5749H13.92V57.3397ZM76.7703 57.3397V80.8473H74.4251H72.08V57.3397V33.8321H74.4251H76.7703V57.3397ZM48.9411 35.781C52.1922 36.2169 55.4705 36.9031 58.3608 37.7525L59.4161 38.0627V41.1201V44.1775L59.0643 44.0775C55.945 43.1906 51.5459 42.3169 48.2375 41.9272C45.9948 41.6629 39.0467 41.6601 36.9026 41.9223C33.6513 42.3202 29.9998 43.0733 27.3232 43.8982L26.5773 44.1281L26.6197 41.0645L26.6621 38.0009L27.522 37.7053C30.0009 36.8534 34.2168 35.987 37.6843 35.6167C40.1558 35.3529 46.4308 35.4444 48.9411 35.781ZM48.5502 45.1523C51.8045 45.5412 55.1065 46.2148 58.2826 47.1374L59.4161 47.4667V50.4898C59.4161 52.1526 59.3592 53.5129 59.2896 53.5129C59.2201 53.5129 58.2176 53.2705 57.0617 52.9742C51.6938 51.5978 47.9378 51.1182 42.531 51.1187C38.5403 51.119 36.4686 51.2886 33.1503 51.8869C31.8966 52.1129 27.4507 53.2105 26.8575 53.4402C26.6027 53.539 26.5839 53.3373 26.5839 50.4966V47.4468L27.7956 47.0549C31.1394 45.9736 34.7135 45.2751 38.7005 44.9243C40.839 44.736 46.0831 44.8574 48.5502 45.1523ZM45.1486 54.2931C49.3906 54.5285 52.86 55.1019 57.5791 56.348L59.4161 56.8331V68.8401V80.8473H56.288H53.1597L53.2002 72.2174L53.2405 63.5875L54.3657 63.5418C55.4009 63.4998 55.523 63.4582 55.8901 63.0223C56.4432 62.3653 56.4229 61.6334 55.833 60.9738L55.377 60.4636L43.5991 60.4168C37.1215 60.391 31.5286 60.4119 31.1707 60.4633C29.8057 60.6593 29.2496 62.0007 30.1099 63.0223C30.477 63.4582 30.5991 63.4998 31.6343 63.5418L32.7595 63.5875L32.7998 72.2174L32.8403 80.8473H29.712H26.5839V68.8306C26.5839 57.5206 26.6 56.8094 26.8575 56.7347C27.0081 56.691 27.8346 56.4417 28.6945 56.1804C32.547 55.0102 36.5599 54.4013 41.9838 54.1641C42.2417 54.1528 43.6659 54.2109 45.1486 54.2931ZM41.4366 72.1784V80.8473H38.7005H35.9645V72.1784V63.5094H38.7005H41.4366V72.1784ZM50.0355 72.1784V80.8473H47.2995H44.5634V72.1784V63.5094H47.2995H50.0355V72.1784Z" fill="black"/>
</svg>
