<svg width="71" height="92" viewBox="0 0 71 92" fill="none" xmlns="http://www.w3.org/2000/svg">
<circle cx="19" cy="19" r="19" fill="#F2C94C"/>
<path fill-rule="evenodd" clip-rule="evenodd" d="M24.5845 12.3088C21.3076 13.1665 18.6685 15.8353 17.9071 19.0616C17.7239 19.8375 17.6761 21.3435 17.6742 26.3726L17.6718 32.7064L16.9612 33.4029C16.0184 34.327 15.7372 35.268 15.8224 37.2152C15.8756 38.4291 15.9506 38.7572 16.318 39.3834C16.8902 40.3587 17.6937 40.8693 18.9963 41.0849C19.5741 41.1806 20.0661 41.3353 20.0894 41.4286C20.8934 44.6533 21.9566 46.9038 23.8071 49.2974C24.5198 50.2193 24.6274 50.5789 24.1918 50.5836C23.8471 50.5872 22.155 51.5212 21.3024 52.1783C20.2507 52.9888 18.8643 54.7301 18.2717 55.985C18.0248 56.5079 17.6978 57.5163 17.5449 58.2261C17.3889 58.9507 17.1672 59.5707 17.0394 59.6404C16.9141 59.7087 14.7708 60.3744 12.2765 61.1198C9.78207 61.8651 7.38605 62.6358 6.95207 62.8323C5.50173 63.4891 4.31975 64.8055 3.84574 66.2922C3.55533 67.2035 2.18943 75.0548 2.18943 75.8135C2.18943 76.1928 2.30281 76.4259 2.60151 76.6605C3.13073 77.0766 3.48042 77.0695 3.98852 76.6329C4.36933 76.3056 4.4508 75.9738 5.16878 71.8288C5.5929 69.3799 6.01124 67.1716 6.09835 66.9215C6.35358 66.1891 7.0065 65.4456 7.71118 65.0855C8.26104 64.8044 16.7273 62.1477 17.0854 62.1438C17.1498 62.1432 17.2027 62.6699 17.2027 63.3143C17.2027 64.3261 17.1653 64.486 16.929 64.4862C16.2794 64.4865 14.7535 65.3997 13.968 66.2585C12.6299 67.7211 12.5631 68.0193 12.0123 75.0011C11.4736 81.831 11.4793 81.9272 12.4923 82.9391C13.1472 83.5935 13.9228 83.8563 15.2014 83.8576C16.2629 83.8587 16.7933 83.6478 17.0291 83.131C17.286 82.5673 17.2446 82.3239 16.8187 81.8986C16.4917 81.5719 16.2878 81.5151 15.4413 81.5151C13.7309 81.5151 13.817 82.0188 14.3545 75.1693C14.8675 68.6324 14.9041 68.4627 16.0071 67.4952C16.7379 66.8542 17.5072 66.6264 18.6873 66.7014C20.0871 66.7904 21.0454 67.395 21.6149 68.548C22.0201 69.3685 22.0593 69.6671 22.4827 75.1589C22.8591 80.0423 22.8941 80.9561 22.7141 81.2128C22.54 81.461 22.313 81.5151 21.4436 81.5151C20.5392 81.5151 20.3354 81.5677 20.0449 81.8766C19.6064 82.3431 19.6015 83.0917 20.0346 83.4828C20.3051 83.7271 20.6062 83.7804 21.7157 83.7804C22.8965 83.7804 23.1564 83.7281 23.7727 83.3661C24.7803 82.7743 25.1785 81.9944 25.1785 80.6121C25.1785 79.1176 24.4328 69.743 24.2401 68.8163C23.827 66.8279 22.2661 65.1513 20.2857 64.5682L19.6267 64.3742L19.5821 62.8789L19.5374 61.3838L20.9114 60.964C21.6671 60.7331 22.586 60.4531 22.9537 60.342L23.6223 60.1399L23.8654 60.7117C25.72 65.07 29.3167 74.2038 32.7031 83.1555C34.4421 87.7522 34.7826 88.3892 35.5001 88.3892C36.2176 88.3892 36.558 87.7522 38.2971 83.1555C41.6835 74.2038 45.2801 65.07 47.1347 60.7117L47.3779 60.1399L48.0465 60.342C48.4141 60.4531 49.332 60.7326 50.0862 60.9632L51.4576 61.3822L51.4155 64.8263L51.3735 68.2705L50.5133 68.5867C46.3129 70.1305 45.1919 75.5369 48.4424 78.5744C50.3211 80.3298 52.8215 80.741 55.1107 79.6708C58.9283 77.8862 59.795 72.976 56.8195 69.9886C56.0335 69.1992 54.6506 68.3965 54.0712 68.3933C53.8197 68.3919 53.7975 68.1382 53.7975 65.2672C53.7975 63.5487 53.8502 62.1432 53.9148 62.1438C54.2729 62.1477 62.7391 64.8044 63.289 65.0855C63.9785 65.4378 64.6109 66.1455 64.8887 66.8751C65.0538 67.3091 68.6543 88.0797 68.6543 88.5984C68.6543 88.749 68.4815 89.0446 68.2704 89.2555L67.8866 89.639H35.5001H3.11353L2.72975 89.2555C2.51863 89.0446 2.34613 88.7458 2.34645 88.5915C2.3466 88.4373 2.5976 86.8698 2.90413 85.1084C3.56471 81.3112 3.58973 80.7638 3.11978 80.3835C2.56492 79.9346 1.89386 80.0214 1.44096 80.6005C1.25001 80.8447 0 87.7124 0 88.5179C0 89.8199 1.19465 91.4214 2.44216 91.7915C3.37923 92.0695 67.6209 92.0695 68.558 91.7915C69.8013 91.4227 71.0006 89.8195 71 88.5273C70.9997 87.8503 67.409 67.0798 67.1561 66.2922C66.6779 64.8029 65.4973 63.4887 64.0481 62.8323C63.6141 62.6358 61.2181 61.865 58.7237 61.1193C56.2293 60.3734 54.0763 59.7045 53.9392 59.6326C53.7831 59.5507 53.6276 59.1266 53.5235 58.499C53.2221 56.6817 52.2969 54.8657 50.8172 53.1863C50.0983 52.3706 48.3165 51.1359 47.3036 50.7519C46.9266 50.6088 46.5769 50.4507 46.5267 50.4005C46.4763 50.3504 46.8792 49.7203 47.4215 49.0002C48.9297 46.9986 50.0923 44.6269 50.6667 42.3795L50.9462 41.2859L52.0114 41.0913C53.3274 40.8508 54.1179 40.3453 54.6822 39.3834C55.0495 38.7572 55.1246 38.4291 55.1778 37.2152C55.263 35.268 54.9818 34.327 54.0389 33.4029L53.3283 32.7064V30.3955C53.3283 28.2928 53.3002 28.0564 53.0155 27.7721C52.5942 27.3512 51.7474 27.3593 51.3586 27.788C51.0954 28.0783 51.0551 28.4204 51.0116 30.731L50.9625 33.3456L50.1514 33.616C49.7054 33.7649 49.2568 33.9213 49.1545 33.9638C49.0134 34.0223 48.9566 32.7639 48.9199 28.7583C48.877 24.105 48.8383 23.4028 48.5943 22.8629C48.1595 21.9009 47.3393 21.0083 46.426 20.5028C45.6013 20.0467 45.5416 20.0378 42.9137 19.9871C39.8799 19.9285 39.3098 20.0303 38.2114 20.8255C37.081 21.6438 36.2837 21.9847 35.5001 21.9847C34.7164 21.9847 33.9192 21.6438 32.7888 20.8255C31.6903 20.0303 31.1203 19.9285 28.0865 19.9871C25.4586 20.0378 25.3988 20.0467 24.5742 20.5028C23.6609 21.0083 22.8406 21.9009 22.4059 22.8629C22.1619 23.4028 22.1231 24.105 22.0803 28.7583C22.0435 32.7639 21.9867 34.0223 21.8457 33.9638C21.7434 33.9213 21.2902 33.7635 20.8387 33.6129L20.0177 33.3393V26.7419C20.0177 20.762 20.0447 20.0577 20.307 19.2161C21.0605 16.7974 23.124 14.9706 25.6414 14.4938C26.7528 14.2832 44.2473 14.2832 45.3588 14.4938C47.1737 14.8375 48.8272 15.9145 49.809 17.3922C50.6707 18.6889 50.856 19.3591 50.9675 21.5788C51.0605 23.4334 51.0963 23.6103 51.4337 23.8832C51.9089 24.2677 52.6214 24.26 53.0155 23.8663C53.2916 23.5906 53.328 23.3473 53.326 21.7963C53.3219 18.6512 52.5434 16.6248 50.6106 14.7269C49.3171 13.4569 48.0499 12.7348 46.354 12.3014C45.2129 12.0099 44.61 11.9933 35.436 12.0015C26.3931 12.0094 25.6473 12.0307 24.5845 12.3088ZM31.9878 23.09C34.6281 24.7574 36.3721 24.7574 39.0124 23.09L40.2571 22.304H42.5336C45.2269 22.304 45.687 22.4595 46.2518 23.5595C46.5983 24.2345 46.6036 24.3344 46.6036 30.1275C46.6036 35.8171 46.6141 36.0235 46.9234 36.4164C47.235 36.8118 48.2398 37.2161 48.5047 37.0526C48.5772 37.0079 48.6367 37.8979 48.6367 39.0306C48.6367 40.971 48.6048 41.1861 48.0838 42.7503C47.2043 45.3912 45.7094 47.7387 43.6882 49.6525C38.8505 54.2331 32.1496 54.2331 27.3119 49.6525C25.2908 47.7387 23.7958 45.3912 22.9163 42.7503C22.3951 41.185 22.3635 40.9721 22.3635 39.0231C22.3635 37.2171 22.3941 36.9679 22.6068 37.0494C22.9531 37.1822 23.8406 36.7756 24.1415 36.3464C24.3663 36.0258 24.3965 35.2869 24.3965 30.1138C24.3965 24.3348 24.4018 24.2345 24.7484 23.5595C25.3131 22.4595 25.7732 22.304 28.4665 22.304H30.7431L31.9878 23.09ZM19.8222 35.7329C20.1271 35.7435 20.0959 38.688 19.7895 38.8055C19.3913 38.9581 18.5096 38.5644 18.3204 38.1495C18.1421 37.7586 18.0656 35.7109 18.2234 35.5532C18.2688 35.5079 18.6031 35.5282 18.9663 35.5985C19.3296 35.6687 19.7147 35.7291 19.8222 35.7329ZM52.8591 36.679C52.8591 38.0224 52.6543 38.4921 51.9695 38.7178C51.0633 39.0165 50.9825 38.8955 50.9825 37.2408V35.7637L51.8035 35.6234C52.255 35.5462 52.6773 35.51 52.7419 35.5426C52.8064 35.5753 52.8591 36.0866 52.8591 36.679ZM26.5584 54.5547C26.5129 56.5807 26.4735 56.8537 26.1698 57.2496C25.984 57.4918 25.7377 57.6625 25.6225 57.629C24.8211 57.3955 23.8862 57.589 19.992 58.7938C19.7542 58.8674 19.7502 58.8125 19.9476 58.1578C20.5212 56.2535 22.0202 54.3497 23.7031 53.3878C24.4616 52.9543 26.0513 52.3365 26.4802 52.3086C26.5511 52.3039 26.5863 53.3147 26.5584 54.5547ZM45.3632 52.5516C48.1763 53.3848 50.1888 55.3813 51.0613 58.204C51.2494 58.813 51.2446 58.8669 51.0081 58.7938C47.544 57.7219 46.9005 57.5627 45.9781 57.549C44.9781 57.5341 44.957 57.5249 44.6882 56.987C44.4691 56.5491 44.4147 56.0279 44.4145 54.3702C44.4144 53.2316 44.4366 52.3001 44.4639 52.3001C44.4915 52.3001 44.896 52.4134 45.3632 52.5516ZM30.3302 54.4188C33.8776 55.8897 37.8201 55.7195 41.8552 53.9218C41.9802 53.8662 42.051 54.3458 42.0932 55.5319C42.1483 57.0817 42.1949 57.2979 42.6576 58.1464C42.9349 58.6551 43.1446 59.0824 43.1234 59.0958C43.1023 59.1094 41.4117 60.3628 39.3668 61.8814C37.3218 63.3998 35.5817 64.6423 35.5001 64.6423C35.4184 64.6423 33.6783 63.3998 31.6334 61.8814C29.5885 60.3628 27.8979 59.1094 27.8768 59.0958C27.8555 59.0824 28.0652 58.6551 28.3425 58.1464C28.8053 57.2979 28.8519 57.0817 28.9069 55.5319C28.9491 54.3458 29.02 53.8662 29.1449 53.9218C29.2427 53.9654 29.7761 54.1889 30.3302 54.4188ZM32.9693 65.7838C33.1241 65.9071 32.6971 66.15 31.249 66.7625C30.1896 67.2105 29.2815 67.532 29.231 67.4767C29.1804 67.4214 28.6626 66.1889 28.0801 64.7379C27.4977 63.2867 26.9219 61.8623 26.8008 61.5727C26.6016 61.0966 26.877 61.2654 29.672 63.3331C31.3722 64.5909 32.856 65.6937 32.9693 65.7838ZM44.1987 61.5742C44.078 61.8629 43.5025 63.2867 42.9201 64.7379C42.3375 66.1889 41.8197 67.4214 41.7692 67.4767C41.7187 67.532 40.8079 67.2094 39.7452 66.76L37.8132 65.9429L41.0745 63.5079C42.8683 62.1687 44.3546 61.0676 44.3771 61.061C44.3998 61.0543 44.3196 61.2854 44.1987 61.5742ZM36.7628 68.0209C37.4875 68.3324 38.1061 68.61 38.1376 68.6377C38.169 68.6653 37.9227 69.0058 37.5902 69.394L36.9858 70.1H35.5001H34.0144L33.3931 69.3746C33.0514 68.9758 32.8402 68.6244 32.9239 68.5938C33.0914 68.5327 35.4148 67.4906 35.4335 67.4683C35.4399 67.4606 36.0381 67.7094 36.7628 68.0209ZM31.4801 70.7105L32.3187 71.7012L32.1088 72.8196C31.9935 73.4347 31.8791 74.0006 31.8547 74.0771C31.8303 74.1538 31.4392 73.2585 30.9858 72.0877C29.91 69.3099 30.0245 68.9908 31.4801 70.7105ZM40.7406 69.8003C40.7946 69.8877 40.4679 70.9171 40.0144 72.0877C39.561 73.2585 39.1699 74.1538 39.1455 74.0771C39.1211 74.0006 39.0069 73.4358 38.8918 72.8223L38.6826 71.7067L39.5485 70.6741C40.4316 69.621 40.5678 69.5212 40.7406 69.8003ZM54.5918 71.1425C56.5063 72.427 56.8237 75.1337 55.2497 76.7527C53.8098 78.2338 51.6783 78.3199 50.1311 76.9594C48.1625 75.2284 48.6542 72.0032 51.0607 70.8627C52.0254 70.4054 53.6897 70.5373 54.5918 71.1425ZM36.5796 73.274C36.6696 73.725 36.9223 75.0784 37.1414 76.2814L37.5395 78.4686L36.5612 81.0854C36.023 82.5246 35.5456 83.7023 35.5001 83.7023C35.4546 83.7023 34.9771 82.5246 34.439 81.0854L33.4606 78.4686L33.8588 76.2814C34.0779 75.0784 34.3306 73.725 34.4205 73.274L34.584 72.4537H35.5001H36.4162L36.5796 73.274Z" fill="black"/>
</svg>
