<svg width="74" height="92" viewBox="0 0 74 92" fill="none" xmlns="http://www.w3.org/2000/svg">
<circle cx="19" cy="19" r="19" fill="#F2C94C"/>
<path fill-rule="evenodd" clip-rule="evenodd" d="M42.2646 12.2534C41.0943 12.6405 40.5278 13.0237 37.8667 15.2283C35.3249 17.3337 34.9182 17.6281 34.2282 17.8619C33.9489 17.9565 32.191 18.182 30.322 18.3628C28.4531 18.5436 26.5724 18.8042 26.1428 18.9419C24.1368 19.5847 22.5687 21.1506 21.9504 23.1281C21.8162 23.5578 21.5582 25.4384 21.3774 27.3073C21.1967 29.1764 20.9712 30.9342 20.8765 31.2136C20.6423 31.905 20.3492 32.3092 18.2149 34.8855C17.2007 36.1098 16.1684 37.4308 15.921 37.8208C14.8403 39.525 14.6973 41.8845 15.5629 43.7287C15.8376 44.314 16.8903 45.7611 18.252 47.425C19.4826 48.9289 20.6137 50.4406 20.7657 50.7844C20.9534 51.2087 21.1481 52.5128 21.3724 54.8469C21.7395 58.6662 21.9203 59.4919 22.6364 60.619C23.9323 62.6587 25.4118 63.4158 28.7587 63.7515C29.9604 63.8722 30.9589 63.9922 30.9773 64.0183C30.9957 64.0442 29.0776 68.6711 26.7149 74.3C24.0335 80.6878 22.417 84.7326 22.4137 85.062C22.4071 85.7126 23.1824 86.4873 23.8406 86.4876C24.0756 86.4878 25.9095 86.0259 27.9159 85.4612C29.9223 84.8966 31.6512 84.468 31.7576 84.5089C31.8642 84.5497 32.7506 86.0487 33.7273 87.84C34.7042 89.6312 35.7034 91.299 35.9478 91.5461C36.3346 91.9372 36.4753 91.9842 37.0326 91.9095C37.3848 91.8622 37.8007 91.6951 37.9568 91.5383C38.1129 91.3814 40.284 86.3664 42.7815 80.3937C46.4342 71.6586 47.4053 69.4733 47.7457 69.2219C47.9785 69.05 49.2601 68.0062 50.5934 66.9023C52.941 64.9587 54.0849 64.2264 54.6129 64.3289C54.7873 64.3626 56.1295 67.3942 58.8892 73.9875C61.1015 79.2726 62.892 83.6167 62.8682 83.6411C62.8445 83.6655 61.5676 83.3231 60.0307 82.8805C55.3442 81.5303 55.2862 81.5531 53.0959 85.6075C52.2795 87.1187 51.5692 88.3569 51.5173 88.3587C51.4654 88.3608 50.5551 86.2825 49.4942 83.7403C48.2987 80.8756 47.4449 79.0339 47.249 78.8965C46.4909 78.3656 45.4396 78.863 45.4396 79.7526C45.4396 80.0015 46.4621 82.6559 47.712 85.6511C50.0921 91.3555 50.4349 91.9562 51.3092 91.9562C52.2364 91.9562 52.496 91.633 54.4985 87.9848C55.5637 86.0441 56.5254 84.4562 56.6354 84.4562C56.7456 84.4562 58.4521 84.9133 60.4278 85.4719C62.4035 86.0305 64.2393 86.4875 64.5074 86.4875C65.1689 86.4875 65.9084 85.7503 65.9084 85.0908C65.9084 84.8111 64.0989 80.2872 61.6118 74.3492C59.2489 68.7072 57.341 64.0653 57.3724 64.0339C57.4037 64.0025 58.3704 63.8773 59.5204 63.7558C62.4553 63.4453 63.6687 62.9603 64.9276 61.5945C66.2299 60.1817 66.4699 59.3833 66.9129 54.9905C67.1854 52.2892 67.3559 51.2106 67.5923 50.6936C67.7659 50.3137 68.8723 48.843 70.0512 47.425C72.9821 43.8992 73.5368 42.6267 73.2142 40.1695C73.0201 38.6926 72.5128 37.8387 70.0512 34.8469C68.7785 33.3 67.6348 31.7906 67.5096 31.4925C67.3845 31.1945 67.1139 29.2806 66.9084 27.2394C66.5332 23.5142 66.3678 22.7676 65.6679 21.6437C64.8745 20.3695 63.4801 19.3069 62.0803 18.9094C61.6506 18.7873 59.7521 18.5383 57.8615 18.3558C55.5576 18.1334 54.2179 17.9339 53.799 17.7505C53.4553 17.6 52.1307 16.6169 50.8554 15.5656C47.0231 12.4067 46.5029 12.1195 44.424 12.0153C43.4784 11.968 42.9526 12.0259 42.2646 12.2534ZM45.8779 14.7531C46.2268 14.9312 47.5542 15.9369 48.8276 16.9881C51.6689 19.3337 52.4267 19.8534 53.4506 20.1573C53.8901 20.288 55.7656 20.537 57.6182 20.7109C61.2949 21.0559 62.0476 21.2472 62.9545 22.0664C64.004 23.0145 64.1531 23.5325 64.5715 27.6828C65.074 32.6667 64.9864 32.4594 68.2603 36.4094C69.3998 37.7844 70.4603 39.1906 70.6168 39.5344C70.9434 40.2511 70.9934 41.5583 70.7282 42.4434C70.629 42.7742 70.0139 43.7047 69.361 44.5111C68.7081 45.3175 67.6017 46.6823 66.9023 47.5442C65.1531 49.6994 65.0234 50.0923 64.5767 54.5856C64.2587 57.7858 64.1639 58.334 63.7993 59.079C62.9614 60.7919 62.1671 61.1081 57.5521 61.5669C53.1124 62.0081 52.7099 62.1417 50.5589 63.8876C49.697 64.587 48.3321 65.6934 47.5257 66.3464C45.9478 67.6237 45.3332 67.8937 44.0026 67.8937C42.8021 67.8937 42.1885 67.5342 39.1896 65.0733C37.7717 63.9097 36.4132 62.833 36.1709 62.6805C35.2782 62.1192 34.3426 61.9273 30.6849 61.5556C26.5418 61.1345 26.026 60.9859 25.081 59.9398C24.2618 59.033 24.0706 58.2803 23.7256 54.6036C23.5517 52.7509 23.3026 50.8755 23.172 50.4359C22.8681 49.412 22.3484 48.6542 20.0028 45.813C17.9339 43.3069 17.5151 42.6344 17.3718 41.5898C17.1803 40.1925 17.5821 39.4003 19.9396 36.527C21.1209 35.0873 22.2498 33.6794 22.4484 33.3983C23.1298 32.4333 23.3732 31.3611 23.7153 27.8156C23.8976 25.925 24.1549 24.0441 24.2871 23.6356C24.6054 22.6522 25.6687 21.5897 26.6503 21.274C27.0587 21.1428 28.9389 20.8858 30.8284 20.7028C34.364 20.3606 35.4404 20.1169 36.4129 19.438C36.694 19.2417 38.0784 18.1312 39.4892 16.9701C42.3349 14.6284 43.0685 14.242 44.4431 14.3606C44.8834 14.3984 45.529 14.5751 45.8779 14.7531ZM42.0978 22.7178C40.844 22.9098 40.3912 23.799 41.0931 24.6912L41.434 25.1247L42.9174 25.0272C50.8126 24.5086 57.8199 29.5675 59.8359 37.2414C60.287 38.9584 60.3915 41.934 60.066 43.798C58.8457 50.7873 53.3951 56.0958 46.3864 57.1206C44.7053 57.3664 41.8389 57.2242 40.2679 56.8169C31.3906 54.5159 26.1239 45.4294 28.6382 36.7526C29.9329 32.2847 32.9228 28.6983 37.1137 26.5861C38.3181 25.979 38.587 25.2456 37.8685 24.5273C37.3782 24.0369 36.8806 24.043 35.8642 24.5517C30.8765 27.0483 27.2193 31.8412 25.9726 37.5153C25.5914 39.2509 25.5921 42.9708 25.9743 44.7687C27.3542 51.2605 32.0565 56.614 38.1746 58.6586C41.9315 59.914 46.2937 59.9434 49.8998 58.7378C55.6171 56.8261 59.9737 52.4034 61.8132 46.6437C63.1049 42.599 62.8585 37.7353 61.1635 33.8147C58.8251 28.4059 53.8749 24.3237 48.0959 23.0383C46.6332 22.713 43.2945 22.5345 42.0978 22.7178ZM49.9709 32.9056C49.4573 33.1375 48.0376 34.45 44.7032 37.7758L40.1387 42.3283L38.5267 40.76C37.2137 39.4826 36.7601 39.1403 36.0806 38.9147C34.2979 38.3225 32.3298 39.197 31.6198 40.8965C31.3089 41.6409 31.3085 43.0522 31.6192 43.7955C31.9115 44.4951 37.4074 50.0881 38.3303 50.625C39.2395 51.154 40.1015 51.2495 41.176 50.9403C42.0604 50.6856 42.2145 50.5461 48.2179 44.5603C52.3687 40.4215 54.4592 38.2265 54.6759 37.7792C55.1006 36.9023 55.1015 35.4811 54.6779 34.6508C53.7749 32.8808 51.7162 32.1175 49.9709 32.9056ZM52.2435 35.3086C52.4959 35.5608 52.6271 35.8686 52.6271 36.2076C52.6271 36.678 52.099 37.2514 46.6237 42.7253C41.2632 48.0844 40.5676 48.727 40.1279 48.727C39.697 48.727 39.2653 48.3573 36.6781 45.773C33.6529 42.7508 33.5057 42.5426 33.8179 41.7289C33.9604 41.3578 34.7718 40.9851 35.174 41.1061C35.3631 41.163 36.4376 42.1158 37.562 43.2234C39.3596 44.9947 39.6692 45.2375 40.1281 45.2375C40.6045 45.2375 41.0999 44.7892 45.8279 40.0812C51.4359 34.4969 51.4337 34.4986 52.2435 35.3086ZM34.5462 64.5112C34.8228 64.6275 36.3146 65.7639 37.8615 67.0365C40.8659 69.5084 41.6989 70.0014 43.2234 70.2098C43.7551 70.2826 44.226 70.3781 44.2701 70.4222C44.3557 70.5078 37.0671 88.0417 36.8571 88.2555C36.7882 88.3255 36.086 87.2005 35.2965 85.7555C34.507 84.3105 33.6282 82.9073 33.3434 82.6376C32.4771 81.8169 32.0221 81.8328 28.5718 82.8061C26.9001 83.2776 25.5057 83.6369 25.4734 83.6045C25.441 83.5722 27.2268 79.2155 29.4418 73.9228C33.7867 63.5412 33.4992 64.0712 34.5462 64.5112Z" fill="black"/>
</svg>
