<svg width="88" height="88" viewBox="0 0 88 88" fill="none" xmlns="http://www.w3.org/2000/svg">
<circle cx="19" cy="19" r="19" fill="#F2C94C"/>
<path fill-rule="evenodd" clip-rule="evenodd" d="M45.9797 8.25351C44.9804 8.60467 44.1625 9.20803 43.5512 10.0453C43.0597 10.7184 42.618 11.9649 42.618 12.6787C42.618 13.4678 42.3014 13.5996 40.4063 13.5996C39.0589 13.5996 38.5034 13.6688 37.822 13.9218C36.7171 14.3319 35.6234 15.3756 35.1237 16.4964L34.7423 17.352L28.2398 17.3554C22.2894 17.3585 21.6835 17.3831 21.1067 17.6437C20.3011 18.0077 19.3624 19.0387 19.1391 19.8048C19.0145 20.2329 18.9785 29.5957 19.0116 53.0253L19.058 85.6499L19.5356 86.3241C19.7983 86.6949 20.3602 87.2111 20.7839 87.4711L21.5547 87.9439L48.594 87.9884C68.6462 88.0214 75.8048 87.9862 76.2967 87.8526C77.1987 87.6074 78.1997 86.7179 78.6476 85.7637L79.0186 84.9732L79.0151 69.4946C79.0115 52.8818 79.0495 53.6498 78.2141 53.3348C77.7471 53.1586 76.9144 53.4566 76.7603 53.8551C76.7039 54.0007 76.6579 61.0143 76.6579 69.4413V84.7628L76.1972 85.2198L75.7366 85.6768H49.0835C20.6479 85.6768 21.7265 85.7045 21.4409 84.9662C21.3872 84.827 21.3431 70.2573 21.3431 52.589V20.4647L21.7299 20.0811C22.0722 19.7413 22.2535 19.6972 23.3059 19.6972H24.4949L24.4958 49.3646C24.4963 69.2898 24.5501 79.2228 24.6594 79.6134C24.8559 80.3156 25.4595 81.0582 26.129 81.4219C26.5746 81.6639 27.4479 81.6943 35.1617 81.7352L43.701 81.7807L43.8782 82.3137C44.1038 82.992 44.9488 83.7313 45.7809 83.9787C46.7715 84.2731 47.625 83.9746 49.098 82.8187L50.3373 81.8462L60.779 81.7681L71.2209 81.6899L71.854 81.3298C72.2023 81.1317 72.6632 80.7147 72.8783 80.4033L73.2696 79.8368L73.3127 70.38L73.3557 60.9232L73.0094 60.5575C72.5876 60.1119 71.941 60.0845 71.4354 60.4906L71.0633 60.7894L71.0203 69.9463C70.9786 78.8044 70.9672 79.1082 70.6735 79.2643C70.4728 79.3707 67.4929 79.4119 61.895 79.3851L53.4201 79.3446L54.6101 78.38C55.6144 77.5657 58.2574 74.3744 71.5478 57.9283C80.2089 47.2105 87.4318 38.1817 87.5987 37.864C87.7995 37.4815 87.926 36.8499 87.9731 35.9932C88.0398 34.7847 88.0117 34.6341 87.5445 33.6927C86.6818 31.9539 85.2239 31.0524 83.2767 31.0532C82.0182 31.0538 81.2376 31.297 80.3587 31.9621C80.0878 32.1669 72.7797 41.1041 64.1183 51.8225L48.3701 71.3106L46.3214 75.3277L44.2727 79.3446L35.8147 79.3851C28.2809 79.4211 27.3297 79.3986 27.1078 79.1784C26.8826 78.955 26.8588 76.0993 26.8588 49.3144V19.6972H30.7797H34.7006L34.7688 20.633C34.823 21.378 34.9335 21.6885 35.3111 22.1574C36.2834 23.3649 35.4162 23.2928 48.979 23.2929L61.0922 23.2933L61.72 22.9432C62.5004 22.5079 63.0856 21.5475 63.2112 20.4949L63.3065 19.6972H67.1454H70.9845V28.7775V37.8579L71.4613 38.3308C71.8434 38.71 72.0232 38.7838 72.3674 38.7029C72.6036 38.6476 72.921 38.4567 73.0726 38.2789C73.3284 37.9789 73.3484 37.2933 73.3484 28.8263V19.6972L74.5698 19.7022C76.7037 19.7108 76.6579 19.5753 76.6579 25.8699V30.9686L77.0447 31.3523C77.5377 31.8415 78.1419 31.8415 78.6349 31.3523L79.0217 30.9686L79.0148 25.6846C79.0074 19.9976 78.9754 19.7341 78.1637 18.6783C77.9315 18.3762 77.3937 17.9542 76.9685 17.7405L76.1955 17.352H69.6713H63.147L62.8273 16.5888C62.4056 15.5818 61.5 14.6093 60.5146 14.1049C59.8158 13.7472 59.4654 13.6856 57.6943 13.609C55.4419 13.5114 55.2253 13.4057 55.2253 12.4029C55.2253 10.9496 53.9849 9.18051 52.4374 8.42659C51.7563 8.09497 51.4321 8.05291 49.2368 8.01242C47.1916 7.97474 46.6616 8.01398 45.9797 8.25351ZM51.708 10.7215C52.4166 11.2431 52.8074 11.9457 52.9206 12.9018C53.0397 13.9076 53.1971 14.2713 53.7868 14.9034C54.5274 15.6972 54.9883 15.8352 57.2236 15.9326C59.6045 16.0363 59.9384 16.1793 60.5441 17.3551C60.8262 17.9029 60.8987 18.3046 60.8987 19.3203C60.8987 20.2061 60.8331 20.6511 60.6843 20.7735C60.5283 20.9019 57.2967 20.9391 48.8255 20.9099L37.1811 20.8698L37.1365 19.2981C37.0963 17.8778 37.1267 17.6755 37.4516 17.2017C38.1666 16.1593 38.493 16.0321 40.6984 15.9358C42.3409 15.8641 42.8161 15.7871 43.3664 15.5028C44.2591 15.0416 44.8282 14.1599 44.9688 13.0201C45.1016 11.9427 45.448 11.2334 46.0432 10.8198C46.7307 10.3423 46.8307 10.3273 49.1078 10.3617C51.0184 10.3907 51.3142 10.4316 51.708 10.7215ZM40.771 29.5518C40.3961 29.7 39.8032 30.4588 37.8114 33.3395C37.118 34.3423 36.4938 35.1658 36.4245 35.1694C36.355 35.1729 35.7003 34.6482 34.9697 34.0032C33.5312 32.7335 33.1711 32.6111 32.4746 33.1547C32.1723 33.3905 32.0593 33.6225 32.0593 34.007C32.0593 34.4796 32.2346 34.6922 33.7257 36.0281C34.6423 36.8491 35.5684 37.5649 35.784 37.6185C36.5039 37.7978 37.4409 37.5702 37.9077 37.1027C38.8131 36.196 42.3028 31.0527 42.3028 30.6251C42.3028 29.8379 41.4895 29.268 40.771 29.5518ZM47.553 30.1737C46.8501 30.4547 46.6448 31.5098 47.1882 32.0488C47.4959 32.3542 47.7134 32.3615 56.3829 32.3615C66.1885 32.3615 65.6067 32.4213 65.8666 31.3883C65.9534 31.0435 65.883 30.8722 65.497 30.4893L65.0203 30.0163L56.4588 30.0261C51.75 30.0316 47.7424 30.0981 47.553 30.1737ZM84.6315 33.7781C85.5408 34.3356 85.935 35.8778 85.4203 36.8644C85.1269 37.427 81.6973 41.6725 81.5667 41.6348C81.5104 41.6185 80.6352 40.9526 79.6215 40.1549C78.5056 39.2769 77.8277 38.6409 77.9032 38.5428C80.1203 35.6604 81.7876 33.7656 82.2965 33.55C83.0027 33.2505 83.917 33.34 84.6315 33.7781ZM47.1882 35.6449C46.7634 36.0662 46.7718 36.9127 47.2045 37.3014C47.5211 37.5857 47.9359 37.6013 56.2744 37.6423L65.0126 37.6851L65.4931 37.2082C65.8827 36.8219 65.9534 36.6507 65.8666 36.3055C65.6067 35.2725 66.1885 35.3322 56.3829 35.3322C47.7134 35.3322 47.4959 35.3395 47.1882 35.6449ZM78.4325 42.2067C79.4332 42.9985 80.057 43.5957 79.9837 43.6921C79.8007 43.9325 55.0419 74.6357 54.9247 74.7672C54.8159 74.8894 51.2126 72.0984 51.1451 71.8398C51.1227 71.7539 56.7653 64.6748 63.6841 56.1087C74.3123 42.95 76.3023 40.5608 76.5115 40.7083C76.6476 40.8041 77.5122 41.4785 78.4325 42.2067ZM40.6092 46.6927C40.501 46.736 39.5194 48.0353 38.4276 49.58C36.6864 52.0439 36.4117 52.3637 36.1901 52.1861C36.0511 52.0746 35.4371 51.5442 34.8257 51.0075C33.5925 49.9249 32.9661 49.7548 32.3745 50.3418C31.8515 50.8607 31.9624 51.5496 32.6779 52.2248C35.2167 54.6207 36.0522 55.0892 37.1476 54.7305C37.8437 54.5025 37.9451 54.3836 40.308 51.0197C42.4962 47.9044 42.6489 47.5076 41.8875 46.9135C41.4901 46.6031 41.0307 46.5239 40.6092 46.6927ZM47.1882 47.2148C46.5058 47.8918 46.9611 48.9782 48.0067 49.168C48.2932 49.2201 52.2747 49.2417 56.8544 49.2159L65.1811 49.1691L65.5613 48.7304C66.0272 48.193 66.0403 47.8503 65.6149 47.314L65.2884 46.9021H56.3958C47.7134 46.9021 47.4959 46.9094 47.1882 47.2148ZM47.2179 52.3804C46.7179 52.8426 46.7518 53.6642 47.2882 54.0827C47.6857 54.3929 47.8909 54.4069 52.0874 54.4069C55.0099 54.4069 56.6014 54.3479 56.8619 54.2302C57.6616 53.8689 57.7326 52.6288 56.9768 52.2275C56.7773 52.1215 55.02 52.0616 52.1135 52.0616C47.7515 52.0616 47.5484 52.0749 47.2179 52.3804ZM40.6092 63.5785C40.501 63.6218 39.5194 64.9211 38.4276 66.4658C36.6864 68.9297 36.4117 69.2494 36.1901 69.0718C36.0511 68.9604 35.4371 68.43 34.8257 67.8933C33.5925 66.8107 32.9661 66.6406 32.3745 67.2275C31.7972 67.8002 31.955 68.443 32.8867 69.3148C35.5664 71.8223 36.3833 72.1699 37.6854 71.3559C37.8762 71.2368 38.993 69.7721 40.1674 68.1014C42.5039 64.7775 42.6555 64.3984 41.8875 63.7992C41.4901 63.4889 41.0307 63.4096 40.6092 63.5785ZM51.4528 75.209C52.3141 75.9012 53.0154 76.5169 53.0112 76.5771C52.9949 76.8011 46.7215 81.6899 46.4501 81.6899C46.2951 81.6899 46.1427 81.5585 46.1115 81.398C46.0492 81.077 49.5311 73.9506 49.7501 73.9506C49.8251 73.9506 50.5912 74.5169 51.4528 75.209Z" fill="black"/>
</svg>
