<svg width="81" height="84" viewBox="0 0 81 84" fill="none" xmlns="http://www.w3.org/2000/svg">
<circle cx="22" cy="19" r="19" fill="#F2C94C"/>
<path fill-rule="evenodd" clip-rule="evenodd" d="M38.6244 4.04836C38.4937 4.07965 37.8521 4.19073 37.1987 4.29524C31.52 5.20279 26.2088 9.12415 23.5378 14.3808C22.1333 17.1448 21.608 19.3932 21.6004 22.6725C21.5945 25.2228 21.7708 26.4061 22.4783 28.5634C24.0214 33.2692 27.5386 37.2857 32.1051 39.5567C33.4484 40.2248 35.5243 40.9173 37.1195 41.2292C38.7557 41.5493 42.6459 41.5066 44.3273 41.1499C51.0345 39.7275 56.4933 34.9044 58.5725 28.5634C59.2703 26.4356 59.4558 25.2148 59.4558 22.7507C59.4558 20.2867 59.2703 19.0659 58.5725 16.9381C56.5243 10.6921 51.1969 5.90649 44.6441 4.42634C43.4164 4.14896 39.2869 3.88972 38.6244 4.04836ZM44.2481 7.55529C50.1032 8.99226 54.6265 13.5486 55.9943 19.3871C56.4268 21.2329 56.3913 24.5466 55.9192 26.4179C54.7929 30.8818 51.7152 34.6744 47.5437 36.7387C41.4949 39.7322 34.1657 38.5432 29.3501 33.7873C24.0372 28.5406 23.1862 20.4334 27.2947 14.2085C29.6628 10.6206 33.4353 8.16074 37.8349 7.33548C39.4345 7.03542 42.5672 7.14274 44.2481 7.55529ZM37.2779 12.096C36.533 12.4366 35.8677 13.0973 35.6074 13.755C35.5053 14.0131 35.3838 15.0164 35.3375 15.9844L35.2535 17.7444H33.5435C31.6677 17.7444 31.169 17.8672 30.4858 18.4976C29.5841 19.3292 29.4437 19.9007 29.4399 22.7567C29.4368 25.1353 29.4653 25.3997 29.7929 26.033C30.5067 27.4127 31.6618 27.9135 34.1312 27.9135H35.2977V29.0656C35.2977 31.5043 35.8048 32.6451 37.2019 33.3501C37.8423 33.6733 38.1145 33.7021 40.5254 33.7021C42.9363 33.7021 43.2084 33.6733 43.8489 33.3501C45.2459 32.6451 45.753 31.5043 45.753 29.0656V27.9135H46.9196C49.3889 27.9135 50.5441 27.4127 51.2579 26.033C51.5852 25.4005 51.6143 25.1317 51.6143 22.7507C51.6143 20.3698 51.5852 20.101 51.2579 19.4685C51.0618 19.0896 50.6277 18.5642 50.2933 18.3011C49.6994 17.8339 49.6386 17.8214 47.7191 17.7707L45.753 17.7189V16.5014C45.753 13.9936 45.2578 12.8623 43.8489 12.1514C43.2076 11.8279 42.9399 11.7997 40.5314 11.8028C38.3199 11.8057 37.8127 11.8515 37.2779 12.096ZM42.4542 17.3142C42.5432 20.7585 42.5543 20.7695 46.0302 20.8474L48.446 20.9014V22.843V24.7846H45.933C43.4619 24.7846 43.4134 24.7911 43.0229 25.1768C42.5285 25.665 42.4303 26.2394 42.4281 28.6566L42.4263 30.5731H40.5254H38.6244L38.6227 28.6566C38.6205 26.2394 38.5222 25.665 38.0278 25.1768C37.6373 24.7911 37.5889 24.7846 35.1178 24.7846H32.6047V22.843V20.9014L35.0205 20.8474C38.4964 20.7695 38.5075 20.7585 38.5965 17.3142L38.6583 14.9284H40.5254H42.3924L42.4542 17.3142ZM2.06434 34.1847C1.33738 34.4014 0.340009 35.4346 0.136131 36.1822C0.0193803 36.6108 -0.0197479 43.7642 0.00908337 59.3839L0.0507461 81.9662L0.426661 82.5633C0.633391 82.8919 1.09168 83.3495 1.44478 83.5802C2.07685 83.9934 2.1285 84 4.72394 84C7.31939 84 7.37103 83.9934 8.0031 83.5802C8.3562 83.3495 8.81449 82.8919 9.02122 82.5633C9.38431 81.9867 9.39888 81.8417 9.4472 78.3288L9.49741 74.6914H40.5254H71.5533L71.6035 78.3407L71.6536 81.99L72.0786 82.6237C72.3123 82.9723 72.7757 83.4246 73.1083 83.6288C73.681 83.9803 73.8514 84 76.3268 84C78.8022 84 78.9726 83.9803 79.5453 83.6288C79.878 83.4246 80.3413 82.972 80.575 82.6233L81 81.989V65.3045V48.62L80.575 47.9857C80.3413 47.637 79.878 47.1844 79.5453 46.9803C78.9726 46.6287 78.8022 46.609 76.3268 46.609C73.8514 46.609 73.681 46.6287 73.1083 46.9803C72.7757 47.1844 72.3123 47.6367 72.0786 47.9853L71.6536 48.619L71.6035 52.2683L71.5533 55.9176H69.9991H68.4449L68.3779 54.5361C68.2705 52.3154 67.3763 50.8961 65.5628 50.0674C64.8466 49.7402 64.7477 49.738 50.5054 49.738H36.169L35.2689 50.1745C33.556 51.0052 32.7476 52.3481 32.6356 54.5487L32.5659 55.9176H30.5656H28.5652V54.4705C28.5652 53.268 28.5046 52.9117 28.2078 52.3628C27.6472 51.3268 26.9558 50.6477 25.9802 50.1745L25.0801 49.738H17.7138C13.6624 49.738 10.1544 49.7915 9.91816 49.8567L9.48886 49.9755L9.44292 43.0397L9.39714 36.1037L8.97211 35.4698C8.73845 35.1211 8.27509 34.6686 7.94243 34.4644C7.38386 34.1215 7.15654 34.0907 4.96156 34.0613C3.65465 34.0438 2.35091 34.0993 2.06434 34.1847ZM6.30808 59.0466V80.9493H4.72394H3.13981V59.0466V37.1439H4.72394H6.30808V59.0466ZM77.9109 65.3045V80.9493H76.3268H74.7427V65.3045V49.6597H76.3268H77.9109V65.3045ZM24.6093 52.9756C25.3804 53.3226 25.6744 54.3028 25.2504 55.1127C24.8364 55.9031 24.6958 55.9176 17.4529 55.9176H10.712L10.1734 55.3857C9.4426 54.664 9.4426 54.0423 10.1734 53.3206L10.712 52.7887H17.4529C22.3419 52.7887 24.308 52.84 24.6093 52.9756ZM64.371 52.9756C65.213 53.3544 65.2379 53.5468 65.2379 59.6646V65.3045H50.5054H35.773L35.7785 59.6333C35.7845 53.5706 35.801 53.4347 36.5825 53.0071C37.1089 52.7189 63.7337 52.6889 64.371 52.9756ZM32.6047 62.1756V65.3045H28.8102C24.7103 65.3045 24.3495 65.3644 23.9593 66.1094C23.5352 66.9194 23.8292 67.8995 24.6004 68.2465C24.9164 68.3887 30.5838 68.4335 48.2951 68.4335H71.5744V69.9979V71.5624H40.5254H9.47634V69.9979V68.4335H10.4194C11.5524 68.4335 12.1163 68.2065 12.4189 67.6285C12.6942 67.1026 12.7043 66.7 12.4553 66.1606C12.1866 65.578 11.5411 65.3045 10.4347 65.3045H9.47634V62.1756V59.0466H21.0405H32.6047V62.1756ZM71.5744 62.1756V65.3045H69.9903H68.4061V62.1756V59.0466H69.9903H71.5744V62.1756ZM17.4144 65.5229C16.0412 66.2746 16.6157 68.4335 18.1891 68.4335C18.9918 68.4335 19.7732 67.6692 19.7732 66.8842C19.7732 65.7095 18.4589 64.9511 17.4144 65.5229Z" fill="black"/>
</svg>
