<svg width="72" height="92" viewBox="0 0 72 92" fill="none" xmlns="http://www.w3.org/2000/svg">
<circle cx="19" cy="19" r="19" fill="#F2C94C"/>
<path fill-rule="evenodd" clip-rule="evenodd" d="M37.2385 12.2715C23.9816 14.0513 14.3573 23.7473 11.4584 38.2437C11.2014 39.5289 11.1429 41.3982 11.0773 50.4282L11 61.0945L11.4579 61.5454C12.0598 62.138 12.8881 62.143 13.4824 61.5577L13.9277 61.1195V51.5074C13.9277 45.8551 14.0065 41.2721 14.1187 40.3822C15.0142 33.2872 18.029 27.0258 22.8036 22.3448C25.1503 20.0442 26.7947 18.8612 29.4503 17.5633C33.5322 15.5684 37.9725 14.6837 42.7714 14.9089C49.8867 15.243 55.3568 17.5749 60.1995 22.3382C63.5619 25.6453 65.828 29.3203 67.4244 34.054C68.9622 38.6145 69.0754 39.8541 69.0754 52.1325V62.3696L69.5207 62.8078C70.1145 63.3925 70.9433 63.3881 71.5438 62.797L72 62.3478L71.9334 51.144C71.8748 41.2791 71.8278 39.7376 71.5401 38.2437C69.299 26.6102 62.0834 17.4393 52.3859 13.8993C47.692 12.1859 42.2399 11.6 37.2385 12.2715ZM37.8734 19.3343C34.3193 19.7347 30.5058 21.1938 27.8053 23.1863C25.1038 25.1796 22.269 28.4056 21.0989 30.818C19.9767 33.1316 19.8748 33.7554 19.7823 38.8776L19.6983 43.5296L18.7887 43.8477C16.8714 44.518 15.59 46.3319 15.4216 48.6139C15.158 52.185 17.0129 55.8252 20.2002 57.9918C21.1894 58.6642 21.2437 58.7424 21.5524 59.9424C22.6113 64.0564 25.2196 68.6172 28.314 71.7663L29.9352 73.4162L29.6408 75.1323C28.2088 83.4765 22.4557 88.5662 13.876 89.0793C12.1044 89.1852 11.8056 89.2502 11.441 89.6093C10.8707 90.1706 10.8941 90.9934 11.4972 91.587C11.9627 92.0454 11.9948 92.0503 13.9009 91.9419C23.3863 91.4027 29.85 86.2997 32.0856 77.5852C32.3795 76.4396 32.6462 75.4763 32.6785 75.4447C32.7106 75.413 33.4331 75.7084 34.2843 76.1012C36.7244 77.2268 38.5822 77.6099 41.5922 77.6077C44.5521 77.6058 46.2263 77.2504 48.7449 76.0887C50.4402 75.307 50.4647 75.3136 50.6626 76.6128C50.8474 77.827 51.736 80.3714 52.4903 81.8471C55.6832 88.0936 61.2847 91.4975 69.1022 91.9419C71.0082 92.0503 71.0404 92.0454 71.5058 91.587C72.109 90.9934 72.1324 90.1706 71.5621 89.6093C71.1975 89.2502 70.8987 89.1852 69.1271 89.0793C60.5781 88.5681 54.7756 83.4587 53.3742 75.2082L53.0695 73.4145L54.69 71.7654C56.5623 69.86 58.1189 67.6648 59.4523 65.0488C60.3932 63.2031 61.6377 59.8588 61.6377 59.1764C61.6377 58.9339 62.0208 58.5437 62.7885 58.0043C65.0021 56.4493 66.5968 54.2831 67.2776 51.9058C67.4207 51.406 67.5329 50.2266 67.5321 49.227C67.531 47.7361 67.4601 47.2868 67.1033 46.5076C66.5681 45.3386 65.3984 44.2617 64.2144 43.8477L63.3048 43.5296L63.2208 38.8776C63.1267 33.6619 63.0298 33.1005 61.7975 30.6258C60.4901 28.0004 57.4762 24.8651 54.3814 22.9109C49.6188 19.9037 43.8713 18.6585 37.8734 19.3343ZM44.0971 22.1882C44.8148 22.2959 45.6614 22.54 45.9785 22.7306C46.6736 23.1483 47.3066 24.3586 47.3066 25.2703C47.3066 26.1086 46.7435 27.2116 46.0766 27.6789C45.6059 28.009 45.4464 28.0232 44.1223 27.8548C42.3393 27.6278 38.837 27.772 36.785 28.1568C32.271 29.0032 27.7248 31.1532 24.0825 34.1637C22.6514 35.3467 22.5796 35.2861 23.1729 33.3959C24.1966 30.134 28.0524 26.0054 31.9037 24.0471C35.2824 22.3291 40.1234 21.591 44.0971 22.1882ZM51.4073 24.5284C53.9355 25.7671 57.0757 28.5133 58.5745 30.7962C59.3452 31.9703 59.9394 33.4015 60.1215 34.5228L60.2418 35.2631L59.0029 34.2285C56.4868 32.1271 52.887 30.0797 50.2091 29.2268C49.6603 29.0519 49.1825 28.8846 49.1471 28.8549C49.1117 28.8251 49.3158 28.3336 49.6006 27.7629C50.0347 26.8924 50.1184 26.5013 50.1184 25.3408C50.1184 24.5799 50.1458 23.9569 50.1793 23.9568C50.2127 23.9568 50.7653 24.2139 51.4073 24.5284ZM45.946 31.0059C50.7774 32.0047 55.1101 34.3384 58.6759 37.8621L60.3678 39.5342V42.469C60.3678 45.3466 60.3765 45.4122 60.8132 45.8418C61.1267 46.1506 61.4585 46.2803 61.935 46.2803C63.0349 46.2803 64.0965 46.8923 64.4332 47.7208C65.5138 50.3798 63.5519 54.4175 60.3675 56.0886C59.1181 56.744 59.0073 56.9033 58.852 58.2663C58.5821 60.6355 56.5679 64.9906 54.4689 67.7441C48.112 76.0826 38.2415 77.1982 30.9264 70.4047C27.7313 67.4372 24.5456 61.7302 24.1511 58.2663C23.9974 56.9174 23.8641 56.7145 22.7746 56.1709C21.5535 55.5619 19.9205 54.0162 19.2867 52.87C18.3054 51.0952 18.0232 49.0663 18.5699 47.7208C18.9066 46.8923 19.9682 46.2803 21.0681 46.2803C21.5446 46.2803 21.8764 46.1506 22.1899 45.8418C22.6267 45.412 22.6352 45.3468 22.6352 42.4667V39.5298L24.1603 38.0182C28.3523 33.8633 33.0594 31.5418 39.0526 30.6733C40.1958 30.5076 44.5526 30.718 45.946 31.0059ZM29.0665 39.6675C27.4491 40.0036 26.2318 40.4352 25.8939 40.7922C25.4278 41.2848 25.442 42.0047 25.9298 42.6151C26.2842 43.0589 26.4009 43.0957 27.1543 43.0016C27.6121 42.9442 28.5174 42.7762 29.1659 42.6281C30.5727 42.3068 32.5021 42.2729 33.3566 42.5545C33.6956 42.6663 34.2329 42.9476 34.5506 43.1796C35.308 43.7327 36.1303 43.7264 36.7024 43.163C37.6729 42.2077 36.9854 41.048 34.8802 40.0889C33.9253 39.6539 33.5469 39.5883 31.7963 39.5541C30.6988 39.5324 29.4703 39.5835 29.0665 39.6675ZM49.2538 39.6882C48.2798 39.9141 47.1295 40.5149 46.4449 41.1555C45.7173 41.8361 45.6668 42.5392 46.3007 43.163C46.8728 43.7264 47.6951 43.7327 48.4525 43.1796C48.7701 42.9476 49.3075 42.6663 49.6465 42.5545C50.5009 42.2729 52.4304 42.3068 53.8372 42.6281C54.4857 42.7762 55.3909 42.9442 55.8488 43.0016C56.6022 43.0957 56.7188 43.0589 57.0733 42.6151C57.5611 42.0047 57.5753 41.2848 57.1092 40.7922C56.1948 39.8259 51.503 39.1665 49.2538 39.6882ZM25.9831 48.8618C25.2586 49.5749 25.3812 50.2509 26.421 51.2745C29.1849 53.9953 33.366 54.0802 36.092 51.4704C37.3377 50.2778 37.4455 49.7604 36.6175 48.9454C35.9109 48.2499 35.5164 48.2864 34.5143 49.1402C33.2599 50.2092 32.6698 50.4623 31.4335 50.4616C30.1653 50.4609 29.2276 50.0469 28.2686 49.0641C27.4911 48.2673 26.6614 48.1939 25.9831 48.8618ZM46.4135 48.8857C45.5139 49.6308 45.6325 50.2462 46.9111 51.4704C49.4791 53.9289 53.2378 54.0187 56.153 51.6915C57.4864 50.627 57.7939 49.6235 57.02 48.8618C56.3417 48.1939 55.5119 48.2673 54.7344 49.0641C53.7755 50.0469 52.8378 50.4609 51.5696 50.4616C50.3333 50.4623 49.7432 50.2092 48.4888 49.1402C47.5034 48.3007 47.169 48.2598 46.4135 48.8857ZM15.9626 61.3264C15.7817 61.5433 14.6533 68.2075 14.6533 69.0597C14.6533 69.7046 15.1988 69.9009 16.1111 69.5839C16.5318 69.4378 17.0154 69.3183 17.1861 69.3183C17.3844 69.3183 17.8457 69.8991 18.4636 70.9269C20.4282 74.1944 24.4377 78.605 25.4434 78.605C25.9856 78.605 26.989 77.7386 26.989 77.2704C26.989 76.7884 26.5124 76.0388 25.9443 75.6272C25.1323 75.0389 22.7127 72.1245 21.4026 70.1566C20.7613 69.1935 20.2661 68.3809 20.3022 68.3505C20.3381 68.3204 20.735 68.178 21.184 68.0343C22.5908 67.5837 22.4758 67.3163 19.4497 64.0053C16.8827 61.1961 16.3885 60.8166 15.9626 61.3264ZM63.5533 64.0053C60.5273 67.3163 60.4123 67.5837 61.8191 68.0343C62.2681 68.178 62.665 68.3204 62.7009 68.3505C62.737 68.3809 62.2418 69.1935 61.6005 70.1566C60.3187 72.082 58.1015 74.7592 56.9509 75.7713C56.5451 76.1283 56.1592 76.6312 56.0935 76.8889C55.8666 77.779 56.9382 78.7739 57.8748 78.5425C58.8906 78.2916 62.942 73.6204 64.6744 70.7024C65.5651 69.2022 65.6582 69.1555 66.8919 69.5839C67.8042 69.9009 68.3497 69.7046 68.3497 69.0597C68.3497 68.2075 67.2214 61.5433 67.0405 61.3264C66.6146 60.8166 66.1204 61.1961 63.5533 64.0053ZM45.8553 64.0262C44.2609 65.0913 43.1852 65.4304 41.4108 65.4276C39.7178 65.4247 38.7989 65.14 37.2269 64.1317C35.893 63.2761 35.1685 63.2104 34.6213 63.8955C34.4145 64.1542 34.2453 64.5698 34.2453 64.8189C34.2453 65.8135 36.8519 67.5492 39.1433 68.08C42.1613 68.7793 45.9828 67.865 48.0218 65.9553C48.875 65.1563 48.9681 64.5695 48.3496 63.888C47.6512 63.1184 47.1745 63.1448 45.8553 64.0262ZM11.4706 71.0069L11.0252 71.4451V79.1407V86.8363L11.4706 87.2746C11.7512 87.5511 12.1231 87.7131 12.4765 87.7131C12.8298 87.7131 13.2017 87.5511 13.4824 87.2746L13.9277 86.8363V79.1407V71.4451L13.4824 71.0069C13.2017 70.7304 12.8298 70.5685 12.4765 70.5685C12.1231 70.5685 11.7512 70.7304 11.4706 71.0069ZM69.5207 71.0069L69.0754 71.4451V79.1407V86.8363L69.5207 87.2746C69.8013 87.5511 70.1732 87.7131 70.5266 87.7131C70.88 87.7131 71.2519 87.5511 71.5325 87.2746L71.9779 86.8363V79.1407V71.4451L71.5325 71.0069C71.2519 70.7304 70.88 70.5685 70.5266 70.5685C70.1732 70.5685 69.8013 70.7304 69.5207 71.0069Z" fill="black"/>
</svg>
