<svg width="95" height="84" viewBox="0 0 95 84" fill="none" xmlns="http://www.w3.org/2000/svg">
<circle cx="19" cy="19" r="19" fill="#F2C94C"/>
<path fill-rule="evenodd" clip-rule="evenodd" d="M41.4205 4.15944C40.2784 4.38344 38.5827 5.29258 37.5072 6.25772C36.1252 7.498 35.128 7.93537 33.6929 7.93067C32.2743 7.92614 30.4606 7.36598 28.9867 6.47718C27.184 5.39019 26.2496 5.02056 25.2853 5.01273C24.1403 5.0035 23.2948 5.53738 22.7735 6.59872C21.6659 8.85358 23.0196 13.2471 26.7168 19.3967C27.3892 20.5152 28.3274 21.9934 28.8016 22.6817L29.6639 23.933L28.6786 24.035C26.0255 24.3096 24.2071 26.4155 24.3925 28.9987C24.4841 30.2729 24.9333 31.2118 25.8758 32.0982L26.5742 32.7552L25.1205 34.4102C22.9398 36.8928 22.0104 38.1846 22.0104 38.7325C22.0104 39.7388 23.4087 40.3635 24.1599 39.6928C24.3285 39.5422 25.0764 38.666 25.822 37.7458C26.5677 36.8255 27.746 35.4723 28.4407 34.7385L29.7036 33.4047L43.8893 33.3615L58.0749 33.3185L58.8572 32.959C61.2428 31.863 62.3144 29.1168 61.2555 26.8134C60.489 25.1461 59.1267 24.1972 57.2874 24.0496L56.3243 23.9723L57.2956 22.5449C57.8299 21.7598 58.7954 20.2375 59.4413 19.1621C64.1086 11.3916 64.8987 6.3852 61.6535 5.14616C60.7395 4.79718 59.8847 4.94923 58.4517 5.71555C55.1042 7.50567 53.8335 7.9582 52.2081 7.93912C50.8977 7.92379 49.7924 7.42652 48.4584 6.2524C46.2863 4.34042 43.9864 3.65653 41.4205 4.15944ZM45.0228 7.08864C45.417 7.25789 46.2267 7.83072 46.8222 8.36178C49.858 11.0685 53.4925 11.3512 57.5273 9.19443C60.7301 7.48236 60.8022 7.45952 61.0285 8.0871C61.2489 8.6984 60.7093 10.7297 59.7633 12.8493C58.7164 15.1947 57.2493 17.741 54.9765 21.1565L53.0771 24.0113H51.3905H49.7042V20.5596C49.7042 17.0646 49.6469 16.6601 49.092 16.2341C48.6642 15.9058 47.8504 15.9956 47.4285 16.4176L47.0443 16.8015V20.4065V24.0113H43.0627H39.0812L39.0338 20.3997L38.9865 16.788L38.5475 16.4109C38.0088 15.9479 37.3636 15.9282 36.8172 16.3579L36.4049 16.682V20.3467V24.0113H34.6888H32.9728L31.86 22.4079C29.0686 18.3858 26.2566 13.3403 25.4741 10.9498C25.0636 9.69498 24.8985 8.57092 25.0414 8.00185C25.1304 7.64708 25.1867 7.62205 25.6182 7.74578C25.8813 7.82118 26.4268 8.07302 26.8307 8.30531C27.2343 8.5376 27.9168 8.9285 28.3471 9.17393C29.3463 9.74395 31.2833 10.365 32.6795 10.563C34.8927 10.8768 37.1939 10.1189 39.0289 8.4719C40.5984 7.0633 41.6941 6.61155 43.2892 6.71494C43.8486 6.75123 44.6287 6.91939 45.0228 7.08864ZM58.2391 27.1397C58.4722 27.3548 58.7615 27.7622 58.882 28.045C59.3265 29.0885 58.5204 30.4441 57.3272 30.6596C57.0499 30.7097 50.4161 30.7302 42.5852 30.705C28.9002 30.661 28.3301 30.6477 27.9089 30.3624C26.695 29.5398 26.7446 27.7459 28.0027 26.9757C28.4921 26.6759 28.8393 26.6698 43.1594 26.7088L57.815 26.7487L58.2391 27.1397ZM60.6285 37.5237C59.3118 37.8816 58.2337 38.9792 57.8452 40.3576C57.7174 40.8111 57.6817 46.5179 57.7154 61.0838L57.762 81.1844L58.1003 81.8101C58.4991 82.5476 59.2662 83.3022 60.0307 83.7087C60.5544 83.9873 61.2693 84 76.381 84C91.4927 84 92.2076 83.9873 92.7313 83.7087C93.4958 83.3022 94.2629 82.5476 94.6617 81.8101L95 81.1844V60.6928V40.2012L94.6572 39.5606C94.2577 38.8143 93.3811 38.0011 92.5863 37.6397C92.0839 37.4114 90.4721 37.3824 76.6939 37.355C64.6955 37.3313 61.2014 37.3679 60.6285 37.5237ZM42.1723 39.0141C41.8679 39.2603 41.7891 39.5015 41.7246 40.3828C41.6476 41.436 41.639 41.4534 41.177 41.5019C39.3937 41.6888 36.891 42.7726 35.3646 44.0189C34.2927 44.8941 33.1352 46.5176 32.7332 47.7095C31.145 52.4198 34.6773 57.279 40.5512 58.4643L41.6464 58.6854L41.6874 64.6555C41.7204 69.4751 41.6891 70.6257 41.5247 70.6257C41.0246 70.6257 39.4484 70.1177 38.5646 69.6717C37.3119 69.0394 35.9016 67.6924 35.4894 66.7347C35.3134 66.3255 35.097 65.5377 35.0088 64.9841C34.8237 63.8236 34.4778 63.4302 33.6424 63.4302C32.4438 63.4302 32.0629 64.503 32.5703 66.4503C32.949 67.9036 33.5565 68.908 34.8228 70.174C35.7939 71.1449 36.288 71.4959 37.5001 72.0762C38.906 72.7493 40.6266 73.2849 41.3826 73.2849C41.6982 73.2849 41.7246 73.3613 41.7246 74.2721C41.7246 75.0477 41.7927 75.3325 42.0419 75.5999C42.4677 76.0568 43.0167 76.1733 43.5469 75.9191C44.1248 75.6421 44.3793 75.1002 44.3821 74.1418L44.3845 73.3563L45.6027 73.1044C49.0929 72.3828 52.0718 70.1328 53.1661 67.3912C53.4718 66.6252 53.5302 66.1928 53.5336 64.6699L53.5375 62.8591L52.876 61.5243C51.8152 59.384 49.7784 57.6719 47.2368 56.7842C46.6133 56.5663 45.734 56.3351 45.2829 56.2702L44.4627 56.1522L44.4217 50.171C44.3743 43.2576 44.169 43.9 46.2076 44.584C48.9888 45.5176 50.6458 47.2791 50.9715 49.6491C51.1505 50.9511 51.6251 51.4695 52.5088 51.3281C53.4271 51.1812 53.6636 50.7378 53.5815 49.3176C53.4144 46.4306 51.0139 43.5911 47.592 42.2327C46.9896 41.9936 46.0287 41.7233 45.4567 41.6323L44.4169 41.4667L44.3527 40.4608C44.298 39.5994 44.2269 39.402 43.8585 39.0851C43.3384 38.6379 42.6718 38.6097 42.1723 39.0141ZM92.0408 40.4837L92.4184 40.9226V60.7136V80.5045L91.961 80.9618L91.5037 81.419H76.381H61.2583L60.801 80.9618L60.3436 80.5045V60.8714C60.3436 48.2617 60.3992 41.0922 60.4988 40.83C60.8341 39.9486 60.3632 39.9725 76.6684 40.0102L91.6633 40.0448L92.0408 40.4837ZM65.8145 44.3855C65.3584 44.6156 64.9943 44.954 64.7624 45.3632C64.419 45.9692 64.4091 46.1004 64.4489 49.5211L64.4899 53.0532L64.9114 53.6052C65.7675 54.7266 65.2606 54.682 76.5958 54.6346C86.5869 54.593 86.7704 54.5866 87.1949 54.2697C87.4325 54.0923 87.7721 53.7528 87.9495 53.5152C88.2541 53.1074 88.2721 52.8762 88.2721 49.3797C88.2721 45.7203 88.2676 45.6698 87.8965 45.1493C87.6898 44.8598 87.2321 44.4917 86.8795 44.3316C86.276 44.0577 85.6553 44.0403 76.3751 44.037L66.512 44.0336L65.8145 44.3855ZM18.3539 44.542C17.823 45.023 16.6214 48.1289 15.978 50.6824C15.209 53.7349 14.9104 56.6431 15.0229 59.9889C15.3295 69.1148 18.3686 75.4905 24.2879 79.4262C27.0416 81.2571 30.0881 82.4694 33.8004 83.2115C37.0193 83.855 38.7328 83.9972 43.211 83.9931C47.727 83.9889 49.6163 83.8098 52.8239 83.0819C54.1427 82.7827 54.527 82.6303 54.8188 82.2911C55.3134 81.7162 55.2775 81.1792 54.7064 80.6083C54.1656 80.0675 54.3622 80.0634 51.1124 80.681C45.4788 81.7516 38.1471 81.6008 32.9737 80.3079C26.9125 78.7933 22.5068 75.4985 20.0709 70.6587C17.4201 65.3924 16.8916 56.9466 18.8021 50.3814C19.0254 49.614 19.5239 48.2154 19.9097 47.2733C20.3688 46.1527 20.5766 45.4453 20.5107 45.2272C20.3292 44.6275 19.799 44.19 19.2537 44.19C18.9425 44.19 18.59 44.3278 18.3539 44.542ZM41.7246 50.0559C41.7246 56.8246 41.9399 56.1824 39.8882 55.5344C38.4744 55.0879 36.9233 54.0798 36.1535 53.1071C33.692 49.9974 35.3854 46.0723 39.8471 44.546C40.4064 44.3547 41.0578 44.1963 41.2944 44.1941L41.7246 44.19V50.0559ZM85.6905 49.352V52.0112H76.381H67.0715V49.352V46.6928H76.381H85.6905V49.352ZM64.7958 59.1215C64.0673 59.8496 64.4059 61.0759 65.4044 61.3263C65.6106 61.3781 66.8157 61.3975 68.0824 61.3695C70.2843 61.3207 70.3987 61.3022 70.6844 60.9492C71.1104 60.4225 71.0718 59.594 70.5989 59.1215C70.2231 58.7456 70.1618 58.7375 67.6973 58.7375C65.2329 58.7375 65.1716 58.7456 64.7958 59.1215ZM74.2079 59.0894C73.6126 59.6249 73.6022 60.4317 74.1835 61.0127C74.5573 61.3865 74.6302 61.3967 76.9317 61.3967C79.3081 61.3967 79.7667 61.31 80.1702 60.7846C80.4986 60.3569 80.4088 59.5434 79.9867 59.1215C79.611 58.7458 79.5486 58.7375 77.1009 58.7375C74.7267 58.7375 74.5792 58.7555 74.2079 59.0894ZM83.488 59.1947C83.2123 59.4703 83.0306 59.8168 83.0306 60.0671C83.0306 60.3174 83.2123 60.6638 83.488 60.9394L83.9453 61.3967H86.3946H88.8438L89.3012 60.9394C89.5769 60.6638 89.7585 60.3174 89.7585 60.0671C89.7585 59.8168 89.5769 59.4703 89.3012 59.1947L88.8438 58.7375H86.3946H83.9453L83.488 59.1947ZM46.1497 59.2185C48.2134 59.9071 49.8542 61.25 50.5641 62.8312C50.9427 63.6745 50.9852 63.9286 50.9229 64.9777C50.8808 65.6861 50.7387 66.3891 50.5716 66.7151C49.6017 68.6077 47.4967 70.029 44.893 70.5491L44.3845 70.6506V64.7722V58.8939H44.7806C44.9984 58.8939 45.6144 59.04 46.1497 59.2185ZM64.7958 64.4399C64.5306 64.7049 64.4116 64.9977 64.4116 65.3855C64.4116 65.7733 64.5306 66.0661 64.7958 66.3311C65.1716 66.707 65.2329 66.7151 67.6973 66.7151C70.1618 66.7151 70.2231 66.707 70.5989 66.3311C70.8641 66.0661 70.9831 65.7733 70.9831 65.3855C70.9831 64.9977 70.8641 64.7049 70.5989 64.4399C70.2231 64.064 70.1618 64.0559 67.6973 64.0559C65.2329 64.0559 65.1716 64.064 64.7958 64.4399ZM74.1835 64.4399C73.6022 65.0209 73.6126 65.8277 74.2079 66.3632C74.5787 66.6968 74.7278 66.7151 77.0724 66.7151C79.5362 66.7151 79.5475 66.7135 79.9584 66.3028C80.4066 65.8545 80.5041 65.1028 80.1702 64.668C79.7667 64.1426 79.3081 64.0559 76.9317 64.0559C74.6302 64.0559 74.5573 64.0661 74.1835 64.4399ZM83.488 64.5131C83.2123 64.7887 83.0306 65.1352 83.0306 65.3855C83.0306 65.6358 83.2123 65.9823 83.488 66.2579L83.9453 66.7151H86.3946H88.8438L89.3012 66.2579C89.5769 65.9823 89.7585 65.6358 89.7585 65.3855C89.7585 65.1352 89.5769 64.7887 89.3012 64.5131L88.8438 64.0559H86.3946H83.9453L83.488 64.5131ZM65.1157 69.5633C64.3134 70.0232 64.1613 71.0154 64.7958 71.6495C65.1716 72.0254 65.2329 72.0335 67.6973 72.0335C70.1618 72.0335 70.2231 72.0254 70.5989 71.6495C71.2321 71.0166 71.1059 69.9961 70.3459 69.6032C69.7896 69.3155 65.6036 69.2834 65.1157 69.5633ZM74.4579 69.5379C74.0298 69.7097 73.6626 70.5017 73.7643 71.0335C73.8044 71.2433 74.0142 71.5541 74.2306 71.7243C74.585 72.0029 74.8702 72.0335 77.1132 72.0335C79.5478 72.0335 79.6112 72.0251 79.9867 71.6495C80.5251 71.1114 80.497 70.415 79.9134 69.8316L79.4561 69.3743L77.1362 69.3842C75.8603 69.3896 74.6551 69.4589 74.4579 69.5379ZM83.5869 69.7263C82.9743 70.2652 82.9135 70.9318 83.4218 71.5358L83.8408 72.0335L86.3694 72.0285C89.0092 72.0234 89.2167 71.9763 89.5766 71.3008C89.8699 70.7499 89.7893 70.3196 89.3012 69.8316L88.8438 69.3743H86.4154C84.1198 69.3743 83.965 69.3936 83.5869 69.7263ZM64.8931 75.0977C64.271 75.6211 64.2303 76.4026 64.7958 76.9679C65.1713 77.3435 65.2346 77.352 67.6692 77.352C69.9507 77.352 70.1929 77.3249 70.5708 77.0277C70.8695 76.7929 70.9831 76.5592 70.9831 76.1802C70.9831 74.8745 70.5744 74.6927 67.6388 74.6927C65.431 74.6927 65.3625 74.7029 64.8931 75.0977ZM74.3881 74.9318C73.6755 75.328 73.5587 76.3582 74.1536 77C74.4662 77.3374 74.5859 77.352 77.0413 77.352C79.5522 77.352 79.6102 77.3445 79.9867 76.9679C80.4839 76.471 80.4866 75.7835 79.9936 75.2099L79.6163 74.771L77.2164 74.7323C75.3047 74.7015 74.7292 74.742 74.3881 74.9318ZM83.813 74.8952C82.9856 75.3136 82.8435 76.394 83.5315 77.0347C83.8447 77.3265 84.0766 77.352 86.4241 77.352C88.7567 77.352 89.0028 77.3254 89.2852 77.043C89.9686 76.3598 89.817 75.3206 88.9715 74.8928C88.4381 74.6231 84.3474 74.6249 83.813 74.8952Z" fill="black"/>
</svg>
