<svg width="99" height="84" viewBox="0 0 99 84" fill="none" xmlns="http://www.w3.org/2000/svg">
<circle cx="19" cy="19" r="19" fill="#F2C94C"/>
<path fill-rule="evenodd" clip-rule="evenodd" d="M52.3333 5.33329V6.66657H51H49.6667V7.99986V9.33315H51H52.3333V10.6664V11.9997H53.6667H55V10.6664V9.33315H56.3333H57.6667V7.99986V6.66657H56.3333H55V5.33329V4H53.6667H52.3333V5.33329ZM66.0443 9.7108C60.8628 14.8921 60.3333 15.4723 60.3333 15.9682C60.3333 16.3262 60.4743 16.6557 60.7425 16.9237C61.138 17.3194 61.2292 17.3329 63.4925 17.3329C64.78 17.3329 65.8333 17.3725 65.8333 17.421C65.8333 17.6154 64.7438 19.6496 63.9808 20.8796C62.9253 22.5815 61.8552 23.9643 60.4378 25.4576L59.291 26.6659H40.8878H22.4848L22.0758 27.075L21.6667 27.484V51.7408V75.9975H20.7425C19.9833 75.9975 19.745 76.0706 19.4092 76.4066C19.0235 76.7921 19 76.9228 19 78.6789C19 79.7035 19.0912 80.8506 19.2027 81.228C19.4732 82.1434 20.8538 83.5241 21.7693 83.7945C22.2988 83.951 30.8012 83.9972 59.0313 83.9972C100.28 83.9972 96.572 84.1242 97.8832 82.6659C98.8105 81.6346 99 80.9578 99 78.6789C99 76.9228 98.9765 76.7921 98.5908 76.4066C98.255 76.0706 98.0167 75.9975 97.2575 75.9975H96.3333V51.7408V27.484L95.9242 27.075L95.5152 26.6659H84.8408C78.97 26.6659 74.1667 26.6209 74.1667 26.5657C74.1667 26.5107 74.386 25.7044 74.6538 24.7741C75.235 22.7565 75.766 20.2953 75.9175 18.9161C76.1095 17.1679 75.6997 17.3329 79.8522 17.3329H83.5152L83.9242 16.9237C84.1923 16.6557 84.3333 16.3262 84.3333 15.9682C84.3333 15.4723 83.8038 14.8921 78.6223 9.7108C73.3147 4.40332 72.8705 4 72.3333 4C71.7962 4 71.352 4.40332 66.0443 9.7108ZM55 7.99986V9.33315H53.6667H52.3333V7.99986V6.66657H53.6667H55V7.99986ZM76.0833 10.9998L79.7472 14.6663H77.1328C73.6802 14.6663 73.7388 14.623 73.4122 17.4165C71.8728 30.5776 64.1137 41.7012 52.3963 47.5453C48.1755 49.6504 44.6225 50.6949 39.25 51.41C38.15 51.5565 37.0437 51.7172 36.7917 51.7672L36.3333 51.8582V44.5319V37.2055L38.125 37.2903C41.5327 37.4517 45.6625 36.8424 49.25 35.6489C57.3052 32.9693 63.863 27.292 67.647 19.7216C69.2748 16.4651 69.4432 15.7609 68.7575 15.0754C68.3763 14.6941 68.2322 14.6663 66.634 14.6663H64.9195L68.5833 10.9998C70.5985 8.98316 72.286 7.33322 72.3333 7.33322C72.3807 7.33322 74.0682 8.98316 76.0833 10.9998ZM88.3333 10.6664V11.9997H89.6667H91V10.6664V9.33315H89.6667H88.3333V10.6664ZM47 15.9996V17.3329H48.3333H49.6667V15.9996V14.6663H48.3333H47V15.9996ZM93.6667 15.9996V17.3329H92.3333H91V18.6662V19.9994H92.3333H93.6667V21.3327V22.666H95H96.3333V21.3327V19.9994H97.6667H99V18.6662V17.3329H97.6667H96.3333V15.9996V14.6663H95H93.6667V15.9996ZM96.3333 18.6662V19.9994H95H93.6667V18.6662V17.3329H95H96.3333V18.6662ZM55.8333 29.3984C55.8333 29.5203 53.4303 30.9546 52.1712 31.5844C47.4345 33.9535 41.6757 35.0401 36.6112 34.5206C34.7302 34.3276 34.3328 34.3951 33.8803 34.9844C33.7265 35.1849 33.676 37.5008 33.672 44.5478L33.6667 53.8468L34.0758 54.2557C34.3008 54.4807 34.6342 54.6649 34.8168 54.6649C35.5287 54.6649 42.6647 53.6314 44.0833 53.3228C51.562 51.6962 58.791 47.7301 64.2545 42.2563C67.3918 39.1131 69.9542 35.5499 71.9602 31.5407L73.0652 29.3324H83.3658H93.6667V52.665V75.9975H92.3333H91V54.4074V32.8172L90.5908 32.4082L90.1818 31.999H82.5908H75V33.3323V34.6656H81.6667H88.3333V55.3315V75.9975H59H29.6667V55.3315V34.6656H31H32.3333V33.3323V31.999H30.0758C27.901 31.999 27.8032 32.014 27.4092 32.4082L27 32.8172V54.4074V75.9975H25.6667H24.3333V52.665V29.3324H40.0833C48.7458 29.3324 55.8333 29.3621 55.8333 29.3984ZM37.6667 39.9987V41.332H39H40.3333V39.9987V38.6655H39H37.6667V39.9987ZM70.0758 40.4079L69.6667 40.8169V56.4073V71.9976H67H64.3333V61.7405V51.4832L63.9242 51.0742L63.5152 50.665H59H54.4848L54.0758 51.0742L53.6667 51.4832V61.7405V71.9976H51H48.3333V65.0737V58.1496L47.9242 57.7406L47.5152 57.3315H43H38.4848L38.0758 57.7406L37.6667 58.1496V65.0737V71.9976H35H32.3333V73.3309V74.6642H59H85.6667V73.3309V71.9976H83H80.3333V56.4073V40.8169L79.9242 40.4079L79.5152 39.9987H75H70.4848L70.0758 40.4079ZM77.6667 57.3315V71.9976H75H72.3333V57.3315V42.6653H75H77.6667V57.3315ZM49.0833 43.6139C46.9745 44.8849 44.298 45.871 41.5212 46.4002L40.3333 46.6265V45.3126V43.9986H39H37.6667V46.256C37.6667 48.4308 37.6817 48.5286 38.0758 48.9226C38.5673 49.4142 39.0163 49.4344 41.4472 49.0734C43.3978 48.7838 45.4708 48.2211 47.3333 47.4758C48.6068 46.9662 51.4165 45.4352 51.5882 45.1574C51.6893 44.9937 50.4018 42.9943 50.2022 43.005C50.1368 43.0083 49.6333 43.2825 49.0833 43.6139ZM61.6667 62.6646V71.9976H59H56.3333V62.6646V53.3316H59H61.6667V62.6646ZM45.6667 65.9978V71.9976H43H40.3333V65.9978V59.998H43H45.6667V65.9978ZM96.3333 79.5882C96.3333 80.3473 96.2602 80.5857 95.9242 80.9215L95.5152 81.3306H59H22.4848L22.0758 80.9215C21.7398 80.5857 21.6667 80.3473 21.6667 79.5882V78.6641H59H96.3333V79.5882Z" fill="black"/>
</svg>
