<svg width="90" height="92" viewBox="0 0 90 92" fill="none" xmlns="http://www.w3.org/2000/svg">
<circle cx="19" cy="19" r="19" fill="#F2C94C"/>
<path fill-rule="evenodd" clip-rule="evenodd" d="M16.3999 29.1484L16.3915 46.2969L13.1957 48.8381L10 51.3795V71.6897V92H40.9476C71.3643 92 71.8952 91.9948 71.8952 91.6998C71.8952 91.488 72.0445 91.3675 72.4032 91.2902C73.4568 91.0625 75.927 90.1481 77.1396 89.5369C80.8075 87.6881 84.2468 84.5855 86.4622 81.1264C87.5235 79.4695 88.7054 76.7508 89.2409 74.7344C91.0421 67.9527 89.5943 60.5495 85.3601 54.8906C84.5586 53.8194 79.8839 49.0312 79.6396 49.0312C79.5509 49.0312 77.772 50.7358 75.6868 52.8191L71.8952 56.607L71.8868 53.9519L71.8784 51.2969L68.6826 48.7556L65.4869 46.2142V29.1072V12H40.9476H16.4083L16.3999 29.1484ZM62.9861 35.2502V55.8441L55.7904 60.9142C51.8327 63.7028 48.4743 65.9803 48.3271 65.9752C48.1798 65.9702 46.6878 64.9489 45.0114 63.7056C43.3351 62.4623 41.736 61.2847 41.4579 61.0886L40.9525 60.7322L37.3511 63.3973C35.3705 64.8631 33.6834 66.0625 33.6023 66.0625C33.5211 66.0625 30.2347 63.7891 26.2992 61.0103L19.1436 55.9581L19.1039 35.3072L19.0644 14.6562H41.0251H62.9861V35.2502ZM21.6044 28.7578L21.6444 40.3594L40.9867 40.3991L60.329 40.4387V28.7975V17.1562H40.9467H21.5643L21.6044 28.7578ZM57.8281 28.7969V37.7812H41.0258H24.2234V28.7969V19.8125H41.0258H57.8281V28.7969ZM21.5991 44.2266L21.6444 45.5156L40.9867 45.5553L60.329 45.595V44.2662V42.9375H40.9414H21.5536L21.5991 44.2266ZM21.5663 49.4219V50.75H40.9476H60.329V49.4219V48.0938H40.9476H21.5663V49.4219ZM16.3761 52.9191L16.3302 53.9944L14.9935 53.0362C14.2583 52.5092 13.6395 52.0211 13.6182 51.9514C13.597 51.8817 14.1986 51.3294 14.9549 50.7241L16.3302 49.6234L16.3761 50.7336C16.4013 51.3442 16.4013 52.3277 16.3761 52.9191ZM67.0673 50.7639C67.8314 51.373 68.4566 51.8936 68.4566 51.9205C68.4566 51.9672 66.0943 53.6784 65.6823 53.9303C65.5296 54.0236 65.4869 53.5698 65.4869 51.853C65.4869 50.6448 65.5299 49.6562 65.5824 49.6562C65.6349 49.6562 66.3031 50.1547 67.0673 50.7639ZM80.7685 53.6042L81.7392 54.5836L78.1474 58.1717L74.5556 61.7598L73.5364 60.75L72.5172 59.7402L76.0733 56.1825C78.0293 54.2259 79.6673 52.625 79.7136 52.625C79.7597 52.625 80.2344 53.0656 80.7685 53.6042ZM21.5663 54.5781V55.9062H35.7897H50.0131V54.5781V53.25H35.7897H21.5663V54.5781ZM52.6702 54.5781V55.9062H53.9206H55.171V54.5781V53.25H53.9206H52.6702V54.5781ZM57.8281 54.5781V55.9062H59.0785H60.329V54.5781V53.25H59.0785H57.8281V54.5781ZM69.1643 59.3391C68.8636 59.6711 68.8625 59.8781 69.16 60.125C69.3632 60.2936 69.3944 61.4503 69.3944 68.7814V77.2434L68.3817 78.2467C66.7323 79.8809 67.0426 80.037 62.0795 75.0781C59.7832 72.7836 57.8305 70.9062 57.7405 70.9062C57.6504 70.9062 57.3383 71.1523 57.0466 71.4531C56.755 71.7539 56.4522 72 56.3738 72C56.1685 72 50.7164 67.932 50.7164 67.7791C50.7164 67.7087 54.9014 64.6986 60.0164 61.0898L69.3163 54.5283L69.3597 56.8019C69.3952 58.6652 69.36 59.1228 69.1643 59.3391ZM22.0367 61.1642C27.1079 64.7436 31.257 67.7234 31.257 67.7863C31.257 67.8988 12.8872 81.5312 12.7354 81.5312C12.6924 81.5312 12.6571 75.4844 12.6571 68.0938C12.6571 60.7031 12.6931 54.6562 12.7368 54.6562C12.7808 54.6562 16.9657 57.5848 22.0367 61.1642ZM84.0598 57.5859C85.3138 59.4331 86.2703 61.6602 86.922 64.2506C87.3905 66.1125 87.498 70.0291 87.1396 72.1722C86.4286 76.4222 84.4417 80.2556 81.3571 83.3281C78.3966 86.277 75.0413 88.0998 70.9521 88.9806C69.0532 89.3897 64.3572 89.3853 62.5953 88.973C60.7797 88.548 59.1733 87.9839 57.75 87.2714C56.4231 86.607 54.7021 85.5014 54.7021 85.3131C54.7021 85.2513 56.2461 83.6581 58.1332 81.7731L61.5644 78.3458L63.0583 79.7906C64.7132 81.3911 65.4946 81.8356 66.6592 81.8394C68.3763 81.845 68.2553 81.9375 73.9773 76.2442C76.8848 73.3512 79.3747 70.7741 79.5105 70.5169C79.6464 70.2597 79.7906 69.5863 79.8311 69.02C79.9357 67.5592 79.5899 66.8775 77.815 65.0431L76.3675 63.5475L79.7959 60.1175C81.6816 58.2309 83.2752 56.6875 83.3371 56.6875C83.3992 56.6875 83.7244 57.0917 84.0598 57.5859ZM77.272 68.7969C77.272 69.3153 77.0662 69.5639 74.5836 72.0458L71.8952 74.7333V68.7969V62.8605L74.5836 65.548C77.0662 68.0298 77.272 68.2784 77.272 68.7969ZM47.8316 68.9906L54.5464 73.9502L50.7949 77.7028C48.7316 79.7667 47.0434 81.5281 47.0434 81.6169C47.0434 81.815 51.7163 86.4366 52.6157 87.128C52.9725 87.4022 53.88 88.013 54.6323 88.4852L56.0002 89.3438H34.3287H12.6571V87.0994V84.8548L26.7506 74.4431C34.5019 68.7166 40.9054 64.0312 40.9804 64.0312C41.0553 64.0312 44.1384 66.263 47.8316 68.9906ZM56.187 80.125L52.5947 83.7186L51.5788 82.703L50.5628 81.6873L54.1551 78.0938L57.7473 74.5002L58.7633 75.5158L59.7792 76.5314L56.187 80.125Z" fill="black"/>
</svg>
