<svg width="99" height="88" viewBox="0 0 99 88" fill="none" xmlns="http://www.w3.org/2000/svg">
<circle cx="19" cy="19" r="19" fill="#F2C94C"/>
<path fill-rule="evenodd" clip-rule="evenodd" d="M25.0008 16.2263C22.1658 16.9182 19.7766 19.3956 19.1831 22.2585C18.939 23.4365 18.939 80.5558 19.1831 81.7338C19.7936 84.6792 22.3001 87.2013 25.2275 87.8155C26.4 88.0615 91.6 88.0615 92.7725 87.8155C95.6999 87.2013 98.2064 84.6792 98.8169 81.7338C99.061 80.5558 99.061 23.4365 98.8169 22.2585C98.2064 19.313 95.6999 16.791 92.7725 16.1768C91.5066 15.9111 26.0961 15.9589 25.0008 16.2263ZM93.0615 19.5562C94.1008 20.04 94.8576 20.7782 95.3514 21.79L95.7872 22.683V51.9961V81.3093L95.4582 82.0246C94.9774 83.0702 94.2437 83.8318 93.2382 84.3286L92.3506 84.7671H59H25.6494L24.7618 84.3286C23.7563 83.8318 23.0226 83.0702 22.5418 82.0246L22.2128 81.3093L22.165 52.4677C22.1311 31.9348 22.1667 23.3941 22.2889 22.821C22.6278 21.2312 23.7416 19.9839 25.3107 19.4367C26.0779 19.1694 27.7626 19.1571 59.2343 19.1903L92.3506 19.2252L93.0615 19.5562ZM27.3068 23.7669C26.482 24.2268 26.5199 23.1734 26.514 45.6777C26.5081 68.4539 26.4623 67.2699 27.3633 67.683C27.9575 67.9554 90.0425 67.9554 90.6367 67.683C91.5374 67.2701 91.4915 68.4492 91.4915 45.7091C91.4915 22.9691 91.5374 24.1482 90.6367 23.7353C90.3302 23.5948 87.139 23.5475 77.9642 23.5475C64.6502 23.5475 65.0553 23.5214 64.654 24.4075C64.2888 25.214 64.5521 26.0929 65.271 26.467C65.632 26.6548 67.5314 26.691 77.0343 26.691H88.3673V37.2217V47.7524H86.111C83.3494 47.7524 83.385 47.7295 82.3311 50.1784C81.9243 51.1237 81.5713 51.831 81.5466 51.7502C81.5219 51.6694 80.8689 49.6228 80.0956 47.2023C78.5471 42.3557 78.404 42.0941 77.3025 42.0941C76.9828 42.0941 76.5759 42.1964 76.3982 42.3217C76.2206 42.4468 75.3176 43.826 74.3914 45.3866L72.7075 48.2239H70.5487C68.5294 48.2239 68.3649 48.2467 68.0011 48.5776C67.7733 48.7847 67.2124 49.8947 66.6467 51.2577C66.1158 52.5375 65.6484 53.5512 65.6081 53.5107C65.5678 53.4701 64.4245 48.5787 63.0674 42.6408C60.8398 32.894 60.5601 31.8044 60.1897 31.4315C59.8715 31.1114 59.6355 31.0224 59.1395 31.0356C57.9482 31.067 57.9898 30.9671 55.3567 40.1342L52.9652 48.4597L49.8944 48.5383C46.2051 48.6328 46.3846 48.532 45.7358 50.8734C45.4906 51.7591 45.2614 52.5121 45.2267 52.5472C45.1921 52.5821 44.1497 49.5901 42.9103 45.8985C41.3942 41.3821 40.5445 39.0728 40.3132 38.8392C39.7907 38.3114 39.1963 38.221 38.5577 38.5725C38.0566 38.8481 37.8426 39.2533 35.8681 43.6659L33.723 48.4597L31.678 48.5036L29.6327 48.5474V37.6192V26.691H40.9505C49.3925 26.691 52.3724 26.6432 52.6779 26.5032C53.1256 26.2979 53.5327 25.6389 53.5327 25.1192C53.5327 24.5996 53.1256 23.9406 52.6779 23.7353C52.0501 23.4475 27.8254 23.4775 27.3068 23.7669ZM58.2361 23.7669C56.882 24.5221 57.4485 26.691 59 26.691C59.7915 26.691 60.5621 25.9232 60.5621 25.1345C60.5621 23.9544 59.266 23.1924 58.2361 23.7669ZM61.4127 49.4028C62.6729 54.9353 63.8031 59.6147 63.924 59.8016C64.0449 59.9883 64.3928 60.2238 64.6971 60.3248C65.1646 60.4801 65.3407 60.4641 65.8351 60.2211C66.4018 59.9423 66.4752 59.8013 68.2099 55.6505L70.0001 51.3674L71.8027 51.3586C74.4222 51.3458 74.4706 51.3192 75.7751 49.1811L76.8694 47.3879L77.2982 48.7096C77.534 49.4367 78.2376 51.6229 78.8615 53.5679C80.1398 57.5523 80.2946 57.8116 81.3951 57.8116C82.3647 57.8116 82.5838 57.4998 84.1375 53.9105L85.4423 50.8959H86.9047H88.3673V57.8116V64.7273H59H29.6327V58.2045V51.6818H32.4357C35.1206 51.6818 35.2556 51.6669 35.6368 51.3282C35.9651 51.0363 37.3799 48.108 38.8067 44.767L39.0412 44.218L41.5222 51.6041C44.215 59.6207 44.2514 59.6977 45.3508 59.6977C46.0539 59.6977 46.4464 59.4813 46.7137 58.9464C46.8312 58.7113 47.3345 56.9847 47.8323 55.1096L48.7374 51.7003L51.6708 51.6518C54.3611 51.6073 54.6408 51.5759 55.0448 51.2742C55.4434 50.9764 55.6479 50.3823 57.1953 45.0261C58.1359 41.7705 58.9539 39.1601 59.0131 39.2252C59.0725 39.2903 60.1522 43.8702 61.4127 49.4028ZM71.5748 71.4651C70.1343 71.8459 68.869 72.8914 68.2206 74.2364C67.9125 74.8755 67.8408 75.2717 67.8367 76.3582C67.8321 77.5833 67.8758 77.7766 68.3624 78.6846C68.9535 79.7876 69.4437 80.2639 70.6209 80.8794C71.3012 81.2351 71.614 81.2965 72.7464 81.2965C73.8788 81.2965 74.1916 81.2351 74.8719 80.8794C76.0491 80.2639 76.5393 79.7876 77.1304 78.6846C77.6164 77.7777 77.6609 77.5817 77.6578 76.3582C77.6548 75.223 77.592 74.9017 77.2397 74.2196C76.631 73.0409 76.1539 72.5409 75.0977 71.9745C74.0907 71.4344 72.5391 71.21 71.5748 71.4651ZM85.3212 71.4651C83.8807 71.8459 82.6154 72.8914 81.9669 74.2364C81.6589 74.8755 81.5872 75.2717 81.5831 76.3582C81.5785 77.5833 81.6222 77.7766 82.1088 78.6846C82.6999 79.7876 83.1901 80.2639 84.3672 80.8794C85.0475 81.2351 85.3604 81.2965 86.4928 81.2965C87.6251 81.2965 87.938 81.2351 88.6183 80.8794C89.7955 80.2639 90.2857 79.7876 90.8768 78.6846C91.3628 77.7777 91.4073 77.5817 91.4042 76.3582C91.4012 75.223 91.3384 74.9017 90.9861 74.2196C90.3774 73.0409 89.9003 72.5409 88.844 71.9745C87.8371 71.4344 86.2855 71.21 85.3212 71.4651ZM74.0596 75.0922C74.4698 75.5051 74.5428 75.6961 74.5428 76.3582C74.5428 77.0294 74.4717 77.2097 74.0322 77.652C73.5926 78.0942 73.4134 78.1658 72.7464 78.1658C72.0794 78.1658 71.9002 78.0942 71.4606 77.652C71.0228 77.2114 70.95 77.0281 70.95 76.3678C70.95 75.56 71.3482 74.9214 72.0435 74.6141C72.6275 74.356 73.5438 74.5732 74.0596 75.0922ZM87.806 75.0922C88.2162 75.5051 88.2892 75.6961 88.2892 76.3582C88.2892 77.0294 88.2181 77.2097 87.7785 77.652C87.339 78.0942 87.1598 78.1658 86.4928 78.1658C85.8258 78.1658 85.6466 78.0942 85.207 77.652C84.7692 77.2114 84.6964 77.0281 84.6964 76.3678C84.6964 75.56 85.0946 74.9214 85.7898 74.6141C86.3739 74.356 87.2902 74.5732 87.806 75.0922ZM27.3068 75.0059C26.2599 75.5897 26.2942 77.2521 27.3633 77.7422C28.0047 78.0362 37.1596 78.0043 37.7329 77.706C38.7725 77.165 38.7725 75.5515 37.7329 75.0105C37.1272 74.6953 27.871 74.6913 27.3068 75.0059ZM46.632 75.237C46.1927 75.6318 46.1198 75.7986 46.1348 76.3741C46.1492 76.9216 46.2459 77.1325 46.6495 77.4954L47.1467 77.9423L52.2279 77.8968L57.309 77.8514L57.686 77.4104C57.9445 77.1078 58.0627 76.7776 58.0627 76.3582C58.0627 75.9389 57.9445 75.6087 57.686 75.3061L57.309 74.8651L52.2279 74.8197L47.1467 74.7742L46.632 75.237Z" fill="black"/>
</svg>
