<svg width="80" height="91" viewBox="0 0 80 91" fill="none" xmlns="http://www.w3.org/2000/svg">
<path fill-rule="evenodd" clip-rule="evenodd" d="M39.9161 0.433146L39.4797 0.869492V8.5813V16.2931L39.9227 16.7094C40.499 17.251 41.3046 17.251 41.8809 16.7094L42.3238 16.2931V8.5813V0.869492L41.8875 0.433146C41.3103 -0.144382 40.4933 -0.144382 39.9161 0.433146ZM28.7172 7.90117L28.2808 8.33752V12.3153V16.2931L28.7238 16.7094C29.3001 17.251 30.1057 17.251 30.682 16.7094L31.125 16.2931V12.3153V8.33752L30.6886 7.90117C30.4136 7.62592 30.0492 7.46465 29.7029 7.46465C29.3566 7.46465 28.9922 7.62592 28.7172 7.90117ZM51.115 7.90117L50.6786 8.33752L50.6843 12.302C50.6903 16.5598 50.7202 16.7104 51.6248 17.0545C52.1721 17.2625 52.5621 17.1581 53.1228 16.6533C53.5149 16.3002 53.5227 16.2152 53.5227 12.3153V8.33752L53.0863 7.90117C52.8113 7.62592 52.4469 7.46465 52.1007 7.46465C51.7544 7.46465 51.39 7.62592 51.115 7.90117ZM37.3466 20.174C30.557 21.3262 24.5848 25.7595 21.54 31.9077C19.9782 35.0611 19.327 37.8851 19.3247 41.5153C19.3212 47.2742 21.2987 52.2742 25.2059 56.3841C32.5312 64.0897 44.1013 65.35 53.0783 59.4202C53.7627 58.9682 55.1336 57.7952 56.1246 56.8135C59.394 53.5758 61.3801 49.7995 62.2538 45.1604C62.5352 43.6663 62.5343 39.3489 62.2522 37.8956C60.6788 29.7908 55.2847 23.525 47.6894 20.9796C44.6653 19.9663 40.4885 19.6409 37.3466 20.174ZM44.0243 23.1221C48.0214 23.8347 51.4808 25.6902 54.3355 28.6529C56.5987 31.0017 58.1264 33.7263 58.9848 36.9445C59.389 38.4598 59.445 39.0174 59.445 41.5153C59.445 44.0315 59.3904 44.5653 58.9725 46.1343C56.5864 55.0931 48.3954 60.8555 39.1579 60.0742C29.3472 59.2444 21.7757 50.5207 22.2896 40.6392C22.735 32.0766 28.7842 25.0405 37.2577 23.2291C38.7301 22.9144 42.5224 22.8545 44.0243 23.1221ZM40.1018 27.5848C39.4772 27.9265 39.3019 28.3122 39.3019 29.3451V30.3538L38.5146 30.6546C36.2265 31.5288 34.5024 34.0633 34.5024 36.553C34.5024 38.4498 35.7444 40.7548 37.305 41.7539C38.4794 42.5059 39.0102 42.6855 40.6046 42.8706C42.1836 43.0537 42.7981 43.3162 43.4429 44.0827C45.3104 46.3027 43.7907 49.6057 40.9018 49.6057C39.1158 49.6057 37.8354 48.4511 37.5385 46.5729C37.2756 44.9095 36.0464 44.2998 35.022 45.3245C34.421 45.9257 34.378 46.3796 34.7749 47.9236C35.2639 49.8258 36.9317 51.6681 38.7242 52.2861C39.2813 52.4784 39.3019 52.5201 39.3019 53.4577C39.3019 54.6352 39.4772 54.9999 40.184 55.2927C40.6179 55.4725 40.8301 55.4725 41.264 55.2927C41.9623 55.0034 42.1461 54.6348 42.1461 53.5235C42.1461 52.818 42.2151 52.5946 42.4572 52.5148C45.934 51.3694 47.8888 48.0863 47.0484 44.8042C46.3478 42.0692 44.3745 40.3654 41.482 39.9986C39.754 39.7795 39.5257 39.7082 38.7937 39.1593C36.6053 37.5183 37.4154 33.9834 40.1463 33.2567C42.099 32.737 44.262 34.3924 44.2753 36.4169C44.2803 37.1623 45.103 38.048 45.7902 38.048C46.4358 38.048 47.3011 37.1607 47.3011 36.4987C47.3011 35.5222 46.7519 33.8632 46.1249 32.9456C45.3616 31.8287 44.5462 31.1819 43.2269 30.6468L42.235 30.2446L42.1868 29.3899C42.1276 28.3415 41.8851 27.8351 41.3183 27.5768C40.785 27.3339 40.5578 27.3353 40.1018 27.5848ZM1.1107 61.3139C0.905212 61.5195 0.697944 61.8698 0.650304 62.0924C0.459567 62.9832 -0.133263 88.5957 0.0272544 89.0178C0.341357 89.8439 0.908056 89.922 7.57175 90.058L13.7934 90.185L14.2111 89.7353C14.4861 89.439 14.6681 88.9687 14.7444 88.3571L14.8599 87.4285L16.905 86.3675C19.9399 84.7932 19.2732 84.7166 30.7766 87.9632C36.0111 89.4406 40.9645 90.7475 41.7843 90.8674C43.4027 91.1041 46.3874 91.0136 48.0122 90.6786C50.9664 90.0692 52.0941 89.5269 57.0371 86.3387C75.2312 74.6035 79.087 72.0908 79.5202 71.6874C80.1796 71.073 80.1603 70.3433 79.4563 69.2802C78.7551 68.2211 77.6951 67.3513 76.3525 66.7332C74.9759 66.0993 72.5251 65.9421 71.1485 66.3997C70.6545 66.5636 67.5466 67.9782 64.2419 69.5432C58.9103 72.0679 58.2133 72.3543 58.0556 72.0864C56.7206 69.8188 54.2633 68.1009 51.5844 67.5625C51.1351 67.4724 47.9169 67.3148 44.433 67.2126C37.1285 66.9985 36.5461 66.9028 33.626 65.437C29.9587 63.5961 27.3309 63.0115 23.4216 63.1669C20.8371 63.2697 19.2673 63.6109 16.774 64.6123L15.2553 65.2222L15.3605 63.9676C15.4954 62.3578 15.224 61.6333 14.3883 61.3717C14.0587 61.2684 11.0473 61.1308 7.63876 61.0629C1.54124 60.9414 1.4808 60.9437 1.1107 61.3139ZM12.3697 64.2328C12.3823 64.2561 12.2536 69.0759 12.0837 74.9436C11.9137 80.8113 11.7688 85.965 11.7619 86.396L11.7491 87.1798L7.35861 87.0569C4.94374 86.9895 2.95194 86.9168 2.93221 86.8956C2.90395 86.8651 3.52575 64.3068 3.56273 64.0243C3.57232 63.9496 12.3277 64.1571 12.3697 64.2328ZM28.4251 66.6023C29.4105 66.8486 31.0654 67.4846 32.5136 68.1733C35.9222 69.7944 36.3216 69.8794 41.4351 70.073C51.0458 70.437 51.3798 70.4644 52.4873 70.9772C53.8503 71.6084 55.0024 72.7137 55.6511 74.0122C56.5059 75.7235 56.6572 75.6372 53.0339 75.5051C51.2986 75.4418 47.5589 75.3387 44.7236 75.2758C39.7182 75.165 39.5558 75.1721 39.1283 75.5226C38.5267 76.0156 38.5025 77.232 39.0849 77.7036C39.6128 78.1312 40.4348 78.1847 50.2256 78.4274L58.3939 78.63L58.908 78.0546C59.3806 77.5254 59.4171 77.3874 59.3609 76.3392L59.2999 75.1993L65.4712 72.2731C68.8654 70.6635 71.9911 69.2686 72.4174 69.173C72.8437 69.0775 73.5062 69.048 73.8898 69.1075C74.7235 69.237 76.323 70.004 76.2433 70.2361C76.1808 70.4192 52.0351 86.0788 51.0025 86.6062C50.643 86.7897 49.6431 87.1553 48.7805 87.4186C47.3511 87.8548 46.9525 87.8974 44.2792 87.8996L41.3462 87.9022L31.836 85.1819C19.9175 81.7728 19.5236 81.7262 16.2568 83.3419C15.5398 83.6967 14.9241 83.9524 14.8885 83.9104C14.8021 83.8087 15.23 68.8232 15.3216 68.7363C15.6355 68.4389 17.9759 67.3033 18.9756 66.9631C22.0448 65.9189 25.2075 65.7981 28.4251 66.6023Z" fill="black"/>
</svg>
