<svg width="51" height="51" viewBox="0 0 51 51" fill="none" xmlns="http://www.w3.org/2000/svg">
<circle cx="25.5" cy="25.5" r="24.5" stroke="black" stroke-width="2"/>
<path d="M28.7869 17.5455L28.4545 29.767H25.3352L24.9943 17.5455H28.7869ZM26.8949 35.2216C26.3324 35.2216 25.8494 35.0227 25.446 34.625C25.0426 34.2216 24.8438 33.7386 24.8494 33.1761C24.8438 32.6193 25.0426 32.142 25.446 31.7443C25.8494 31.3466 26.3324 31.1477 26.8949 31.1477C27.4347 31.1477 27.9091 31.3466 28.3182 31.7443C28.7273 32.142 28.9347 32.6193 28.9403 33.1761C28.9347 33.5511 28.8352 33.8949 28.642 34.2074C28.4545 34.5142 28.2074 34.7614 27.9006 34.9489C27.5938 35.1307 27.2585 35.2216 26.8949 35.2216Z" fill="black"/>
</svg>
