<svg width="38" height="45" viewBox="0 0 38 45" fill="none" xmlns="http://www.w3.org/2000/svg">
<path fill-rule="evenodd" clip-rule="evenodd" d="M17.7937 0.201979C16.6992 0.487749 16.0948 0.805985 15.3513 1.48794C14.8446 1.9526 14.7189 2.02283 14.3934 2.02283C13.8686 2.02283 12.6835 2.33567 12.0827 2.6327C10.1551 3.58573 8.97169 5.58361 8.9801 7.87052C8.98587 9.42877 9.36552 10.9487 10.1041 12.3694L10.4706 13.0744L10.1482 13.3818C9.6648 13.8428 9.43909 14.3821 9.38103 15.2149C9.28174 16.641 9.83501 17.7086 10.9152 18.1753C11.1233 18.2651 11.3031 18.3435 11.315 18.3492C11.3269 18.3551 11.4455 18.73 11.5788 19.1822C12.0588 20.812 12.7647 22.0343 13.8207 23.064L14.4588 23.6862L14.3168 24.5058C14.1454 25.4945 13.8127 26.475 13.6137 26.5782C13.5338 26.6197 12.5109 26.9333 11.3408 27.2751C9.2043 27.8991 8.88224 28.051 8.88224 28.4347C8.88224 28.5677 8.71837 28.6102 7.86573 28.6985C4.19771 29.0785 1.35311 31.4243 0.261333 34.9696C0.0593558 35.6251 0.0500888 35.8218 0.0168042 40.1338C-0.0173314 44.5593 -0.0152511 44.6191 0.177081 44.8083L0.371966 45H19H37.628L37.8229 44.8083C38.0153 44.6191 38.0173 44.5593 37.9832 40.1338C37.9499 35.8218 37.9406 35.6251 37.7387 34.9696C36.6231 31.347 33.5901 28.9202 29.8506 28.6579C29.0797 28.6038 29.0232 28.586 29.0232 28.3957C29.0232 28.2834 28.9487 28.1262 28.8577 28.0463C28.7239 27.9289 27.4572 27.526 24.3712 26.619C24.1811 26.5631 23.8677 25.7815 23.676 24.8849C23.443 23.7954 23.4534 23.7595 24.2404 22.9491C25.2972 21.861 26.1535 20.26 26.4801 18.7619C26.5652 18.3719 26.6095 18.3183 26.9242 18.2249C27.4273 18.0757 27.9513 17.6121 28.2405 17.0601C28.4475 16.6651 28.4986 16.4237 28.5316 15.6839C28.5571 15.111 28.5287 14.657 28.4528 14.4281C28.2725 13.8839 27.8157 13.2859 27.4489 13.1139C27.2291 13.0108 27.1366 12.9126 27.1688 12.817C27.1954 12.7384 27.3646 12.255 27.5449 11.7429C28.5739 8.81946 28.4525 5.94445 27.215 3.9209C25.8734 1.72739 22.8205 0.117513 19.8037 0.0128605C18.8183 -0.0213724 18.554 0.00346518 17.7937 0.201979ZM21.2243 1.47111C24.2027 2.23856 26.1072 3.82025 26.7102 6.02706C27.0384 7.228 26.9771 8.93425 26.5489 10.5154L26.3526 11.2404L25.9823 10.4918C25.5475 9.61277 24.718 8.68913 24.0347 8.32336C23.2807 7.91964 22.6045 7.78847 21.6082 7.85284C19.559 7.98531 17.5395 7.37703 15.8321 6.11311C15.4161 5.8052 14.9847 5.52994 14.8733 5.50138C14.5843 5.42752 14.1777 5.66306 13.4706 6.31376C12.1923 7.49014 11.4261 8.9149 11.1176 10.6896L10.999 11.3718L10.7914 10.7658C10.3133 9.37063 10.1639 7.60652 10.438 6.5932C10.9593 4.6663 12.3027 3.5649 14.4612 3.29475L15.4541 3.17038L16.0357 2.60796C16.9904 1.68469 18.0317 1.2952 19.5732 1.28478C20.2009 1.2805 20.7057 1.33752 21.2243 1.47111ZM15.2394 7.32633C16.8439 8.52773 19.5241 9.29416 21.6167 9.14979C22.3685 9.09788 22.5568 9.11667 23.0295 9.29063C23.7136 9.54244 24.3624 10.1625 24.7672 10.9514C25.0935 11.5874 25.43 12.7559 25.43 13.2533C25.43 13.5808 25.57 13.9256 25.7515 14.0448C25.8087 14.0824 26.0179 14.1137 26.2163 14.1146C26.955 14.1175 27.2266 14.4929 27.2266 15.5113C27.2266 16.5175 26.9469 16.9174 26.0874 17.1405C25.8144 17.2113 25.5528 17.3068 25.5061 17.3528C25.4594 17.3987 25.3425 17.809 25.2464 18.2646C24.5086 21.7616 22.2038 23.782 18.9442 23.7889C17.2719 23.7924 15.8513 23.2211 14.6893 22.0778C13.6037 21.0097 12.9255 19.6968 12.6567 18.1432C12.5384 17.4588 12.369 17.1869 12.0589 17.1837C11.95 17.1826 11.6785 17.1003 11.4557 17.0008C10.9431 16.7719 10.684 16.2649 10.6809 15.4851C10.6772 14.5357 10.9929 14.116 11.7105 14.116C12.2196 14.116 12.3175 13.8715 12.297 12.651C12.2672 10.8704 12.6372 9.48523 13.4735 8.24773C13.818 7.73796 14.5693 6.95311 14.7127 6.95311C14.7283 6.95311 14.9653 7.12102 15.2394 7.32633ZM16.9318 24.8126C18.3743 25.2096 20.0162 25.1568 21.482 24.6663C22.3026 24.3918 22.3092 24.3916 22.311 24.651C22.3134 25.0044 22.6785 26.312 22.919 26.8287L23.1466 27.3179L22.8288 29.3776C22.6539 30.5106 22.4842 31.4637 22.4517 31.4957C22.2027 31.7407 15.7116 31.7495 15.4633 31.5052C15.4361 31.4783 15.2699 30.5373 15.0942 29.4141C14.7976 27.5186 14.785 27.3486 14.9174 27.0463C15.1604 26.492 15.4912 25.4438 15.5999 24.8845L15.7035 24.3505L15.9691 24.4857C16.1152 24.56 16.5485 24.7071 16.9318 24.8126ZM13.6833 28.744C13.8114 29.6577 14.0388 31.1488 14.9275 36.8997C15.2944 39.2749 15.5843 41.2281 15.5717 41.2403C15.5393 41.2714 11.1103 34.212 11.0772 34.0765C11.0624 34.0154 11.307 33.6792 11.6209 33.3294C11.9349 32.9795 12.1918 32.6179 12.1918 32.5259C12.1918 32.4338 11.8012 31.5825 11.3236 30.634C10.8462 29.6854 10.4739 28.8964 10.4963 28.8806C10.5537 28.8399 13.3519 28.001 13.4748 27.9876C13.5316 27.9814 13.6227 28.312 13.6833 28.744ZM26.0207 28.4531C26.7877 28.677 27.4152 28.8921 27.4154 28.9311C27.4156 28.97 27.0296 29.7606 26.5577 30.688C25.9676 31.8476 25.7158 32.4377 25.7516 32.5776C25.78 32.6894 26.0557 33.0619 26.3639 33.4055L26.9244 34.0301L24.6448 37.6509C23.3909 39.6423 22.3568 41.2628 22.3467 41.2521C22.3248 41.2285 24.2731 28.4874 24.3459 28.1793C24.3739 28.0605 24.4485 27.982 24.5115 28.0047C24.5746 28.0274 25.2537 28.2291 26.0207 28.4531ZM10.0897 31.0938C10.4137 31.7339 10.6788 32.303 10.6788 32.3587C10.6788 32.4142 10.42 32.7376 10.1037 33.0772C9.61894 33.5977 9.53431 33.7387 9.56466 33.9751C9.58547 34.137 10.8489 36.2385 12.551 38.9425C14.1737 41.5203 15.5013 43.6447 15.5013 43.6635C15.5013 43.6823 12.31 43.6977 8.40944 43.6977H1.31755V39.9451C1.31755 36.4828 1.3324 36.1355 1.50884 35.4566C1.99885 33.5715 3.19492 31.9731 4.8252 31.0242C5.152 30.8341 5.43312 30.692 5.44985 30.7085C5.46669 30.7251 5.38792 30.9439 5.27492 31.1947C4.92959 31.9615 4.72298 32.9029 4.65906 33.9999C4.62559 34.5755 4.5646 35.0464 4.52346 35.0464C4.48243 35.0464 4.191 35.2812 3.87593 35.5681C3.47944 35.9292 3.21033 36.28 3.00173 36.7076C2.42994 37.8794 2.5505 39.4954 3.29553 40.6484C3.64719 41.1927 3.87205 41.256 4.53812 40.9983C5.20466 40.7404 5.38357 40.5734 5.38357 40.2093C5.38357 39.7781 5.10774 39.5666 4.62786 39.6299C4.18192 39.6888 4.13568 39.634 3.97285 38.8551C3.75357 37.8063 4.23724 36.7462 5.19029 36.1865C6.42532 35.4614 8.01561 36.0245 8.65189 37.4123C8.95325 38.0696 8.98322 38.4285 8.7404 38.473C8.42769 38.5302 8.22033 38.7773 8.22033 39.093C8.22033 39.4908 8.46637 39.6882 9.08128 39.7839C9.61516 39.8669 9.90006 39.8087 10.0959 39.5766C10.2475 39.397 10.2556 38.0864 10.1087 37.5426C9.67369 35.9339 8.21494 34.7023 6.62333 34.6001L5.92473 34.5552L5.98326 33.8008C6.09645 32.3408 6.54134 31.2213 7.32741 30.4185L7.8055 29.9301H8.65293H9.50037L10.0897 31.0938ZM30.1691 30.3254C30.779 31.14 31.3122 32.7369 31.441 34.1349L31.5037 34.8152L31.1555 34.9391C30.3876 35.2122 29.7562 36.056 29.6324 36.9744C29.4404 38.3978 30.7058 39.7906 32.1909 39.7906C33.6823 39.7906 34.9328 38.4083 34.7493 36.9628C34.6366 36.0753 34.007 35.2587 33.1703 34.9148L32.8361 34.7774L32.7221 33.8526C32.6004 32.8644 32.3001 31.6782 31.9707 30.8836C31.8387 30.5653 31.8063 30.3952 31.8779 30.3952C32.1492 30.3952 33.4262 31.1145 34.007 31.5943C35.2486 32.6201 36.1097 33.9576 36.4939 35.4566C36.6668 36.1314 36.6824 36.5041 36.6824 39.9451V43.6977H29.5355H22.3887L22.605 43.3488C22.724 43.157 24.0679 41.0146 25.5913 38.5878C27.4115 35.6886 28.3613 34.0906 28.3613 33.9272C28.3613 33.7557 28.1855 33.4828 27.7939 33.0464C27.4819 32.6987 27.2266 32.3789 27.2266 32.3359C27.2266 32.2928 27.4917 31.7339 27.8158 31.0938L28.4051 29.9301H29.139H29.873L30.1691 30.3254ZM22.2574 33.1394C22.2331 33.2417 21.8733 35.565 21.4576 38.3023C21.042 41.0395 20.6798 43.3732 20.6529 43.4884C20.6044 43.6956 20.5875 43.6977 18.9509 43.6977C18.0417 43.6977 17.2968 43.6871 17.2954 43.6744C17.294 43.6617 16.9213 41.2441 16.4672 38.3023L15.6416 32.9534H18.9714C22.2529 32.9534 22.3007 32.9561 22.2574 33.1394ZM32.8674 36.2101C32.9944 36.2919 33.1811 36.4927 33.2825 36.6561C33.7752 37.4509 33.1572 38.4877 32.1909 38.4877C31.1907 38.4877 30.5844 37.4203 31.129 36.6183C31.5421 36.0099 32.2859 35.8353 32.8674 36.2101Z" fill="black"/>
</svg>
