<svg width="32" height="32" viewBox="0 0 32 32" fill="none" xmlns="http://www.w3.org/2000/svg">
<circle cx="16" cy="16" r="16" fill="#D9D9D9"/>
<path d="M14.9773 17.7273V17.6591C14.9848 16.9356 15.0606 16.3598 15.2045 15.9318C15.3485 15.5038 15.553 15.1572 15.8182 14.892C16.0833 14.6269 16.4015 14.3826 16.7727 14.1591C16.9962 14.0227 17.197 13.8617 17.375 13.6761C17.553 13.4867 17.6932 13.2689 17.7955 13.0227C17.9015 12.7765 17.9545 12.5038 17.9545 12.2045C17.9545 11.8333 17.8674 11.5114 17.6932 11.2386C17.5189 10.9659 17.286 10.7557 16.9943 10.608C16.7027 10.4602 16.3788 10.3864 16.0227 10.3864C15.7121 10.3864 15.4129 10.4508 15.125 10.5795C14.8371 10.7083 14.5966 10.911 14.4034 11.1875C14.2102 11.464 14.0985 11.8258 14.0682 12.2727H12.6364C12.6667 11.6288 12.8333 11.0777 13.1364 10.6193C13.4432 10.161 13.8466 9.81061 14.3466 9.56818C14.8504 9.32576 15.4091 9.20455 16.0227 9.20455C16.6894 9.20455 17.2689 9.33712 17.7614 9.60227C18.2576 9.86742 18.6402 10.2311 18.9091 10.6932C19.1818 11.1553 19.3182 11.6818 19.3182 12.2727C19.3182 12.6894 19.2538 13.0663 19.125 13.4034C19 13.7405 18.8182 14.0417 18.5795 14.3068C18.3447 14.572 18.0606 14.8068 17.7273 15.0114C17.3939 15.2197 17.1269 15.4394 16.9261 15.6705C16.7254 15.8977 16.5795 16.1686 16.4886 16.483C16.3977 16.7973 16.3485 17.1894 16.3409 17.6591V17.7273H14.9773ZM15.7045 21.0909C15.4242 21.0909 15.1837 20.9905 14.983 20.7898C14.7822 20.589 14.6818 20.3485 14.6818 20.0682C14.6818 19.7879 14.7822 19.5473 14.983 19.3466C15.1837 19.1458 15.4242 19.0455 15.7045 19.0455C15.9848 19.0455 16.2254 19.1458 16.4261 19.3466C16.6269 19.5473 16.7273 19.7879 16.7273 20.0682C16.7273 20.2538 16.6799 20.4242 16.5852 20.5795C16.4943 20.7348 16.3712 20.8598 16.2159 20.9545C16.0644 21.0455 15.8939 21.0909 15.7045 21.0909Z" fill="black"/>
</svg>
