<svg width="77" height="80" viewBox="0 0 77 80" fill="none" xmlns="http://www.w3.org/2000/svg">
<path fill-rule="evenodd" clip-rule="evenodd" d="M47.583 0.148332C47.3947 0.224434 47.1396 0.483681 47.0165 0.724332C46.845 1.05968 43.8598 9.42638 40.7969 18.1562C40.6477 18.5813 40.6309 18.586 39.268 18.586H37.8901L37.8413 15.8122C37.8004 13.4876 37.7456 12.9438 37.5024 12.4534C37.1419 11.7266 36.2691 10.8633 35.5395 10.5118C34.2089 9.87096 34.4844 9.81267 17.0777 14.4222C6.6466 17.1847 0.738352 18.8198 0.47489 19.0168L0.0659779 19.3229L0.0238863 48.0592C-0.0235057 80.3207 -0.124993 77.5498 1.15225 78.8301C2.39816 80.079 0.933377 79.999 22.5368 79.999C41.3667 79.999 41.7729 79.9927 42.5884 79.6868C43.5293 79.3339 44.2216 78.6848 44.7552 77.655C45.1158 76.959 45.1203 76.8858 45.1975 70.4489L45.2754 63.946L50.4979 65.8019C53.3703 66.8227 55.9528 67.6686 56.2369 67.6815C56.5985 67.6981 56.8634 67.5921 57.1209 67.3279C57.5676 66.8697 77 11.8318 77 11.0252C77 10.6961 76.8753 10.3991 76.6492 10.1899C76.3102 9.87612 48.6264 -0.0212182 48.1475 3.41767e-05C48.0254 0.00550353 47.7715 0.0722296 47.583 0.148332ZM61.57 7.49226C68.3715 9.8994 73.9571 11.8895 73.982 11.9146C74.0299 11.9624 55.5349 64.5323 55.4349 64.6323C55.4033 64.6642 53.1043 63.8874 50.3264 62.9063L45.2754 61.1224L45.2344 55.803L45.1934 50.4835L45.7801 50.4342C46.3472 50.3863 46.4337 50.4534 48.3933 52.4599C50.1577 54.2666 50.4839 54.5346 50.9138 54.5313C51.6249 54.5257 51.8827 54.391 52.1413 53.8897C52.5484 53.1006 53.6132 49.9299 53.6144 49.5025C53.6152 49.2742 53.2917 48.3825 52.8956 47.5209L52.1755 45.9543L53.0045 43.5976C53.4605 42.3014 53.883 41.1608 53.9433 41.0628C54.013 40.9498 54.8132 41.551 56.1298 42.7055C57.9561 44.3069 58.2741 44.5263 58.768 44.5263C59.5986 44.5263 59.8973 44.0939 60.7375 41.676C61.3705 39.8543 61.4571 39.4681 61.3167 39.0951C61.226 38.8538 60.2299 37.1744 59.1036 35.3631L57.0556 32.0696L57.8337 29.8986C58.2618 28.7046 58.6186 27.5166 58.6269 27.2588C58.6453 26.682 57.0756 23.3035 56.5697 22.8313C56.3703 22.645 56.0259 22.4927 55.8042 22.4927C55.3595 22.4927 52.0109 24.0408 51.503 24.481C51.327 24.6337 50.9134 25.5321 50.584 26.4775C49.4637 29.6927 49.7467 29.3606 47.4474 30.158C46.3452 30.5403 45.3936 30.8745 45.333 30.9009C45.2722 30.9272 45.1992 28.8879 45.171 26.3692C45.1131 21.22 45.0575 20.935 43.897 19.8377C43.5834 19.5412 43.3268 19.2292 43.3268 19.1445C43.3268 19.0292 48.0002 5.64737 48.8019 3.46713C48.873 3.27367 48.9924 3.11553 49.0673 3.11553C49.1421 3.11553 54.7683 5.08512 61.57 7.49226ZM48.1314 12.6389L47.7233 13.8873L48.526 14.1852C50.108 14.7724 49.951 14.8313 50.4039 13.4814C50.6268 12.8164 50.7568 12.225 50.6926 12.1668C50.6284 12.1087 50.19 11.9368 49.7184 11.7848C49.2469 11.6329 48.7887 11.4819 48.7004 11.4496C48.612 11.4171 48.3561 11.9523 48.1314 12.6389ZM34.7645 13.2609L35.2202 13.7176V16.1518V18.586L23.645 18.5736C17.2786 18.5669 12.155 18.5268 12.2591 18.4844C12.8448 18.2463 33.5015 12.8297 33.8682 12.818C34.1598 12.8088 34.4629 12.9585 34.7645 13.2609ZM52.8329 13.8647C52.2151 15.5202 52.2065 15.4886 53.3837 15.909C53.9594 16.1145 54.4757 16.2188 54.5445 16.1434C54.6997 15.9734 55.3824 13.8978 55.3077 13.8231C55.2775 13.793 54.7825 13.5909 54.2079 13.3742L53.1632 12.9801L52.8329 13.8647ZM57.373 15.5324C56.7574 17.1818 56.7381 17.1036 57.8513 17.4749C58.3941 17.656 58.8992 17.8218 58.9737 17.8434C59.0483 17.8651 59.3028 17.3329 59.5395 16.6606L59.9699 15.4386L59.5599 15.2775C58.7262 14.9496 57.9381 14.6793 57.8165 14.6793C57.7478 14.6793 57.5482 15.0632 57.373 15.5324ZM61.8274 17.4368C61.5943 18.0995 61.4578 18.6902 61.524 18.7496C61.6564 18.8684 63.6334 19.5445 63.6698 19.4834C63.8913 19.111 64.4991 17.0908 64.4131 17.0128C64.3479 16.9538 63.9087 16.7811 63.4372 16.629C62.9656 16.4772 62.5059 16.3256 62.4154 16.2924C62.325 16.2592 62.0605 16.7742 61.8274 17.4368ZM66.7233 18.172C66.6553 18.3567 66.4495 18.914 66.2662 19.4104L65.9327 20.3132L66.3608 20.4812C67.1944 20.8084 67.9988 21.0863 68.1128 21.0863C68.242 21.0863 69.1205 18.7613 69.0268 18.6674C68.9939 18.6346 68.49 18.4341 67.907 18.2219L66.8472 17.8362L66.7233 18.172ZM42.0914 21.802L42.4693 22.2053L42.5155 48.9534C42.5481 67.8351 42.5119 75.8737 42.3925 76.2867C42.0663 77.4157 43.4471 77.3424 22.5148 77.3424C2.5037 77.3424 3.01395 77.3607 2.73505 76.6322C2.68189 76.4931 2.63824 64.0086 2.63824 48.889V21.3988H22.1759H41.7134L42.0914 21.802ZM55.5218 26.46L55.9338 27.3021L52.6701 36.5559C50.8752 41.6455 49.4066 45.9357 49.4066 46.0895C49.4066 46.2432 49.7443 47.0972 50.157 47.987C50.8812 49.5494 50.8998 49.6242 50.692 50.1629L50.477 50.7208L48.9408 49.1626L47.4048 47.6045L46.3012 47.7073L45.1975 47.8101V46.8952V45.9802L45.8164 45.7004C46.1569 45.5466 46.5419 45.3027 46.6719 45.1586C46.8021 45.0145 48.3679 40.7523 50.1515 35.6871L53.3944 26.4775L54.1677 26.0513C54.5929 25.8171 54.9789 25.6236 55.0254 25.6216C55.0719 25.6197 55.2953 25.997 55.5218 26.46ZM19.1805 26.9438C12.4562 28.4707 7.98527 34.6732 8.73793 41.4308C9.38505 47.2408 13.5666 51.8328 19.3277 53.0599C20.7573 53.3643 23.9202 53.2728 25.3209 52.8863C26.782 52.4831 28.9559 51.3777 30.1638 50.424C32.2615 48.7676 33.8795 46.3528 34.6917 43.6669C35.0707 42.4134 35.117 42.014 35.117 39.9946C35.117 37.9751 35.0707 37.5757 34.6917 36.3223C33.8822 33.6448 32.3619 31.3608 30.2581 29.6613C29.0122 28.6547 26.7961 27.5048 25.3209 27.0993C24.0059 26.7377 20.4809 26.6484 19.1805 26.9438ZM23.484 29.5637C23.6411 29.7686 24.4716 33.4668 24.4665 33.9392C24.4638 34.1885 24.2359 34.2127 21.8912 34.2127C19.936 34.2127 19.3196 34.1658 19.3215 34.0174C19.3257 33.7051 20.2297 29.6909 20.334 29.5219C20.4779 29.2886 23.3016 29.3262 23.484 29.5637ZM17.2923 30.5993C17.2923 30.6748 17.1896 31.2197 17.0641 31.8104C16.9385 32.4011 16.7581 33.2888 16.6633 33.783C16.5348 34.4519 16.4239 34.6813 16.229 34.6807C16.0851 34.6804 15.2094 34.829 14.2831 35.0111C13.3568 35.1931 12.5614 35.3044 12.5156 35.2584C12.1798 34.922 14.69 32.0431 16.1991 31.0342C17.078 30.4465 17.2923 30.3612 17.2923 30.5993ZM27.6805 31.0777C28.8091 31.8373 30.1831 33.2312 30.9216 34.3654C31.2281 34.8362 31.4788 35.2634 31.4788 35.3148C31.4788 35.3663 30.5492 35.2239 29.4132 34.9984L27.3475 34.5884L27.0124 32.9551C26.8281 32.0567 26.637 31.1283 26.5876 30.892C26.5383 30.6557 26.5583 30.4623 26.6321 30.4623C26.706 30.4623 27.1778 30.7392 27.6805 31.0777ZM47.8723 34.1489L47.4196 35.3847L46.3084 35.4628L45.197 35.541L45.1973 34.6573L45.1975 33.7734L46.4836 33.3115C48.2396 32.6807 48.2318 32.683 48.2812 32.805C48.3052 32.8646 48.1213 33.4693 47.8723 34.1489ZM57.3236 37.5456C58.0281 38.691 58.6044 39.6777 58.6044 39.7383C58.6044 39.7988 58.5011 40.0965 58.3746 40.3996L58.1449 40.9508L56.5819 39.5766C55.7222 38.8209 55.0182 38.1311 55.0173 38.0437C55.015 37.7901 55.8621 35.4628 55.9567 35.4628C56.0039 35.4628 56.619 36.4 57.3236 37.5456ZM24.869 37.0674C25.0001 37.1988 25.0115 42.7789 24.8808 42.9099C24.7215 43.0696 21.3096 43.1679 20.0454 43.0491L18.8513 42.9369V39.9907V37.0444L19.4359 36.9741C20.3116 36.8688 24.7469 36.945 24.869 37.0674ZM16.2011 39.9847V42.6314L15.6944 42.5486C15.4158 42.5031 14.3459 42.277 13.317 42.0462L11.4463 41.6265L11.364 40.8105C11.3188 40.3618 11.3188 39.6267 11.364 39.1773L11.4463 38.3599L12.3817 38.1498C14.0401 37.7775 15.964 37.3616 16.0842 37.3496C16.1484 37.3434 16.2011 38.5291 16.2011 39.9847ZM30.3346 37.9042L32.3864 38.3416L32.4894 39.1681C32.5462 39.6227 32.5462 40.3665 32.4894 40.8211L32.3864 41.6476L30.3346 42.085C29.2063 42.3256 28.1412 42.555 27.968 42.5947C27.6614 42.665 27.6529 42.5956 27.6529 39.9946C27.6529 37.3935 27.6614 37.3241 27.968 37.3945C28.1412 37.4341 29.2063 37.6635 30.3346 37.9042ZM46.3781 38.3928C46.3298 38.5433 46.0479 39.3344 45.7517 40.1508L45.2131 41.6354L45.2053 39.9669C45.1969 38.1678 45.1892 38.1834 46.1043 38.1375C46.3815 38.1236 46.4453 38.1831 46.3781 38.3928ZM14.6131 45.0184C15.6151 45.2042 16.451 45.3674 16.4706 45.3808C16.5559 45.4392 17.2948 49.4201 17.232 49.4831C17.0635 49.652 15.2493 48.2952 14.2524 47.2543C13.1 46.0513 12.0245 44.3855 12.5241 44.5776C12.671 44.6342 13.611 44.8325 14.6131 45.0184ZM31.0675 45.4125C30.4943 46.3983 28.3302 48.5805 27.3795 49.1315C26.9683 49.3698 26.6072 49.5388 26.5771 49.5067C26.5049 49.4303 27.2563 45.5818 27.365 45.4711C27.4578 45.3767 31.3695 44.5641 31.4535 44.622C31.4825 44.6418 31.3088 44.9976 31.0675 45.4125ZM24.4665 46.0499C24.4716 46.5223 23.6411 50.2205 23.484 50.4254C23.3174 50.6426 20.7799 50.7025 20.4572 50.4968C20.3028 50.3985 19.319 46.4542 19.319 45.9338C19.319 45.8346 20.2677 45.7765 21.8912 45.7765C24.2359 45.7765 24.4638 45.8007 24.4665 46.0499ZM15.2657 59.9968V61.4032H16.5908H17.9159V59.9968V58.5904H16.5908H15.2657V59.9968ZM20.6319 58.8004C20.5876 58.9159 20.5724 59.5311 20.5978 60.1677L20.6441 61.325L21.9302 61.3704L23.2163 61.4158V60.003V58.5904H21.9643C21.06 58.5904 20.6899 58.6487 20.6319 58.8004ZM25.9323 58.8004C25.8881 58.9159 25.8728 59.5311 25.8982 60.1677L25.9445 61.325L27.2306 61.3704L28.5168 61.4158V60.003V58.5904H27.2648C26.3604 58.5904 25.9903 58.6487 25.9323 58.8004ZM11.2452 65.3489L11.2904 66.6381L21.9302 66.6783L32.57 66.7185V65.3891V64.0597H21.885H11.1998L11.2452 65.3489ZM13.8954 70.662L13.9406 71.9512L21.9302 71.9917L29.9198 72.0322V70.7025V69.3728H21.885H13.85L13.8954 70.662Z" fill="black"/>
</svg>
