<svg width="87" height="80" viewBox="0 0 87 80" fill="none" xmlns="http://www.w3.org/2000/svg">
<path fill-rule="evenodd" clip-rule="evenodd" d="M5.11621 0.26034C3.01483 0.826206 1.55074 2.04286 0.628315 3.98961L0.0713856 5.16539L0.0212023 13.692C-0.0270509 21.9187 -0.0168739 22.2335 0.312652 22.6405L0.654109 23.0625L6.46029 23.1132L12.2663 23.1639V26.8181C12.2663 30.2493 12.2884 30.5005 12.63 30.9346C13.0857 31.514 14.0248 31.5686 14.5473 31.0461C14.8914 30.702 14.8983 30.4612 14.8983 18.7821C14.8983 7.33164 14.8846 6.82473 14.5444 5.72353C14.3498 5.09327 13.9208 4.17701 13.5912 3.68712L12.9918 2.79665H36.8454H60.6988L61.4875 3.1674C62.301 3.54973 63.0348 4.28351 63.388 5.06783C63.5312 5.38559 63.6158 9.00151 63.6779 17.4734C63.7619 28.9182 63.78 29.446 64.0999 29.7996C64.6045 30.357 65.6506 30.3053 66.1274 29.6992C66.4959 29.2307 66.4966 29.2011 66.4473 17.1975L66.3976 5.16539L65.8407 3.98961C64.8911 1.98513 63.2036 0.636882 61.0812 0.186471C60.4142 0.0450481 52.4998 -0.00741521 33.0943 0.000831516C10.3572 0.0104819 5.8902 0.051891 5.11621 0.26034ZM8.64414 3.07844C9.76975 3.462 11.2358 4.83411 11.7606 5.99532C12.1742 6.91018 12.1791 6.99107 12.2303 13.6314L12.2819 20.3429H7.44886H2.61565V13.44C2.61565 5.979 2.66846 5.46858 3.56106 4.29825C4.57385 2.97053 6.77612 2.44204 8.64414 3.07844ZM20.8275 6.82368C19.9868 7.08863 19.3195 7.69502 19.0275 8.45934C18.7838 9.09767 18.7503 9.93954 18.7947 14.3226C18.8438 19.1978 18.8636 19.464 19.2133 19.9356C19.4153 20.2078 19.8415 20.6082 20.1605 20.8254C20.7276 21.2114 20.8494 21.2202 25.6017 21.2202C30.354 21.2202 30.4758 21.2114 31.0429 20.8254C31.3619 20.6082 31.7881 20.2078 31.9901 19.9356C32.34 19.4636 32.3596 19.199 32.4086 14.2601C32.4579 9.28945 32.4451 9.04889 32.0891 8.31353C31.8687 7.8582 31.4563 7.38446 31.0726 7.146C30.4476 6.75735 30.2823 6.74349 25.8649 6.70928C23.3557 6.6898 21.0889 6.74139 20.8275 6.82368ZM29.6374 14.0262V18.5882H27.2079C25.8716 18.5882 24.0555 18.537 23.1722 18.4742L21.566 18.3603V13.9122V9.46421H25.6017H29.6374V14.0262ZM35.0813 12.9691C34.2941 13.7562 34.5808 14.9862 35.6191 15.2767C36.309 15.4696 38.3155 15.4448 38.9147 15.236C39.9219 14.8849 40.1665 13.6267 39.3521 12.9863C38.9554 12.6741 38.6443 12.6225 37.1588 12.6225C35.6693 12.6225 35.3796 12.6708 35.0813 12.9691ZM42.8772 13.0533C42.0533 13.8771 42.5098 15.1206 43.7179 15.3438C44.032 15.4017 47.3465 15.425 51.0834 15.3957C57.8103 15.3427 57.8821 15.3383 58.263 14.9572C58.8157 14.4042 58.7747 13.5534 58.1702 13.0335L57.6924 12.6225H50.5002H43.3078L42.8772 13.0533ZM20.3318 24.4224C19.8194 24.681 19.4127 25.0593 19.153 25.519C18.7622 26.2103 18.757 26.3003 18.8012 31.5161C18.844 36.5531 18.864 36.8349 19.2081 37.2955C19.4071 37.5618 19.7878 37.9424 20.0544 38.1414C20.5174 38.4871 20.7624 38.5032 25.5707 38.5032C30.6016 38.5032 30.6027 38.5032 31.1933 38.0819C32.357 37.252 32.4366 36.8188 32.441 31.3026C32.4447 26.5458 32.4319 26.357 32.0501 25.6001C31.7616 25.0281 31.4444 24.7108 30.8724 24.4224C30.1214 24.0437 29.9068 24.0276 25.6017 24.0276C21.2965 24.0276 21.0821 24.0437 20.3318 24.4224ZM78.0661 25.8108C77.585 25.9459 75.1334 28.2985 66.7452 36.6737L56.0386 47.364H45.6582H35.2778L34.9004 47.8438C34.4473 48.4198 34.5326 49.2204 35.0969 49.6889C35.4385 49.9725 36.1514 49.996 44.431 49.996H53.3952L51.2914 52.1454L49.1875 54.2948L47.4413 59.4271L45.6951 64.5593L40.8685 64.5769C38.2139 64.5865 35.8517 64.6476 35.6191 64.7125C34.5808 65.0031 34.2941 66.2331 35.0813 67.0202C35.4122 67.3511 35.6863 67.3667 41.1331 67.3667H46.8386L52.4796 65.4366C55.5824 64.3751 58.1614 63.5066 58.2107 63.5066C58.2602 63.5066 59.5106 62.3057 60.9892 60.8381L63.6779 58.1697V67.6812V77.1926H39.2881H14.8983V58.7759V40.3592L14.5142 40.0015C13.9557 39.481 13.0834 39.5295 12.63 40.106C12.267 40.5673 12.2663 40.6089 12.2663 59.8534V79.1387L12.6971 79.5692L13.1276 80H39.184C57.9066 80 65.3609 79.9451 65.6682 79.8052C65.9033 79.698 66.1834 79.418 66.2906 79.1829C66.4271 78.8832 66.4853 75.255 66.4853 67.0509V55.3463L76.4171 45.4334C83.1167 38.7462 86.4558 35.2919 86.678 34.8185C87.1114 33.8947 87.1068 32.575 86.6671 31.6668C86.2113 30.7251 81.6807 26.2324 80.8274 25.8761C80.1094 25.576 78.9961 25.5497 78.0661 25.8108ZM29.6374 31.3092V35.7835H25.6017H21.566V31.3092V26.835H25.6017H29.6374V31.3092ZM82.0508 30.5707C83.3815 31.9014 84.3829 33.0437 84.3829 33.2311C84.3829 33.4139 83.5285 34.4221 82.4561 35.5049L80.5295 37.4504L77.8522 34.7759L75.175 32.1015L76.9275 30.3303C78.5264 28.7147 79.0728 28.2813 79.5504 28.2497C79.643 28.2437 80.7681 29.2881 82.0508 30.5707ZM35.0969 30.3003C34.5326 30.7688 34.4473 31.5695 34.9004 32.1455L35.2778 32.6252H46.4806C52.6421 32.6252 57.817 32.574 57.9803 32.5112C58.7615 32.2115 58.8143 30.5709 58.0561 30.1651C57.8564 30.0582 53.528 29.9933 46.601 29.9933C36.2548 29.9933 35.4405 30.015 35.0969 30.3003ZM68.1535 49.8189L57.7126 60.2596L55.037 57.5842L52.3615 54.9087L62.7998 44.4696L73.2382 34.0305L75.9163 36.7044L78.5944 39.3782L68.1535 49.8189ZM20.4255 41.6419C19.7782 41.9347 19.1939 42.553 18.9458 43.2082C18.8287 43.517 18.7596 45.5889 18.7613 48.7353C18.7642 53.6179 18.7761 53.7895 19.157 54.4703C19.4157 54.9328 19.8164 55.3067 20.3318 55.5669C21.0821 55.9455 21.2965 55.9617 25.6017 55.9617C29.9068 55.9617 30.1214 55.9455 30.8724 55.5669C31.4444 55.2784 31.7616 54.9612 32.0501 54.3892C32.4319 53.6322 32.4447 53.4435 32.441 48.6867C32.4366 43.1705 32.357 42.7373 31.1933 41.9073C30.6078 41.4899 30.559 41.4857 25.7772 41.445C22.0194 41.4129 20.8354 41.4566 20.4255 41.6419ZM29.6374 48.68V53.1543H25.6017H21.566V48.68V44.2057H25.6017H29.6374V48.68ZM53.1441 59.5527C54.2475 60.6593 55.1148 61.5954 55.0713 61.633C54.8772 61.8007 49.0972 63.7234 49.0198 63.6461C48.9187 63.545 50.9124 57.5415 51.0471 57.5412C51.097 57.541 52.0406 58.4462 53.1441 59.5527ZM20.1605 59.1639C19.8415 59.3811 19.4153 59.7815 19.2133 60.0536C18.8636 60.5253 18.8438 60.7915 18.7947 65.6667C18.7348 71.585 18.7992 71.9533 20.0359 72.7717L20.7508 73.2447H25.5889C30.3247 73.2447 30.4407 73.2363 31.0726 72.8433C31.4563 72.6048 31.8687 72.1311 32.0891 71.6757C32.4451 70.9404 32.4579 70.6998 32.4086 65.7291C32.3596 60.7902 32.34 60.5256 31.9901 60.0536C31.7881 59.7815 31.3619 59.3811 31.0429 59.1639C30.4758 58.7779 30.354 58.7691 25.6017 58.7691C20.8494 58.7691 20.7276 58.7779 20.1605 59.1639ZM29.6374 65.963V70.525H25.6017H21.566V65.963V61.401H25.6017H29.6374V65.963Z" fill="black"/>
</svg>
