<svg width="80" height="80" viewBox="0 0 80 80" fill="none" xmlns="http://www.w3.org/2000/svg">
<path fill-rule="evenodd" clip-rule="evenodd" d="M25.9055 0.0352633C22.8174 0.400906 20.8309 0.838989 18.4431 1.68058C10.8924 4.34193 4.30837 10.9186 1.64405 18.4609C0.441894 21.864 0.00441886 24.4307 3.31403e-05 28.1054C-0.00435258 31.7518 0.426074 34.3307 1.58014 37.5711C3.99479 44.3517 9.02835 50.0172 15.5363 53.2794C22.1443 56.5918 29.957 57.1556 37.0739 54.8338C37.9523 54.5472 39.6909 53.8015 40.9374 53.1769L43.2039 52.041L43.5383 52.3943C43.7223 52.5886 49.097 58.4619 55.4822 65.4462C61.8673 72.4303 67.3004 78.2933 67.5556 78.4748C68.4484 79.1098 70.073 79.7618 71.1663 79.9239C74.0771 80.3554 77.2621 78.9186 78.8403 76.4621C79.6815 75.1527 79.9888 74.0508 79.9997 72.3048C80.0113 70.446 79.6371 69.1389 78.7168 67.8228C78.3426 67.2877 73.5117 62.7769 65.3364 55.3291C58.2995 48.9183 52.4332 43.5638 52.3002 43.4303C52.0823 43.2116 52.1706 42.966 53.2002 40.927C55.136 37.0941 56.0609 33.5915 56.2349 29.4353C56.4376 24.5965 55.5549 20.2708 53.4892 15.9799C51.9463 12.7755 50.4066 10.6186 47.8816 8.12431C43.5505 3.84643 38.3588 1.24609 32.1708 0.2554C31.0713 0.0793845 26.8002 -0.0706588 25.9055 0.0352633ZM30.6271 3.2353C36.3802 3.81388 41.6136 6.29719 45.7611 10.4163C50.3673 14.9911 52.8861 20.7453 53.1142 27.2153C53.3632 34.2744 51.0051 40.4481 46.1195 45.5292C41.397 50.4404 35.0067 53.1387 28.0978 53.1387C20.3239 53.1387 12.9288 49.471 8.19678 43.2684C1.36885 34.3188 1.369 21.8907 8.19694 12.9424C13.4576 6.04811 21.9693 2.36446 30.6271 3.2353ZM26.3754 6.37088C16.7906 7.10216 8.66543 14.2426 6.71739 23.6464C5.24676 30.7457 7.37853 38.125 12.3958 43.3025C15.9623 46.9829 20.1626 49.0987 25.4148 49.8608C27.0691 50.1008 30.8778 49.9679 32.4811 49.6143C36.8565 48.6492 40.5081 46.6842 43.5248 43.6716C46.0902 41.1101 47.7541 38.4869 48.8339 35.3025C49.5823 33.0952 49.8672 31.5533 49.9786 29.1078C50.1968 24.3152 48.9957 19.9856 46.3309 15.9588C44.8274 13.6867 43.8101 13.1695 42.8098 14.1686C42.1911 14.7866 42.198 15.4771 42.8317 16.3867C44.8194 19.2396 45.6788 20.9788 46.3724 23.5514C46.9153 25.5658 47.0536 29.0723 46.6772 31.2782C45.5217 38.0496 40.6243 43.75 34.081 45.9398C28.6023 47.7733 22.5061 46.9242 17.5587 43.6386C15.998 42.6022 13.6139 40.1895 12.5277 38.5476C7.63682 31.154 8.56033 21.3802 14.7473 15.0579C17.3969 12.3502 20.6439 10.5899 24.4958 9.77291C26.5949 9.32763 29.7836 9.33889 31.9904 9.79966C33.7607 10.1691 34.2934 10.0982 34.7615 9.43058C35.0928 8.95807 35.0477 8.03747 34.6699 7.55761C33.9928 6.69788 29.8528 6.10553 26.3754 6.37088ZM38.6711 9.62896C38.0862 9.87914 37.7383 10.4202 37.7383 11.08C37.7383 11.5922 37.833 11.7937 38.2465 12.1626C38.9521 12.7925 39.568 12.7685 40.2531 12.0841C40.9297 11.4082 40.9622 10.7807 40.3549 10.1148C39.8972 9.613 39.1872 9.40804 38.6711 9.62896ZM22.6092 16.1755C22.156 16.5802 22.0412 16.95 20.6785 22.3947L19.2298 28.1836L16.3838 28.2619L13.5378 28.3401L13.1075 28.7704C12.4671 29.4108 12.4998 30.326 13.1852 30.9376L13.6932 31.391H17.2076C19.4009 31.391 20.8621 31.3272 21.095 31.2213C21.6866 30.952 21.8989 30.4135 22.7083 27.1276C23.127 25.428 23.5092 24.0375 23.5574 24.0375C23.6058 24.0375 23.9941 25.4633 24.4203 27.2058C25.1137 30.0407 25.2474 30.4276 25.6914 30.8826C26.1696 31.3727 26.2327 31.391 27.4432 31.391H28.6989L30.1332 35.6896C31.3665 39.3851 31.6336 40.0435 32.0379 40.3833C32.5731 40.8331 33.0824 40.8821 33.7328 40.546C34.2523 40.2777 34.2653 40.2461 35.9999 35.0287L37.2091 31.391H40.0311H42.8532L43.3857 30.8591C44.0719 30.1736 44.0951 29.5599 43.4616 28.8511L43.0048 28.3401L39.3321 28.2932L35.6595 28.2461L35.1774 28.6513C34.7788 28.9864 34.5521 29.4885 33.8675 31.5536C33.4122 32.9271 33.0011 34.0508 32.954 34.0508C32.9069 34.0508 32.4985 32.9353 32.0465 31.5718C31.0222 28.482 30.9251 28.3709 29.1528 28.2619L27.8816 28.1836L26.4512 22.4729C25.6646 19.332 24.9242 16.6089 24.806 16.4213C24.3231 15.6556 23.3176 15.5429 22.6092 16.1755ZM51.8882 47.3022C52.8028 48.1366 53.6027 48.8604 53.6657 48.9108C53.7287 48.9611 52.7066 50.0701 51.3945 51.3751L49.0089 53.748L47.3888 51.9548L45.7689 50.1616L46.6056 49.4316C47.5948 48.5687 49.4806 46.6374 49.8224 46.1372C49.9548 45.9435 50.0995 45.7852 50.1441 45.7852C50.1888 45.7852 50.9737 46.4678 51.8882 47.3022ZM66.0035 60.1592C71.1293 64.8135 75.589 68.9574 75.9138 69.368C77.3987 71.2444 77.2494 73.8228 75.5581 75.5122C74.5992 76.4701 73.6943 76.8349 72.2688 76.8388C70.0315 76.8451 70.5329 77.2962 60.2274 66.0044L51.127 56.0332L53.5863 53.5731C56.021 51.1375 56.0489 51.1157 56.3648 51.4049C56.5402 51.5654 60.8777 55.505 66.0035 60.1592Z" fill="black"/>
</svg>
