<svg width="78" height="80" viewBox="0 0 78 80" fill="none" xmlns="http://www.w3.org/2000/svg">
<path fill-rule="evenodd" clip-rule="evenodd" d="M34.3538 0.383594L33.9677 0.767031V4.75859V8.75H24.9183H15.8688L15.4828 9.13359L15.0968 9.51703V18.125V26.733L15.4828 27.1164C15.8387 27.4702 15.9858 27.5 17.3699 27.5H18.871V28.3664C18.871 29.0781 18.94 29.3016 19.257 29.6164C19.4693 29.8273 19.8084 30 20.0106 30C20.2129 30 21.7876 29.4375 23.5101 28.75L26.6419 27.5H30.3049H33.9677V29.6164C33.9677 31.6553 33.9819 31.747 34.3538 32.1164L34.7397 32.5H44.304H53.8683L57.6351 33.75C59.7068 34.4375 61.5661 35 61.7666 35C61.9671 35 62.3049 34.8273 62.5172 34.6164C62.8342 34.3016 62.9032 34.0781 62.9032 33.3664V32.5H64.4043C65.7884 32.5 65.9355 32.4702 66.2914 32.1164L66.6774 31.733V16.25V0.767031L66.2914 0.383594L65.9054 0H50.3226H34.7397L34.3538 0.383594ZM64.1613 16.25V30H62.6603C61.2761 30 61.129 30.0298 60.7732 30.3836C60.4929 30.662 60.3871 30.937 60.3871 31.3877V32.0081L57.3644 31.0041L54.3418 30H45.4128H36.4839V16.25V2.5H50.3226H64.1613V16.25ZM48.1996 6.48016C41.8028 7.87219 38.4199 14.9077 41.3578 20.7092C44.433 26.7817 52.5036 28.1239 57.3119 23.3623C58.5868 22.0997 59.4605 20.7066 59.9592 19.1406C60.4533 17.5895 60.4533 14.9105 59.9592 13.3594C58.3858 8.41922 53.2081 5.39031 48.1996 6.48016ZM52.1244 8.98922C56.1518 10.0316 58.6549 14.1312 57.6363 18.0167C56.926 20.7262 54.8368 22.8087 52.1244 23.5108C48.1958 24.5275 44.0653 22.047 43.015 18.0403C41.6146 12.6981 46.7478 7.59781 52.1244 8.98922ZM33.9677 18.125V25H30.0666H26.1657L23.8246 25.9375C22.537 26.4531 21.4618 26.875 21.4354 26.875C21.4088 26.875 21.3871 26.6258 21.3871 26.3211C21.3871 25.9412 21.2657 25.6466 21.001 25.3836C20.6452 25.0298 20.4981 25 19.1139 25H17.6129V18.125V11.25H25.7903H33.9677V18.125ZM49.4506 11.6336C49.0946 11.9872 49.0645 12.1333 49.0645 13.5086V15H47.5635C46.1793 15 46.0323 15.0298 45.6764 15.3836C45.1656 15.8909 45.1656 16.6091 45.6764 17.1164C46.0323 17.4702 46.1793 17.5 47.5635 17.5H49.0645V18.9914C49.0645 20.3667 49.0946 20.5128 49.4506 20.8664C49.6939 21.1083 50.0162 21.25 50.3226 21.25C50.6289 21.25 50.9513 21.1083 51.1946 20.8664C51.5506 20.5128 51.5806 20.3667 51.5806 18.9914V17.5H53.0817C54.4659 17.5 54.6129 17.4702 54.9688 17.1164C55.2122 16.8747 55.3548 16.5544 55.3548 16.25C55.3548 15.9456 55.2122 15.6253 54.9688 15.3836C54.6129 15.0298 54.4659 15 53.0817 15H51.5806V13.5086C51.5806 12.1333 51.5506 11.9872 51.1946 11.6336C50.9513 11.3917 50.6289 11.25 50.3226 11.25C50.0162 11.25 49.6939 11.3917 49.4506 11.6336ZM15.9617 33.9109C13.3514 34.3116 10.6663 35.4969 8.84781 37.0517C8.56789 37.2911 8.03746 37.5675 7.66932 37.6659C6.12096 38.0803 5.03493 38.9437 4.28528 40.3567L3.85282 41.1719L3.80219 48.4375C3.74825 56.1853 3.80737 57.092 4.49727 59.1073C5.26327 61.3453 7.20431 63.8759 9.20479 65.2448L10.0645 65.8331V67.2916V68.75H8.3677C5.56002 68.75 3.72576 69.4377 2.14752 71.0816C0.546943 72.7487 0 74.3341 0 77.3056C0 79.1436 0.0179274 79.2508 0.386069 79.6164C0.854383 80.0819 1.54915 80.1172 2.06621 79.7016C2.41611 79.4205 2.44285 79.2744 2.52934 77.1625C2.60828 75.2373 2.67433 74.8119 2.9975 74.1406C3.47446 73.1497 4.41738 72.2095 5.4254 71.72C6.13039 71.3777 6.44727 71.3334 8.49194 71.2919L10.7722 71.2455L13.2031 74.2998C15.6951 77.4309 15.9983 77.6948 16.772 77.4053C16.9773 77.3284 18.2234 75.9297 19.5414 74.2969L21.9375 71.3281L23.8943 71.2841C25.3619 71.2509 26.0539 71.3033 26.6625 71.4934C27.8811 71.8744 28.8962 72.7214 29.5441 73.8983C30.0887 74.8873 30.1005 74.9477 30.1855 77.1547C30.2673 79.278 30.2929 79.4198 30.6435 79.7016C31.1605 80.1172 31.8553 80.0819 32.3236 79.6164C32.6917 79.2508 32.7097 79.1436 32.7097 77.3056C32.7097 74.3341 32.1627 72.7487 30.5622 71.0816C28.9839 69.4377 27.1497 68.75 24.342 68.75H22.6452V67.2916V65.8331L23.5049 65.2448C24.6401 64.468 26.372 62.6412 27.0962 61.4566C28.1508 59.7319 28.9025 57.223 28.9374 55.3125L28.9501 54.6094L29.3368 55.3475C29.8201 56.2697 30.1935 57.6681 30.1935 58.5556C30.1935 59.8477 31.4637 60.4709 32.3343 59.6059L32.7308 59.212L32.6722 52.5356C32.6178 46.3236 32.5906 45.777 32.2819 44.6752C30.8083 39.417 26.8971 35.5289 21.7533 34.2088C20.3294 33.8433 17.388 33.692 15.9617 33.9109ZM20.3118 36.4702C21.6019 36.7163 23.3457 37.3306 24.2023 37.8409C26.2262 39.0464 28.0284 40.9959 29.0149 43.0469C29.9066 44.9009 30.0597 45.7102 30.1498 49.0448L30.2318 52.0742L29.2873 51.2933C28.0739 50.2898 26.9323 49.6511 25.5544 49.2042C24.5035 48.8633 24.1649 48.8431 18.0721 48.7595L11.6904 48.6719L11.1354 48.2509C10.1222 47.4827 10.0645 47.1988 10.0645 42.9892V39.2289L10.8901 38.6158C13.5052 36.6739 17.0947 35.8564 20.3118 36.4702ZM51.6022 36.4639C50.7705 36.763 49.8475 37.6327 49.4407 38.5009L49.0677 39.2969L49.0661 47.6816C49.0644 56.5725 49.1062 57.1953 49.8451 59.2953C50.5855 61.4 52.5588 63.9198 54.514 65.2578L55.3548 65.8331V67.2916V68.75H53.658C50.8503 68.75 49.0161 69.4377 47.4378 71.0816C45.8373 72.7487 45.2903 74.3341 45.2903 77.3056C45.2903 79.1436 45.3082 79.2508 45.6764 79.6164C46.1447 80.0819 46.8395 80.1172 47.3565 79.7016C47.7064 79.4205 47.7332 79.2744 47.8197 77.1625C47.9249 74.5969 48.1757 73.8444 49.2966 72.7306C50.4091 71.6253 51.1932 71.3598 53.5737 71.2822L55.6455 71.2145L55.9628 72.2869C56.1374 72.8767 56.6728 74.7305 57.1525 76.4062C58.0837 79.6589 58.2735 80 59.1536 80C59.697 80 60.3871 79.3886 60.3871 78.9072C60.3871 78.728 59.9979 77.232 59.5222 75.583C59.0465 73.9337 58.6573 72.5369 58.6573 72.4788C58.6573 72.4206 58.7983 72.4097 58.9705 72.4544C59.1504 72.5011 59.7867 72.2986 60.4645 71.9788L61.6452 71.4217L62.8259 71.9788C63.5036 72.2986 64.1399 72.5011 64.3198 72.4544C64.492 72.4097 64.6331 72.4206 64.6331 72.4788C64.6331 72.5369 64.2439 73.9337 63.7681 75.583C63.2924 77.232 62.9032 78.728 62.9032 78.9072C62.9032 79.3886 63.5933 80 64.1368 80C65.0168 80 65.2066 79.6589 66.1379 76.4062C66.6175 74.7305 67.153 72.8767 67.3275 72.2869L67.6449 71.2145L69.7166 71.2772C71.7139 71.3377 71.8238 71.3587 72.7792 71.8678C73.885 72.457 74.3637 72.95 74.9698 74.1239C75.3395 74.8402 75.3911 75.1514 75.4721 77.1625C75.5573 79.2753 75.5837 79.4203 75.9338 79.7016C76.4509 80.1172 77.1456 80.0819 77.6139 79.6164C77.9821 79.2508 78 79.1436 78 77.3056C78 74.3341 77.4531 72.7487 75.8525 71.0816C74.2742 69.4377 72.44 68.75 69.6323 68.75H67.9355V67.2916V65.8331L68.7952 65.2448C69.9364 64.4639 71.6634 62.6394 72.3969 61.4397C73.1851 60.1505 73.8445 58.3112 74.0641 56.7894C74.1859 55.9461 74.228 52.8613 74.1953 47.1875C74.1418 37.8983 74.208 38.4661 73.0442 37.3134C71.9531 36.2331 72.1218 36.2486 61.5779 36.2619C54.5778 36.2706 51.9941 36.323 51.6022 36.4639ZM71.3236 39.1336L71.7097 39.517V44.1336V48.75H61.6386H51.5674L51.6134 44.0484L51.6593 39.347L52.0306 39.0484C52.3866 38.7622 52.7808 38.75 61.6697 38.75H70.9377L71.3236 39.1336ZM60.7732 40.3836C60.4561 40.6984 60.3871 40.9219 60.3871 41.6336V42.5H59.6716C58.8832 42.5 58.1201 42.8183 57.9686 43.2102C57.7725 43.7181 57.8798 44.2417 58.257 44.6164C58.5739 44.9314 58.7988 45 59.5151 45H60.3871V45.8664C60.3871 46.9091 60.8422 47.5 61.6452 47.5C62.4481 47.5 62.9032 46.9091 62.9032 45.8664V45H63.7752C65.1055 45 65.7185 44.2606 65.2448 43.2277C65.0204 42.7384 64.4827 42.5 63.6035 42.5H62.9032V41.6336C62.9032 40.5909 62.4481 40 61.6452 40C61.3388 40 61.0164 40.1417 60.7732 40.3836ZM7.51772 43.8017L7.46976 47.1347L7.02928 47.708C6.7871 48.0233 6.51772 48.2812 6.43091 48.2812C6.32869 48.2812 6.28985 47.107 6.32099 44.9483L6.36895 41.6153L6.80943 41.042C7.05161 40.7267 7.32099 40.4688 7.4078 40.4688C7.51002 40.4688 7.54886 41.643 7.51772 43.8017ZM9.34585 49.9886C9.5885 50.2403 10.1502 50.6094 10.5942 50.8089C11.3839 51.1641 11.5382 51.1738 17.7702 51.2603C21.6439 51.3141 24.3239 51.4141 24.6109 51.5153C24.8704 51.607 25.3917 51.8067 25.7694 51.9591L26.4563 52.2361L26.3799 54.5947C26.2931 57.2773 26.0393 58.3066 25.0474 59.9963C24.288 61.2902 22.6856 62.8823 21.3833 63.6369C16.4512 66.4948 9.97063 64.5889 7.42289 59.5312C6.52212 57.7428 6.29646 56.5498 6.293 53.5591L6.29032 51.1025L7.05806 50.7742C7.48045 50.5937 8.02441 50.2403 8.26706 49.9886C8.50955 49.737 8.75235 49.5312 8.80645 49.5312C8.86055 49.5312 9.10335 49.737 9.34585 49.9886ZM71.6721 54.1016C71.6126 56.452 71.5413 57.1316 71.2659 57.9688C69.9091 62.0931 65.9359 64.9945 61.6452 64.9945C57.9391 64.9945 54.3636 62.8077 52.7132 59.5312C51.8187 57.7553 51.5868 56.5442 51.5833 53.6328L51.5806 51.25H61.6625H71.7441L71.6721 54.1016ZM16.3548 67.3892C17.7694 67.3892 18.7533 67.3111 19.3034 67.155L20.129 66.9208V68.2438V69.5669L18.2812 71.885C17.2649 73.1602 16.3981 74.2033 16.3548 74.2033C16.3116 74.2033 15.4448 73.1602 14.4284 71.885L12.5806 69.5669V68.2438V66.9208L13.4062 67.155C13.9563 67.3111 14.9403 67.3892 16.3548 67.3892ZM61.6452 67.3919C63.043 67.3891 64.0501 67.3078 64.5938 67.1542L65.4194 66.9208V68.0666V69.2123L64.7998 69.5264L64.1802 69.8405L63.035 69.2953C62.4052 68.9953 61.7798 68.75 61.6452 68.75C61.5105 68.75 60.8851 68.9953 60.2553 69.2953L59.1102 69.8405L58.4906 69.5264L57.871 69.2123V68.0666V66.9208L58.6966 67.1584C59.2585 67.3202 60.2003 67.3947 61.6452 67.3919Z" fill="black"/>
</svg>
