<svg width="80" height="80" viewBox="0 0 80 80" fill="none" xmlns="http://www.w3.org/2000/svg">
<path fill-rule="evenodd" clip-rule="evenodd" d="M6.39991 17.1484L6.39146 34.2969L3.19573 36.8381L0 39.3795V59.6897V80H30.9476C61.3643 80 61.8952 79.9948 61.8952 79.6998C61.8952 79.488 62.0445 79.3675 62.4032 79.2902C63.4568 79.0625 65.927 78.1481 67.1396 77.5369C70.8075 75.6881 74.2468 72.5855 76.4622 69.1264C77.5235 67.4695 78.7054 64.7508 79.2409 62.7344C81.0421 55.9527 79.5943 48.5495 75.3601 42.8906C74.5586 41.8194 69.8839 37.0312 69.6396 37.0312C69.5509 37.0312 67.772 38.7358 65.6868 40.8191L61.8952 44.607L61.8868 41.9519L61.8784 39.2969L58.6826 36.7556L55.4869 34.2142V17.1072V0H30.9476H6.40835L6.39991 17.1484ZM52.9861 23.2502V43.8441L45.7904 48.9142C41.8327 51.7028 38.4743 53.9803 38.3271 53.9752C38.1798 53.9702 36.6878 52.9489 35.0114 51.7056C33.3351 50.4623 31.736 49.2847 31.4579 49.0886L30.9525 48.7322L27.3511 51.3973C25.3705 52.8631 23.6834 54.0625 23.6022 54.0625C23.5211 54.0625 20.2347 51.7891 16.2992 49.0103L9.14361 43.9581L9.10391 23.3072L9.06437 2.65625H31.0251H52.9861V23.2502ZM11.6044 16.7578L11.6444 28.3594L30.9867 28.3991L50.329 28.4387V16.7975V5.15625H30.9467H11.5642L11.6044 16.7578ZM47.8281 16.7969V25.7812H31.0258H14.2234V16.7969V7.8125H31.0258H47.8281V16.7969ZM11.5991 32.2266L11.6444 33.5156L30.9867 33.5553L50.329 33.595V32.2663V30.9375H30.9414H11.5536L11.5991 32.2266ZM11.5663 37.4219V38.75H30.9476H50.329V37.4219V36.0938H30.9476H11.5663V37.4219ZM6.37615 40.9191L6.33019 41.9944L4.99351 41.0362C4.25827 40.5092 3.63947 40.0211 3.61821 39.9514C3.59696 39.8817 4.19856 39.3294 4.9549 38.7241L6.33019 37.6234L6.37615 38.7336C6.40131 39.3442 6.40131 40.3277 6.37615 40.9191ZM57.0673 38.7639C57.8314 39.373 58.4566 39.8936 58.4566 39.9205C58.4566 39.9672 56.0943 41.6784 55.6823 41.9303C55.5296 42.0236 55.4869 41.5698 55.4869 39.853C55.4869 38.6448 55.5299 37.6562 55.5824 37.6562C55.6349 37.6562 56.3031 38.1547 57.0673 38.7639ZM70.7685 41.6042L71.7392 42.5836L68.1474 46.1717L64.5556 49.7598L63.5364 48.75L62.5172 47.7402L66.0733 44.1825C68.0293 42.2259 69.6673 40.625 69.7136 40.625C69.7597 40.625 70.2344 41.0656 70.7685 41.6042ZM11.5663 42.5781V43.9062H25.7897H40.0131V42.5781V41.25H25.7897H11.5663V42.5781ZM42.6702 42.5781V43.9062H43.9206H45.171V42.5781V41.25H43.9206H42.6702V42.5781ZM47.8281 42.5781V43.9062H49.0785H50.329V42.5781V41.25H49.0785H47.8281V42.5781ZM59.1643 47.3391C58.8636 47.6711 58.8625 47.8781 59.16 48.125C59.3632 48.2936 59.3944 49.4503 59.3944 56.7814V65.2434L58.3817 66.2467C56.7323 67.8809 57.0426 68.037 52.0795 63.0781C49.7832 60.7836 47.8305 58.9062 47.7405 58.9062C47.6504 58.9062 47.3383 59.1523 47.0466 59.4531C46.755 59.7539 46.4522 60 46.3738 60C46.1685 60 40.7164 55.932 40.7164 55.7791C40.7164 55.7087 44.9014 52.6986 50.0164 49.0898L59.3163 42.5283L59.3597 44.8019C59.3952 46.6652 59.36 47.1228 59.1643 47.3391ZM12.0367 49.1642C17.1079 52.7436 21.257 55.7234 21.257 55.7863C21.257 55.8988 2.88719 69.5312 2.73543 69.5312C2.69244 69.5312 2.65712 63.4844 2.65712 56.0938C2.65712 48.7031 2.69307 42.6562 2.73683 42.6562C2.78075 42.6562 6.96572 45.5848 12.0367 49.1642ZM74.0598 45.5859C75.3139 47.4331 76.2703 49.6602 76.922 52.2506C77.3905 54.1125 77.498 58.0291 77.1396 60.1722C76.4286 64.4222 74.4417 68.2556 71.3571 71.3281C68.3966 74.277 65.0413 76.0998 60.9521 76.9806C59.0532 77.3897 54.3572 77.3853 52.5953 76.973C50.7797 76.548 49.1733 75.9839 47.75 75.2714C46.4231 74.607 44.7021 73.5014 44.7021 73.3131C44.7021 73.2513 46.2461 71.6581 48.1332 69.7731L51.5644 66.3458L53.0583 67.7906C54.7132 69.3911 55.4946 69.8356 56.6592 69.8394C58.3763 69.845 58.2553 69.9375 63.9773 64.2442C66.8848 61.3512 69.3747 58.7741 69.5105 58.5169C69.6464 58.2597 69.7906 57.5863 69.8311 57.02C69.9357 55.5592 69.5899 54.8775 67.815 53.0431L66.3675 51.5475L69.796 48.1175C71.6816 46.2309 73.2752 44.6875 73.3371 44.6875C73.3992 44.6875 73.7244 45.0917 74.0598 45.5859ZM67.272 56.7969C67.272 57.3153 67.0662 57.5639 64.5836 60.0458L61.8952 62.7333V56.7969V50.8605L64.5836 53.548C67.0662 56.0298 67.272 56.2784 67.272 56.7969ZM37.8316 56.9906L44.5464 61.9502L40.7949 65.7028C38.7316 67.7667 37.0434 69.5281 37.0434 69.6169C37.0434 69.815 41.7163 74.4366 42.6157 75.128C42.9725 75.4022 43.88 76.013 44.6323 76.4852L46.0002 77.3438H24.3287H2.65712V75.0994V72.8548L16.7506 62.4431C24.5019 56.7166 30.9054 52.0312 30.9804 52.0312C31.0553 52.0312 34.1384 54.263 37.8316 56.9906ZM46.187 68.125L42.5947 71.7186L41.5788 70.703L40.5628 69.6873L44.1551 66.0938L47.7473 62.5002L48.7633 63.5158L49.7792 64.5314L46.187 68.125Z" fill="black"/>
</svg>
