<svg width="32" height="32" viewBox="0 0 32 32" fill="none" xmlns="http://www.w3.org/2000/svg">
<rect x="0.5" y="0.5" width="31" height="31" stroke="black"/>
<path fill-rule="evenodd" clip-rule="evenodd" d="M19.3513 8.12839C19.8369 8.36206 20.0589 8.86312 19.9023 9.37168C19.8455 9.55607 19.7533 9.68874 19.5515 9.87644C19.4009 10.0165 17.8267 11.3293 16.0532 12.7938C14.2797 14.2582 12.8299 15.4718 12.8314 15.4906C12.8329 15.5094 14.2685 16.7067 16.0216 18.1512C20.0453 21.4667 19.8519 21.296 19.9514 21.6191C20.2301 22.5244 19.2562 23.3156 18.4068 22.874C18.1016 22.7152 10.3835 16.3188 10.2063 16.0776C9.87854 15.6317 9.945 15.0994 10.3794 14.6913C10.5157 14.5632 12.3558 13.0311 14.4684 11.2866C17.3501 8.90704 18.3608 8.09988 18.5148 8.05535C18.8295 7.96426 19.0503 7.98357 19.3513 8.12839Z" fill="black"/>
</svg>
