<svg width="32" height="32" viewBox="0 0 32 32" fill="none" xmlns="http://www.w3.org/2000/svg">
<rect x="-0.5" y="0.5" width="31" height="31" transform="matrix(-1 0 0 1 31 0)" stroke="black"/>
<path fill-rule="evenodd" clip-rule="evenodd" d="M12.6487 8.12839C12.1631 8.36206 11.9411 8.86312 12.0977 9.37168C12.1545 9.55607 12.2467 9.68874 12.4485 9.87644C12.5991 10.0165 14.1733 11.3293 15.9468 12.7938C17.7203 14.2582 19.1701 15.4718 19.1686 15.4906C19.1671 15.5094 17.7315 16.7067 15.9784 18.1512C11.9547 21.4667 12.1481 21.296 12.0486 21.6191C11.7699 22.5244 12.7438 23.3156 13.5932 22.874C13.8984 22.7152 21.6165 16.3188 21.7937 16.0776C22.1215 15.6317 22.055 15.0994 21.6206 14.6913C21.4843 14.5632 19.6442 13.0311 17.5316 11.2866C14.6499 8.90704 13.6392 8.09988 13.4852 8.05535C13.1705 7.96426 12.9497 7.98357 12.6487 8.12839Z" fill="black"/>
</svg>
