<svg width="40" height="41" viewBox="0 0 40 41" fill="none" xmlns="http://www.w3.org/2000/svg">
<path fill-rule="evenodd" clip-rule="evenodd" d="M18.1282 0.047044C14.236 0.424402 10.3781 2.01032 7.35292 4.47656C6.46309 5.20202 5.05422 6.62507 4.34453 7.51543C2.55009 9.76655 1.0796 12.8115 0.46973 15.5388C0.0867435 17.2519 0 18.0847 0 20.0498C0 22.015 0.0867435 22.8478 0.46973 24.5609C1.09291 27.3476 2.60176 30.4361 4.45586 32.7199C5.17979 33.6116 6.59986 35.0235 7.48836 35.7346C9.73476 37.5329 12.7734 39.0064 15.4949 39.6176C17.2044 40.0014 18.0354 40.0883 19.9965 40.0883C21.9575 40.0883 22.7886 40.0014 24.4981 39.6176C26.5443 39.1581 29.2198 38.0124 30.978 36.8427C34.0273 34.814 36.3693 32.1448 37.9684 28.8758C38.9478 26.8733 39.5041 25.0798 39.8546 22.7957C40.0485 21.5318 40.0485 18.5679 39.8546 17.304C39.5041 15.0198 38.9478 13.2264 37.9684 11.2239C36.9231 9.087 35.758 7.4613 34.076 5.79284C32.4246 4.15475 30.9118 3.0783 28.8039 2.04131C26.8294 1.06991 25.0015 0.497049 22.8149 0.164331C21.8316 0.0147215 19.1528 -0.0523556 18.1282 0.047044ZM22.5017 1.97486C26.4778 2.55361 30.0717 4.34798 32.8686 7.1507C35.6741 9.96206 37.4126 13.4627 38.0473 17.5786C38.1402 18.1811 38.1804 18.9269 38.1804 20.0498C38.1804 23.0174 37.5988 25.5268 36.3042 28.1462C33.6176 33.5818 28.6282 37.1837 22.4626 38.1385C21.2802 38.3216 18.7128 38.3216 17.5304 38.1385C13.4232 37.5025 9.92986 35.7604 7.1244 32.9489C4.31885 30.1376 2.58038 26.637 1.9457 22.5211C1.76297 21.3362 1.76297 18.7634 1.9457 17.5786C2.2684 15.4861 2.81572 13.7199 3.68879 11.9534C6.32734 6.61511 11.2814 2.98118 17.2539 2.00303C18.764 1.75574 20.9171 1.74413 22.5017 1.97486ZM23.9109 12.8089C23.1537 12.8923 22.3539 13.2976 21.7476 13.9051C21.0207 14.6335 20.6661 15.5632 20.7138 16.6152L20.7422 17.2438L20.1585 17.1908C17.8719 16.9831 15.5869 15.9042 13.8297 14.2024C13.4142 13.8 13.0488 13.4867 13.0175 13.506C12.8946 13.5821 12.6263 14.4562 12.583 14.9217C12.4864 15.9583 12.8555 16.9698 13.617 17.7551L14.0924 18.2454L13.8542 18.2434C13.7232 18.2423 13.3782 18.1601 13.0875 18.0609L12.5591 17.8804L12.56 18.161C12.5625 18.9072 12.9984 19.8596 13.6316 20.5021C14.0391 20.9156 15.0059 21.4606 15.3361 21.4632C15.4673 21.4642 15.4745 21.4776 15.3775 21.5404C15.3129 21.5822 14.9494 21.617 14.5698 21.6177C13.8902 21.6189 13.8803 21.6216 13.9338 21.7954C14.1108 22.3705 14.6773 23.0732 15.3 23.4898C15.8028 23.8263 16.6225 24.1273 17.0493 24.1322L17.2955 24.135L17.0607 24.3291C16.7239 24.6074 15.5816 25.1804 14.986 25.3697C14.1591 25.6326 13.5889 25.7187 12.6889 25.7167L11.8401 25.7149L12.0824 25.8625C13.1037 26.4849 14.6997 27.0429 16.0038 27.2336C17.0856 27.3917 18.767 27.3546 19.7202 27.1515C23.7041 26.303 26.6858 23.5475 27.787 19.6968C28.013 18.9065 28.1151 18.2698 28.1836 17.2255L28.2375 16.4018L28.8339 15.8434C29.516 15.2047 30.0641 14.5009 29.8162 14.5818C29.3509 14.7337 28.2374 15.0284 28.1277 15.0286C28.0492 15.0288 28.2177 14.8086 28.5628 14.4601C29.0133 14.005 29.4694 13.3273 29.4694 13.1127C29.4694 13.0935 29.2116 13.1971 28.8965 13.343C28.5814 13.4888 28.0673 13.6794 27.7541 13.7664L27.1845 13.9245L26.7807 13.6226C25.8664 12.9386 24.9903 12.6903 23.9109 12.8089Z" fill="black"/>
</svg>
