<svg width="40" height="41" viewBox="0 0 40 41" fill="none" xmlns="http://www.w3.org/2000/svg">
<path fill-rule="evenodd" clip-rule="evenodd" d="M18.1282 0.047044C14.236 0.424402 10.3781 2.01032 7.35292 4.47656C6.46309 5.20202 5.05422 6.62507 4.34453 7.51543C2.55009 9.76655 1.0796 12.8115 0.46973 15.5388C0.0867434 17.2519 0 18.0847 0 20.0498C0 22.015 0.0867434 22.8478 0.46973 24.5609C1.09291 27.3476 2.60176 30.4361 4.45586 32.7199C5.17979 33.6116 6.59986 35.0235 7.48836 35.7346C9.73476 37.5329 12.7734 39.0064 15.4949 39.6176C17.2044 40.0014 18.0354 40.0883 19.9965 40.0883C21.9575 40.0883 22.7886 40.0014 24.4981 39.6176C26.5443 39.1581 29.2198 38.0124 30.978 36.8427C34.0273 34.814 36.3693 32.1448 37.9684 28.8758C38.9478 26.8733 39.5041 25.0798 39.8546 22.7957C40.0485 21.5318 40.0485 18.5679 39.8546 17.304C39.5041 15.0198 38.9478 13.2264 37.9684 11.2239C36.9231 9.087 35.758 7.4613 34.076 5.79284C32.4246 4.15475 30.9118 3.0783 28.8039 2.04131C26.8294 1.06991 25.0015 0.497049 22.8149 0.164331C21.8316 0.0147215 19.1528 -0.0523556 18.1282 0.047044ZM22.5017 1.97486C26.4778 2.55361 30.0717 4.34798 32.8686 7.1507C35.6741 9.96206 37.4126 13.4627 38.0473 17.5786C38.1402 18.1811 38.1804 18.9269 38.1804 20.0498C38.1804 23.0174 37.5988 25.5268 36.3042 28.1462C33.6176 33.5818 28.6282 37.1837 22.4626 38.1385C21.2802 38.3216 18.7128 38.3216 17.5304 38.1385C13.4232 37.5025 9.92986 35.7604 7.1244 32.9489C4.31885 30.1376 2.58038 26.637 1.9457 22.5211C1.76298 21.3362 1.76298 18.7634 1.9457 17.5786C2.2684 15.4862 2.81572 13.7199 3.68879 11.9534C6.32734 6.61511 11.2813 2.98118 17.2539 2.00303C18.764 1.75574 20.9171 1.74413 22.5017 1.97486ZM21.5623 11.8648C20.0431 11.973 19.0539 12.5133 18.5974 13.484C18.268 14.1842 18.1959 14.6455 18.1959 16.0501V17.299L17.276 17.3211L16.3561 17.3432L16.3346 18.6965L16.3133 20.0498H17.2545H18.1959V24.1686V28.2874H19.9965H21.7971V24.1686V20.0498H23.0091C24.2028 20.0498 24.2216 20.0472 24.2582 19.8733C24.2946 19.6999 24.5372 17.5335 24.5372 17.3816C24.5372 17.3333 24.015 17.304 23.1583 17.304H21.7793L21.8091 16.2199C21.845 14.9074 21.9044 14.7722 22.5027 14.6437C22.7217 14.5967 23.269 14.5581 23.719 14.5581H24.5372V13.1852V11.8123L23.2259 11.826C22.5047 11.8335 21.756 11.851 21.5623 11.8648Z" fill="black"/>
</svg>
