<svg width="10" height="16" viewBox="0 0 10 16" fill="none" xmlns="http://www.w3.org/2000/svg">
<path fill-rule="evenodd" clip-rule="evenodd" d="M0.648748 0.136952C0.163126 0.386199 -0.0589389 0.920659 0.0977033 1.46312C0.154476 1.65981 0.246679 1.80132 0.448491 2.00153C0.599072 2.15094 2.17326 3.55123 3.94678 5.11336C5.7203 6.67544 7.17007 7.96992 7.16856 7.98998C7.16706 8.01004 5.73149 9.28712 3.97843 10.8279C-0.0452638 14.3644 0.148053 14.1824 0.0485973 14.527C-0.230085 15.4927 0.743801 16.3366 1.59316 15.8656C1.89842 15.6963 9.61646 8.87336 9.79367 8.61611C10.1215 8.14046 10.055 7.5727 9.62061 7.13738C9.48432 7.00078 7.64424 5.36651 5.53159 3.50566C2.64993 0.96751 1.63916 0.106536 1.48521 0.0590449C1.17053 -0.0381248 0.949652 -0.0175272 0.648748 0.136952Z" fill="black"/>
</svg>
