<svg width="16" height="16" viewBox="0 0 16 16" fill="none" xmlns="http://www.w3.org/2000/svg">
<path fill-rule="evenodd" clip-rule="evenodd" d="M3.37541 0.0334551C2.84258 0.238192 1.84885 1.21706 0.924791 2.44745C0.558629 2.93501 0.271613 3.37849 0.120854 3.68971L0 3.93914L0.0386066 4.27372C0.344692 6.92766 2.5524 10.3942 5.51371 12.8707C7.60193 14.617 9.85655 15.7463 11.7135 15.9759C12.0195 16.0138 12.0376 16.0123 12.2306 15.9332C13.0186 15.6105 14.8782 14.1145 15.582 13.2372C16.0288 12.6801 16.0945 12.4122 15.8874 11.9911C15.7466 11.7048 15.5975 11.5736 14.806 11.04C13.1925 9.95225 12.0393 9.36327 11.5246 9.36414C11.1405 9.36477 10.9228 9.52382 10.2972 10.2609C10.0773 10.5201 9.87788 10.7321 9.85415 10.7321C9.7785 10.7321 9.24081 10.5129 8.91682 10.35C7.77229 9.77465 6.81353 8.92583 6.10654 7.86207C5.84423 7.46735 5.46833 6.73003 5.34788 6.37385L5.2678 6.13704L5.39862 6.02028C5.47057 5.95603 5.68714 5.76862 5.87984 5.60379C6.4754 5.09454 6.61546 4.89711 6.64007 4.53246C6.65057 4.37648 6.63493 4.26328 6.57879 4.08841C6.4762 3.76911 6.11498 3.03796 5.78042 2.47251C5.40079 1.83087 4.57945 0.598141 4.39405 0.391703C4.12194 0.0887523 3.65699 -0.0747701 3.37541 0.0334551Z" fill="black"/>
</svg>
