<svg width="40" height="41" viewBox="0 0 40 41" fill="none" xmlns="http://www.w3.org/2000/svg">
<path fill-rule="evenodd" clip-rule="evenodd" d="M18.1282 0.728685C14.236 1.10604 10.3781 2.69196 7.35292 5.1582C6.46309 5.88366 5.05422 7.30671 4.34453 8.19707C2.55009 10.4482 1.0796 13.4932 0.46973 16.2204C0.0867435 17.9335 0 18.7663 0 20.7315C0 22.6966 0.0867435 23.5294 0.46973 25.2425C1.09291 28.0292 2.60176 31.1177 4.45586 33.4016C5.17979 34.2933 6.59986 35.7051 7.48836 36.4163C9.73476 38.2145 12.7734 39.6881 15.4949 40.2992C17.2044 40.683 18.0354 40.7699 19.9965 40.7699C21.9575 40.7699 22.7886 40.683 24.4981 40.2992C26.5443 39.8397 29.2198 38.694 30.978 37.5243C34.0273 35.4956 36.3693 32.8264 37.9684 29.5574C38.9478 27.5549 39.5041 25.7615 39.8546 23.4773C40.0485 22.2134 40.0485 19.2495 39.8546 17.9856C39.5041 15.7015 38.9478 13.908 37.9684 11.9055C36.9231 9.76864 35.758 8.14294 34.076 6.47448C32.4246 4.83639 30.9118 3.75994 28.8039 2.72295C26.8294 1.75155 25.0015 1.17869 22.8149 0.845971C21.8316 0.696362 19.1528 0.629285 18.1282 0.728685ZM22.5017 2.6565C26.4778 3.23525 30.0717 5.02962 32.8686 7.83235C35.6741 10.6437 37.4126 14.1443 38.0473 18.2602C38.1402 18.8627 38.1804 19.6086 38.1804 20.7315C38.1804 23.699 37.5988 26.2085 36.3042 28.8279C33.6176 34.2635 28.6282 37.8654 22.4626 38.8202C21.2802 39.0033 18.7128 39.0033 17.5304 38.8202C13.4232 38.1841 9.92986 36.442 7.1244 33.6306C4.31885 30.8192 2.58038 27.3186 1.9457 23.2027C1.76297 22.0179 1.76297 19.4451 1.9457 18.2602C2.2684 16.1678 2.81572 14.4016 3.68879 12.6351C6.32734 7.29675 11.2814 3.66282 17.2539 2.68467C18.764 2.43739 20.9171 2.42577 22.5017 2.6565ZM21.5623 12.5464C20.0431 12.6547 19.0539 13.1949 18.5974 14.1656C18.268 14.8659 18.1959 15.3271 18.1959 16.7317V17.9807L17.276 18.0027L16.3561 18.0248L16.3346 19.3782L16.3133 20.7315H17.2545H18.1959V24.8502V28.969H19.9965H21.7971V24.8502V20.7315H23.0091C24.2028 20.7315 24.2216 20.7288 24.2582 20.5549C24.2946 20.3816 24.5372 18.2152 24.5372 18.0632C24.5372 18.015 24.015 17.9856 23.1583 17.9856H21.7793L21.8091 16.9016C21.845 15.589 21.9044 15.4539 22.5027 15.3254C22.7217 15.2783 23.269 15.2398 23.719 15.2398H24.5372V13.8668V12.4939L23.2259 12.5077C22.5047 12.5152 21.756 12.5326 21.5623 12.5464Z" fill="white"/>
</svg>
