<svg width="12" height="8" viewBox="0 0 12 8" fill="none" xmlns="http://www.w3.org/2000/svg">
<path fill-rule="evenodd" clip-rule="evenodd" d="M11.8973 0.518999C11.7104 0.130501 11.3095 -0.0471511 10.9027 0.0781626C10.7551 0.123581 10.649 0.197343 10.4989 0.358793C10.3868 0.479258 9.33658 1.73861 8.16498 3.15743C6.99342 4.57624 6.02256 5.73605 6.00752 5.73485C5.99247 5.73365 5.03466 4.58519 3.87907 3.18274C1.22667 -0.0362116 1.36318 0.118442 1.10473 0.0388774C0.380478 -0.184068 -0.252485 0.595041 0.100816 1.27453C0.2278 1.51873 5.34498 7.69317 5.53792 7.83494C5.89466 8.09717 6.32047 8.044 6.64696 7.69649C6.74941 7.58746 7.97512 6.11539 9.37075 4.42527C11.2744 2.11994 11.9201 1.31133 11.9557 1.18817C12.0286 0.936422 12.0131 0.759722 11.8973 0.518999Z" fill="white"/>
</svg>
