<svg width="18" height="14" viewBox="0 0 18 14" fill="none" xmlns="http://www.w3.org/2000/svg">
<path fill-rule="evenodd" clip-rule="evenodd" d="M0.674972 0.614454C0.343098 0.723601 0.107921 0.975847 0.0305493 1.30562C0.00376142 1.41977 -0.00465158 3.11307 0.00235339 6.98487L0.0123504 12.5015L0.117953 12.7023C0.176035 12.8127 0.285544 12.9503 0.361332 13.0081C0.663039 13.2381 0.0746209 13.2234 9.00618 13.2234C17.9377 13.2234 17.3493 13.2381 17.651 13.0081C17.7268 12.9503 17.8363 12.8127 17.8944 12.7023L18 12.5015V6.89231V1.28315L17.8944 1.08237C17.8363 0.971959 17.7268 0.83434 17.651 0.776546C17.3492 0.546403 17.9404 0.560954 8.99097 0.563657C2.37355 0.565656 0.794056 0.575319 0.674972 0.614454ZM16.6787 1.35275C16.6504 1.38082 15.0089 2.67918 13.0309 4.23801C10.6173 6.1402 9.39029 7.08513 9.29965 7.11161C9.12716 7.16199 8.88519 7.16199 8.71271 7.11161C8.62206 7.08513 7.39507 6.1402 4.98141 4.23801C3.00347 2.67918 1.36199 1.38082 1.33365 1.35275C1.28983 1.30932 2.4384 1.30166 9.00618 1.30166C15.574 1.30166 16.7225 1.30932 16.6787 1.35275ZM4.50046 4.76342C6.54299 6.37408 8.28227 7.72043 8.36548 7.75534C8.44873 7.79022 8.62692 7.83865 8.76149 7.8629C9.0557 7.91596 9.41704 7.86379 9.69242 7.72847C9.78932 7.68085 11.5398 6.32258 13.5823 4.71014L17.296 1.77835L17.305 4.31684C17.31 5.71298 17.31 7.99571 17.305 9.38955L17.296 11.9238L15.3438 9.38674C14.2702 7.99137 13.3644 6.83429 13.3309 6.81545C13.2379 6.7631 13.0614 6.77465 12.9677 6.83922C12.8661 6.90927 12.8005 7.08928 12.8307 7.21561C12.8428 7.26644 13.7455 8.46821 14.8366 9.88623L16.8205 12.4644L12.9134 12.4739C10.7644 12.479 7.24796 12.479 5.09898 12.4739L1.19183 12.4644L3.17571 9.88623C4.26687 8.46821 5.16956 7.26644 5.18167 7.21561C5.21184 7.08928 5.14629 6.90927 5.04467 6.83922C4.95829 6.77968 4.79661 6.76347 4.69558 6.80427C4.66422 6.81693 3.76589 7.96235 2.69927 9.34968C1.63268 10.737 0.746218 11.8879 0.729392 11.9072C0.712003 11.9272 0.698768 9.74377 0.698768 6.86051C0.698768 2.80466 0.707638 1.78431 0.742769 1.80678C0.766987 1.82226 2.45793 3.15276 4.50046 4.76342Z" fill="black"/>
</svg>
