<svg width="20" height="16" viewBox="0 0 20 16" fill="none" xmlns="http://www.w3.org/2000/svg">
<path fill-rule="evenodd" clip-rule="evenodd" d="M17.4896 0.0195268C16.9943 0.124562 17.2864 -0.155531 11.9177 5.36362L6.92687 10.4943L5.04916 8.56124C3.01962 6.47186 2.97813 6.436 2.47813 6.3412C2.27816 6.30325 2.16578 6.3026 1.99297 6.3383C1.54957 6.43 1.37214 6.54918 0.795192 7.14304C0.346901 7.60448 0.236639 7.74247 0.128686 7.9772C0.0102037 8.23469 -0.000638535 8.29081 2.6875e-05 8.64121C0.000692285 8.97582 0.0150965 9.05692 0.114517 9.28584C0.221256 9.53157 0.413912 9.7393 3.24085 12.6568C5.41658 14.9022 6.30894 15.7974 6.45341 15.8797C6.73183 16.0382 7.11185 16.0403 7.39708 15.8849C7.54468 15.8045 9.08938 14.2354 13.6827 9.50027C19.4786 3.5254 19.7782 3.20961 19.886 2.96038C19.9848 2.73186 19.9993 2.64971 20 2.31575C20.0011 1.76181 19.8939 1.54537 19.3125 0.927613C18.8192 0.403486 18.5786 0.205544 18.3066 0.100066C18.0765 0.0108243 17.7038 -0.0259198 17.4896 0.0195268Z" fill="#219653"/>
</svg>
