<svg width="22" height="28" viewBox="0 0 22 28" fill="none" xmlns="http://www.w3.org/2000/svg">
<path fill-rule="evenodd" clip-rule="evenodd" d="M5.51643 2.3624C2.62764 3.6582 0.204636 4.77795 0.132042 4.85072L0 4.983V9.67476C0 13.574 0.0151408 14.4719 0.0897886 14.9904C0.425293 17.321 1.42171 19.4455 2.96361 21.1176C3.61555 21.8246 10.6147 27.9267 10.8414 27.9857C10.9144 28.0047 11.0336 28.0048 11.1062 27.9859C11.3334 27.9267 18.3346 21.8238 18.9847 21.1181C20.238 19.758 21.1279 18.1151 21.5944 16.3007C21.9606 14.8761 21.9633 14.8312 21.9891 9.79832C22.0113 5.46477 22.0066 5.18823 21.9072 4.98732C21.8049 4.78081 21.6349 4.69951 16.4636 2.3839C13.024 0.843707 11.0621 -0.00412602 10.9472 1.50986e-05C10.8491 0.00348633 8.40522 1.0666 5.51643 2.3624ZM15.9331 3.36108L20.8627 5.56915V10.074C20.8627 14.5231 20.861 14.5873 20.7288 15.2643C20.3466 17.221 19.4972 18.9366 18.2258 20.3196C17.8407 20.7384 16.4765 21.9657 14.3079 23.8439L10.9807 26.7255L7.76443 23.9457C5.99548 22.4169 4.38967 21.0156 4.19601 20.8317C2.72324 19.4336 1.67564 17.4998 1.22113 15.3401C1.08756 14.7053 1.08656 14.6678 1.08615 10.1358L1.08568 5.57091L6.01526 3.36272C8.72652 2.14822 10.958 1.15423 10.9742 1.1538C10.9903 1.15338 13.2218 2.1467 15.9331 3.36108ZM6.57277 4.32078C3.53456 5.68412 2.33926 6.24805 2.24096 6.36467L2.10516 6.52568L2.12823 10.5218C2.15053 14.3906 2.15546 14.5374 2.28251 15.127C2.66854 16.9179 3.42934 18.4254 4.56215 19.6438C4.81262 19.9132 6.31062 21.2475 7.89096 22.6088C10.558 24.9062 10.7803 25.0839 10.9862 25.0839C11.1926 25.0839 11.4183 24.9019 14.2147 22.4805C17.403 19.7198 17.7087 19.4159 18.4093 18.3121C19.0087 17.3676 19.4049 16.3756 19.6743 15.1441C19.792 14.6065 19.7991 14.3819 19.8202 10.5493L19.8425 6.51966L19.6777 6.33964C19.464 6.10621 11.2501 2.42726 10.9572 2.43377C10.8467 2.43621 9.0331 3.21681 6.57277 4.32078ZM14.8836 5.31776L18.75 7.04893L18.7491 10.6007C18.7484 13.697 18.7354 14.224 18.6476 14.709C18.3736 16.2231 17.7813 17.5007 16.8267 18.6365C16.578 18.9323 15.4718 19.9344 13.7362 21.436C12.2494 22.7222 11.0065 23.7746 10.9742 23.7746C10.9418 23.7746 9.69894 22.7222 8.21214 21.436C6.47658 19.9344 5.3703 18.9323 5.12165 18.6365C4.16708 17.5007 3.57476 16.2231 3.30076 14.709C3.21297 14.224 3.19994 13.697 3.19924 10.601L3.19836 7.04954L5.92723 5.8287C7.42811 5.15723 9.15786 4.38065 9.77112 4.10301C10.3844 3.82531 10.9157 3.59554 10.9517 3.59237C10.9877 3.58921 12.7571 4.36567 14.8836 5.31776ZM9.32646 8.57566L9.15493 8.75366V9.91543V11.0772H8.04319C6.95258 11.0772 6.92828 11.08 6.76678 11.2241L6.60211 11.3712V12.928V14.4848L6.76473 14.6536L6.92729 14.8225L8.04114 14.8424L9.15493 14.8624V15.989V17.1156L9.32646 17.2936L9.498 17.4716H10.9742H12.4503L12.6219 17.2936L12.7934 17.1156V15.989V14.8624L13.9072 14.8424L15.0211 14.8225L15.1836 14.6536L15.3462 14.4847V12.9279V11.3711L15.1816 11.2241C15.0201 11.08 14.9957 11.0772 13.9052 11.0772H12.7934V9.91543V8.75366L12.6219 8.57566L12.4503 8.39765H10.9742H9.498L9.32646 8.57566ZM11.7236 10.6923L11.7396 11.8602L11.9189 12.0168C12.0973 12.1726 12.1038 12.1734 13.1794 12.1734H14.2606V12.9309V13.6885L13.1403 13.7074L12.0201 13.7263L11.8786 13.8972C11.7398 14.0647 11.7371 14.0903 11.7371 15.2217V16.3754H10.9742H10.2113V15.2217C10.2113 14.0903 10.2086 14.0647 10.0698 13.8972L9.92822 13.7263L8.80804 13.7074L7.68779 13.6885V12.9309V12.1734H8.76895C9.84653 12.1734 9.85076 12.1728 10.0307 12.0157L10.2113 11.858V10.7166C10.2113 10.0887 10.2296 9.55595 10.2521 9.53262C10.2746 9.50936 10.6113 9.49791 11.0003 9.50729L11.7077 9.52428L11.7236 10.6923Z" fill="white"/>
</svg>
