<svg width="24" height="24" viewBox="0 0 24 24" fill="none" xmlns="http://www.w3.org/2000/svg">
<path fill-rule="evenodd" clip-rule="evenodd" d="M7.37541 4.03346C6.84258 4.23819 5.84885 5.21706 4.92479 6.44745C4.55863 6.93501 4.27161 7.37849 4.12085 7.68971L4 7.93914L4.03861 8.27372C4.34469 10.9277 6.5524 14.3942 9.51371 16.8707C11.6019 18.617 13.8565 19.7463 15.7135 19.9759C16.0195 20.0138 16.0376 20.0123 16.2306 19.9332C17.0186 19.6105 18.8782 18.1145 19.582 17.2372C20.0288 16.6801 20.0945 16.4122 19.8874 15.9911C19.7466 15.7048 19.5975 15.5736 18.806 15.04C17.1925 13.9523 16.0393 13.3633 15.5246 13.3641C15.1405 13.3648 14.9228 13.5238 14.2972 14.2609C14.0773 14.5201 13.8779 14.7321 13.8541 14.7321C13.7785 14.7321 13.2408 14.5129 12.9168 14.35C11.7723 13.7746 10.8135 12.9258 10.1065 11.8621C9.84423 11.4673 9.46833 10.73 9.34788 10.3739L9.2678 10.137L9.39862 10.0203C9.47057 9.95603 9.68714 9.76862 9.87984 9.60379C10.4754 9.09454 10.6155 8.89711 10.6401 8.53246C10.6506 8.37648 10.6349 8.26328 10.5788 8.08841C10.4762 7.76911 10.115 7.03796 9.78042 6.47251C9.40079 5.83087 8.57945 4.59814 8.39405 4.3917C8.12194 4.08875 7.65699 3.92523 7.37541 4.03346Z" fill="black"/>
</svg>
