<svg width="30" height="32" viewBox="0 0 30 32" fill="none" xmlns="http://www.w3.org/2000/svg">
<circle cx="21" cy="9" r="9" fill="#F2C94C"/>
<path fill-rule="evenodd" clip-rule="evenodd" d="M11.6791 8.07417C9.15561 8.45372 6.93472 9.78078 5.46786 11.7856C5.06428 12.3372 4.43009 13.5624 4.21839 14.1995C4.03489 14.7518 3.86765 15.4976 3.824 15.9584L3.79119 16.3049L3.37871 16.3361C2.81778 16.3785 2.43589 16.481 1.92709 16.7255C1.58625 16.8892 1.40676 17.0204 1.05769 17.3607C0.687376 17.7217 0.580739 17.8644 0.383366 18.2632C0.0189498 18.9994 -0.0172734 19.2678 0.00528354 21.0648C0.0238777 22.5471 0.0268752 22.5839 0.160337 22.9751C0.467802 23.8763 1.09757 24.6077 1.90972 25.0067C2.57504 25.3336 2.99646 25.4183 3.95691 25.4183C4.85238 25.4183 5.0623 25.3569 5.25241 25.0395C5.35132 24.8743 5.35477 24.7535 5.38267 20.4571C5.41457 15.5419 5.39709 15.7935 5.78539 14.6496C6.62492 12.1764 8.77951 10.3054 11.4505 9.73017C12.0439 9.60237 13.3175 9.55296 13.9399 9.63359C15.6996 9.86155 17.2044 10.5982 18.448 11.8405C19.4662 12.8577 20.1343 14.0869 20.4813 15.5816C20.5849 16.0283 20.5897 16.198 20.6173 20.4571C20.6492 25.367 20.6257 25.0657 20.9937 25.2888C21.1514 25.3846 21.241 25.3934 22.0536 25.3934C22.7703 25.3934 23.0166 25.3745 23.3323 25.2953C24.5092 24.9998 25.444 24.1349 25.8396 22.9751C25.9731 22.5839 25.9761 22.5471 25.9947 21.0648C26.0173 19.2646 25.9812 18.9979 25.6151 18.2634C25.4187 17.8691 25.3062 17.7181 24.9432 17.3619C24.2895 16.7205 23.5842 16.4089 22.6213 16.3361L22.2088 16.3049L22.176 15.9584C22.0879 15.0284 21.7807 14.0437 21.254 13.0029C20.8097 12.125 20.3699 11.5033 19.7135 10.8257C18.2322 9.29632 16.3897 8.36372 14.2635 8.06714C13.6014 7.97475 12.3167 7.97829 11.6791 8.07417ZM3.46482 26.5539C3.5108 26.8831 3.77478 27.5991 4.0037 28.0156C4.74101 29.3572 6.00029 30.3276 7.50271 30.7119C7.87637 30.8075 8.17464 30.8445 8.73404 30.8646L9.47232 30.891L9.47517 30.4358L9.47801 29.9806L8.96551 29.9802C8.327 29.9798 7.91061 29.9156 7.37489 29.7352C5.98891 29.2685 4.86686 28.1154 4.46256 26.7422L4.34439 26.3407H3.88974H3.43505L3.46482 26.5539ZM11.575 28.8999C10.8543 29.0964 10.3809 29.7302 10.391 30.4851C10.3988 31.0744 10.755 31.6147 11.3137 31.8847C11.5459 31.997 11.5897 32 13 32C14.4103 32 14.4541 31.997 14.6863 31.8847C15.6642 31.412 15.9216 30.1696 15.204 29.3863C15.0724 29.2427 14.8544 29.0791 14.6868 28.9984L14.3971 28.8587L13.1016 28.8478C12.1821 28.84 11.739 28.8551 11.575 28.8999Z" fill="black"/>
</svg>
