<svg width="28" height="31" viewBox="0 0 28 31" fill="none" xmlns="http://www.w3.org/2000/svg">
<circle cx="19" cy="9" r="9" fill="#F2C94C"/>
<path fill-rule="evenodd" clip-rule="evenodd" d="M13.68 7.04554C11.9558 7.24227 10.2384 8.0318 8.93289 9.22769C7.27092 10.7502 6.33303 12.682 6.18016 14.8978C6.10513 15.986 6.39369 17.5086 6.87469 18.5619C6.95186 18.7309 7.01501 18.8864 7.01501 18.9074C7.01501 18.9284 6.8922 18.9835 6.74215 19.0299C6.3652 19.1464 5.91918 19.4506 5.78741 19.6812C5.68379 19.8625 5.68016 19.9105 5.6794 21.1232C5.67897 21.8131 5.66871 22.3777 5.65654 22.3777C5.64437 22.3777 5.5209 22.3335 5.38211 22.2796C4.96296 22.1167 4.35215 22.0041 3.71255 21.9719C3.19151 21.9456 3.08961 21.9524 2.98471 22.0199C2.88911 22.0815 2.86272 22.1372 2.86272 22.2777C2.86272 22.5755 2.96032 22.6235 3.65375 22.6664C4.5736 22.7233 5.3476 22.9395 5.59507 23.2086C5.67487 23.2954 5.67382 23.3037 5.5712 23.3981C5.32292 23.6265 4.57608 23.8424 3.73761 23.9281C2.64455 24.0398 1.17064 23.7635 0.803182 23.378L0.691118 23.2604L0.830864 23.1506C0.907705 23.0903 1.08983 22.996 1.23564 22.9412C1.38145 22.8863 1.53871 22.8078 1.58515 22.7664C1.70957 22.6558 1.69311 22.4158 1.55207 22.2856C1.40641 22.1512 1.21965 22.1714 0.793589 22.368C0.415062 22.5427 0.198093 22.7255 0.0887973 22.9619C0.00646741 23.14 0.00112199 23.3518 0.000119717 26.4712C-0.00088256 29.6747 0.00236286 29.7972 0.0924246 29.9707C0.262096 30.2975 0.627831 30.5276 1.31157 30.7377C1.52158 30.8023 1.85447 30.8836 2.05135 30.9184C2.50839 30.9993 3.87712 31.0017 4.3184 30.9224C4.8352 30.8294 5.53593 30.603 5.78144 30.4496L6.00356 30.3108L6.40366 30.5081C7.37334 30.9863 8.90244 31.1313 10.2037 30.8685C10.7587 30.7564 11.251 30.5876 11.5075 30.4215L11.6807 30.3093L12.044 30.4964C12.4692 30.7153 13.0981 30.8825 13.7957 30.9623C15.1056 31.112 16.7606 30.8013 17.3447 30.2962C17.7201 29.9714 17.706 30.0593 17.706 28.0498C17.706 26.0476 17.7082 26.0628 17.3692 25.799C16.4291 25.0674 14.129 24.8735 12.5475 25.3926L12.0741 25.5479V24.3849C12.0741 23.5811 12.0901 23.2218 12.1258 23.2218C12.1543 23.2218 12.3422 23.2627 12.5434 23.3127C13.5945 23.574 15.0233 23.6342 16.044 23.4602C18.4267 23.0541 20.4817 21.641 21.7709 19.522C23.7138 16.3286 23.3264 12.4295 20.7991 9.73928C20.0179 8.90777 19.8292 8.79775 19.589 9.03373C19.3749 9.24406 19.4218 9.34789 19.9893 9.92058C20.5921 10.5289 20.9887 11.0402 21.3509 11.6758C22.9963 14.563 22.4229 18.2469 19.9483 20.6868C17.9533 22.6539 15.3069 23.314 12.444 22.5588L12.0741 22.4612L12.0738 21.2587C12.0737 20.5558 12.0525 19.9819 12.023 19.8771C11.8714 19.3409 11.0428 18.9264 9.7937 18.7619C9.53487 18.7278 9.06729 18.7168 8.55694 18.7328L7.73631 18.7585L7.52235 18.2584C6.77393 16.5094 6.68993 14.7108 7.27545 12.9712C7.4362 12.4936 7.89882 11.5668 8.18643 11.1461C8.95618 10.0204 10.0303 9.08832 11.2389 8.49729C11.8936 8.17709 12.4533 7.9851 13.1718 7.83414C13.8947 7.68229 15.2121 7.67952 15.964 7.82828C16.5137 7.93703 17.248 8.16452 17.7238 8.37344C18.0702 8.52548 18.2309 8.52913 18.3658 8.38802C18.47 8.27904 18.4953 8.14806 18.4397 8.00568C18.3736 7.83634 17.299 7.411 16.4412 7.2146C15.5442 7.00924 14.5379 6.94762 13.68 7.04554ZM11.8789 11.8963C10.8908 12.2073 10.5758 13.7977 11.3289 14.6727C11.5247 14.9001 11.9325 15.0777 12.2579 15.0772C13.0884 15.076 13.728 14.1267 13.5552 13.1517C13.39 12.2193 12.6392 11.6571 11.8789 11.8963ZM16.5493 11.9273C16.3494 12.107 12.1218 18.2771 12.1218 18.3891C12.1218 18.6427 12.3443 18.8 12.5859 18.7173C12.6916 18.6811 13.1765 18.01 14.9144 15.4951C16.748 12.8416 17.1087 12.2931 17.1057 12.1642C17.1013 11.9794 17.0161 11.8852 16.8182 11.8463C16.7047 11.824 16.6439 11.8423 16.5493 11.9273ZM12.4852 12.619C12.6596 12.7234 12.8247 13.0328 12.8667 13.3336C12.9433 13.8827 12.5337 14.4734 12.1432 14.3771C11.8285 14.2995 11.556 13.7607 11.6156 13.3336C11.6766 12.8967 11.9621 12.5299 12.2412 12.5299C12.2937 12.5299 12.4035 12.57 12.4852 12.619ZM16.6902 15.5342C16.2863 15.6299 15.9768 15.903 15.7636 16.3516C15.6437 16.6037 15.6299 16.6842 15.6299 17.1263C15.6298 17.5894 15.6395 17.639 15.7867 17.9328C16.2831 18.9236 17.3725 19.0261 17.98 18.1391C18.5612 17.2903 18.2597 15.9486 17.4104 15.6052C17.1825 15.5131 16.8978 15.485 16.6902 15.5342ZM17.2685 16.3406C17.6993 16.7298 17.6521 17.6529 17.1858 17.9574C16.9826 18.09 16.9012 18.0901 16.703 17.9578C16.375 17.7387 16.2332 17.1772 16.3893 16.7155C16.4637 16.4956 16.6429 16.2784 16.7991 16.2187C16.921 16.1722 17.147 16.2308 17.2685 16.3406ZM9.48676 19.4262C10.2609 19.5095 10.8933 19.6929 11.2061 19.9249C11.3604 20.0394 11.3622 20.0446 11.2777 20.1363C10.9994 20.4388 9.82253 20.7356 8.90024 20.7359C8.06009 20.7362 7.06397 20.5337 6.63319 20.2751C6.32706 20.0913 6.34591 19.9996 6.72864 19.8101C7.41811 19.4687 8.49212 19.3192 9.48676 19.4262ZM6.8241 21.1191C7.44493 21.3362 7.95161 21.4088 8.85251 21.4098C9.78864 21.4109 10.3659 21.3243 11.0088 21.0866C11.181 21.0229 11.33 20.9708 11.34 20.9708C11.35 20.9708 11.3582 21.1272 11.3582 21.3183C11.3582 21.6465 11.3503 21.6725 11.2158 21.7836C10.9162 22.0313 10.0601 22.2539 9.19467 22.3091C8.32699 22.3644 7.24553 22.1801 6.67471 21.8795L6.41841 21.7446L6.40448 21.3519C6.39159 20.9902 6.39722 20.9619 6.47607 20.9933C6.52308 21.012 6.67972 21.0686 6.8241 21.1191ZM6.66722 22.6532C7.32509 22.9063 8.45551 23.0653 9.23433 23.0142C9.81098 22.9763 10.5236 22.8398 10.9695 22.6817C11.1503 22.6177 11.3117 22.5653 11.3282 22.5653C11.3447 22.5653 11.3582 22.7227 11.3582 22.9151C11.3582 23.3142 11.3165 23.377 10.9341 23.5536C9.88252 24.0393 7.75282 24.0336 6.7579 23.5423C6.41202 23.3715 6.39455 23.3422 6.39455 22.9332C6.39455 22.7308 6.40448 22.5653 6.41665 22.5653C6.42882 22.5653 6.54155 22.6048 6.66722 22.6532ZM7.56387 24.5134C8.15111 24.6342 9.17424 24.6558 9.82744 24.5612C10.2686 24.4974 10.9414 24.3213 11.2985 24.1761C11.3433 24.1579 11.3582 24.2446 11.3582 24.5237C11.3582 24.9301 11.3383 24.9661 11.0283 25.1206C10.0176 25.6241 8.0452 25.6679 6.90385 25.2122C6.44571 25.0293 6.39455 24.9611 6.39455 24.5323V24.1709L6.7883 24.3029C7.00484 24.3755 7.35387 24.4703 7.56387 24.5134ZM1.17946 24.3456C1.82388 24.5577 2.40687 24.644 3.19681 24.644C3.98675 24.644 4.56974 24.5577 5.21415 24.3456C5.44635 24.2692 5.64585 24.2066 5.65749 24.2066C5.66914 24.2066 5.67864 24.3638 5.67864 24.5559C5.67864 24.8953 5.6742 24.9085 5.52352 25.0197C4.92163 25.4639 3.19285 25.664 2.00744 25.4266C1.45189 25.3154 0.988794 25.1464 0.824946 24.9952C0.729538 24.9071 0.714981 24.8482 0.714981 24.5502C0.714981 24.3612 0.724479 24.2066 0.736125 24.2066C0.74777 24.2066 0.947271 24.2692 1.17946 24.3456ZM1.70633 26.0884C2.23887 26.2102 3.58617 26.2603 4.15055 26.1792C4.62042 26.1116 5.1595 25.9762 5.45761 25.8506L5.67864 25.7575V26.1237C5.67864 26.545 5.65959 26.5731 5.24766 26.7583C4.68051 27.0135 4.21202 27.0891 3.19681 27.0891C2.1816 27.0891 1.71311 27.0135 1.14596 26.7583C0.734645 26.5733 0.714981 26.5445 0.714981 26.1275V25.765L1.00235 25.8791C1.16037 25.9418 1.47714 26.036 1.70633 26.0884ZM7.07018 26.0057C7.70071 26.1846 8.24709 26.2384 9.14666 26.2101C9.96762 26.1843 10.3703 26.1164 11.0078 25.8962C11.1593 25.8439 11.3002 25.8011 11.3207 25.8011C11.3414 25.8011 11.3582 25.9488 11.3582 26.1293C11.3582 26.5003 11.3145 26.5695 10.9714 26.7415C10.3251 27.0655 8.86778 27.2093 7.87873 27.0468C7.29407 26.9508 6.77155 26.7823 6.55491 26.6199C6.39655 26.5012 6.39455 26.4951 6.39455 26.1257V25.7518L6.53324 25.8223C6.60956 25.861 6.85116 25.9436 7.07018 26.0057ZM15.5545 25.8758C16.369 26.0132 17.0063 26.2839 16.9791 26.4809C16.961 26.6117 16.48 26.8376 15.9311 26.9731C14.7392 27.2673 12.7669 27.0679 12.2144 26.5974L12.0503 26.4576L12.2173 26.3153C12.4029 26.1572 12.9329 25.9751 13.5022 25.8738C14.0074 25.7839 15.0161 25.7849 15.5545 25.8758ZM2.12356 27.75C2.49049 27.8091 2.78702 27.821 3.41158 27.8016C4.2786 27.7747 4.76189 27.6927 5.35839 27.4716L5.68245 27.3514L5.66861 27.7351L5.65477 28.1187L5.44 28.2475C5.17101 28.4088 4.52187 28.594 3.97386 28.6658C3.50255 28.7276 2.45947 28.7004 2.05135 28.6157C1.63502 28.5294 1.06807 28.3366 0.896393 28.2232C0.74252 28.1215 0.738511 28.1102 0.725147 27.7425L0.711402 27.3661L1.17918 27.5196C1.43643 27.6041 1.86139 27.7077 2.12356 27.75ZM7.1979 27.6268C7.8551 27.7896 8.31997 27.8319 9.13372 27.803C9.95339 27.7739 10.4603 27.6858 11.036 27.4723L11.3582 27.3528V27.7005C11.3582 28.0195 11.3474 28.0581 11.227 28.1682C11.0729 28.309 10.7297 28.4424 10.1655 28.5809C9.61095 28.717 8.24246 28.7278 7.64281 28.6007C7.16812 28.5001 6.79618 28.3687 6.57797 28.2245C6.42123 28.1208 6.41817 28.1123 6.40457 27.7347L6.39073 27.3504L6.61133 27.4433C6.73265 27.4944 6.99663 27.577 7.1979 27.6268ZM13.0287 27.6676C13.4887 27.7816 13.6101 27.7919 14.5082 27.793C15.5589 27.7942 15.8787 27.751 16.5731 27.5139C16.7631 27.449 16.9399 27.3905 16.9662 27.384C16.9936 27.3771 17.02 27.5096 17.0282 27.6949C17.0404 27.9732 17.0281 28.0327 16.9386 28.1263C16.7926 28.2789 16.4685 28.4189 15.9404 28.5573C15.5368 28.6631 15.389 28.6767 14.6037 28.6807C13.9194 28.6842 13.6311 28.6662 13.3224 28.6007C12.8477 28.5001 12.4757 28.3687 12.2575 28.2245C12.1008 28.1208 12.0977 28.1123 12.0841 27.7347L12.0703 27.3504L12.2989 27.4468C12.4246 27.4999 12.753 27.5992 13.0287 27.6676ZM1.2764 29.1276C1.98305 29.3574 2.52528 29.4255 3.41158 29.3958C4.30404 29.3658 4.87362 29.2538 5.59511 28.9663C5.67028 28.9364 5.67864 28.9684 5.67864 29.2864C5.67864 29.7011 5.65258 29.7383 5.22379 29.9354C4.54998 30.2452 3.24945 30.3815 2.31385 30.2403C1.73172 30.1525 1.13431 29.9715 0.893959 29.8101L0.714981 29.69V29.3127C0.714981 29.0291 0.729825 28.9413 0.774641 28.9595C0.807477 28.9729 1.03323 29.0484 1.2764 29.1276ZM6.87182 29.1116C7.50956 29.33 7.93557 29.3886 8.87638 29.3877C9.91712 29.3867 10.4638 29.2907 11.2747 28.9664C11.3498 28.9364 11.3582 28.9682 11.3582 29.2816C11.3582 29.5832 11.3437 29.6432 11.2508 29.7268C10.8899 30.0517 9.85947 30.2986 8.85251 30.3013C8.02988 30.3036 6.96756 30.0746 6.57353 29.8101L6.39455 29.69V29.3115C6.39455 28.9685 6.40238 28.9364 6.47807 28.9692C6.52403 28.9891 6.7012 29.0531 6.87182 29.1116ZM13.2673 29.3037C13.5768 29.3685 13.8824 29.3884 14.5559 29.3877C15.5288 29.3868 15.9385 29.3256 16.6293 29.0786C16.8377 29.0041 17.015 28.9431 17.023 28.9431C17.0311 28.9431 17.0378 29.0977 17.0378 29.2866C17.0378 29.6885 16.9873 29.7578 16.56 29.9426C15.8105 30.2667 14.6491 30.3834 13.6489 30.2353C13.1071 30.155 12.4852 29.9694 12.2606 29.821C12.1005 29.7151 12.0978 29.7077 12.0842 29.3332L12.0704 28.953L12.466 29.0859C12.6836 29.159 13.0442 29.257 13.2673 29.3037Z" fill="black"/>
</svg>
