<svg width="25" height="25" viewBox="0 0 25 25" fill="none" xmlns="http://www.w3.org/2000/svg">
<circle cx="12" cy="13" r="11" fill="#F6C443"/>
<path fill-rule="evenodd" clip-rule="evenodd" d="M22.8661 2.01709C22.4452 2.10899 22.6934 1.86391 18.13 6.69316L13.8878 11.1825L12.2918 9.49108C10.5667 7.66288 10.5314 7.6315 10.1064 7.54855C9.93643 7.51534 9.84091 7.51478 9.69402 7.54601C9.31714 7.62625 9.16632 7.73053 8.67591 8.25016C8.29487 8.65392 8.20114 8.77466 8.10938 8.98005C8.00867 9.20535 7.99946 9.25446 8.00002 9.56106C8.00059 9.85384 8.01283 9.9248 8.09734 10.1251C8.18807 10.3401 8.35183 10.5219 10.7547 13.0747C12.6041 15.0394 13.3626 15.8228 13.4854 15.8947C13.7221 16.0334 14.0451 16.0352 14.2875 15.8993C14.413 15.8289 15.726 14.456 19.6303 10.3127C24.5568 5.08473 24.8114 4.80841 24.9031 4.59034C24.9871 4.39038 24.9994 4.3185 25 4.02628C25.0009 3.54158 24.9098 3.3522 24.4156 2.81166C23.9963 2.35305 23.7918 2.17985 23.5606 2.08756C23.365 2.00947 23.0482 1.97732 22.8661 2.01709Z" fill="#333333"/>
</svg>
