<svg width="13" height="17" viewBox="0 0 13 17" fill="none" xmlns="http://www.w3.org/2000/svg">
<path fill-rule="evenodd" clip-rule="evenodd" d="M5.67253 0.06008C3.50076 0.372324 1.66873 1.76315 0.683626 3.84755C0.31682 4.62369 0.108035 5.41802 0.0261406 6.349C-0.0125698 6.78932 -0.0100556 6.91445 0.0455883 7.3232C0.172146 8.25246 0.481903 9.26771 0.870375 10.0263C1.19348 10.6574 2.04381 11.9727 2.82298 13.0467C4.08607 14.7877 5.88099 16.8458 6.23141 16.955C6.42422 17.015 6.58461 17.015 6.77742 16.955C7.17251 16.8319 9.1236 14.5513 10.4791 12.628C12.1829 10.2106 12.729 9.04541 12.9613 7.33194C13.1312 6.07919 12.7326 4.43279 11.9483 3.14761C10.5913 0.923838 8.12024 -0.291878 5.67253 0.06008ZM7.28702 3.90694C7.7213 4.05427 8.03867 4.26232 8.37479 4.62015C8.85144 5.12758 9.10726 5.71511 9.15351 6.4084C9.2282 7.52882 8.64647 8.62929 7.71797 9.12405C7.26569 9.36505 7.01442 9.42504 6.46745 9.42271C6.04906 9.4209 5.9746 9.40925 5.68137 9.29975C5.22905 9.13082 4.97974 8.9635 4.63719 8.59898C4.29878 8.23884 4.10437 7.90865 3.96517 7.45754C3.88235 7.18918 3.86753 7.07 3.86483 6.65066C3.86109 6.06734 3.91648 5.8043 4.14656 5.31241C4.41713 4.73402 5.01065 4.17168 5.58188 3.95248C6.1016 3.75304 6.77986 3.73494 7.28702 3.90694Z" fill="#143586"/>
</svg>
