<svg width="66" height="59" viewBox="0 0 66 59" fill="none" xmlns="http://www.w3.org/2000/svg">
<path d="M24.5434 33.3104V59H0V38.7188C0 27.7382 1.35645 19.7896 4.06936 14.8729C7.63006 8.31736 13.2678 3.35972 20.9827 0L26.578 8.60417C21.9152 10.4889 18.4817 13.316 16.2775 17.0854C14.0732 20.7729 12.8439 26.1812 12.5896 33.3104H24.5434ZM63.9653 33.3104V59H39.422V38.7188C39.422 27.7382 40.7784 19.7896 43.4913 14.8729C47.052 8.31736 52.6898 3.35972 60.4046 0L66 8.60417C61.3372 10.4889 57.9037 13.316 55.6994 17.0854C53.4952 20.7729 52.2659 26.1812 52.0116 33.3104H63.9653Z" fill="#EB5757"/>
</svg>
