<svg width="46" height="46" viewBox="0 0 46 46" fill="none" xmlns="http://www.w3.org/2000/svg">
<rect x="0.5" y="0.5" width="45" height="45" stroke="black"/>
<path fill-rule="evenodd" clip-rule="evenodd" d="M28.0918 11.1883C28.7716 11.531 29.0825 12.2659 28.8632 13.0118C28.7837 13.2822 28.6546 13.4768 28.3721 13.7521C28.1613 13.9575 25.9574 15.8829 23.4745 18.0309C20.9916 20.1787 18.9619 21.9586 18.964 21.9862C18.9661 22.0138 20.9759 23.7698 23.4302 25.8884C29.0634 30.7511 28.7927 30.5008 28.932 30.9747C29.3221 32.3025 27.9587 33.4629 26.7696 32.8152C26.3422 32.5824 15.537 23.2009 15.2889 22.8472C14.83 22.1931 14.923 21.4125 15.5312 20.8139C15.7219 20.6261 18.2981 18.3789 21.2558 15.8203C25.2901 12.3303 26.7052 11.1465 26.9207 11.0812C27.3613 10.9476 27.6705 10.9759 28.0918 11.1883Z" fill="black"/>
</svg>
