<svg width="46" height="46" viewBox="0 0 46 46" fill="none" xmlns="http://www.w3.org/2000/svg">
<rect x="-0.5" y="0.5" width="45" height="45" transform="matrix(-1 0 0 1 45 0)" stroke="black"/>
<path fill-rule="evenodd" clip-rule="evenodd" d="M17.9082 11.1883C17.2284 11.531 16.9175 12.2659 17.1368 13.0118C17.2163 13.2822 17.3454 13.4768 17.6279 13.7521C17.8387 13.9575 20.0426 15.8829 22.5255 18.0309C25.0084 20.1787 27.0381 21.9586 27.036 21.9862C27.0339 22.0138 25.0241 23.7698 22.5698 25.8884C16.9366 30.7511 17.2073 30.5008 17.068 30.9747C16.6779 32.3025 18.0413 33.4629 19.2304 32.8152C19.6578 32.5824 30.463 23.2009 30.7111 22.8472C31.17 22.1931 31.077 21.4125 30.4688 20.8139C30.2781 20.6261 27.7019 18.3789 24.7442 15.8203C20.7099 12.3303 19.2948 11.1465 19.0793 11.0812C18.6387 10.9476 18.3295 10.9759 17.9082 11.1883Z" fill="black"/>
</svg>
