<svg width="16" height="16" viewBox="0 0 16 16" fill="none" xmlns="http://www.w3.org/2000/svg">
<path fill-rule="evenodd" clip-rule="evenodd" d="M5.56062 0.0340415C4.17153 0.209639 2.8583 0.85526 1.86152 1.85264C-0.0244081 3.73971 -0.533254 6.60041 0.592316 8.98819C1.52242 10.9613 3.37731 12.3265 5.50751 12.6058C7.08812 12.8131 8.70657 12.4068 9.99856 11.4786C10.1521 11.3682 10.2888 11.2779 10.3023 11.2779C10.3158 11.2779 11.3609 12.3118 12.6248 13.5753C15.047 15.9968 15.0496 15.9992 15.3293 16C15.4673 16.0004 15.7372 15.8869 15.8199 15.7937C15.91 15.6922 16 15.4597 16 15.3285C16 15.0492 15.9977 15.0466 13.5772 12.6224C12.3144 11.3577 11.2812 10.3134 11.2812 10.3017C11.2812 10.29 11.3725 10.1513 11.4842 9.99342C12.2609 8.89532 12.6544 7.67033 12.656 6.34534C12.6581 4.63143 12.001 3.04604 10.7892 1.84079C9.83489 0.891669 8.65696 0.290088 7.31116 0.0644756C6.88662 -0.00671444 6.00429 -0.0220409 5.56062 0.0340415ZM7.06108 1.37933C8.48659 1.60842 9.70353 2.37946 10.4761 3.54312C11.0507 4.4086 11.3146 5.27411 11.3181 6.30464C11.3198 6.80091 11.2844 7.10162 11.1706 7.55663C10.7305 9.31608 9.32048 10.727 7.56208 11.1673C7.10735 11.2812 6.80682 11.3166 6.31085 11.3149C5.28094 11.3114 4.41595 11.0473 3.55099 10.4724C2.17053 9.55477 1.34117 7.9996 1.34067 6.32776C1.34042 5.48674 1.51282 4.78207 1.90407 4.02465C2.53623 2.80088 3.65868 1.88992 5.01357 1.50101C5.58484 1.33704 6.47046 1.2844 7.06108 1.37933Z" fill="#383A43"/>
</svg>
