<svg width="40" height="41" viewBox="0 0 40 41" fill="none" xmlns="http://www.w3.org/2000/svg">
<path fill-rule="evenodd" clip-rule="evenodd" d="M18.1282 0.728685C14.236 1.10604 10.3781 2.69196 7.35292 5.1582C6.46309 5.88366 5.05422 7.30671 4.34453 8.19707C2.55009 10.4482 1.0796 13.4932 0.46973 16.2204C0.0867435 17.9335 0 18.7663 0 20.7315C0 22.6966 0.0867435 23.5294 0.46973 25.2425C1.09291 28.0292 2.60176 31.1177 4.45586 33.4016C5.17979 34.2933 6.59986 35.7051 7.48836 36.4163C9.73476 38.2145 12.7734 39.6881 15.4949 40.2992C17.2044 40.683 18.0354 40.7699 19.9965 40.7699C21.9575 40.7699 22.7886 40.683 24.4981 40.2992C26.5443 39.8397 29.2198 38.694 30.978 37.5243C34.0273 35.4956 36.3693 32.8264 37.9684 29.5574C38.9478 27.5549 39.5041 25.7615 39.8546 23.4773C40.0485 22.2134 40.0485 19.2495 39.8546 17.9856C39.5041 15.7015 38.9478 13.908 37.9684 11.9055C36.9231 9.76864 35.758 8.14294 34.076 6.47448C32.4246 4.83639 30.9118 3.75994 28.8039 2.72295C26.8294 1.75155 25.0015 1.17869 22.8149 0.845971C21.8316 0.696362 19.1528 0.629285 18.1282 0.728685ZM22.5017 2.6565C26.4778 3.23525 30.0717 5.02962 32.8686 7.83235C35.6741 10.6437 37.4126 14.1443 38.0473 18.2602C38.1402 18.8627 38.1804 19.6086 38.1804 20.7315C38.1804 23.699 37.5988 26.2085 36.3042 28.8279C33.6176 34.2635 28.6282 37.8654 22.4626 38.8202C21.2802 39.0033 18.7128 39.0033 17.5304 38.8202C13.4232 38.1841 9.92986 36.442 7.1244 33.6306C4.31885 30.8192 2.58038 27.3186 1.9457 23.2027C1.76297 22.0179 1.76297 19.4451 1.9457 18.2602C2.2684 16.1678 2.81572 14.4016 3.68879 12.6351C6.32734 7.29675 11.2814 3.66282 17.2539 2.68467C18.764 2.43739 20.9171 2.42577 22.5017 2.6565ZM23.9109 13.4906C23.1537 13.5739 22.3539 13.9792 21.7476 14.5867C21.0207 15.3152 20.6661 16.2448 20.7138 17.2968L20.7422 17.9254L20.1585 17.8724C17.8719 17.6647 15.5869 16.5859 13.8297 14.8841C13.4142 14.4817 13.0488 14.1683 13.0175 14.1876C12.8946 14.2637 12.6263 15.1379 12.583 15.6033C12.4864 16.6399 12.8555 17.6514 13.617 18.4367L14.0924 18.9271L13.8542 18.925C13.7232 18.9239 13.3782 18.8418 13.0875 18.7425L12.5591 18.5621L12.56 18.8426C12.5625 19.5889 12.9984 20.5412 13.6316 21.1837C14.0391 21.5972 15.0059 22.1423 15.3361 22.1448C15.4673 22.1458 15.4745 22.1592 15.3775 22.2221C15.3129 22.2639 14.9494 22.2986 14.5698 22.2993C13.8902 22.3005 13.8803 22.3033 13.9338 22.477C14.1108 23.0522 14.6773 23.7548 15.3 24.1715C15.8028 24.5079 16.6225 24.809 17.0493 24.8138L17.2955 24.8167L17.0607 25.0107C16.7239 25.289 15.5816 25.862 14.986 26.0513C14.1591 26.3142 13.5889 26.4004 12.6889 26.3983L11.8401 26.3965L12.0824 26.5442C13.1037 27.1666 14.6997 27.7246 16.0038 27.9152C17.0856 28.0733 18.767 28.0362 19.7202 27.8332C23.7041 26.9846 26.6858 24.2291 27.787 20.3784C28.013 19.5881 28.1151 18.9515 28.1836 17.9072L28.2375 17.0834L28.8339 16.5251C29.516 15.8863 30.0641 15.1825 29.8162 15.2635C29.3509 15.4154 28.2374 15.71 28.1277 15.7103C28.0492 15.7104 28.2177 15.4902 28.5628 15.1417C29.0133 14.6866 29.4694 14.0089 29.4694 13.7944C29.4694 13.7751 29.2116 13.8787 28.8965 14.0246C28.5814 14.1705 28.0673 14.361 27.7541 14.448L27.1845 14.6062L26.7807 14.3042C25.8664 13.6202 24.9903 13.3719 23.9109 13.4906Z" fill="white"/>
</svg>
