<svg width="60" height="60" viewBox="0 0 60 60" fill="none" xmlns="http://www.w3.org/2000/svg">
<circle cx="19" cy="19" r="19" fill="#F2C94C"/>
<path fill-rule="evenodd" clip-rule="evenodd" d="M9.65415 5.16093C7.88389 5.63825 6.57872 6.97883 6.16214 8.74776C5.94385 9.67426 5.94697 29.1904 6.16546 30.1183C6.54572 31.7332 7.64861 32.9447 9.3147 33.5778C9.86795 33.788 9.92467 33.7895 18.5327 33.8192L27.194 33.8491L27.2219 42.5189L27.2498 51.1885L27.4694 51.7671C28.0492 53.2938 29.0299 54.265 30.5088 54.7768L31.154 55H41.6H52.0461L52.6913 54.7768C54.3191 54.2134 55.4334 52.9942 55.8424 51.3288C55.9822 50.7595 55.9999 49.5551 55.9999 40.6335C55.9999 29.5618 56.0188 29.9322 55.3957 28.7466C55.0259 28.0427 54.1773 27.1932 53.4742 26.823C52.3049 26.2072 52.4905 26.2182 43.229 26.2182H34.815V17.7361C34.815 10.5394 34.7929 9.16938 34.6696 8.69528C34.2123 6.93769 32.8899 5.61382 31.1342 5.15605C30.3243 4.94495 10.4386 4.94944 9.65415 5.16093ZM39.185 5.16347C38.8601 5.33998 38.6224 5.77302 38.6224 6.18819C38.6224 6.40554 38.7156 6.58888 38.9397 6.81191C39.2523 7.12308 39.2773 7.12943 40.6238 7.24183C42.8376 7.42663 44.4385 7.88656 46.3152 8.87706C50.5612 11.118 53.2589 15.2145 53.7885 20.225L53.8317 20.6333L51.865 20.6648C49.6951 20.6996 49.5819 20.7284 49.3034 21.3158C48.9959 21.9643 49.3554 22.6284 50.1085 22.8035C50.536 22.9028 54.3913 22.9251 54.9567 22.8316C55.1842 22.794 55.4455 22.6534 55.628 22.4708L55.9269 22.1715L55.8733 20.6521C55.6366 13.9444 51.2335 8.07146 44.817 5.90467C43.465 5.44807 42.5853 5.257 41.1748 5.11344C39.8558 4.97915 39.5083 4.98795 39.185 5.16347ZM31.0212 7.37103C31.573 7.6219 32.1331 8.18718 32.387 8.74952L32.6184 9.26183L32.6463 17.7256L32.6743 26.1894L31.9036 26.2539C30.9293 26.3352 30.2732 26.5299 29.5651 26.9482C28.1748 27.7693 27.3547 29.1566 27.2284 30.9008L27.1688 31.723L18.6903 31.6606C10.3072 31.599 10.2062 31.5958 9.72503 31.3886C9.18964 31.1581 8.62302 30.5942 8.37309 30.0434C8.22626 29.7198 8.21172 28.764 8.21172 19.4747C8.21172 8.14251 8.1713 8.83338 8.8785 8.06531C9.31587 7.59033 9.62867 7.39917 10.1855 7.26616C10.3948 7.21622 14.9097 7.18485 20.6103 7.19374C29.7323 7.20801 30.6988 7.22443 31.0212 7.37103ZM19.7037 10.6731C19.5459 10.8311 19.3887 11.1004 19.3545 11.2717C19.3204 11.4429 19.2923 12.4351 19.2923 13.4765V15.37L16.4368 15.3706C14.7797 15.3709 13.4293 15.4133 13.2193 15.4718C12.4576 15.6835 12.1928 16.6527 12.7455 17.206C13.0884 17.5492 13.3811 17.6178 14.5039 17.6178H15.3535L15.4745 18.4241C15.7746 20.4222 16.7475 22.5497 18.0808 24.123C18.3712 24.4659 18.6089 24.7678 18.6089 24.794C18.6089 24.8202 18.4159 24.9549 18.1801 25.0933C17.1725 25.6845 15.5853 26.1507 14.1669 26.2721C13.1559 26.3586 12.7951 26.5106 12.593 26.9348C12.3733 27.396 12.4769 27.8932 12.8598 28.2158C13.1182 28.4335 13.2479 28.4659 13.8572 28.4656C15.8072 28.4645 18.4448 27.6538 20.0493 26.5623C20.2416 26.4315 20.4464 26.3518 20.5046 26.3851C20.5628 26.4184 20.7212 26.5223 20.8567 26.616C21.3672 26.969 22.8855 27.6723 23.6687 27.9187C24.6811 28.2371 26.056 28.4651 26.9673 28.4656C27.7509 28.4661 28.0574 28.3053 28.2747 27.7801C28.4381 27.3854 28.265 26.7695 27.9288 26.5489C27.7882 26.4567 27.2354 26.3386 26.5904 26.2629C24.8619 26.0602 23.9389 25.7914 22.6964 25.1284L22.1149 24.8181L22.4471 24.4675C23.9082 22.9258 25.1079 20.3503 25.3931 18.143L25.4578 17.6419L26.5732 17.5991C27.6407 17.5582 27.701 17.5443 27.98 17.2768C28.3482 16.9238 28.4406 16.4735 28.2343 16.0383C27.9415 15.4206 27.9488 15.4219 24.5886 15.3893L21.5377 15.3598V13.4713C21.5377 12.4327 21.5097 11.4429 21.4756 11.2717C21.3077 10.4319 20.2886 10.0876 19.7037 10.6731ZM23.1974 17.8954C23.1974 18.3235 22.8529 19.5732 22.5028 20.415C22.1491 21.2656 21.2397 22.6792 20.7319 23.1678L20.3981 23.4892L19.9898 23.0458C19.404 22.4097 18.6792 21.2614 18.3233 20.4055C17.9888 19.6011 17.6366 18.3136 17.6341 17.8866L17.6327 17.6178H20.415H23.1974V17.8954ZM52.3066 28.6419C52.5572 28.7655 52.9388 29.0582 53.1543 29.2923C53.8855 30.0865 53.8522 29.5435 53.8522 40.6335C53.8522 51.7236 53.8855 51.1806 53.1543 51.9747C52.9388 52.2089 52.5572 52.5015 52.3066 52.6251L51.8508 52.8499H41.6488H31.4468L30.9336 52.6177C30.3541 52.3555 29.8945 51.8833 29.6249 51.2731C29.4493 50.8757 29.4431 50.4452 29.4682 40.5101L29.4943 30.1609L29.7895 29.6829C30.1409 29.1141 30.7188 28.683 31.366 28.5069C31.7428 28.4045 33.8457 28.3826 41.8441 28.398L51.8508 28.4171L52.3066 28.6419ZM41.0944 32.6306C40.9238 32.715 40.7179 32.9235 40.6369 33.0942C40.2886 33.8291 35.3031 47.5586 35.3031 47.783C35.3031 48.8498 36.8051 49.2157 37.2998 48.2694C37.3877 48.1011 37.7326 47.2377 38.0661 46.3508L38.6727 44.7382H41.6887H44.7046L45.3978 46.587C46.1723 48.653 46.3144 48.8478 47.0333 48.829C47.6109 48.8138 48.0294 48.3771 48.0208 47.7986C48.0162 47.4951 47.2748 45.4137 45.3755 40.3734C43.9241 36.5214 42.6669 33.2347 42.5816 33.0696C42.2997 32.5239 41.6808 32.3412 41.0944 32.6306ZM42.7327 39.7931C43.2658 41.2659 43.6859 42.4873 43.6661 42.5071C43.6463 42.527 42.6869 42.5313 41.5343 42.5168L39.4386 42.4904L40.4905 39.6073C41.069 38.0217 41.5472 36.7023 41.553 36.6754C41.5699 36.5974 41.7059 36.957 42.7327 39.7931ZM6.44467 37.5941L6.11274 37.9264L6.1145 38.889C6.11772 40.5872 6.48138 42.5675 7.10795 44.2984C9.3519 50.4973 15.3862 54.8816 21.8149 54.984L22.821 55L23.1068 54.6808C23.525 54.2139 23.508 53.6789 23.0607 53.2311C22.8727 53.0428 22.6293 52.8984 22.4994 52.8979C21.7724 52.8953 19.9071 52.67 19.162 52.495C13.6127 51.1907 9.38177 46.6934 8.41751 41.0741C8.33121 40.571 8.26053 39.9911 8.26053 39.7856V39.4119H10.0697C12.1435 39.4119 12.4543 39.3392 12.7144 38.793C12.9341 38.3318 12.8305 37.8346 12.4476 37.512L12.1507 37.2618H9.46358H6.7766L6.44467 37.5941Z" fill="black"/>
</svg>
