<svg width="44" height="48" viewBox="0 0 44 48" fill="none" xmlns="http://www.w3.org/2000/svg">
<path fill-rule="evenodd" clip-rule="evenodd" d="M19.9682 0.0883286C14.1283 0.740079 9.21469 5.10902 7.88982 10.8275C7.57125 12.2023 7.49944 13.3177 7.49944 16.8867C7.49944 20.6692 7.53094 20.923 8.091 21.6611C8.259 21.8826 8.6115 22.1903 8.87438 22.345L9.35232 22.6262L9.39207 23.5168C9.43932 24.5763 9.63675 25.0916 10.2182 25.6731C10.7694 26.2243 11.3215 26.4474 12.2618 26.4985L13.0397 26.5408L13.2821 27.021C13.6062 27.6626 13.9947 28.2333 14.5475 28.8797L15.0048 29.4145L14.211 31L13.4172 32.5854L10.7162 33.4941C7.16747 34.6879 6.11429 35.2562 4.38891 36.9082C2.05529 39.1427 0.636192 41.9194 0.141192 45.22C0.0638485 45.7356 0.000286116 46.4204 4.86568e-06 46.7419C-0.000463884 47.2556 0.032536 47.3635 0.273005 47.6325L0.546567 47.9387L21.5052 47.9628L42.4639 47.9868L42.7637 47.7189C43.0239 47.4864 43.0689 47.3771 43.104 46.8923C43.1262 46.585 43.076 45.867 42.9923 45.2966C42.5001 41.9401 41.0914 39.1645 38.735 36.9082C37.0096 35.2562 35.9564 34.6879 32.4077 33.4941L29.7067 32.5854L28.9129 31L28.1191 29.4145L28.5764 28.8797C29.7568 27.4994 30.5434 25.8454 30.8813 24.0325C30.9679 23.5684 31.0577 23.098 31.0809 22.9872C31.1211 22.7961 31.1852 22.7838 32.3192 22.75C33.2855 22.7212 33.5987 22.6762 33.9509 22.5157C34.5063 22.2625 35.1176 21.6523 35.3761 21.0933C35.5688 20.6765 35.5789 20.5062 35.6076 17.1887C35.6259 15.0854 35.5965 13.314 35.5332 12.6887C35.1998 9.39667 33.8784 6.57442 31.5663 4.21567C28.526 1.11414 24.2886 -0.393828 19.9682 0.0883286ZM23.8561 2.0957C26.3869 2.62398 28.3687 3.68477 30.1469 5.46311C32.1062 7.4223 33.275 9.78499 33.6403 12.5246L33.7184 13.1106H32.8149H31.9115L31.7923 12.1562C31.261 7.8993 28.1445 4.6098 23.9494 3.87827C22.8585 3.68805 20.2654 3.68805 19.1745 3.87827C14.9794 4.6098 11.8628 7.8993 11.3316 12.1562L11.2124 13.1106H10.3022C9.48563 13.1106 9.39525 13.0937 9.42394 12.9465C9.44157 12.8562 9.50504 12.445 9.56513 12.0325C9.79191 10.4739 10.4515 8.8098 11.4455 7.28814C12.1319 6.2373 13.6948 4.64973 14.6969 3.98533C16.1416 3.02749 18.0189 2.27392 19.4994 2.05764C19.8862 2.00111 20.308 1.93652 20.4369 1.91392C20.9258 1.82852 23.1397 1.94617 23.8561 2.0957ZM23.7334 5.74511C25.1186 6.01595 26.1048 6.4728 27.1968 7.34955C28.8821 8.70264 29.8536 10.6786 29.9731 12.9968L30.0277 14.0548L29.6151 13.9955C28.5006 13.8352 26.8472 13.4599 26.0993 13.1974C24.2717 12.5562 22.2833 11.4 20.9994 10.232C20.1404 9.45048 19.9858 9.36058 19.502 9.36067C18.5543 9.36095 16.883 9.77158 15.9905 10.2233C15.2105 10.6181 14.3727 11.2197 13.7882 11.8049L13.1863 12.4075L13.2477 11.9595C13.4076 10.793 14.0949 9.33114 14.9881 8.25845C16.0313 7.00539 17.7376 6.03442 19.4526 5.71802C20.2221 5.57608 22.9573 5.59333 23.7334 5.74511ZM19.7548 11.6345C22.2533 13.8535 25.3075 15.2347 28.9081 15.7739C29.4165 15.85 29.8544 15.9343 29.8813 15.9611C29.9526 16.0324 29.7404 18.7312 29.5277 20.4595C29.0206 24.5806 28.5964 25.8893 27.2156 27.5918C26.3202 28.6958 24.8114 29.6779 23.4369 30.0513C22.5893 30.2816 20.5347 30.2816 19.6869 30.0514C18.2095 29.65 16.6525 28.5851 15.6857 27.3145C15.4114 26.9541 15.1869 26.6272 15.1869 26.588C15.1869 26.5489 15.5982 26.5182 16.101 26.5199L17.0151 26.5231L17.2963 27.0089C17.6438 27.6094 18.2255 28.062 18.902 28.2587C19.6978 28.4901 22.1039 28.4162 22.7009 28.1421C23.2584 27.8861 23.8692 27.2751 24.1241 26.7183C24.4013 26.1129 24.4013 25.0458 24.1241 24.4404C23.8692 23.8836 23.2584 23.2725 22.7009 23.0166C22.1039 22.7425 19.6978 22.6686 18.902 22.9C18.2255 23.0966 17.6438 23.5493 17.2963 24.1497L17.0151 24.6355L15.6323 24.6387C14.8717 24.6404 14.2494 24.6102 14.2493 24.5715C14.2493 24.5328 14.1877 24.2057 14.1123 23.8446C13.7795 22.2492 13.365 18.772 13.257 16.6688L13.197 15.5012L13.9441 14.5141C14.3549 13.9712 14.9723 13.2693 15.316 12.9543C16.3388 12.0172 17.7773 11.3833 19.1917 11.2466C19.2544 11.2405 19.5078 11.4151 19.7548 11.6345ZM11.2838 15.4309C11.3125 15.6759 11.3618 16.3825 11.3935 17.0012C11.4253 17.62 11.5109 18.6746 11.5838 19.345C11.6567 20.0153 11.7168 20.6416 11.7173 20.7369C11.7181 20.8953 11.6431 20.9072 10.8295 20.8775C10.0044 20.8473 9.92232 20.8264 9.6811 20.5852L9.42132 20.3254L9.39375 17.6555L9.36619 14.9856H10.299H11.2318L11.2838 15.4309ZM33.7301 17.6555L33.7026 20.3254L33.4428 20.5852C33.2016 20.8264 33.1194 20.8473 32.2943 20.8775C31.4808 20.9072 31.4058 20.8953 31.4066 20.7369C31.4071 20.6416 31.4674 20.0153 31.5406 19.345C31.6138 18.6746 31.6993 17.5989 31.7304 16.9543C31.7617 16.3098 31.8094 15.6032 31.8366 15.384L31.886 14.9856H32.8218H33.7577L33.7301 17.6555ZM12.0424 22.9778C12.068 23.0938 12.1344 23.455 12.19 23.7805C12.2455 24.106 12.3169 24.4396 12.3485 24.5219C12.4383 24.7559 11.8179 24.5964 11.5338 24.3124C11.3421 24.1208 11.2962 23.9691 11.2654 23.4241L11.2283 22.7668H11.6121C11.9338 22.7668 12.0034 22.801 12.0424 22.9778ZM22.1907 24.9465C22.5773 25.3335 22.5547 25.8785 22.1363 26.2523L21.8243 26.531L20.57 26.5005C19.3694 26.4713 19.3055 26.4597 19.0765 26.2305C18.7333 25.8869 18.6778 25.4143 18.9414 25.0793C19.251 24.6857 19.4319 24.6443 20.7398 24.6675C21.904 24.6881 21.9395 24.695 22.1907 24.9465ZM27.4281 32.1552L28.0455 33.3874L27.7943 34.095C27.463 35.028 26.7932 36.5905 26.3267 37.5185L25.9518 38.264L24.3673 36.6816L22.7828 35.0992L23.1855 34.6752C23.4069 34.442 24.2977 33.5023 25.1648 32.5871C26.0319 31.672 26.757 30.9231 26.776 30.9231C26.7951 30.9231 27.0884 31.4775 27.4281 32.1552ZM18.6829 36.7049C17.8799 37.5468 17.2047 38.2356 17.1825 38.2356C17.103 38.2356 15.9543 35.7287 15.513 34.5922L15.063 33.4332L15.6148 32.3172L16.1666 31.2012L18.1548 33.1877L20.1428 35.1743L18.6829 36.7049ZM21.6696 32.095H23.0429L22.2818 32.8918C21.8632 33.3301 21.4976 33.6995 21.4696 33.7126C21.4415 33.7257 21.0184 33.3345 20.5293 32.8433C19.6795 31.9897 19.6546 31.9532 19.9682 32.0225C20.1487 32.0623 20.9143 32.095 21.6696 32.095ZM13.9727 35.7981C14.9602 38.2759 16.3002 40.7432 18.0459 43.2981C18.5216 43.9942 19.1279 44.9117 19.3932 45.3371L19.8758 46.1106H10.8911H1.9065L1.98975 45.4778C2.4825 41.7341 4.8271 38.2531 8.01507 36.5323C8.73029 36.1463 13.1327 34.5684 13.3853 34.6075C13.4515 34.6179 13.7158 35.1535 13.9727 35.7981ZM32.0059 35.3282C33.2303 35.74 34.577 36.2563 34.9986 36.4755C38.2252 38.153 40.6356 41.6895 41.1341 45.4778L41.2174 46.1106H32.2328H23.2481L23.7307 45.3371C23.996 44.9117 24.6023 43.9942 25.0779 43.2981C26.787 40.7969 28.0212 38.5493 28.9905 36.1731C29.2744 35.477 29.5319 34.8336 29.5627 34.7434C29.5934 34.6532 29.6548 34.5793 29.6991 34.5793C29.7434 34.5793 30.7814 34.9164 32.0059 35.3282ZM23.2251 38.2581C24.1666 39.1986 24.9369 40.0061 24.9369 40.0528C24.9369 40.0994 24.4835 40.8105 23.9291 41.6331C23.3748 42.4556 22.6357 43.578 22.2864 44.1274C21.9373 44.6768 21.6113 45.1262 21.5619 45.1262C21.5126 45.1262 21.1866 44.6768 20.8374 44.1274C20.4882 43.578 19.7447 42.4491 19.1851 41.6185C18.6255 40.7881 18.188 40.0563 18.2129 39.9924C18.2682 39.8501 21.3785 36.5481 21.457 36.5481C21.488 36.5481 22.2835 37.3176 23.2251 38.2581ZM31.5358 37.2025C31.2407 37.3217 30.9369 37.7562 30.9369 38.0592C30.9369 38.4345 31.3678 38.8849 31.7913 38.9521C32.0768 38.9975 32.1795 38.9617 32.4454 38.7241C32.7087 38.4888 32.7608 38.3772 32.7608 38.0481C32.7608 37.7218 32.7083 37.6071 32.4567 37.3823C32.1488 37.107 31.8948 37.0574 31.5358 37.2025ZM34.8276 38.9804C34.4866 39.12 34.2693 39.4505 34.2693 39.8294C34.2693 40.1575 34.3489 40.2716 35.1633 41.111C35.6708 41.6341 36.2329 42.3282 36.4636 42.7166C36.9199 43.4849 37.2499 43.7231 37.7323 43.6327C38.0898 43.5656 38.317 43.3412 38.4315 42.9422C38.5865 42.4017 37.7694 41.0493 36.556 39.8376C35.6631 38.9459 35.3235 38.7775 34.8276 38.9804Z" fill="black"/>
</svg>
