<svg width="48" height="48" viewBox="0 0 48 48" fill="none" xmlns="http://www.w3.org/2000/svg">
<path fill-rule="evenodd" clip-rule="evenodd" d="M0.421875 0.119165C0.31875 0.178322 0.183 0.292978 0.120187 0.374072C0.0313125 0.488822 0.00534375 4.73204 0.003 19.5167L0 38.5119L0.193969 38.7584L0.387844 39.005L9.49866 39.0289L18.6094 39.0528L18.6348 40.9512L18.6601 42.8497L17.1817 42.8502C15.5506 42.8508 15.2444 42.9054 14.6065 43.31C13.447 44.0453 13.2555 45.8239 14.2276 46.8291C14.4203 47.0285 14.768 47.2799 15 47.3878C15.4184 47.5825 15.4916 47.584 24 47.584C32.5113 47.584 32.5814 47.5825 33 47.3876C34.7885 46.5549 34.8859 44.122 33.1688 43.1723C32.68 42.9018 32.6446 42.8968 31.0059 42.8644L29.3399 42.8314L29.3653 40.9421L29.3906 39.0528L38.5013 39.0289L47.6122 39.005L47.806 38.7584L48 38.5119L47.997 19.5167C47.9947 4.73279 47.9687 0.48854 47.8798 0.372759C47.817 0.291009 47.6735 0.174947 47.5609 0.114947C47.2678 -0.0410533 0.694031 -0.0369283 0.421875 0.119165ZM46.5 10.2247V18.9434H43.3532C41.3534 18.9434 40.14 18.9789 40.0242 19.0409C39.924 19.0945 39.6181 19.4729 39.3444 19.8817L38.8468 20.6248L36.0545 13.6428C33.15 6.38026 33.1059 6.28717 32.5759 6.28717C32.4596 6.28717 32.2791 6.36104 32.1747 6.45123C32.0665 6.5447 30.987 9.00432 29.6647 12.17C28.3885 15.225 27.3174 17.7247 27.2845 17.7247C27.2516 17.7247 26.6436 16.3219 25.9332 14.6075C25.2169 12.8784 24.5569 11.4173 24.4511 11.3262C24.2213 11.1285 23.8283 11.1139 23.5756 11.2938C23.459 11.3768 22.4025 13.803 20.7188 17.8543C19.2492 21.3902 18.025 24.2841 17.9984 24.2852C17.9717 24.2862 17.7006 23.3274 17.3958 22.1544C16.6056 19.1126 16.5767 19.047 16.0287 19.0402C15.5618 19.0343 15.4104 19.2593 14.942 20.6542C14.683 21.4252 14.4772 21.911 14.4551 21.8028C14.4341 21.6997 13.8368 18.644 13.1279 15.0124C11.8943 8.69326 11.828 8.4002 11.5861 8.19207C11.4471 8.07254 11.2537 7.97467 11.1562 7.97467C10.6931 7.97467 10.5438 8.28826 8.52197 13.5059C7.43306 16.3161 6.50306 18.6891 6.45525 18.7794C6.37594 18.9292 6.15694 18.9434 3.93422 18.9434H1.5V10.2247V1.50592H24H46.5V10.2247ZM35.3439 15.8028C36.8029 19.4637 38.082 22.554 38.1864 22.67C38.4573 22.9707 38.9004 22.9503 39.2046 22.6231C39.3364 22.4814 39.7464 21.9112 40.1157 21.3562L40.7873 20.3469L43.6671 20.3718L46.5469 20.3965L46.5711 26.2794L46.5952 32.1622H24.0476H1.5V26.2559V20.3497L4.33594 20.3467C6.62025 20.3443 7.20562 20.3182 7.34541 20.2122C7.47516 20.1139 9.87412 14.1539 10.8142 11.5941C10.8501 11.4965 10.8975 11.4347 10.9195 11.4567C10.9417 11.4789 11.5545 14.5455 12.2814 18.2717C13.0084 21.9978 13.6273 25.1092 13.6567 25.1859C13.7388 25.3997 14.2192 25.6109 14.4767 25.5463C14.8431 25.4544 14.9515 25.2554 15.4309 23.7967C15.6804 23.0371 15.9116 22.4465 15.9446 22.4842C15.9776 22.5219 16.2453 23.4809 16.5394 24.6153C16.8335 25.7497 17.0959 26.7531 17.1225 26.845C17.2561 27.3066 17.8522 27.5209 18.2423 27.2476C18.3668 27.1605 19.3867 24.8238 21.1884 20.4976C22.7041 16.8584 23.9681 13.8809 23.9974 13.8809C24.0266 13.8809 24.6398 15.2989 25.3602 17.0319C26.1648 18.9677 26.7416 20.2332 26.8558 20.3132C27.1106 20.4917 27.5031 20.4766 27.7332 20.2794C27.8442 20.1843 28.9013 17.7804 30.2476 14.5614C31.5251 11.5068 32.5976 9.03882 32.6309 9.07707C32.6642 9.11523 33.885 12.1419 35.3439 15.8028ZM46.5322 34.5762C46.5655 35.079 46.593 35.9649 46.5933 36.545L46.5938 37.5997H24.0469H1.5V35.6309V33.6622H23.9858H46.4717L46.5322 34.5762ZM27.916 40.9512L27.9413 42.8497H24.002H20.0625V40.9903C20.0625 39.9676 20.0911 39.1023 20.1261 39.0674C20.1609 39.0324 21.9223 39.0149 24.0401 39.0283L27.8906 39.0528L27.916 40.9512ZM32.597 44.4906C32.7076 44.5681 32.8463 44.7774 32.9051 44.9558C33.0378 45.3575 32.8357 45.8601 32.4755 46.0241C32.1419 46.1761 15.8581 46.1761 15.5245 46.0241C15.1726 45.8638 14.9595 45.3512 15.0891 44.9767C15.3202 44.3085 14.6698 44.3541 24.0025 44.3517C31.3215 44.3499 32.4216 44.3677 32.597 44.4906Z" fill="black"/>
</svg>
