<svg width="47" height="47" viewBox="0 0 47 47" fill="none" xmlns="http://www.w3.org/2000/svg">
<path fill-rule="evenodd" clip-rule="evenodd" d="M12.9321 0.185002C12.7425 0.374565 12.7403 0.442628 12.7701 5.22407C12.8044 10.7345 12.7704 10.47 13.6678 12.2272C14.0237 12.9239 14.2629 13.2351 15.0412 14.0134C15.8195 14.7916 16.1306 15.0309 16.8274 15.3868C18.5707 16.277 18.3653 16.2494 23.5115 16.2845L28.0393 16.3153L27.4255 17.4723C27.0879 18.1087 26.8118 18.72 26.8118 18.8309C26.8118 18.9418 26.9214 19.1423 27.0554 19.2763C27.2957 19.5165 27.3129 19.5192 28.2976 19.4628C30.6155 19.3303 32.6932 18.4797 34.2868 17.0109L35.0016 16.3522L39.1801 16.3053L43.3586 16.2584L43.9006 16.0045C44.6555 15.6508 45.495 14.8232 45.8686 14.0646C46.1516 13.4899 46.1711 13.3866 46.1711 12.4594C46.1711 11.5063 46.1579 11.4418 45.8257 10.7698C45.5222 10.1559 45.2705 9.86319 43.755 8.36225C42.2694 6.89085 41.9398 6.6111 41.3817 6.34822C40.5667 5.96422 41.3386 5.98757 28.6956 5.96431L18.7201 5.94594L18.4556 4.93194C17.9203 2.87919 17.1727 1.96006 15.0647 0.762971C13.6111 -0.0625914 13.2716 -0.15456 12.9321 0.185002ZM14.8859 2.33806C15.6478 2.77738 16.2896 3.4266 16.6343 4.10675C16.7688 4.37225 17.0094 5.14222 17.169 5.81797C17.3508 6.58738 17.5251 7.11238 17.6355 7.22281C17.8053 7.3926 18.1087 7.39906 25.9107 7.39906H34.0096L34.07 7.72063C34.264 8.75488 35.3984 10.1851 36.4455 10.7158C37.3841 11.1914 37.8335 11.2399 41.3169 11.2414L44.5253 11.2428L44.6793 11.7727C45.0067 12.8988 44.4823 14.041 43.3586 14.6492C42.9968 14.8451 42.8647 14.8531 39.5852 14.88C37.7161 14.8953 36.1884 14.8742 36.1905 14.8332C36.1926 14.792 36.319 14.5264 36.4717 14.2428C36.8244 13.5875 36.8335 13.1977 36.5022 12.9372C36.264 12.7497 36.1484 12.7428 33.2419 12.7428C30.702 12.7428 30.1966 12.7651 30.0257 12.8848C29.9142 12.9629 29.5989 13.4478 29.3252 13.9624L28.8274 14.898L24.4528 14.8986C19.8155 14.8991 19.2691 14.8588 18.204 14.4377C16.6643 13.8289 15.2321 12.399 14.6179 10.8569C14.2226 9.86488 14.1623 9.15397 14.1588 5.45375C14.157 3.533 14.1728 1.96156 14.1941 1.96156C14.2154 1.96156 14.5267 2.13097 14.8859 2.33806ZM0.936755 6.15181C0.407349 6.35131 0.282193 7.05172 0.715036 7.39222C0.957474 7.583 1.04879 7.58656 5.68801 7.58656H10.414L10.6441 7.35641C10.9235 7.07713 10.9446 6.66294 10.6951 6.35478L10.5159 6.13344L5.79666 6.1161C3.201 6.10653 1.0141 6.12266 0.936755 6.15181ZM40.4872 7.54475C40.8999 7.66738 41.1411 7.84813 42.0042 8.68203C42.5687 9.22738 43.0305 9.71028 43.0305 9.7551C43.0305 9.86985 38.8909 9.8556 38.1684 9.73841C37.8404 9.68516 37.3764 9.54163 37.1372 9.41938C36.4342 9.06013 35.7181 8.25322 35.5729 7.65688L35.5102 7.39906H37.7533C39.5092 7.39906 40.1031 7.43075 40.4872 7.54475ZM18.1525 8.81216C17.9636 8.96066 17.9055 9.08966 17.9055 9.36013C17.9055 9.89666 18.1329 10.0466 19.0251 10.0982C20.3241 10.1734 20.8118 9.96303 20.8118 9.32778C20.8118 9.09228 20.7458 8.95447 20.5647 8.81216C20.3514 8.64435 20.187 8.61782 19.3586 8.61782C18.5303 8.61782 18.3658 8.64435 18.1525 8.81216ZM22.1669 8.84797C21.8612 9.1536 21.8659 9.54978 22.1786 9.84369C22.386 10.0385 22.5299 10.0755 23.1867 10.103C24.1257 10.1424 24.5386 10.0438 24.7779 9.72341C24.9904 9.43878 24.9436 9.09341 24.6532 8.80297C24.4912 8.64097 24.3385 8.61782 23.4325 8.61782C22.4581 8.61782 22.3834 8.63141 22.1669 8.84797ZM26.3232 8.7456C25.9455 9.03266 25.9296 9.6261 26.2915 9.92656C26.4712 10.0756 27.7511 10.1735 28.2636 10.0774C28.9498 9.9486 29.1972 9.30725 28.7379 8.84797C28.5216 8.6316 28.4472 8.618 27.4957 8.62081C26.8143 8.62278 26.4312 8.66356 26.3232 8.7456ZM30.3232 8.84797C29.8733 9.29778 30.1281 9.95178 30.8023 10.0783C31.386 10.1878 32.6004 10.0748 32.8022 9.89207C33.1577 9.57031 33.1229 9.04269 32.7262 8.738C32.631 8.66497 32.2126 8.62269 31.5654 8.62081C30.6138 8.618 30.5394 8.6316 30.3232 8.84797ZM3.8731 9.10428C3.76079 9.15856 3.61613 9.33022 3.55172 9.48575C3.41072 9.82625 3.56738 10.1846 3.93957 10.3729C4.30294 10.5568 10.1333 10.5415 10.4925 10.3557C10.9427 10.1229 11.0137 9.59244 10.6441 9.22297L10.414 8.99282L7.24566 8.99919C5.23144 9.00322 4.00294 9.04147 3.8731 9.10428ZM0.671818 12.116C0.412411 12.3922 0.40463 12.8669 0.655505 13.1178C0.83813 13.3004 0.967974 13.3053 5.67113 13.3053C10.3743 13.3053 10.5041 13.3004 10.6868 13.1178C10.9659 12.8386 10.9368 12.3369 10.6272 12.0934C10.3847 11.9026 10.2938 11.8991 5.62791 11.8991H0.875724L0.671818 12.116ZM34.7805 14.2344C34.7805 14.3885 34.0727 15.2154 33.3963 15.8515C32.5842 16.6153 31.6513 17.1812 30.6301 17.5298C29.859 17.7929 28.8743 18.0108 28.8743 17.9181C28.8743 17.8755 29.5297 16.6348 29.9985 15.7897C30.0843 15.635 30.3146 15.2026 30.5104 14.8288L30.8663 14.1491H32.8234C33.9369 14.1491 34.7805 14.1858 34.7805 14.2344ZM16.9203 19.3864C16.3054 19.6658 15.9775 20.1291 15.6509 21.1806L15.3597 22.1178L12.906 22.1207C10.0183 22.1241 9.32851 22.1967 8.46619 22.5877C7.87707 22.8548 7.56704 23.1379 4.33107 26.3643C1.15716 29.5288 0.80288 29.913 0.509724 30.5084C0.331974 30.8694 0.14438 31.3919 0.0929114 31.6696C-0.0363699 32.3666 -0.0284949 38.194 0.102568 38.8242C0.48863 40.6813 1.98919 42.0287 3.97229 42.2992L4.78463 42.4099L4.8856 42.7849C5.41229 44.741 7.22785 46.1178 9.28051 46.1178C11.3018 46.1178 12.9995 44.8708 13.5939 42.9493L13.7594 42.4147H23.343H32.9266L33.0921 42.9493C33.5409 44.4001 34.6246 45.4844 36.0727 45.9317C36.7853 46.1518 37.8821 46.1759 38.5914 45.987C40.0872 45.5888 41.3998 44.2727 41.806 42.7639C41.9032 42.4033 41.9396 42.3676 42.2139 42.3662C42.7463 42.3633 43.7807 42.1006 44.3171 41.832C45.3878 41.2962 46.3294 40.0464 46.5834 38.8242C46.717 38.1818 46.717 35.6788 46.5834 35.0365C46.3135 33.7381 45.3894 32.5547 44.2135 32.0018C43.7832 31.7995 42.6137 31.4553 40.9211 31.033C39.4774 30.6728 38.1274 30.3085 37.9211 30.2234C37.6514 30.1123 36.5463 29.0752 33.9836 26.5283C31.9325 24.4898 30.2422 22.8862 29.9993 22.7483C29.0979 22.2367 28.7685 22.1897 25.6476 22.1281L22.7489 22.0709L22.5712 21.5084C22.1022 20.0249 21.8872 19.6828 21.2375 19.3878C20.9125 19.2402 20.6054 19.2157 19.0774 19.2157C17.5545 19.2157 17.2416 19.2404 16.9203 19.3864ZM20.6225 20.7106C20.7862 20.7982 21.2558 21.9862 21.1633 22.0787C21.1399 22.1022 20.1699 22.11 19.008 22.0962L16.8953 22.0709L17.0688 21.5084C17.3351 20.6453 17.3961 20.6178 19.0471 20.6178C19.8182 20.6178 20.5271 20.6595 20.6225 20.7106ZM29.0149 23.8913C29.3714 24.0636 30.3362 24.9643 33.0461 27.6546C36.0223 30.6094 36.702 31.2381 37.1763 31.4749C37.5406 31.6568 38.7159 32.0016 40.4575 32.4374C41.95 32.811 43.3529 33.2001 43.5751 33.302C44.4624 33.7093 45.1868 34.7937 45.1868 35.7151V36.0866H44.3943C43.9584 36.0866 43.4972 36.1342 43.3694 36.1925C43.0394 36.3428 42.8823 36.7601 43.0254 37.1056C43.1813 37.4817 43.4799 37.5866 44.3943 37.5866H45.1868V38.0518C45.1868 39.4939 44.0097 40.7246 42.5158 40.8445L41.9194 40.8924L41.8094 40.484C41.4107 39.0034 40.2731 37.7976 38.8099 37.3047C38.1331 37.0767 36.9419 37.0334 36.2761 37.2128C34.7453 37.625 33.4145 38.9508 33.005 40.4717L32.8983 40.8678H23.343H13.7877L13.681 40.4717C13.289 39.0154 12.1337 37.7927 10.6904 37.3065C10.008 37.0767 8.81954 37.0328 8.1511 37.2128C6.61491 37.6264 5.28957 38.9504 4.8766 40.484L4.76663 40.8924L4.17019 40.8445C3.05851 40.7552 2.06522 40.0298 1.69313 39.0351C1.5106 38.5473 1.49926 38.3235 1.49926 35.2092C1.49926 32.3976 1.52222 31.8319 1.65263 31.4392C1.78894 31.0285 2.18147 30.5995 5.19169 27.5716C7.05385 25.6986 8.70394 24.0989 8.85863 24.0168C9.60001 23.6233 9.48769 23.6273 19.218 23.6464L28.5461 23.6647L29.0149 23.8913ZM10.0305 25.6117C9.54376 25.7596 4.44019 30.8396 4.29657 31.3191C4.09547 31.9901 4.41244 32.7002 5.02763 32.9573C5.28572 33.0652 7.60407 33.0866 19.0214 33.0866C28.462 33.0866 32.7877 33.0556 32.9697 32.9868C33.3626 32.8384 33.7405 32.4358 33.8426 32.0568C34.0272 31.3713 33.9406 31.2572 31.056 28.3839C28.8065 26.1432 28.2964 25.6802 27.9836 25.5955C27.467 25.4555 10.4939 25.4709 10.0305 25.6117ZM12.6555 29.2897V31.5866H9.25782H5.86004L8.15551 29.2897L10.451 26.9928H11.5532H12.6555V29.2897ZM19.1243 29.2897V31.5866H16.593H14.0618V29.2897V26.9928H16.593H19.1243V29.2897ZM29.9055 29.2897L32.201 31.5866H26.4126H20.6243V29.2897V26.9928H24.1172H27.61L29.9055 29.2897ZM16.9368 35.1178C16.9024 35.1522 16.8743 35.574 16.8743 36.0553V36.9303H15.9836H15.093V37.8678V38.8053H15.9836H16.8743V37.8678V36.9303H17.8118H18.7493V37.8712V38.8121L19.6633 38.7853L20.5774 38.7584L20.6042 37.8444L20.631 36.9303H21.5183H22.4055V37.8678V38.8053H23.343H24.2805V37.8678V36.9303H25.1678H26.055L26.0818 37.8444L26.1086 38.7584L27.0227 38.7853L27.9368 38.8121V37.8712V36.9303H28.8743H29.8118V37.8678V38.8053H30.7024H31.593V37.8678V36.9303H30.7058H29.8185L29.7917 36.0163L29.7649 35.1022L28.8508 35.0754L27.9368 35.0486V35.9894V36.9303H26.9993H26.0618V35.9928V35.0553H25.1711H24.2805V35.9928V36.9303H23.343H22.4055V35.9928V35.0553H21.5149H20.6243V35.9928V36.9303H19.6868H18.7493V35.9928V35.0553H17.8743C17.393 35.0553 16.9711 35.0834 16.9368 35.1178ZM10.5158 38.7818C11.1301 39.0541 11.7305 39.6405 12.0478 40.2781C12.2759 40.7364 12.3187 40.938 12.3227 41.5726C12.3268 42.2374 12.2919 42.3964 12.0207 42.9474C11.4738 44.0591 10.5163 44.6565 9.27601 44.6601C8.66344 44.662 8.48457 44.6209 7.94401 44.3548C7.26207 44.0191 6.79322 43.5451 6.4546 42.8493C6.16079 42.2454 6.15216 41.0149 6.43735 40.3876C6.80213 39.5853 7.53722 38.9268 8.37338 38.6534C8.91582 38.4761 9.96844 38.5391 10.5158 38.7818ZM38.6408 38.7818C39.2544 39.0538 39.8869 39.6693 40.1927 40.292C40.4153 40.7455 40.4521 40.9348 40.4506 41.6178C40.449 42.3434 40.4204 42.4674 40.1311 43.0039C39.5442 44.0923 38.612 44.658 37.4055 44.658C36.1719 44.658 35.2122 44.059 34.6653 42.9474C34.3945 42.3973 34.3591 42.2362 34.3623 41.5726C34.3654 40.9406 34.4075 40.7389 34.6271 40.3053C34.7708 40.0217 34.98 39.6903 35.0922 39.5688C35.4074 39.2273 36.0799 38.7907 36.5051 38.6514C37.0405 38.4761 38.0965 38.5405 38.6408 38.7818ZM8.34301 39.86C7.69876 40.2042 7.37176 40.7354 7.33079 41.5047C7.28954 42.2807 7.53151 42.8026 8.13563 43.2403C8.46094 43.4759 8.65088 43.5385 9.13491 43.5693C9.65138 43.6022 9.79679 43.5724 10.2056 43.3498C10.8757 42.9853 11.1854 42.4894 11.2293 41.7116C11.2578 41.2057 11.2254 41.0306 11.0383 40.6803C10.6942 40.0361 10.1629 39.7091 9.39366 39.6681C8.86866 39.6402 8.69522 39.6718 8.34301 39.86ZM36.468 39.86C36.236 39.9839 35.9196 40.265 35.7649 40.4847C35.5109 40.8452 35.4836 40.9544 35.4836 41.6105C35.4836 42.253 35.5139 42.3807 35.7454 42.7146C35.8929 42.9276 36.2134 43.2045 36.4802 43.3498C36.8875 43.5715 37.0356 43.6021 37.5433 43.5698C38.23 43.5261 38.6711 43.2767 39.0687 42.7074C39.437 42.18 39.4794 41.2721 39.1633 40.6803C38.8192 40.0361 38.2879 39.7091 37.5187 39.6681C36.9937 39.6402 36.8202 39.6718 36.468 39.86ZM9.65551 41.2428C9.84769 41.435 9.89335 41.6788 9.77129 41.8616C9.68926 41.9845 9.33385 42.1803 9.19294 42.1803C9.02504 42.1803 8.71801 41.8167 8.71801 41.6178C8.71801 41.5147 8.80238 41.3459 8.90551 41.2428C9.00863 41.1397 9.17738 41.0553 9.28051 41.0553C9.38363 41.0553 9.55238 41.1397 9.65551 41.2428ZM37.7805 41.2428C37.8836 41.3459 37.968 41.5147 37.968 41.6178C37.968 41.8167 37.661 42.1803 37.4931 42.1803C37.3522 42.1803 36.9968 41.9845 36.9147 41.8616C36.7193 41.5688 37.0317 41.0553 37.4055 41.0553C37.5086 41.0553 37.6774 41.1397 37.7805 41.2428Z" fill="black"/>
</svg>
