<svg width="48" height="41" viewBox="0 0 48 41" fill="none" xmlns="http://www.w3.org/2000/svg">
<path fill-rule="evenodd" clip-rule="evenodd" d="M27.9336 0.203147L27.6937 0.443053V2.65293V4.86271L26.2825 4.83683L24.8714 4.81096L24.6586 4.28709C23.8188 2.21962 21.726 0.832491 19.44 0.827991C17.0865 0.823397 14.8308 2.45446 14.1094 4.68252L13.9991 5.02284L13.1355 5.17958C12.6605 5.26574 11.7656 5.50415 11.1469 5.70937C5.44743 7.59946 1.33114 12.3156 0.203519 18.2472C0.0266128 19.1782 -0.00385596 19.6511 0.00036279 21.4047C0.00842529 24.7277 0.483175 27.4268 1.66696 30.8788C2.71808 33.9442 4.98571 38.3496 6.25424 39.7907C6.94461 40.575 7.10783 40.6192 9.43621 40.6535C11.932 40.6902 12.287 40.6173 12.9779 39.9263C13.5158 39.3884 13.725 38.8015 13.725 37.8299C13.725 37.1964 13.7304 37.1816 13.9359 37.2529C14.0519 37.293 16.2668 37.3432 18.8578 37.3644L23.5687 37.4029V37.9415C23.5687 38.803 23.7958 39.4063 24.3158 39.9263C25.0133 40.6238 25.3446 40.6893 27.997 40.6532L30.1781 40.6235L30.6865 40.3422C31.5217 39.8801 31.767 39.4285 32.1427 37.6604L32.2943 36.9472L33.0174 36.739C37.254 35.519 40.9558 32.3979 43.014 28.311L43.3523 27.6391L44.9684 27.637C46.7191 27.6348 47.0935 27.5515 47.539 27.0655C47.9251 26.6444 47.9437 26.4464 47.9437 22.7641C47.9437 19.0811 47.9248 18.8805 47.539 18.4661C47.1434 18.0411 46.8341 17.9517 45.5671 17.8956L44.3622 17.8422L44.1436 16.9985C42.9639 12.4452 39.7834 8.6039 35.4405 6.48721L34.6092 6.08202L34.3397 5.28018C33.8873 3.93412 33.3133 2.98143 32.4102 2.07843C31.4326 1.10071 29.7626 0.199116 28.6133 0.0284908C28.2208 -0.0298217 28.1479 -0.0110718 27.9336 0.203147ZM30.3336 2.35799C31.3289 3.01255 31.9507 3.72374 32.5251 4.86421C32.9569 5.72174 33.2118 6.7528 33.3215 8.08677C33.3991 9.0298 33.4457 9.24046 33.6169 9.42271C33.8683 9.69027 34.3371 9.70865 34.6406 9.46284C34.8229 9.31527 34.8643 9.1784 34.8959 8.61908C34.9167 8.25196 34.9605 7.95233 34.9934 7.95318C35.0262 7.95412 35.4856 8.21774 36.0141 8.53912C37.9016 9.68671 39.484 11.1966 40.6552 12.9672C41.6593 14.4853 42.2264 15.7556 42.6945 17.5353C43.1447 19.2466 43.4534 19.4775 45.2953 19.4808L46.4437 19.4828V22.7641V26.0453H45.1805H43.9172L44.0101 25.8009C44.171 25.3776 44.555 23.3122 44.6218 22.5108C44.6858 21.7432 44.6854 21.7414 44.4002 21.4561C44.0786 21.1346 43.9281 21.109 43.5395 21.3099C43.2158 21.4773 43.1943 21.5388 43.0706 22.6431C42.6819 26.1159 41.2563 29.0906 38.8092 31.5342C37.5773 32.7644 36.5005 33.5462 35.0102 34.2923C34.1421 34.727 32.7636 35.2715 32.6978 35.2057C32.68 35.1878 32.8968 34.1003 33.1795 32.789C33.4623 31.4776 33.6936 30.2722 33.6937 30.1104C33.6938 29.4664 33.001 29.125 32.5249 29.5346C32.2773 29.7476 32.2119 29.9971 31.3389 34.0667C30.8308 36.4355 30.3651 38.4947 30.3038 38.6428C30.1151 39.1 29.7797 39.1703 27.7875 39.1703C25.8866 39.1703 25.4666 39.0947 25.2637 38.7156C25.2021 38.6005 25.1623 37.8723 25.1619 36.8562C25.1614 34.9362 25.0882 34.5462 24.6902 34.3403C24.0667 34.018 23.5687 34.4655 23.5687 35.3481V35.907L18.9984 35.8567C16.4848 35.8292 14.27 35.7784 14.0766 35.7439L13.725 35.6811V32.7779V29.8746L13.44 29.5896C13.2004 29.3501 13.1071 29.3142 12.8543 29.3647C12.6891 29.3978 12.4692 29.5094 12.3659 29.6126C12.1847 29.7938 12.1765 29.9556 12.1312 34.2593L12.0844 38.7184L11.8668 38.8944C11.5463 39.1537 11.2056 39.1896 9.38624 39.1549C7.41411 39.1173 7.59046 39.2198 6.51036 37.4828C3.56961 32.7533 1.89186 27.7649 1.52905 22.6721C1.3198 19.7349 1.77796 17.171 2.94496 14.7485C4.81714 10.8622 8.39558 7.93884 12.5879 6.87074C13.8091 6.55968 13.7822 6.55509 13.8478 7.0844C13.8781 7.32927 13.9314 7.66677 13.9663 7.8344C14.0255 8.11865 14.0126 8.13908 13.7764 8.13908C13.4447 8.13908 12.975 8.60446 12.975 8.93305C12.975 9.06899 13.0777 9.28162 13.2051 9.40893L13.4352 9.63909H19.4796H25.5239L25.7181 9.39205C26.1169 8.88524 25.8791 8.27474 25.2437 8.17312C24.9138 8.12034 24.8738 8.0878 24.9266 7.91493C24.9599 7.80618 25.0111 7.43249 25.0405 7.0844L25.094 6.45159H26.3938H27.6937V7.3814C27.6937 8.46702 27.7222 8.5693 28.0755 8.75193C28.4566 8.94899 28.6107 8.92396 28.9197 8.61505L29.1937 8.34102V5.05134V1.76155L29.5133 1.89505C29.689 1.96855 30.0582 2.17677 30.3336 2.35799ZM20.8711 2.6054C21.9769 3.0208 22.8887 3.92615 23.3285 5.04533C23.5827 5.6924 23.6286 6.80212 23.4312 7.53121L23.2667 8.13908H19.4779H15.6891L15.589 7.88127C15.2087 6.90159 15.2924 5.59705 15.8008 4.57958C16.299 3.58255 17.5087 2.65518 18.6165 2.42099C19.2231 2.29274 20.2658 2.37805 20.8711 2.6054ZM19.1625 14.3522C19.0336 14.4162 18.8508 14.6266 18.7564 14.8195C18.6351 15.0669 18.5236 15.1703 18.3776 15.1703C18.0058 15.1703 17.065 15.4498 16.4906 15.7309C15.7307 16.1028 15.2717 16.502 14.9408 17.0787C14.7063 17.4876 14.6645 17.6607 14.6654 18.2172C14.6681 19.7097 15.6516 20.7204 17.8031 21.4417L18.6469 21.7246L18.6723 23.6636L18.6976 25.6026L18.2627 25.543C17.2751 25.4076 16.1625 24.6606 16.1625 24.1328C16.1625 23.8431 15.8486 23.456 15.5538 23.382C15.2814 23.3137 14.8085 23.5241 14.7207 23.7527C14.6031 24.0592 14.6676 24.6843 14.8574 25.0761C15.0995 25.5762 15.8264 26.2401 16.4845 26.5621C16.7588 26.6962 17.3681 26.898 17.8385 27.0104C18.5258 27.1746 18.6937 27.248 18.6937 27.3843C18.6937 27.6579 19.1179 28.0141 19.4437 28.0141C19.7734 28.0141 20.1937 27.657 20.1937 27.3769C20.1937 27.2301 20.3253 27.174 20.966 27.0478C22.3714 26.7709 23.5689 26.0109 24.0536 25.0882C24.2103 24.7899 24.2647 24.5284 24.2643 24.0766C24.2625 22.5773 23.2415 21.5542 20.9906 20.7966L20.2406 20.5441L20.2152 18.5986L20.1899 16.6532L20.5902 16.7198C21.7517 16.9131 22.662 17.5197 22.7725 18.1741C22.9255 19.0796 24.0642 19.1715 24.284 18.2961C24.3861 17.8893 24.0765 17.109 23.6048 16.5845C23.0866 16.008 21.9447 15.4168 21.0375 15.2552C20.7023 15.1955 20.3813 15.1344 20.3242 15.1196C20.2671 15.1048 20.1948 14.9644 20.1634 14.8074C20.1255 14.6181 20.0121 14.4735 19.8265 14.3775C19.4914 14.2041 19.4623 14.2031 19.1625 14.3522ZM35.7496 16.4235C34.8052 16.6782 33.8635 17.4852 33.5485 18.3098C33.415 18.6595 33.4113 18.7516 33.5211 18.9809C33.8085 19.5803 34.5088 19.5936 34.8824 19.0069C35.3257 18.3105 35.5797 18.0806 36.0649 17.9365C36.5683 17.787 37.0233 17.8201 37.4533 18.0375C37.7465 18.1856 38.2469 18.7386 38.3328 19.0089C38.3976 19.2132 38.8267 19.4828 39.0869 19.4828C39.1708 19.4828 39.368 19.3543 39.525 19.1973C39.771 18.9513 39.8029 18.8642 39.7551 18.5694C39.6753 18.0775 39.102 17.2991 38.5386 16.9178C37.6918 16.3446 36.6964 16.1683 35.7496 16.4235ZM18.6937 18.4039V20.1375L18.0609 19.901C16.808 19.4326 16.1625 18.8578 16.1625 18.2106C16.1625 17.6507 16.8508 17.1048 17.9331 16.8064C18.7547 16.5798 18.6937 16.4518 18.6937 18.4039ZM21.1434 22.4931C21.6607 22.6926 22.0299 22.9097 22.3123 23.1802C22.6879 23.5401 22.725 23.6162 22.725 24.0261C22.725 24.419 22.6834 24.5156 22.3976 24.7851C22.0411 25.1213 21.2479 25.4576 20.6025 25.546L20.1937 25.6021V23.9018C20.1937 22.7954 20.2276 22.2016 20.2905 22.2016C20.3437 22.2016 20.7276 22.3328 21.1434 22.4931ZM23.8537 29.5896C23.5703 29.8731 23.5687 29.8805 23.5687 30.9203C23.5687 31.9511 23.5727 31.97 23.8428 32.2401C24.173 32.5702 24.5001 32.5911 24.8346 32.3032C25.0469 32.1205 25.087 31.9964 25.1337 31.3785C25.2334 30.0586 25.0333 29.4774 24.4397 29.3628C24.1879 29.3141 24.0922 29.3511 23.8537 29.5896Z" fill="black"/>
</svg>
