<svg width="34" height="46" viewBox="0 0 34 46" fill="none" xmlns="http://www.w3.org/2000/svg">
<path fill-rule="evenodd" clip-rule="evenodd" d="M0.194344 0.247031L0 0.494063V22.6875V44.8809L0.194344 45.128L0.388593 45.375H16.875H33.3614L33.5557 45.128L33.75 44.8809V22.6875V0.494063L33.5557 0.247031L33.3614 0H16.875H0.388593L0.194344 0.247031ZM32.4375 22.6875V44.0625H16.875H1.3125V22.6875V1.3125H16.875H32.4375V22.6875ZM13.9642 8.18869C13.8173 8.26247 13.3526 9.05691 12.5025 10.6875L11.2562 13.0781L8.43216 13.125L5.60822 13.1719L5.42906 13.3932C5.19788 13.6789 5.20116 14.0137 5.4375 14.25C5.6175 14.43 5.74997 14.4375 8.75878 14.4375H11.8927L12.0711 14.2106C12.1692 14.0858 12.6458 13.222 13.1302 12.2911C13.6147 11.3602 14.0371 10.629 14.069 10.6664C14.1008 10.7038 14.6025 12.443 15.1838 14.5312C15.7649 16.6195 16.2961 18.4637 16.3641 18.6294C16.4966 18.9527 16.8104 19.0942 17.1534 18.9852C17.3003 18.9386 17.7693 18.0866 18.9643 15.6955C19.8512 13.9208 20.599 12.4688 20.6261 12.4688C20.6532 12.4688 20.9066 12.8138 21.1892 13.2353C21.4718 13.6569 21.8018 14.121 21.9224 14.2666L22.1417 14.5312H25.1749C28.2031 14.5312 28.2083 14.5309 28.354 14.3228C28.5396 14.058 28.5396 13.7858 28.354 13.5209C28.209 13.3137 28.1919 13.3125 25.5085 13.3125H22.8089L21.8922 11.9626C21.3657 11.1873 20.8778 10.5682 20.7458 10.508C20.2338 10.2747 20.1237 10.4297 18.5537 13.5943L17.0889 16.5469L16.8947 15.8906C16.7879 15.5297 16.2955 13.7578 15.8005 11.9531C15.3055 10.1484 14.8629 8.58225 14.817 8.47266C14.7026 8.19994 14.2451 8.0475 13.9642 8.18869ZM4.41309 23.5908C4.15791 23.9152 4.16775 24.145 4.44891 24.4261L4.67897 24.6562H16.875H29.071L29.3011 24.4261C29.5823 24.145 29.5921 23.9152 29.3369 23.5908L29.1427 23.3438H16.875H4.60734L4.41309 23.5908ZM4.44891 30.0427C4.32234 30.1692 4.21875 30.3609 4.21875 30.4688C4.21875 30.5766 4.32234 30.7683 4.44891 30.8948L4.67897 31.125H16.875H29.071L29.3011 30.8948C29.4277 30.7683 29.5312 30.5766 29.5312 30.4688C29.5312 30.3609 29.4277 30.1692 29.3011 30.0427L29.071 29.8125H16.875H4.67897L4.44891 30.0427ZM4.44891 36.5114C4.16006 36.8002 4.15519 37.1263 4.43569 37.3899L4.65272 37.5938H16.8977H29.1427L29.3369 37.3467C29.5921 37.0223 29.5823 36.7925 29.3011 36.5114L29.071 36.2812H16.875H4.67897L4.44891 36.5114Z" fill="black"/>
</svg>
