<svg width="38" height="46" viewBox="0 0 38 46" fill="none" xmlns="http://www.w3.org/2000/svg">
<path fill-rule="evenodd" clip-rule="evenodd" d="M17.6416 0.203555C16.5564 0.491555 15.9572 0.812273 15.22 1.49955C14.7177 1.96784 14.593 2.03862 14.2703 2.03862C13.75 2.03862 12.575 2.3539 11.9793 2.65324C10.0683 3.61371 8.89497 5.62718 8.90332 7.93193C8.90904 9.50234 9.28544 11.0341 10.0177 12.466L10.3811 13.1764L10.0614 13.4862C9.58216 13.9508 9.35838 14.4943 9.30082 15.3336C9.20238 16.7709 9.75091 17.8467 10.8219 18.3171C11.0282 18.4076 11.2065 18.4866 11.2183 18.4924C11.23 18.4983 11.3477 18.8761 11.4798 19.3318C11.9557 20.9744 12.6556 22.2062 13.7026 23.2439L14.3352 23.871L14.1944 24.6971C14.0244 25.6934 13.6946 26.6816 13.4973 26.7856C13.418 26.8274 12.4039 27.1435 11.2438 27.4879C9.1256 28.1168 8.80629 28.2699 8.80629 28.6566C8.80629 28.7906 8.64382 28.8334 7.79847 28.9225C4.16182 29.3054 1.34154 31.6695 0.259098 35.2424C0.0588483 35.9031 0.0496605 36.1013 0.0166605 40.447C-0.0171832 44.907 -0.0151207 44.9672 0.175567 45.1579L0.368786 45.3511H18.8375H37.3063L37.4995 45.1579C37.6902 44.9672 37.6923 44.907 37.6584 40.447C37.6254 36.1013 37.6162 35.9031 37.416 35.2424C36.3099 31.5916 33.3029 29.1459 29.5953 28.8815C28.831 28.827 28.775 28.809 28.775 28.6172C28.775 28.5041 28.7012 28.3456 28.611 28.2652C28.4783 28.1469 27.2224 27.7407 24.1628 26.8267C23.9743 26.7703 23.6636 25.9826 23.4736 25.0791C23.2426 23.9811 23.2529 23.9449 24.0332 23.1281C25.0809 22.0316 25.9299 20.4181 26.2537 18.9083C26.338 18.5153 26.382 18.4612 26.694 18.3671C27.1928 18.2168 27.7123 17.7495 27.9991 17.1932C28.2043 16.7951 28.2549 16.5519 28.2876 15.8063C28.3129 15.2289 28.2847 14.7714 28.2095 14.5406C28.0308 13.9922 27.5779 13.3896 27.2142 13.2162C26.9963 13.1123 26.9045 13.0134 26.9365 12.917C26.9628 12.8378 27.1306 12.3506 27.3093 11.8346C28.3295 8.88827 28.2093 5.99084 26.9823 3.95149C25.6521 1.74087 22.6254 0.11843 19.6344 0.0129609C18.6573 -0.0215391 18.3953 0.00349221 17.6416 0.203555ZM21.0428 1.48259C23.9958 2.25602 25.884 3.85005 26.4818 6.07409C26.8072 7.2844 26.7464 9.00396 26.3219 10.5974L26.1273 11.3281L25.7601 10.5737C25.3291 9.68777 24.5067 8.75693 23.8292 8.3883C23.0816 7.98143 22.4112 7.84924 21.4234 7.91412C19.3918 8.04762 17.3896 7.43459 15.6967 6.1608C15.2843 5.85049 14.8565 5.57309 14.7461 5.5443C14.4596 5.46987 14.0565 5.70724 13.3554 6.36302C12.088 7.54859 11.3284 8.98446 11.0225 10.773L10.905 11.4605L10.6991 10.8498C10.2251 9.44374 10.077 7.66587 10.3488 6.64465C10.8656 4.70271 12.1975 3.59271 14.3375 3.32046L15.3219 3.19512L15.8986 2.6283C16.8452 1.69784 17.8775 1.3053 19.4058 1.2948C20.0282 1.29049 20.5287 1.34796 21.0428 1.48259ZM15.1091 7.38349C16.6998 8.59427 19.3572 9.36668 21.4319 9.22118C22.1772 9.16887 22.3639 9.1878 22.8326 9.36312C23.5108 9.6169 24.1541 10.2418 24.5554 11.0368C24.879 11.6778 25.2125 12.8554 25.2125 13.3567C25.2125 13.6868 25.3514 14.0343 25.5313 14.1544C25.588 14.1923 25.7954 14.2239 25.9922 14.2247C26.7245 14.2276 26.9938 14.606 26.9938 15.6324C26.9938 16.6464 26.7165 17.0494 25.8643 17.2742C25.5936 17.3456 25.3343 17.4418 25.288 17.4881C25.2417 17.5345 25.1258 17.948 25.0306 18.4071C24.299 21.9314 22.014 23.9676 18.7822 23.9745C17.1243 23.9781 15.7158 23.4023 14.5637 22.2501C13.4874 21.1736 12.8149 19.8505 12.5485 18.2847C12.4312 17.595 12.2632 17.321 11.9558 17.3178C11.8478 17.3167 11.5787 17.2337 11.3578 17.1335C10.8496 16.9028 10.5926 16.3918 10.5896 15.6059C10.5859 14.6491 10.8989 14.2261 11.6103 14.2261C12.1151 14.2261 12.2121 13.9797 12.1919 12.7497C12.1623 10.9552 12.5292 9.55924 13.3583 8.31209C13.6998 7.79834 14.4447 7.00737 14.5869 7.00737C14.6024 7.00737 14.8373 7.17659 15.1091 7.38349ZM16.787 25.0062C18.2172 25.4063 19.8451 25.3531 21.2983 24.8588C22.1119 24.5821 22.1184 24.5819 22.1202 24.8433C22.1226 25.1995 22.4846 26.5173 22.723 27.038L22.9487 27.531L22.6336 29.6068C22.4602 30.7486 22.2919 31.7092 22.2597 31.7414C22.0128 31.9884 15.5773 31.9972 15.3311 31.751C15.3041 31.7239 15.1394 30.7756 14.9651 29.6436C14.6711 27.7333 14.6585 27.562 14.7899 27.2574C15.0307 26.6987 15.3588 25.6423 15.4665 25.0786L15.5692 24.5405L15.8326 24.6767C15.9774 24.7516 16.407 24.8999 16.787 25.0062ZM13.5663 28.9683C13.6933 29.8891 13.9188 31.3918 14.7998 37.1876C15.1637 39.5814 15.451 41.5498 15.4385 41.5621C15.4064 41.5934 11.0153 34.4789 10.9825 34.3423C10.9678 34.2808 11.2103 33.942 11.5216 33.5894C11.8328 33.2368 12.0875 32.8724 12.0875 32.7797C12.0875 32.6869 11.7003 31.8289 11.2268 30.873C10.7535 29.9171 10.3844 29.1219 10.4065 29.1059C10.4634 29.065 13.2378 28.2195 13.3595 28.2059C13.4159 28.1997 13.5063 28.5329 13.5663 28.9683ZM25.7982 28.6751C26.5586 28.9008 27.1808 29.1176 27.181 29.1568C27.1812 29.196 26.7985 29.9928 26.3306 30.9275C25.7456 32.0961 25.4959 32.6908 25.5314 32.8317C25.5596 32.9444 25.8329 33.3199 26.1385 33.6661L26.6942 34.2956L24.434 37.9447C23.1909 39.9516 22.1657 41.5848 22.1556 41.5739C22.1339 41.5502 24.0655 28.7096 24.1377 28.3991C24.1654 28.2794 24.2394 28.2003 24.3019 28.2232C24.3645 28.2461 25.0378 28.4494 25.7982 28.6751ZM10.0034 31.3364C10.3247 31.9815 10.5875 32.5551 10.5875 32.6111C10.5875 32.6671 10.3309 32.993 10.0173 33.3353C9.53669 33.8598 9.45279 34.0019 9.48288 34.2402C9.5035 34.4034 10.7561 36.5213 12.4437 39.2464C14.0525 41.8443 15.3688 43.9853 15.3688 44.0042C15.3688 44.0231 12.2047 44.0386 8.33754 44.0386H1.30629V40.2567C1.30629 36.7675 1.321 36.4175 1.49594 35.7333C1.98175 33.8335 3.1676 32.2226 4.78394 31.2663C5.10794 31.0747 5.38666 30.9314 5.40325 30.9481C5.41994 30.9648 5.34185 31.1853 5.22982 31.4381C4.88744 32.2109 4.6826 33.1596 4.61922 34.2652C4.58604 34.8453 4.52557 35.3199 4.48479 35.3199C4.4441 35.3199 4.15516 35.5565 3.84279 35.8456C3.44969 36.2096 3.18288 36.5631 2.97607 36.9941C2.40916 38.1749 2.52869 39.8036 3.26735 40.9656C3.616 41.5141 3.83894 41.5779 4.49932 41.3182C5.16016 41.0583 5.33754 40.89 5.33754 40.523C5.33754 40.0885 5.06407 39.8753 4.58829 39.9391C4.14616 39.9985 4.10032 39.9432 3.93888 39.1583C3.72147 38.1012 4.201 37.0329 5.14591 36.4689C6.37038 35.7381 7.94707 36.3056 8.57791 37.7042C8.87669 38.3666 8.90641 38.7283 8.66566 38.7731C8.35563 38.8308 8.15004 39.0799 8.15004 39.398C8.15004 39.799 8.39397 39.9979 9.00363 40.0943C9.53294 40.178 9.81541 40.1193 10.0096 39.8854C10.1598 39.7044 10.1679 38.3836 10.0222 37.8356C9.59097 36.2142 8.14469 34.9731 6.56669 34.8701L5.87407 34.8248L5.9321 34.0646C6.04432 32.5931 6.48541 31.4649 7.26476 30.6558L7.73876 30.1636H8.57894H9.41913L10.0034 31.3364ZM29.9111 30.5621C30.5158 31.3829 31.0444 32.9923 31.1721 34.4012L31.2343 35.0868L30.8891 35.2117C30.1278 35.4869 29.5018 36.3373 29.379 37.2629C29.1887 38.6974 30.4432 40.1011 31.9157 40.1011C33.3943 40.1011 34.6341 38.708 34.4522 37.2512C34.3404 36.3567 33.7162 35.5338 32.8866 35.1872L32.5553 35.0487L32.4423 34.1168C32.3216 33.1209 32.0239 31.9254 31.6973 31.1246C31.5664 30.8037 31.5344 30.6324 31.6053 30.6324C31.8743 30.6324 33.1404 31.3572 33.7162 31.8408C34.9472 32.8746 35.8009 34.2225 36.1819 35.7333C36.3532 36.4133 36.3688 36.7889 36.3688 40.2567V44.0386H29.283H22.1973L22.4118 43.6871C22.5297 43.4937 23.8621 41.3346 25.3725 38.8889C27.1772 35.967 28.1188 34.3566 28.1188 34.192C28.1188 34.0191 27.9445 33.744 27.5563 33.3042C27.2469 32.9538 26.9938 32.6316 26.9938 32.5882C26.9938 32.5448 27.2567 31.9815 27.5779 31.3364L28.1622 30.1636H28.8899H29.6176L29.9111 30.5621ZM22.067 33.398C22.043 33.5011 21.6862 35.8425 21.2741 38.6011C20.8621 41.3597 20.503 43.7116 20.4763 43.8277C20.4282 44.0366 20.4115 44.0386 18.7889 44.0386C17.8875 44.0386 17.1489 44.028 17.1475 44.0152C17.1461 44.0023 16.7766 41.566 16.3264 38.6011L15.5078 33.2105H18.8092C22.0626 33.2105 22.11 33.2132 22.067 33.398ZM32.5863 36.4926C32.7123 36.5751 32.8974 36.7774 32.9979 36.9421C33.4863 37.7431 32.8737 38.788 31.9157 38.788C30.924 38.788 30.3228 37.7123 30.8628 36.9041C31.2724 36.2908 32.0098 36.1149 32.5863 36.4926Z" fill="black"/>
</svg>
