<svg width="48" height="48" viewBox="0 0 48 48" fill="none" xmlns="http://www.w3.org/2000/svg">
<path fill-rule="evenodd" clip-rule="evenodd" d="M13.4012 0.139238C11.7284 0.368925 9.86479 0.953925 8.4066 1.70702C7.55957 2.14446 7.30748 2.41708 7.30748 2.89558C7.30748 3.33536 7.50595 3.61202 7.91957 3.74843C8.23073 3.85118 8.31848 3.82493 9.44273 3.29364C10.6844 2.70668 12.0124 2.26811 13.2137 2.04818C14.3523 1.83977 16.9829 1.88758 18.1532 2.13808C20.9088 2.72786 23.0019 3.87321 25.0294 5.90064C27.0558 7.92714 28.1977 10.0131 28.7934 12.7768C29.09 14.1526 29.09 16.7801 28.7934 18.1558C27.6298 23.5542 23.5486 27.6352 18.1532 28.7955C16.7673 29.0936 14.1413 29.0947 12.7742 28.7977C10.8845 28.3871 9.03754 27.5788 7.56013 26.5159C7.1376 26.2119 6.68638 25.935 6.55748 25.9006C6.4101 25.8612 5.83654 25.9641 5.01257 26.1776C4.29173 26.3643 3.68704 26.5022 3.66876 26.4839C3.65048 26.4656 3.87388 25.9197 4.16526 25.2708C4.54204 24.4316 4.67666 24.0301 4.63148 23.8802C4.5966 23.7643 4.36729 23.3531 4.12195 22.9663C3.14845 21.4319 2.5041 19.8727 2.13407 18.1558C1.83745 16.7801 1.83745 14.1526 2.13407 12.7768C2.3976 11.554 2.8041 10.4065 3.38085 9.25708C3.63266 8.75533 3.83873 8.27861 3.83873 8.1978C3.83873 7.90558 3.53873 7.48014 3.24651 7.35808C2.56063 7.07149 2.17579 7.40008 1.49141 8.85696C0.218571 11.5665 -0.254586 14.5485 0.129977 17.4371C0.424352 19.6477 1.22273 21.9082 2.31079 23.611L2.63282 24.1151L1.82948 25.8799C0.918696 27.8811 0.863946 28.1622 1.30026 28.5986C1.46666 28.765 1.67291 28.8726 1.82535 28.8726C1.96345 28.8726 2.99329 28.6356 4.11388 28.3459L6.15126 27.8192L6.61223 28.1478C7.93841 29.0934 9.80048 29.9516 11.542 30.4198C13.1939 30.8641 15.5257 31.0464 17.0768 30.8524L17.6117 30.7855L17.6393 35.3368C17.6665 39.8196 17.67 39.896 17.8791 40.4038C18.3144 41.4611 19.094 42.2407 20.1512 42.676L20.6669 42.8882L27.7486 42.9145L34.8305 42.9407L37.8508 45.4124C39.512 46.7719 40.9376 47.9097 41.0189 47.9409C41.427 48.0975 41.9865 47.8746 42.1642 47.4846C42.2406 47.317 42.2762 46.558 42.2762 45.0973V42.9559L43.6122 42.9143C44.6973 42.8803 45.0448 42.8342 45.4637 42.6681C46.5077 42.2542 47.2985 41.4661 47.7359 40.4038L47.9481 39.8882V29.9038V19.9195L47.7359 19.4038C47.3006 18.3466 46.5209 17.567 45.4637 17.1317L44.9481 16.9195L37.9169 16.8933L30.8856 16.8671L30.9184 15.8621C31.0234 12.6453 29.9649 9.17214 28.0691 6.51321C24.7457 1.85214 19.0263 -0.633262 13.4012 0.139238ZM4.7962 4.35733C3.92198 4.73786 4.21476 6.09133 5.1712 6.09133C5.97735 6.09133 6.40251 5.11821 5.8416 4.55721C5.70566 4.42127 5.54029 4.31008 5.4742 4.31008C5.4081 4.31008 5.29785 4.29049 5.22923 4.26658C5.16051 4.24277 4.9657 4.28355 4.7962 4.35733ZM14.995 8.13058C14.5017 8.37696 14.4438 8.66327 14.4377 10.8906L14.4325 12.8304L12.5594 12.8593L10.6863 12.8882L10.4287 13.146C10.0454 13.5297 10.0649 14.0782 10.4752 14.4446L10.7792 14.7163H12.559C14.6078 14.7163 14.4576 14.6192 14.1462 15.7432C13.5696 17.8238 12.2291 19.6434 10.39 20.8419C9.5226 21.4071 9.29601 21.7202 9.41357 22.1911C9.54566 22.7203 10.1426 23.0601 10.6209 22.8782C12.0198 22.3463 14.4035 19.9113 15.2365 18.1632L15.4032 17.8133L15.7707 18.4914C16.5561 19.9406 17.9915 21.5121 19.3078 22.3637C20.2028 22.9426 20.4244 23.0114 20.8378 22.8386C21.3028 22.6444 21.519 22.2081 21.3801 21.7444C21.2934 21.4549 21.1485 21.3139 20.5149 20.9021C19.114 19.9919 18.0091 18.7791 17.3139 17.3882C16.9507 16.6616 16.495 15.3025 16.495 14.9458V14.7163H18.6468C19.9944 14.7163 20.8821 14.6783 21.022 14.6146C21.1448 14.5586 21.3155 14.3939 21.4014 14.2485C21.6455 13.8353 21.5984 13.5197 21.2387 13.1601L20.92 12.8413H18.6137H16.3075V10.7287C16.3075 8.39439 16.278 8.25996 15.7248 8.06711C15.3577 7.93914 15.3824 7.93699 14.995 8.13058ZM45.1389 19.0771C45.4717 19.283 45.6674 19.4963 45.858 19.8613L46.12 20.3627L46.1179 29.8911C46.1159 38.9325 46.107 39.4386 45.9438 39.7945C45.7248 40.2718 45.3317 40.6649 44.8544 40.8839C44.5362 41.0299 44.2279 41.0562 42.8197 41.058C41.7369 41.0593 41.0746 41.099 40.9142 41.1721C40.4654 41.3766 40.4012 41.6548 40.4012 43.3992C40.4012 44.2783 40.3778 44.9976 40.3491 44.9976C40.3205 44.9976 39.2763 44.1608 38.0288 43.1381C36.7813 42.1152 35.6684 41.2293 35.5559 41.1693C35.4052 41.089 33.4693 41.0601 28.2306 41.0601H21.1101L20.6087 40.7981C20.2437 40.6075 20.0303 40.4118 19.8245 40.079L19.5419 39.6219L19.5159 35.0173L19.4899 30.4129L20.3128 30.1489C23.4767 29.1338 26.4104 26.889 28.3523 23.9976C29.2638 22.6404 30.2046 20.4814 30.5082 19.0506L30.5731 18.7441L37.6273 18.7693L44.6817 18.7945L45.1389 19.0771ZM32.3167 23.5991C32.1175 23.7226 31.8769 24.1755 31.2386 25.6291C30.7866 26.6583 30.0794 28.2626 29.6669 29.1942L28.9169 30.8882L28.5262 30.9166C27.9698 30.9572 27.6512 31.2943 27.6512 31.8428C27.6512 32.1591 27.7064 32.3113 27.8865 32.4913L28.1218 32.7266L27.5963 33.9168C27.3073 34.5714 27.0341 35.228 26.9894 35.3758C26.8846 35.7217 27.0799 36.2073 27.4109 36.4241C27.6959 36.6109 28.2348 36.5611 28.4971 36.3237C28.5886 36.241 28.9919 35.4165 29.3934 34.4917L30.1232 32.8101H32.8075H35.4917L36.2216 34.4917C36.623 35.4165 37.0263 36.241 37.1178 36.3237C37.3801 36.5611 37.919 36.6109 38.2041 36.4241C38.535 36.2073 38.7303 35.7217 38.6256 35.3758C38.5809 35.228 38.3077 34.5714 38.0187 33.9168L37.4932 32.7266L37.7284 32.4913C37.9085 32.3113 37.9637 32.1591 37.9637 31.8428C37.9637 31.2943 37.6452 30.9572 37.0888 30.9166L36.6981 30.8882L35.9481 29.1942C35.5356 28.2626 34.8279 26.6574 34.3755 25.6271C33.7077 24.1066 33.5021 23.724 33.2829 23.5946C32.9436 23.3941 32.645 23.3955 32.3167 23.5991ZM33.7229 28.8025C34.2007 29.8981 34.5909 30.8261 34.5901 30.8648C34.5894 30.9035 33.7872 30.9351 32.8075 30.9351C31.8278 30.9351 31.0256 30.9035 31.0248 30.8648C31.0226 30.7522 32.7557 26.8106 32.8075 26.8106C32.8333 26.8106 33.2452 27.7069 33.7229 28.8025Z" fill="black"/>
</svg>
