<svg width="25" height="25" viewBox="0 0 25 25" fill="none" xmlns="http://www.w3.org/2000/svg">
<g clip-path="url(#clip0_11_31)">
<path fill-rule="evenodd" clip-rule="evenodd" d="M10.7935 13.693L10.7943 21.58C10.7823 22.7639 9.8837 23.7347 8.70574 23.8399L7.66148 23.8414H7.46915V23.7573C5.29263 23.831 3.16887 23 1.61364 21.4673C0.0284029 19.7244 -0.389947 17.0498 0.363514 13.5113C1.58964 7.86551 4.29037 4.16391 8.17384 2.80408C8.3894 2.73346 8.60804 2.69961 8.83052 2.70037C9.23472 2.70037 9.63445 2.83562 9.9574 3.08272C10.4547 3.45769 10.7567 4.05559 10.7635 4.67996V7.18698C10.7635 7.50779 10.5028 7.76843 10.182 7.76843C9.86201 7.76843 9.60137 7.50779 9.60137 7.18698V4.68227C9.60721 4.42071 9.48628 4.17883 9.27749 4.03005C9.15132 3.95866 8.989 3.92419 8.83129 3.93989C8.69605 3.92558 8.60511 3.92558 8.5128 3.93912C6.57229 4.52441 3.03824 6.59031 1.50117 13.7778C0.842331 16.8903 1.14359 19.2328 2.39526 20.7399C3.77832 22.0622 5.68128 22.7442 7.61517 22.585H8.59557C9.15455 22.543 9.60306 22.0606 9.60152 21.4852V13.7064C9.60075 13.3841 9.85247 13.1219 10.1748 13.1091C10.511 13.1205 10.771 13.3715 10.7935 13.693ZM16.6182 15.8146C16.6318 16.1362 16.8932 16.3885 17.2148 16.3885H17.2298L17.2449 16.3854C17.5589 16.3374 17.7739 16.0503 17.7348 15.7605V13.9123L19.6896 14.5734L19.7482 14.5825C19.7513 14.584 19.7542 14.584 19.7573 14.584C20.0067 14.584 20.2277 14.4256 20.2952 14.2166C20.3718 14.0717 20.3718 13.8995 20.3028 13.771C20.2397 13.6238 20.118 13.5112 19.9723 13.463L17.4931 12.5757L13.0357 7.99583V2.58144C13.0357 2.26064 12.7751 2 12.4543 2C12.1335 2 11.8724 2.2608 11.8724 2.5816V8.08769L7.46315 12.5286L5.05076 13.3828C4.9012 13.4316 4.7795 13.5361 4.70811 13.6773C4.64271 13.8087 4.62917 13.9575 4.66979 14.098C4.68333 14.2588 4.80504 14.4902 5.39033 14.4902L7.28283 13.8373V15.6825C7.28283 16.0025 7.54347 16.2639 7.8635 16.2639C8.1843 16.2639 8.44494 16.0025 8.44494 15.6825V13.1634L12.4989 9.12456L16.6181 13.3031V15.8146H16.6182ZM24.6373 13.4316C22.971 5.79269 19.0179 3.42537 16.7715 2.68607C16.5747 2.6613 16.3777 2.66284 16.205 2.68453C16.2019 2.68453 16.199 2.68453 16.1959 2.68453C15.7737 2.68453 15.3679 2.80931 15.0164 3.04887C14.504 3.42676 14.202 4.03236 14.2064 4.66642V7.26515C14.2064 7.58518 14.4679 7.84582 14.7879 7.84582C15.1079 7.84582 15.3693 7.58518 15.3693 7.26515V4.77013C15.3618 4.51395 15.4835 4.27208 15.6954 4.12175C15.8397 4.0159 16.0109 3.95866 16.2168 3.9542C16.2965 3.94143 16.3761 3.9422 16.4242 3.94666C18.4016 4.60626 21.9475 6.76402 23.4666 13.8057C24.0931 17.0137 23.8017 19.281 22.5907 20.7234C21.2038 22.0306 19.3091 22.7082 17.3918 22.5701C17.0583 22.5881 16.7218 22.5865 16.3942 22.5716C15.8337 22.513 15.392 22.0426 15.3695 21.4852V13.7064C15.3695 13.3856 15.1081 13.125 14.788 13.125C14.468 13.125 14.2066 13.3856 14.2066 13.7064V21.4867C14.2201 22.6707 15.1187 23.6414 16.3131 23.748H17.3243L17.5257 23.727C19.7179 23.8007 21.8726 22.9546 23.4428 21.3784C24.9798 19.6176 25.3811 16.9446 24.6373 13.4316Z" fill="black"/>
</g>
<defs>
<clipPath id="clip0_11_31">
<rect width="25" height="25" fill="white"/>
</clipPath>
</defs>
</svg>
