<svg width="25" height="25" viewBox="0 0 25 25" fill="none" xmlns="http://www.w3.org/2000/svg">
<path fill-rule="evenodd" clip-rule="evenodd" d="M15.2384 2.35209C15.2384 2.02839 15.501 1.76516 15.8246 1.76516C18.5812 1.76516 20.8225 4.00794 20.8225 6.76455C20.8225 7.08752 20.5599 7.35075 20.2363 7.35075C19.9128 7.35075 19.6501 7.08737 19.6501 6.7644C19.6501 4.65432 17.9339 2.9383 15.8247 2.9383C15.501 2.9383 15.2384 2.67492 15.2384 2.35209ZM15.9694 8.97027V7.79204H17.1474C17.4711 7.79204 17.7337 7.52866 17.7337 7.20511C17.7337 6.88214 17.471 6.6189 17.1474 6.6189H15.9694V5.44082C15.9694 5.11712 15.7067 4.85389 15.3832 4.85389C15.0596 4.85389 14.797 5.11727 14.797 5.44082V6.6189H13.6181C13.2944 6.6189 13.0312 6.88228 13.0312 7.20511C13.0312 7.52881 13.2946 7.79204 13.6181 7.79204H14.797V8.97012C14.797 9.29382 15.0596 9.55705 15.3832 9.55705C15.7067 9.55705 15.9694 9.29382 15.9694 8.97027ZM22.587 6.7644C22.587 8.70543 21.917 9.94471 21.142 11.3783C21.0157 11.6118 20.8879 11.8517 20.7574 12.1009C20.3231 12.9347 20.0193 15.8887 19.9384 16.9575C19.9398 19.7353 18.7318 22.4068 16.6239 24.2748C16.621 24.2791 16.6083 24.2933 16.5955 24.3046C16.3727 24.4991 16.1527 24.6751 15.8872 24.8709C15.8134 24.9263 15.7297 24.9618 15.6445 24.9773C15.565 24.9929 15.4742 25 15.3833 25C14.5728 25 13.9142 24.3414 13.9142 23.5309V16.9135C13.9142 16.0206 13.1867 15.2925 12.294 15.2925C11.4012 15.2925 10.6751 16.0207 10.6751 16.9135V23.5309C10.6751 24.3414 10.0157 25 9.20525 25C9.11441 25 9.02356 24.9929 8.94188 24.9773C8.85597 24.9618 8.77152 24.9249 8.69987 24.8695C8.41948 24.6622 8.19884 24.4862 8.00712 24.3173C7.99433 24.3074 7.97587 24.2889 7.95886 24.269C5.85881 22.4095 4.6473 19.7239 4.6473 16.9135C4.56707 15.863 4.2627 12.9269 3.83115 12.1009C3.70411 11.8567 3.57707 11.6218 3.4528 11.3933C2.6692 9.94122 2 8.70267 2 6.7644C2 3.03481 5.03481 0 8.7644 0C10.0143 0 11.2335 0.344921 12.296 0.999296L12.3116 0.990139C13.3705 0.343613 14.5869 0 15.8247 0C19.5536 0 22.587 3.03481 22.587 6.7644ZM15.0865 16.9135V23.5309C15.0865 23.6772 15.1901 23.7978 15.3292 23.8219C15.4981 23.6942 15.6429 23.5777 15.7721 23.4657C15.7763 23.46 15.7948 23.4401 15.8162 23.4231C17.6912 21.7793 18.7686 19.406 18.7686 16.9135C18.7799 16.7375 19.0596 12.8205 19.7154 11.5586C19.8218 11.3549 19.9283 11.159 20.0305 10.9674L20.11 10.8212C20.8397 9.47348 21.4159 8.4095 21.4159 6.7644C21.4159 3.68134 18.9077 1.17314 15.8246 1.17314C14.7571 1.17314 13.7118 1.48259 12.804 2.06807C11.1944 3.10647 10.2333 4.86232 10.2333 6.7644C10.2333 7.08737 9.96995 7.35061 9.6464 7.35061C9.32284 7.35061 9.05947 7.08737 9.05947 6.7644C9.05947 4.8645 9.86283 3.05748 11.2717 1.77359C10.4925 1.37968 9.63012 1.17314 8.76426 1.17314C5.68119 1.17314 3.17299 3.68134 3.17299 6.7644C3.17299 8.40819 3.74859 9.47275 4.47753 10.8212L4.55209 10.9596C4.65704 11.154 4.76358 11.3527 4.87143 11.558C5.50095 12.7673 5.78773 16.4537 5.81826 16.8696C5.82044 19.3948 6.89779 21.7794 8.77574 23.426C8.79493 23.443 8.81339 23.4614 8.82894 23.4785C8.94682 23.5792 9.08868 23.6942 9.25831 23.8219C9.39741 23.7978 9.50105 23.6772 9.50105 23.5309V16.9135C9.50105 15.3733 10.7537 14.12 12.2938 14.12C13.8346 14.1201 15.0865 15.3735 15.0865 16.9135Z" fill="black"/>
</svg>
