<svg width="25" height="25" viewBox="0 0 25 25" fill="none" xmlns="http://www.w3.org/2000/svg">
<g clip-path="url(#clip0_11_53)">
<path fill-rule="evenodd" clip-rule="evenodd" d="M1.94981 5.91247C1.78535 5.91577 1.63161 5.99842 1.53892 6.13332C1.47649 6.22394 0 8.37796 0 10.0305C0 11.1115 0.878991 11.9905 1.95999 11.9905C3.04099 11.9905 3.92067 11.1115 3.92067 10.0305C3.92067 8.25915 2.52806 6.33148 2.36827 6.11586C2.2694 5.98494 2.11978 5.90574 1.94981 5.91247ZM1.02049 10.0305C1.02049 9.1596 1.62212 7.98247 1.97264 7.3715C2.36084 8.01809 2.8999 9.08781 2.8999 10.0305C2.89921 10.5475 2.47416 10.9691 1.9538 10.9698C1.4395 10.9652 1.02118 10.5434 1.02049 10.0305ZM24.8546 15.3323L22.5475 12.8997C22.5314 12.3102 22.424 10.5671 21.7256 9.70498C21.1347 8.91537 20.5841 8.08809 20.0899 7.24471C19.914 6.96074 19.7433 6.68338 19.5782 6.42279C19.1955 5.85472 18.7496 5.31759 18.2554 4.8268C17.8392 4.41178 17.4523 3.96128 17.1125 3.49456C16.7983 3.0024 16.5298 2.47861 16.3055 1.9214C16.0383 1.31235 15.8073 0.786631 15.4716 0.43212C15.1117 0.0413043 14.5544 -0.100335 14.0535 0.0729326C13.3767 0.305194 12.9181 1.0116 12.8268 1.96169C12.6864 3.37712 13.0194 4.66426 13.7641 5.58615C13.7755 5.60087 13.7876 5.61503 13.799 5.62906C12.9295 5.19864 11.941 4.7018 11.6147 4.50103C11.2663 4.29352 9.16463 3.25749 7.11732 2.2832C2.96907 0.317158 2.82537 0.3602 2.60589 0.415893C2.29704 0.495789 1.58595 0.870515 1.36029 1.51903C1.21054 1.94876 1.29786 2.43226 1.58389 2.77605C1.88738 3.18832 3.24369 4.0988 5.73008 5.55782C5.26886 6.10252 4.90761 6.93104 4.8592 7.38621C4.81561 7.79917 5.01239 8.2289 5.44474 8.66537C4.9633 9.15079 4.30928 10.0224 4.61484 10.9577C4.79003 11.4929 5.62804 12.0266 6.34848 12.4C6.09875 12.8041 5.94763 13.2641 5.91009 13.7449C5.89193 14.4553 6.30695 14.7856 6.71509 15.0152C6.85412 15.0944 7.00044 15.1683 7.15418 15.2449L7.2932 15.3161C7.508 15.4263 7.73105 15.5404 7.98751 15.6934C8.37558 15.9245 8.94365 16.3326 9.70575 16.886C10.9701 17.8032 12.544 18.9433 13.6754 19.4375C15.1707 20.0876 17.4496 20.5227 18.1721 20.6501L22.3982 24.7232C22.4895 24.8119 22.6117 24.8629 22.7433 24.8669C22.8817 24.8669 23.0133 24.8119 23.1099 24.7125C23.2066 24.6172 23.259 24.4882 23.259 24.3512C23.259 24.2156 23.2066 24.0866 23.1086 23.99L18.7696 19.8068C18.693 19.7355 18.5991 19.6873 18.4822 19.6671L18.2714 19.6308C18.168 19.6133 18.031 19.5878 17.8698 19.5569L17.5126 19.4844C16.684 19.3139 15.1383 18.9594 14.0787 18.5001C13.0883 18.0785 11.6212 17.0148 10.4421 16.1607L9.91106 15.7766C10.191 15.8156 10.4731 15.8398 10.7544 15.8491C10.8881 15.8437 11.0209 15.8398 11.1539 15.8102C11.6495 15.6893 12.057 15.3334 12.2444 14.8594C12.4412 14.3626 12.3874 13.7966 12.1007 13.348C12.0974 13.342 12.0933 13.3366 12.0893 13.3305C12.3464 13.209 12.556 13.0075 12.6909 12.749C12.9723 12.1863 13.0165 11.6619 12.8239 11.1912C12.795 11.1207 12.7608 11.0515 12.7225 10.9851C13.0791 10.8239 13.3591 10.5298 13.5035 10.1566C13.6143 9.84235 13.6982 9.2025 13.0099 8.44631C12.344 7.7146 10.625 7.08272 10.3068 6.97202L10.1993 6.91151C9.62586 6.58918 7.43292 5.35705 7.01061 5.12479C3.31423 2.97544 2.53741 2.35237 2.39233 2.15902C2.31244 2.07913 2.28356 1.96293 2.30776 1.87698C2.40787 1.68556 2.56959 1.5332 2.765 1.44326C3.80502 1.79915 10.441 4.99855 11.0937 5.38607C11.6644 5.73054 13.9783 6.8572 14.7384 7.22793L14.7451 7.23123C14.7935 7.34276 14.8324 7.45153 14.8606 7.54752C14.9384 7.9987 14.9384 8.45594 14.862 8.90451C14.8257 9.08713 14.8916 9.27511 15.0311 9.39406C15.1735 9.51425 15.3682 9.54849 15.5441 9.48275C15.7173 9.41633 15.8408 9.26122 15.869 9.06719L15.8757 9.01947C15.9738 8.3077 15.9698 7.73096 15.8664 7.30865C15.8033 7.02868 15.7052 6.75874 15.5736 6.50227C15.2727 5.95772 14.9357 5.43269 14.5678 4.9364C14.2362 4.52949 13.7016 3.61502 13.8554 2.05988C13.9178 1.42002 14.1878 1.10704 14.3972 1.03388C14.5113 0.994965 14.6429 1.02783 14.7275 1.11983C14.9437 1.34741 15.16 1.84439 15.3694 2.3217C15.6125 2.92333 15.9119 3.50419 16.2624 4.05342C16.6358 4.57116 17.0574 5.06662 17.5141 5.52661C17.9585 5.96638 18.3628 6.45125 18.712 6.96487C18.865 7.20524 19.0248 7.46515 19.1874 7.73096L19.2116 7.76919C19.73 8.65148 20.3047 9.51369 20.9224 10.3348C21.4152 10.9458 21.524 12.5372 21.524 13.0986C21.524 13.2281 21.5736 13.3524 21.6637 13.4491L24.1051 16.0308C24.23 16.1731 24.4194 16.2322 24.6007 16.1919C24.7847 16.1503 24.931 16.0119 24.9808 15.8321C25.0305 15.6559 24.9821 15.4639 24.8546 15.3323ZM7.30008 12.8103C8.06149 13.0735 9.42454 13.4879 10.5963 13.5442C10.6298 13.547 10.6662 13.5463 10.6822 13.5449C10.9119 13.5591 11.116 13.6873 11.2328 13.8941C11.3444 14.0687 11.3644 14.2889 11.2873 14.4822C11.2209 14.6527 11.0737 14.779 10.8932 14.822C10.4991 14.9147 8.65391 14.5239 7.1605 14.0995C6.93085 13.9598 6.93223 13.902 6.93415 13.7806C6.97568 13.432 7.10192 13.0984 7.30008 12.8103ZM7.31548 11.7347C6.40294 11.3264 5.63946 10.7946 5.5905 10.6496C5.45285 10.2259 5.86443 9.66249 6.31561 9.25696C7.37186 9.71763 9.71249 10.7241 10.3404 10.8792C10.5761 10.9389 10.905 11.0081 11.2529 11.0712C11.5189 11.1504 11.7425 11.3391 11.8592 11.5701C11.9364 11.8111 11.9049 12.0737 11.7679 12.2993C11.682 12.4712 11.3361 12.5565 10.7862 12.5343H10.7096C9.81398 12.4847 8.47913 12.1698 7.31548 11.7347ZM10.5948 9.88471C10.0563 9.75586 7.66532 8.72381 6.49493 8.20676C6.16792 7.98784 5.86374 7.63539 5.88052 7.49306C5.92081 7.10568 6.38616 6.28651 6.63258 6.079C7.85866 6.78198 8.98669 7.40711 9.59767 7.74554L9.72995 7.8187L9.91257 7.91207C10.3726 8.07117 11.7866 8.63787 12.2399 9.13608C12.4856 9.40135 12.593 9.65038 12.5407 9.8055C12.4527 9.98482 12.2748 10.1064 12.0693 10.1245C11.9109 10.1406 11.3496 10.0694 10.5948 9.88471Z" fill="black"/>
</g>
<defs>
<clipPath id="clip0_11_53">
<rect width="25" height="25" fill="white"/>
</clipPath>
</defs>
</svg>
