<svg width="25" height="25" viewBox="0 0 25 25" fill="none" xmlns="http://www.w3.org/2000/svg">
<path fill-rule="evenodd" clip-rule="evenodd" d="M22.291 6.54032C19.4123 6.10226 17.7148 6.07952 16.349 6.06144C14.7545 6.04008 13.6021 6.0246 11.3982 5.38724C10.5228 5.13383 9.46944 5 8.35252 5C4.19496 5 0 6.81387 0 10.8664C0 13.7217 0.230123 14.5785 0.383265 15.149C0.494902 15.5624 0.5512 15.771 0.445453 16.6981C0.311625 17.8632 0.469561 19.4537 1.13034 20.1947C1.40252 20.4984 1.74428 20.6589 2.1196 20.6589C2.17247 20.6589 2.22466 20.655 2.24206 20.6482C2.77449 20.7018 3.28474 20.7285 3.75896 20.7285C6.81357 20.7285 8.15458 19.6745 9.14713 18.8945C9.43807 18.6658 9.68888 18.4692 9.92503 18.3581C10.222 18.2163 10.9069 18.1013 11.6319 17.9783C13.6599 17.6345 16.7157 17.1154 17.9451 15.018C19.0126 14.5559 19.7483 14.0107 20.464 13.4791C21.1716 12.9527 21.7816 12.4979 22.6498 12.2077C23.6611 11.8706 25.1204 10.2126 24.9921 8.69896C24.9222 7.89079 24.3965 6.86071 22.291 6.54032ZM11.4699 17.0252L11.4392 16.8572C10.565 17.0057 9.87476 17.1222 9.43602 17.3294C9.08426 17.4979 8.77058 17.744 8.42868 18.0116C7.54777 18.7032 6.45564 19.5606 3.8973 19.59C3.90004 19.5872 3.90265 19.5846 3.90538 19.5819C3.96963 19.5097 4.03442 19.432 4.09935 19.3531L4.13743 19.3076C4.21167 19.2153 4.28659 19.1177 4.36015 19.0188L4.41905 18.9385C4.49727 18.8329 4.57617 18.7218 4.6552 18.6054C5.37954 17.546 8.00336 16.3073 13.1957 16.0076C13.4859 15.9915 13.7615 15.9688 14.027 15.942C14.0926 15.9366 14.1541 15.9285 14.2303 15.9192C14.4376 15.8978 14.6369 15.8737 14.8323 15.847L15.0181 15.8176C15.1933 15.7909 15.3633 15.7628 15.5304 15.732C14.3333 16.366 12.7575 16.6336 11.4432 16.857H11.4411L11.4699 17.0252C11.4697 17.0252 11.4699 17.0252 11.4699 17.0252ZM1.48142 14.8534L1.31622 14.8961L1.48142 14.852C1.3443 14.343 1.1376 13.5732 1.1376 10.8664C1.1376 7.13357 5.67295 6.13774 8.35238 6.13774C9.3489 6.13774 10.3182 6.25951 11.0819 6.48019C11.5462 6.61401 11.9782 6.72497 12.4009 6.81866C14.1392 8.47938 14.253 11.7106 12.6872 14.9016C12.245 14.9324 11.813 14.9684 11.3984 15.0139C7.45216 15.4392 4.72397 16.4881 3.71677 17.9635C3.65663 18.0491 3.59979 18.132 3.54417 18.2096L3.24652 18.6003L3.37994 18.707C3.3798 18.7071 3.37994 18.7071 3.3798 18.7071L3.20433 18.6511L2.74093 19.1514C2.42986 19.4363 2.24137 19.5019 2.11892 19.5205C2.09618 19.5205 2.0533 19.5205 1.97851 19.4376C1.59388 19.0068 1.4695 17.7468 1.57456 16.8278C1.69949 15.7376 1.62456 15.3845 1.48142 14.8534ZM16.0803 14.4446C15.9638 14.4755 15.8408 14.5029 15.7178 14.5309C15.667 14.5423 15.6176 14.5537 15.564 14.5644C15.4436 14.5898 15.3192 14.6126 15.1907 14.6359C15.1306 14.6472 15.0717 14.6579 15.0114 14.6686C14.8857 14.6893 14.7546 14.7081 14.6221 14.7261L14.4228 14.7542C14.2824 14.7716 14.1366 14.7876 13.9881 14.8024C15.2281 11.9251 15.2535 9.09318 14.0616 7.09536C14.8456 7.1796 15.5437 7.18905 16.3344 7.19973C17.664 7.21713 19.3173 7.2385 22.1212 7.66518C23.2234 7.83312 23.8067 8.21364 23.8561 8.79621C23.9364 9.72328 22.8408 10.9446 22.291 11.1284C21.2544 11.4736 20.544 12.0019 19.7816 12.5685C19.0324 13.1255 18.258 13.7009 17.0112 14.1589C16.8921 14.2016 16.769 14.2432 16.6407 14.284L16.5618 14.3088C16.4467 14.3442 16.3249 14.379 16.2033 14.4118L16.0803 14.4446Z" fill="black"/>
</svg>
