<svg width="25" height="25" viewBox="0 0 25 25" fill="none" xmlns="http://www.w3.org/2000/svg">
<path fill-rule="evenodd" clip-rule="evenodd" d="M15.1711 17.975C15.0416 18.1487 14.8426 18.2416 14.6424 18.2416C14.5069 18.2416 14.3713 18.2005 14.2551 18.1134C14.1756 18.056 14.1085 17.9765 14.0622 17.8866L13.5025 16.7673C13.4488 16.5611 13.4869 16.3608 13.6026 16.2002L13.6034 16.1987C13.7065 16.0587 13.8581 15.9675 14.0297 15.9409C14.205 15.9129 14.3759 15.9586 14.5172 16.0617C14.5982 16.1207 14.663 16.1972 14.7116 16.2886L15.2697 17.4049C15.3257 17.6141 15.2875 17.8159 15.1711 17.975ZM14.0878 15.7141C14.2594 15.6183 14.3772 15.452 14.4125 15.2369L14.4184 15.1118L14.3594 13.9916C14.3564 13.8907 14.327 13.7906 14.2769 13.7015C14.1901 13.5498 14.0501 13.4401 13.8815 13.3937C13.7144 13.3472 13.5361 13.3694 13.3851 13.4555C13.2135 13.5534 13.0965 13.7214 13.0618 13.9319L13.0544 14.0579L13.1134 15.1795C13.1185 15.2811 13.1479 15.3813 13.1981 15.4696C13.3182 15.6802 13.5399 15.7996 13.7667 15.7996C13.8765 15.7996 13.9863 15.7716 14.0878 15.7141ZM13.4885 13.0168L14.6645 13.4388C14.7322 13.463 14.8045 13.4756 14.8781 13.4756C14.9061 13.4756 14.9355 13.4733 14.9634 13.4697C15.3198 13.4232 15.5732 13.0949 15.5275 12.737C15.5009 12.5426 15.3905 12.3702 15.2079 12.2576L14.0208 11.8327L13.8353 11.7995L13.7329 11.8053C13.5599 11.8273 13.4052 11.9157 13.2984 12.0541C13.1924 12.1926 13.146 12.3642 13.1689 12.5372C13.1947 12.7332 13.3058 12.9055 13.4885 13.0168ZM16.1799 13.6559L16.3066 13.6641L17.4303 13.6176C17.5335 13.6125 17.6306 13.5852 17.719 13.5366C18.0342 13.3621 18.1491 12.9637 17.9752 12.6485C17.8529 12.4305 17.6217 12.306 17.3757 12.312L16.2505 12.3577C16.149 12.3628 16.0489 12.3915 15.9635 12.4401C15.8103 12.5241 15.6999 12.6631 15.6513 12.8311C15.6043 12.9982 15.6233 13.1742 15.7088 13.3282C15.8044 13.5006 15.9694 13.6191 16.1799 13.6559ZM16.3155 19.7217C16.398 19.7792 16.4951 19.8175 16.5968 19.8308C16.856 19.8573 17.102 19.7395 17.2346 19.5289C17.1727 19.6438 17.1433 19.7763 17.158 19.9148C17.18 20.1122 17.289 20.2859 17.4701 20.4009L18.6381 20.8413C18.7103 20.8678 18.7854 20.8824 18.8634 20.8824C18.8884 20.8824 18.9135 20.8809 18.937 20.878C19.1107 20.8589 19.267 20.772 19.3759 20.6351C19.4834 20.4981 19.5335 20.3273 19.5128 20.1535C19.4908 19.9576 19.3817 19.7839 19.2006 19.6705L18.0224 19.2242L17.8383 19.1889L17.7338 19.1919C17.5291 19.217 17.3567 19.3334 17.2551 19.4954C17.2934 19.4261 17.3184 19.348 17.3302 19.2642C17.3537 19.0683 17.2904 18.8739 17.1447 18.7206L16.1108 18.0107C16.0268 17.9563 15.9385 17.9224 15.8311 17.9076V17.9061C15.6587 17.8869 15.488 17.9326 15.348 18.0371C15.2096 18.1447 15.1227 18.2979 15.0992 18.4716C15.0756 18.6675 15.139 18.8604 15.2847 19.0152L16.3155 19.7217ZM23.8415 14.4578L21.9121 10.9503L21.1817 10.063L21.1876 10.027C21.6663 7.58725 21.1434 5.33089 19.6795 3.5024C17.968 1.36609 15.1476 0.0906404 11.9376 0.00437366L11.59 0C9.79317 0 8.05154 0.407957 6.55364 1.17893C2.42837 3.30272 0.585855 6.41194 1.07782 10.4194C1.35758 12.6993 2.38795 15.1501 4.05658 17.5051C4.49923 18.1309 4.75622 19.1295 4.81805 20.4757C4.86073 21.4035 4.80991 22.4419 4.66708 23.5597L4.606 24.006C4.5766 24.2078 4.54854 24.3741 4.52577 24.5008L4.4757 24.7644L5.66202 25L5.76804 24.3887C5.79896 24.1972 5.83138 23.9705 5.86381 23.7141C6.01628 22.5256 6.06922 21.4166 6.02367 20.4181C5.94857 18.8172 5.62748 17.636 5.04126 16.8081C3.4874 14.6136 2.53078 12.3536 2.2753 10.2718C1.84592 6.76982 3.42542 4.14668 7.10593 2.25198C8.43371 1.56788 9.98455 1.20623 11.5898 1.20623C14.5274 1.20623 17.1047 2.28652 18.6601 4.17021C19.9488 5.72919 20.4142 7.66809 20.0091 9.77423L19.8751 10.3788L20.9178 11.6234L22.2964 14.1449L20.8781 15.2724L20.9489 17.483L20.2714 18.4522L20.3922 18.9294C20.4114 19.0162 20.432 19.1194 20.4525 19.2357C20.5174 19.5892 20.5542 19.9205 20.5629 20.2194C20.5821 20.9396 20.4186 21.1886 20.3302 21.2195C19.5025 21.5082 18.5084 21.6555 17.3757 21.6555C17.1283 21.6555 16.8912 21.6481 16.6702 21.6364L16.2122 21.6011L15.2976 21.4759L15.1342 24.8545L16.3375 24.9134L16.4407 22.8295L17.3759 22.8619C18.6424 22.8619 19.7707 22.6925 20.7294 22.3597C21.4615 22.1049 21.8016 21.3935 21.7678 20.1873C21.7604 19.8323 21.7162 19.4406 21.6411 19.0209L21.5749 18.6909L22.0521 18.0104L22.1611 17.6702L22.1037 15.8381L23.8415 14.4578ZM18.8296 13.5351L20.0152 13.1412C20.1138 13.1073 20.1993 13.0528 20.2685 12.9813C20.5204 12.7251 20.5174 12.3105 20.2611 12.0571C20.1212 11.9187 19.9135 11.8546 19.7309 11.8737L18.5262 12.2707C18.4304 12.3039 18.345 12.3576 18.2728 12.4305C18.1505 12.555 18.0843 12.7192 18.0858 12.893C18.0873 13.0682 18.1565 13.2317 18.2817 13.3547C18.4025 13.474 18.563 13.5403 18.7427 13.5403C18.7706 13.5403 18.8002 13.5381 18.8296 13.5351Z" fill="black"/>
</svg>
