<svg width="25" height="25" viewBox="0 0 25 25" fill="none" xmlns="http://www.w3.org/2000/svg">
<g clip-path="url(#clip0_11_58)">
<path fill-rule="evenodd" clip-rule="evenodd" d="M8.2604 19.3657H10.2537V21.3265C10.2537 21.6399 10.5378 21.924 10.8504 21.924H13.9916C14.305 21.924 14.5891 21.6399 14.5891 21.3265V19.3657H16.55C16.8633 19.3657 17.1475 19.0816 17.1475 18.7682V15.6277C17.1475 15.3143 16.8633 15.0302 16.55 15.0302H14.5891V13.0694C14.5891 12.7566 14.305 12.4727 13.9916 12.4727H10.8583C10.8197 12.4695 10.7841 12.4695 10.7455 12.4727L10.7386 12.4733C10.4622 12.5266 10.2491 12.789 10.2538 13.0694V15.0302H8.2604C7.94766 15.0302 7.66291 15.3143 7.66291 15.6277V18.7682C7.66291 19.0817 7.94782 19.3657 8.2604 19.3657ZM13.9918 16.2252H15.9526V18.1721H13.9918C13.6791 18.1721 13.3951 18.4562 13.3951 18.7682V20.7306H11.4474V18.7682C11.4474 18.4562 11.1632 18.1721 10.8507 18.1721H8.85725V16.2252H10.8505C11.1632 16.2252 11.4472 15.9411 11.4472 15.6277V13.6661H13.3949V15.6277C13.3951 15.9411 13.6792 16.2252 13.9918 16.2252ZM21.8433 9.40997C21.8433 8.28203 21.4973 7.39884 20.8443 6.85542C20.2206 6.33968 19.4424 6.18062 18.763 6.09271C18.462 6.05413 18.1593 6.0271 17.8937 6.00322C17.5432 5.9716 17.2422 5.94378 17.0199 5.90061C16.8191 5.86124 16.7141 5.801 16.6972 5.78551C16.6956 5.78551 16.6956 5.78472 16.694 5.78393V4.30689H18.1053C18.4172 4.30689 18.7013 4.02277 18.7013 3.71019V0.601322C18.7013 0.288586 18.4172 0.00462464 18.1053 0.00462464H6.71568C6.66636 -0.00154155 6.61529 -0.00154155 6.56596 0.00462464L6.55584 0.00683815C6.29638 0.0740338 6.09954 0.336492 6.10887 0.601322V3.71019C6.10887 4.02293 6.39299 4.30689 6.70557 4.30689H8.21328V5.83784C8.21328 5.84164 8.21328 5.84559 8.21407 5.84859L8.2079 5.85334C8.19715 5.8633 8.09438 5.94978 7.886 5.9969C7.64441 6.0516 7.30084 6.0818 6.90399 6.11659C6.66319 6.1373 6.40611 6.15975 6.14587 6.18979C5.43881 6.27327 4.69539 6.39596 4.06612 6.88625C3.37835 7.42271 3 8.31903 3 9.40997V24.4039C3 24.7159 3.28412 25 3.5967 25H21.2456C21.559 25 21.8431 24.7159 21.8431 24.4039L21.8415 10.1094C21.8662 10.0122 21.8662 9.90864 21.8431 9.83069V9.40997H21.8433ZM20.6497 10.5246V23.8063H4.19355V10.5246H20.6497ZM17.5076 1.19881V3.11333H7.30242V1.19881H17.5076ZM8.99228 6.74886C9.25631 6.51344 9.40762 6.16133 9.40762 5.78314V4.30689H15.5003V5.78298C15.5003 6.1373 15.6717 6.49557 15.9496 6.71945C16.1781 6.90159 16.4545 7.02365 16.7942 7.09085C17.1231 7.15646 17.4814 7.17496 17.8287 7.19346C18.0882 7.20737 18.3568 7.22128 18.6131 7.25449C19.2446 7.33481 19.7325 7.51394 20.0614 7.78715C20.3439 8.02099 20.6326 8.38859 20.6481 9.33123H4.19434C4.21047 8.42021 4.49775 8.07285 4.77871 7.85356C5.09904 7.60343 5.62332 7.42967 6.29417 7.35172C6.51805 7.32548 6.75126 7.30935 6.97656 7.29386C7.36946 7.26761 7.77485 7.23978 8.14845 7.15567C8.5091 7.07377 8.76919 6.94792 8.99228 6.74886Z" fill="black"/>
</g>
<defs>
<clipPath id="clip0_11_58">
<rect width="25" height="25" fill="white"/>
</clipPath>
</defs>
</svg>
