<svg width="25" height="25" viewBox="0 0 25 25" fill="none" xmlns="http://www.w3.org/2000/svg">
<path fill-rule="evenodd" clip-rule="evenodd" d="M20.5996 8.15169H17.0682L22.0325 3.09104C22.2437 2.86787 22.6461 2.86256 22.856 3.0943C22.9608 3.1933 23.026 3.34331 23.026 3.49875C23.026 3.65351 22.9608 3.80351 22.848 3.90973L19.7894 7.01083H23.4031L18.128 12.2859C18.0059 12.3875 17.8716 12.4453 17.7283 12.4612L17.715 12.4626C17.711 12.4626 17.7083 12.4626 17.7044 12.4626C17.5583 12.4626 17.4188 12.4062 17.3126 12.3025C17.1997 12.195 17.1345 12.0422 17.1345 11.8849C17.1239 11.7361 17.1824 11.5808 17.2965 11.4685L20.5996 8.15169ZM19.3087 13.0131C18.8717 13.0224 18.4481 13.1186 18.0443 13.3033L17.2289 13.735C16.2794 14.3207 15.1929 14.7031 14.0873 14.8413C12.9438 14.674 11.8322 14.2503 10.8588 13.6082L10.651 13.4974C10.4457 13.3878 10.2685 13.2935 10.1058 13.2238C9.71191 13.0445 9.29427 12.9482 8.8614 12.937C8.85678 12.937 8.85215 12.937 8.84685 12.937C8.34081 12.937 7.84946 13.1162 7.45575 13.4483C6.77904 14.1071 6.53275 15.0752 6.8129 15.9809C7.11373 16.8668 7.65553 17.6463 8.37141 18.2293C10.0122 19.7791 10.2639 20.017 10.2639 24.377C10.2639 24.6944 10.5216 24.9534 10.839 24.9547C10.845 24.9561 10.8503 24.9561 10.8556 24.9561C11.0037 24.9561 11.1498 24.8976 11.2587 24.7941C11.3702 24.6852 11.4347 24.5338 11.4347 24.3771C11.4347 19.6931 11.013 19.1154 9.22152 17.4166C8.66638 16.9611 8.23813 16.3648 7.98505 15.6968C7.8277 15.2108 7.94982 14.6796 8.29512 14.3196C8.46783 14.1695 8.67822 14.0872 8.91539 14.0925C9.1969 14.1071 9.46658 14.1748 9.71151 14.2904C9.94923 14.4179 10.1791 14.5626 10.4021 14.726C11.499 15.4299 12.7627 15.88 14.0855 16.0274C15.3964 15.8853 16.6713 15.4244 17.7577 14.7034L17.9795 14.5919C18.1467 14.4923 18.3208 14.4033 18.5001 14.3249C18.7578 14.2067 19.0313 14.1443 19.3155 14.1377C19.5334 14.127 19.755 14.2067 19.9132 14.3395C20.2624 14.7113 20.3794 15.2426 20.22 15.7234C19.9743 16.3941 19.5506 16.9903 18.9888 17.4539C17.1322 19.2216 16.7391 19.7581 16.7391 24.4237C16.7391 24.7424 16.998 25 17.3154 25C17.3181 25 17.3194 25 17.3221 25C17.6262 25 17.8839 24.7729 17.9237 24.4529C17.9237 20.0596 18.2132 19.7914 19.8096 18.3119C20.5307 17.7209 21.0712 16.9413 21.3766 16.0515C21.6356 15.1471 21.3766 14.1776 20.6953 13.5189C20.3114 13.1858 19.8187 13.0051 19.3087 13.0131ZM9.14944 10.6014C10.2332 11.0183 11.2319 11.6791 12.0467 12.5204L12.7359 13.1181C13.1948 13.4892 13.7473 13.7104 14.3343 13.7575H14.3428H14.3514C14.6695 13.7403 14.9749 13.6592 15.2658 13.5111C16.0905 13.037 16.5661 12.1539 16.5062 11.2029C16.424 10.2739 16.0893 9.38612 15.5407 8.64304L15.509 8.59259C14.2911 6.67682 14.1345 6.43053 15.1637 2.20856C15.2181 1.95425 15.0801 1.63289 14.651 1.53063L14.6311 1.526L14.6113 1.52736C14.3197 1.54327 14.0808 1.76644 14.0455 2.04197C12.92 6.62188 13.1504 7.17633 14.5714 9.36164C14.9964 9.93078 15.2673 10.6034 15.3523 11.2986C15.3816 11.7987 15.1358 12.2774 14.7295 12.5384C14.5979 12.5987 14.4586 12.6307 14.325 12.6333C13.9631 12.6061 13.6125 12.4606 13.3216 12.2116C13.0314 12.027 12.7559 11.8165 12.5095 11.5933C11.6496 10.6856 10.5785 9.96777 9.39246 9.51287C9.0692 9.4412 8.73642 9.40407 8.39711 9.40271C7.40911 9.4499 6.42885 9.62125 5.50191 9.90739C5.35191 9.93268 5.20177 9.97049 5.08821 10.0131C4.96269 10.0223 4.83594 10.0237 4.70172 10.0124L4.24749 10.0131C3.87894 10.0515 3.52767 9.89352 3.31116 9.62261C3.0642 9.19559 3.0642 8.66371 3.3045 8.24607C3.7182 7.65911 4.27999 7.1849 4.93209 6.87211C7.21776 5.69072 7.68327 5.32149 8.79558 0.68596C8.84943 0.436273 8.7133 0.130147 8.28886 0.00870369L8.25908 0L8.2278 0.00530381C7.99742 0.0463744 7.81016 0.210385 7.73835 0.442256C6.68521 4.6868 6.33991 4.87665 4.42877 5.92776C3.60804 6.32827 2.89488 6.93385 2.36097 7.68686C1.86703 8.51697 1.87886 9.5402 2.40353 10.3715C2.86632 10.9366 3.57758 11.2275 4.27619 11.1517C4.48331 11.1736 4.69315 11.1736 4.917 11.1485L5.80137 10.9347C6.65529 10.7182 7.53586 10.6067 8.43234 10.6033C8.67074 10.58 8.91172 10.5788 9.14944 10.6014Z" fill="black"/>
</svg>
