<svg width="25" height="25" viewBox="0 0 25 25" fill="none" xmlns="http://www.w3.org/2000/svg">
<g clip-path="url(#clip0_11_72)">
<path fill-rule="evenodd" clip-rule="evenodd" d="M9.56133 9.1619C9.67394 9.33045 9.85766 9.42491 10.0494 9.42491C10.1068 9.42491 10.1649 9.41688 10.2215 9.39873C10.2934 9.3776 10.3588 9.34354 10.4075 9.30426C11.6416 8.47758 13.3734 8.48487 14.6197 9.32018C14.7505 9.40736 14.9132 9.4386 15.0629 9.40884C15.2154 9.3776 15.3534 9.28611 15.4391 9.15758L19.5984 2.92008C19.7786 2.65052 19.706 2.28382 19.4357 2.10292C17.3844 0.727156 14.9858 0 12.5001 0C10.013 0 7.61446 0.727156 5.56316 2.10292C5.29464 2.28307 5.22204 2.64992 5.40145 2.92008L9.56133 9.1619ZM6.71756 2.7676C8.45735 1.72878 10.4527 1.18044 12.5003 1.18044C14.5473 1.18044 16.5434 1.72893 18.2823 2.7676L14.7651 8.04037C13.3674 7.33136 11.6177 7.33136 10.2324 8.04111L6.71756 2.7676ZM24.8285 12.1284C24.7209 12.0187 24.5684 11.9555 24.4115 11.954L16.9123 11.9279H16.9108C16.5898 11.9279 16.324 12.1901 16.321 12.5119C16.3064 14.0489 15.3912 15.4262 13.9995 16.0145C13.8731 16.0552 13.7642 16.138 13.6901 16.2484C13.5812 16.4126 13.5608 16.6188 13.6349 16.8005L16.494 23.7345C16.5535 23.8798 16.6654 23.993 16.8107 24.054C16.8833 24.0845 16.9604 24.1004 17.0388 24.1004C17.1143 24.1004 17.1913 24.0845 17.264 24.0554C19.5013 23.1344 21.4175 21.5856 22.8092 19.5707L22.8658 19.4821C24.2517 17.4351 24.9897 15.0351 25 12.5451C25 12.3884 24.939 12.2403 24.8285 12.1284ZM23.8029 13.1316C23.691 15.1721 23.0271 17.1405 21.8766 18.8403L21.8257 18.9232C20.6911 20.5648 19.1468 21.8767 17.354 22.7264L14.9381 16.8659C16.3298 16.0901 17.261 14.7013 17.4616 13.109L23.8029 13.1316ZM15.7356 12.5003C15.7356 11.4143 15.1981 10.4084 14.2988 9.80902C13.2333 9.09346 11.7602 9.09718 10.7047 9.80753C9.80262 10.4069 9.26365 11.4137 9.26365 12.5003C9.26365 13.8108 10.0438 14.983 11.251 15.4872C11.644 15.6527 12.0674 15.7356 12.4938 15.7356C12.9158 15.7356 13.3393 15.6557 13.7365 15.493C14.9469 14.9904 15.7313 13.8166 15.7356 12.5003ZM14.5574 12.5061C14.5544 13.3393 14.0547 14.0837 13.2862 14.4019C12.7835 14.6096 12.2002 14.6053 11.7078 14.4005C10.9393 14.0779 10.4432 13.3326 10.4432 12.5003C10.4432 11.8102 10.7854 11.1704 11.3599 10.7882C11.6955 10.5624 12.0971 10.4497 12.499 10.4497C12.9021 10.4497 13.3053 10.5631 13.6424 10.7897V10.7904C14.2146 11.1704 14.5574 11.8124 14.5574 12.5061ZM11.0628 16.0465L11.02 16.0261C9.59762 15.4335 8.67886 14.0504 8.67886 12.5003C8.67886 12.1748 8.41451 11.9097 8.08901 11.9097H0.589847C0.264353 11.9097 0 12.1748 0 12.5003C0 14.9948 0.729982 17.3976 2.10872 19.4431L2.148 19.5041C3.51647 21.5279 5.43269 23.0967 7.69107 24.0426C7.76441 24.0716 7.84147 24.0861 7.91704 24.0861C7.99336 24.0861 8.06893 24.0716 8.14004 24.0426C8.28672 23.9831 8.40082 23.8697 8.46107 23.723L11.3463 16.8034C11.4219 16.6218 11.4023 16.4156 11.2926 16.2485C11.2371 16.1657 11.1595 16.0974 11.0628 16.0465ZM10.0438 16.8616L7.60524 22.7119C5.79806 21.8416 4.25374 20.5109 3.13296 18.8547L3.09517 18.7966C1.9555 17.1041 1.30034 15.1342 1.19502 13.0901H7.53338C7.71934 14.6868 8.64688 16.08 10.0438 16.8616Z" fill="black"/>
</g>
<defs>
<clipPath id="clip0_11_72">
<rect width="25" height="25" fill="white"/>
</clipPath>
</defs>
</svg>
