<svg width="25" height="25" viewBox="0 0 25 25" fill="none" xmlns="http://www.w3.org/2000/svg">
<path fill-rule="evenodd" clip-rule="evenodd" d="M6.81032 19.9873C6.58076 19.828 6.49302 19.5341 6.59679 19.2752L6.65309 19.1684L9.9499 14.4437C10.1393 14.1746 10.5122 14.1044 10.7841 14.296C11.0136 14.4554 11.1014 14.7493 10.9976 15.0082L10.9413 15.115L7.64451 19.8397C7.52831 20.005 7.34189 20.0941 7.15247 20.0941C7.03403 20.0941 6.91483 20.0606 6.81032 19.9873ZM21.7236 21.8811L21.6343 21.9615L17.458 24.8919C17.2299 25.0499 16.9213 25.0308 16.7136 24.8465L16.6332 24.7573L12.0117 18.1273C11.9868 18.0907 11.9655 18.0527 11.9495 18.0132L7.25474 24.7441C7.13929 24.9079 6.95421 25 6.76345 25C6.69037 25 6.61506 24.9868 6.54333 24.9576L6.43507 24.9006L2.25735 21.992C2.0278 21.8327 1.9393 21.5401 2.04307 21.2799L2.10012 21.1716L8.28929 12.3108C8.1367 12.3228 7.98307 12.2665 7.86178 12.1575L7.78137 12.0684L7.05095 11.0235C5.9586 9.46546 5.69101 7.46644 6.33504 5.67736L6.46367 5.34913L7.69722 2.49181C8.49862 0.980492 10.1648 0 11.9386 0C13.8037 0 15.4736 0.988578 16.1946 2.51876L16.3848 2.93189L16.7796 3.83991L17.4114 5.34614C18.1631 7.09359 18.0168 9.10429 17.0224 10.7245L16.8294 11.0199L15.5455 12.858C15.7268 12.8273 15.9155 12.8726 16.0543 12.9977L16.1347 13.0869L21.7675 21.1384C21.9268 21.3634 21.9078 21.6764 21.7236 21.8811ZM15.1637 13.7872C15.1125 13.7127 15.0789 13.6323 15.0642 13.5481L12.528 17.1842C12.6632 17.1901 12.7955 17.2413 12.9031 17.3377L12.9842 17.4298L17.2608 23.5656L20.4427 21.3342L15.1637 13.7872ZM8.93571 2.75355L9.93447 4.18656C10.5165 3.69451 11.2287 3.42543 11.9583 3.42543C12.6786 3.42543 13.387 3.69227 13.9698 4.17922L14.3858 3.58401C14.4779 3.45239 14.6138 3.36539 14.7718 3.33694C14.9283 3.30909 15.0876 3.34427 15.2192 3.43562C15.2719 3.4729 15.3186 3.51827 15.3567 3.56798C15.2514 3.33035 15.1725 3.15635 15.114 3.03491C14.5963 1.93598 13.3198 1.19821 11.9386 1.19821C10.73 1.19836 9.58873 1.79133 8.93571 2.75355ZM3.4331 21.3518L6.61296 23.5671L15.8451 10.3371C16.7108 9.10219 16.9258 7.51631 16.4198 6.09423L15.6448 4.23268C15.579 4.08129 15.5205 3.94458 15.4664 3.82104C15.4855 3.92856 15.4766 4.04116 15.4327 4.14867L15.3757 4.25604L3.4331 21.3518ZM8.75303 11.3694C8.78807 11.4199 8.81517 11.4747 8.83344 11.5325L11.4202 7.82851C11.2484 7.85472 11.0722 7.80276 10.9355 7.68222L10.8551 7.59222L8.34724 4.00373L7.56635 5.81782C6.97114 7.2026 7.08374 8.79792 7.86687 10.0848L8.03503 10.3414L8.75303 11.3694ZM11.8267 6.89249C11.8742 6.96047 11.9049 7.03505 11.9211 7.11186L13.2795 5.16705C12.5097 4.45848 11.3859 4.46807 10.6263 5.17439L11.8267 6.89249Z" fill="black"/>
</svg>
