<svg width="25" height="25" viewBox="0 0 25 25" fill="none" xmlns="http://www.w3.org/2000/svg">
<path fill-rule="evenodd" clip-rule="evenodd" d="M8.43278 10.5058C9.05208 11.1437 9.37847 11.9319 9.37778 12.7848C9.37694 13.5434 9.10653 14.3177 8.61667 14.9648C7.96583 15.8247 7.07375 16.2992 5.96542 16.3756C5.84611 16.3836 5.72792 16.3875 5.61181 16.3875C3.82722 16.3875 2.35528 15.4284 1.23181 13.5326C0.690139 12.6189 0.350139 11.5324 0.161111 10.1133C0.104583 9.68922 0.0740278 9.26422 0.0444444 8.85312L0.00319444 8.30896L0 8.27153L0.00125 8.2341C0.0386111 6.9982 0.136667 5.56859 0.836806 4.24684C2.03125 1.99151 3.83333 0.901966 6.19333 1.00692C7.13111 1.04878 7.8925 1.28679 8.52097 1.73379C9.69861 2.57173 10.3118 3.85162 10.3431 5.5385C10.3539 6.12543 10.255 6.67387 10.0486 7.16823C9.92403 7.46705 9.60278 7.59782 9.33083 7.46079C9.05889 7.32375 8.94028 6.97055 9.06486 6.67143C9.20417 6.33702 9.26875 5.9745 9.26069 5.56294C9.23681 4.27724 8.8025 3.35161 7.93292 2.73305C7.46514 2.40002 6.89833 2.22937 6.14931 2.19592C4.19417 2.10823 2.76222 2.97534 1.77167 4.84554C1.26097 5.80997 1.12597 6.89951 1.08389 8.23578C1.09833 8.41116 1.11111 8.58746 1.12361 8.7584C1.15319 9.16813 1.18083 9.55494 1.23208 9.94007C1.39708 11.1833 1.68514 12.1182 2.13819 12.8822C3.05944 14.4371 4.19944 15.1967 5.61486 15.1967C5.70792 15.1967 5.80194 15.1936 5.89764 15.1871C6.70833 15.1316 7.32556 14.8096 7.78458 14.2032C8.34667 13.4608 8.61736 12.3277 7.6925 11.3743C7.47472 11.1494 7.46347 10.7727 7.66778 10.533C7.87194 10.293 8.21444 10.281 8.43278 10.5058ZM7.52431 7.59751C7.40861 7.28648 7.24833 7.01058 7.08097 6.74675C7.30292 6.54967 7.44583 6.28233 7.54958 6.08709L8.02028 5.20332C8.12083 5.01435 8.06306 4.77099 7.89125 4.66054C7.71944 4.55008 7.49833 4.61348 7.39778 4.80246L6.92708 5.68622C6.84306 5.84434 6.75889 5.99421 6.66597 6.0929C6.50903 5.82677 6.38194 5.55668 6.3275 5.25832C6.28819 5.04383 6.09806 4.90405 5.9025 4.94774C5.7075 4.99097 5.58042 5.20027 5.61972 5.41521C5.73431 6.03866 6.04597 6.51805 6.34708 6.98109C6.54431 7.28419 6.73292 7.57322 6.85139 7.88426C6.87583 7.9469 6.89667 8.01075 6.91458 8.07507C6.95903 8.23624 6.97986 8.39405 6.97708 8.54957C6.97319 8.80072 6.90792 9.04653 6.78097 9.29371C6.59431 9.65714 6.29306 9.98315 5.94181 10.2591L4.55833 9.5554L4.08361 9.40645C3.89222 9.34656 3.69236 9.46847 3.63778 9.67914C3.58333 9.88981 3.69431 10.1096 3.88569 10.1695L4.30625 10.3012L5.17986 10.7453C4.8775 10.9022 4.57181 11.0226 4.29347 11.1C4.1 11.1543 3.98306 11.3697 4.03236 11.582C4.07319 11.7623 4.22028 11.8816 4.38125 11.8816C4.41056 11.8816 4.44097 11.8776 4.47014 11.8692C4.98236 11.727 5.55653 11.4675 6.07597 11.112C6.07667 11.1115 6.07722 11.111 6.07806 11.1106C6.16014 11.09 6.235 11.0379 6.28875 10.9595C6.75222 10.6078 7.15597 10.1766 7.40903 9.68449C7.54444 9.42142 7.63208 9.1527 7.67306 8.88031C8.44486 9.22404 9.28375 9.71489 9.85083 10.4893C10.8862 11.9031 10.8162 13.944 10.5754 15.408C10.46 16.1112 10.2918 16.8275 10.1287 17.5201C9.86806 18.6318 9.59806 19.7816 9.51681 20.9695C9.44792 21.9763 9.51472 22.987 9.71625 23.9725C9.77028 24.2377 9.98458 24.418 10.2218 24.418C10.2599 24.418 10.2975 24.4135 10.336 24.4039C10.6156 24.3344 10.791 24.0295 10.7281 23.7223C10.5494 22.8469 10.4901 21.9494 10.5511 21.0546C10.6256 19.9681 10.8724 18.9174 11.1331 17.8052C11.3004 17.0924 11.4736 16.3557 11.5957 15.6107C11.876 13.9131 11.9401 11.5226 10.6592 9.7734C9.80514 8.60686 8.53972 7.997 7.52431 7.59751ZM24.9988 8.2341C24.9614 6.9982 24.8633 5.56859 24.1632 4.24684C22.9688 1.99151 21.1667 0.901966 18.8067 1.00692C17.8689 1.04878 17.1075 1.28679 16.479 1.73379C15.3014 2.57188 14.6882 3.85178 14.6569 5.53865C14.6461 6.12559 14.745 6.67403 14.9514 7.16839C15.076 7.46705 15.3972 7.59782 15.6692 7.46094C15.9411 7.32391 16.0597 6.97055 15.9351 6.67143C15.7958 6.33702 15.7312 5.9745 15.7393 5.56294C15.7633 4.27724 16.1975 3.35177 17.0672 2.73305C17.535 2.40002 18.1018 2.22937 18.8508 2.19592C20.806 2.10823 22.2379 2.97534 23.2285 4.84554C23.7392 5.80997 23.8742 6.89951 23.9163 8.23578C23.9017 8.41116 23.8889 8.58746 23.8764 8.7584C23.8468 9.16813 23.8192 9.55494 23.7679 9.94007C23.6025 11.183 23.314 12.1173 22.8615 12.8819C21.9403 14.4367 20.8003 15.1962 19.3847 15.1962C19.2918 15.1962 19.1976 15.1932 19.1019 15.1866C18.2913 15.1312 17.674 14.8091 17.215 14.2028C16.6531 13.4605 16.3824 12.3272 17.3071 11.374C17.525 11.1492 17.5362 10.7725 17.3319 10.5328C17.1276 10.2927 16.7851 10.2809 16.5669 10.5055C15.9476 11.1434 15.6213 11.9316 15.6219 12.7846C15.6228 13.5433 15.8932 14.3175 16.3831 14.9646C17.0339 15.8246 17.926 16.2991 19.0343 16.3755C19.154 16.3839 19.2722 16.3878 19.3883 16.3878C21.1729 16.3878 22.6449 15.4287 23.7683 13.5329C24.31 12.6192 24.65 11.5327 24.839 10.1136C24.8954 9.68968 24.926 9.26468 24.9556 8.85358L24.9968 8.30957L25 8.27153L24.9988 8.2341ZM17.3271 8.88031C17.3679 9.15255 17.4557 9.42142 17.5911 9.68449C17.8443 10.1766 18.2481 10.6078 18.7114 10.9595L18.7131 10.9609C18.7651 11.038 18.84 11.09 18.9221 11.1107C18.9229 11.111 18.9233 11.1115 18.9242 11.1121C19.4438 11.4676 20.0178 11.7272 20.53 11.8694C20.5593 11.8778 20.5897 11.8818 20.6189 11.8818C20.7799 11.8818 20.9269 11.7623 20.9678 11.582C21.0171 11.3697 20.9001 11.1543 20.7067 11.1C20.4283 11.0226 20.1226 10.9022 19.8203 10.7455L20.6939 10.3014L21.1144 10.1697C21.3058 10.1098 21.4168 9.88981 21.3624 9.67929C21.3079 9.46863 21.1079 9.34656 20.9165 9.4066L20.4417 9.5554L19.0582 10.2591C18.7069 9.9833 18.4057 9.6573 18.219 9.29371C18.0921 9.04668 18.0268 8.80072 18.0228 8.54957C18.02 8.39405 18.0407 8.23624 18.0853 8.07507C18.1032 8.01075 18.1242 7.9469 18.1485 7.88426C18.2671 7.57322 18.4557 7.28419 18.6528 6.98109C18.954 6.51805 19.2657 6.03866 19.3801 5.41521C19.4194 5.20027 19.2924 4.99097 19.0974 4.94774C18.9019 4.90405 18.7117 5.04383 18.6724 5.25832C18.6179 5.55668 18.4908 5.82677 18.3339 6.0929C18.241 5.99421 18.1569 5.84434 18.0728 5.68622L17.6021 4.80246C17.5015 4.61348 17.2804 4.54993 17.1086 4.66054C16.9368 4.77114 16.879 5.01435 16.9796 5.20332L17.4504 6.08709C17.5542 6.28218 17.6972 6.54967 17.9192 6.74675C17.7518 7.01058 17.5915 7.28648 17.4757 7.59751C16.4603 7.997 15.1949 8.60686 14.341 9.77355C13.06 11.5228 13.124 13.9133 13.4044 15.6108C13.5267 16.3559 13.6997 17.0924 13.8671 17.8054C14.1278 18.9175 14.3746 19.9683 14.449 21.0548C14.51 21.9497 14.4507 22.847 14.2721 23.7224C14.2092 24.0295 14.3847 24.3344 14.6642 24.4041C14.7025 24.4137 14.7401 24.4181 14.7783 24.4181C15.0156 24.4181 15.2299 24.238 15.2839 23.9726C15.4854 22.9871 15.5522 21.9764 15.4835 20.9697C15.4021 19.7819 15.1322 18.632 14.8714 17.5203C14.7083 16.8276 14.5401 16.1113 14.4247 15.4081C14.184 13.9441 14.1139 11.9033 15.1493 10.4894C15.7165 9.71489 16.5551 9.22404 17.3271 8.88031Z" fill="black"/>
</svg>
