<svg width="25" height="25" viewBox="0 0 25 25" fill="none" xmlns="http://www.w3.org/2000/svg">
<g clip-path="url(#clip0_11_10)">
<path fill-rule="evenodd" clip-rule="evenodd" d="M24.5715 5.93727C24.1182 5.19127 23.4155 4.62658 22.5929 4.34724C21.8329 4.08196 21.0463 3.97055 20.2316 4.0066C18.8182 4.04455 17.4356 4.33195 16.1237 4.86059C15.0077 4.30123 13.7637 4.0066 12.5191 4.0066C12.4958 4.0066 12.4718 4.0066 12.4484 4.0066C11.2371 3.98939 10.0164 4.27665 8.93917 4.84667C7.58056 4.34069 6.15587 4.05807 4.70524 4.00673C3.89657 3.98735 3.10865 4.09534 2.34463 4.34669C1.51999 4.6274 0.816722 5.19195 0.358663 5.94737C-0.0846502 6.84793 -0.117964 7.89457 0.264048 8.80864C0.394707 9.22601 0.639369 9.59123 0.974005 9.86934C0.942739 10.2939 1.04336 10.7254 1.26004 11.092C1.75605 11.9273 2.59271 12.4779 3.55333 12.602C3.67129 12.6193 3.79199 12.62 3.89793 12.604C4.70865 12.5654 5.50053 12.3201 6.1926 11.8948C6.56055 12.0148 6.95662 12.0788 7.32457 12.0694C7.61251 12.084 7.90523 12.074 8.19249 12.0407C8.35046 12.7507 8.58843 13.444 8.89917 14.1027V14.2427L8.92183 14.276C9.09919 14.5454 9.21387 14.8546 9.25511 15.1719C8.80851 15.7426 8.66707 16.4919 8.87446 17.1826L9.94172 21.4771C9.97503 21.6931 10.1651 21.9237 10.5971 21.9237L10.6384 21.9184C10.7892 21.8703 10.9178 21.7623 10.9938 21.6171C11.057 21.4863 11.057 21.3383 11.0038 21.2342L9.91714 16.8904C9.83713 16.6478 9.85311 16.3865 9.96042 16.1585C10.2351 16.2852 10.5284 16.3624 10.8378 16.3891C10.8445 16.3904 10.8511 16.3904 10.8577 16.3904C11.1504 16.3904 11.3917 16.1664 11.4123 15.8664C11.4176 15.5732 11.2129 15.3211 10.919 15.2664C10.743 15.241 10.5756 15.1877 10.4537 15.1477C10.4211 15.1371 10.3917 15.1278 10.3656 15.1197C10.325 14.6211 10.1663 14.1371 9.911 13.7237L9.79768 13.4837C9.29907 12.2964 9.01099 11.0431 8.94163 9.76039C8.93631 9.61375 8.87091 9.47367 8.76237 9.3751C8.65301 9.27775 8.50706 9.22437 8.36233 9.23843C8.21447 9.24785 8.07849 9.3153 7.98046 9.42794C7.88243 9.54057 7.83451 9.68393 7.84516 9.83125C7.85717 10.0192 7.88311 10.2038 7.90851 10.3872C7.9365 10.5865 7.96257 10.7778 7.97186 10.9672C7.75983 10.9792 7.5478 10.9759 7.32716 10.9579C6.99717 10.9679 6.67045 10.9299 6.33923 10.8432C6.24789 10.8291 6.15792 10.8291 6.06795 10.8432L6.01661 10.8619C5.37724 11.2539 4.64325 11.4925 3.90599 11.5506L3.7326 11.5513C3.12927 11.4872 2.58998 11.1346 2.28469 10.5985C2.14598 10.3946 2.10529 10.1412 2.17329 9.9032L2.17861 9.80653L2.21725 9.7679C2.34859 9.65526 2.52458 9.59587 2.69456 9.61184C3.1959 9.65512 3.67048 9.83985 4.06723 10.1465L4.49321 10.4839L4.67056 10.6065C4.79453 10.7105 4.92792 10.8025 5.05516 10.8731C5.14118 10.9344 5.2418 10.9684 5.3558 10.9711C5.54176 10.9644 5.71583 10.8772 5.84308 10.7179C6.00105 10.4579 5.93647 10.1252 5.69303 9.94457L5.11851 9.51395L4.75521 9.2226C4.16253 8.76863 3.45667 8.50923 2.71258 8.47195C2.28265 8.46595 1.88398 8.57995 1.54798 8.82789C1.41527 8.71989 1.31069 8.58186 1.24133 8.42253C0.960625 7.79599 1.00664 7.07061 1.36393 6.48271C1.67591 5.97004 2.16264 5.58611 2.73593 5.40002C3.28464 5.2127 3.85861 5.12942 4.44051 5.14731H4.69923C6.14386 5.16396 7.56322 5.42801 8.91583 5.93331L9.12253 5.94191L9.18643 5.92594C10.1998 5.38855 11.3537 5.12464 12.489 5.14731C13.6136 5.15263 14.7369 5.42733 15.7462 5.94532C15.8342 5.9826 15.9302 5.98669 16.0262 5.95666H16.1608L16.2101 5.94737C17.4981 5.44876 18.854 5.17407 20.2353 5.1327H20.4806C20.4846 5.1327 20.4887 5.1327 20.4913 5.1327C21.0805 5.1327 21.6579 5.23673 22.2152 5.44399C22.7872 5.62871 23.2753 6.01332 23.5819 6.51725C23.8832 7.1132 23.9126 7.80923 23.6645 8.42458C23.6046 8.56397 23.5179 8.68985 23.4099 8.79321C23.0965 8.56452 22.7219 8.44192 22.3325 8.44192C22.3059 8.44192 22.2791 8.4426 22.2511 8.44328C21.5098 8.47932 20.8086 8.73928 20.2245 9.19324L19.9872 9.37319C19.9218 9.42985 19.8579 9.47654 19.7685 9.5332C19.6152 9.66987 19.4512 9.79725 19.2699 9.91712C19.1579 10.0045 19.0779 10.1298 19.0566 10.2418C18.99 10.3838 18.99 10.5471 19.0726 10.7145C19.1126 10.7678 19.1606 10.8139 19.2153 10.8504C19.1445 10.8125 19.0739 10.7725 19.006 10.7311L18.9713 10.7165C18.8859 10.6938 18.7979 10.6938 18.7153 10.7119H18.574L18.5259 10.7205C18.2326 10.8305 17.9246 10.8858 17.6006 10.8858C17.5979 10.8858 17.5967 10.8858 17.594 10.8858C17.3913 10.9018 17.1886 10.9052 16.9846 10.8951C17.0473 10.5218 17.0926 10.1465 17.1192 9.78251C17.1379 9.63314 17.0966 9.4805 16.9979 9.35517C16.8871 9.23379 16.7312 9.16512 16.5726 9.16512C16.2592 9.16238 16.0206 9.38711 16.0099 9.68379C15.9833 10.1132 15.9353 10.5411 15.8686 10.9444L15.7646 11.347C15.6459 12.0824 15.4406 12.8009 15.158 13.4703L15.0926 13.5896C14.8352 13.9717 14.702 14.4129 14.7059 14.8717C14.5033 14.9743 14.286 15.0423 14.0686 15.077C13.9033 15.089 13.7553 15.1744 13.6607 15.3131C13.5827 15.4344 13.5499 15.5783 13.568 15.7224C13.6086 16.0131 13.8593 16.2237 14.1673 16.1863C14.4286 16.1556 14.6833 16.0876 14.9286 15.9823C15.0406 16.2303 15.0579 16.5143 14.9726 16.7836L13.8806 21.1009C13.8246 21.2408 13.8246 21.3955 13.8792 21.5328C13.9433 21.7021 14.0832 21.8328 14.2552 21.8862L14.3459 21.9396L14.3832 21.9382C14.6392 21.9355 14.8658 21.7703 14.9486 21.5182L16.0271 17.1943C16.2751 16.4971 16.1312 15.7263 15.6525 15.1677C15.6911 14.8409 15.8058 14.5237 15.9858 14.2464C16.0004 14.2223 16.0138 14.1957 16.0325 14.1557C16.0498 14.1171 16.0738 14.0623 16.1245 13.9691C16.4085 13.3551 16.6219 12.709 16.7618 12.0471C17.0338 12.0617 17.3098 12.0591 17.5778 12.0404C17.9458 12.0384 18.3125 11.9924 18.6698 11.9045C19.4005 12.3031 20.2218 12.5397 21.0591 12.5892L21.3618 12.5885C22.3365 12.4925 23.2071 11.9264 23.6911 11.0784C23.9032 10.7278 24.0058 10.3285 23.9899 9.91985C24.0112 9.90183 24.0271 9.88381 24.0338 9.87125C24.3911 9.58331 24.6565 9.20198 24.7991 8.77054C25.1314 7.84132 25.0488 6.81065 24.5715 5.93727ZM19.5395 10.9565C19.5422 10.9565 19.5462 10.9565 19.5502 10.9565C19.6674 10.9565 19.7782 10.9132 19.8528 10.8439L20.4275 10.4313L20.8981 10.0167C21.2928 9.70537 21.7674 9.51996 22.2621 9.48269C22.4461 9.47204 22.6127 9.53334 22.7327 9.62263C22.938 9.86401 22.938 10.2153 22.7167 10.4792C22.4221 11.0118 21.8833 11.3638 21.2901 11.4199L21.1289 11.4205C20.5128 11.3671 19.9035 11.1952 19.3476 10.9184C19.4076 10.9412 19.4729 10.9539 19.5395 10.9565Z" fill="black"/>
</g>
<defs>
<clipPath id="clip0_11_10">
<rect width="25" height="25" fill="white"/>
</clipPath>
</defs>
</svg>
