<svg width="25" height="25" viewBox="0 0 25 25" fill="none" xmlns="http://www.w3.org/2000/svg">
<path fill-rule="evenodd" clip-rule="evenodd" d="M22.3756 15.2922L22.4296 17.0598L22.3244 17.3882L21.8637 18.0465L21.9276 18.3637C22.0001 18.7661 22.0428 19.1443 22.0514 19.4885C22.0841 20.6545 21.7542 21.3399 21.0474 21.5873C20.1218 21.9086 19.0325 22.0721 17.8097 22.0721L16.9082 22.0408L16.8086 24.0528L15.6455 23.9959L15.8048 20.734L16.6865 20.8549L17.1287 20.8889C17.3434 20.9017 17.5723 20.9089 17.8098 20.9089C18.9004 20.9089 19.8617 20.7666 20.6637 20.4866C20.7562 20.4553 20.9054 20.2151 20.8884 19.5211C20.8798 19.241 20.8443 18.9225 20.7818 18.5713C20.7619 18.4604 20.7421 18.3594 20.7236 18.2756L20.6781 18.1022L20.1279 18.024C14.2481 17.239 12.5923 17.7083 12.1266 18.0595C11.5436 18.496 10.7665 19.9506 10.3734 24.3943L10.3229 25L9.16251 24.909L9.17387 24.764C9.51226 20.4527 10.2282 18.0267 11.4277 17.1267C12.578 16.2636 15.5577 16.2011 20.7948 16.9405L21.1787 16.9945L21.2598 16.8808L21.193 14.7465L22.561 13.6574L21.23 11.2222L20.2233 10.0214L20.3527 9.43767C20.7438 7.40354 20.2945 5.53161 19.0516 4.02647C17.5501 2.20784 15.0616 1.16558 12.2248 1.16558C10.6755 1.16558 9.17824 1.5146 7.89573 2.1745C4.34175 4.00347 2.81681 6.53674 3.23121 9.91802C3.47787 11.9273 4.40145 14.1092 5.90164 16.2279C6.46762 17.027 6.77761 18.1674 6.85012 19.7132C6.89424 20.6772 6.84299 21.748 6.69578 22.8954C6.66448 23.1428 6.63317 23.3632 6.60332 23.5467L6.50096 24.1368L5.35561 23.9107L5.40396 23.6562C5.42594 23.5339 5.45303 23.3718 5.48142 23.177L5.54039 22.7461C5.67828 21.6669 5.72735 20.6644 5.68614 19.7686C5.62644 18.4689 5.37833 17.5049 4.95097 16.9006C3.31639 14.5942 2.34883 12.2921 2.07509 10.0597C1.60026 6.19048 3.37914 3.18865 7.36193 1.13894C8.8081 0.393867 10.4894 0 12.2243 0L12.56 0.0042226C15.6583 0.0873642 18.3813 1.31876 20.0337 3.38129C21.4485 5.14663 21.9519 7.32505 21.4927 9.68054L21.4841 9.71679L22.1908 10.5728L24.0521 13.9599L22.3756 15.2922Z" fill="black"/>
</svg>
