<svg width="25" height="25" viewBox="0 0 25 25" fill="none" xmlns="http://www.w3.org/2000/svg">
<g clip-path="url(#clip0_11_21)">
<path fill-rule="evenodd" clip-rule="evenodd" d="M12.466 0.000669408C12.5997 -0.00585214 12.7323 0.035451 12.8388 0.11697C15.4844 2.08974 18.8191 3.85816 22.6298 5.14074C22.8646 5.21791 23.0222 5.43638 23.0211 5.68202C23.0211 11.6938 22.2918 15.5024 20.6071 18.3327C18.9213 21.162 16.33 22.9272 12.803 24.9282C12.7171 24.976 12.6182 25.001 12.5193 25H12.5019C12.403 25.001 12.3041 24.976 12.2171 24.9282C8.69112 22.9272 6.0988 21.162 4.41516 18.3327C2.72934 15.5024 2.00001 11.6938 2.00001 5.68202C1.99892 5.43638 2.15653 5.21791 2.39022 5.14074C6.20206 3.85816 9.51718 2.09083 12.1638 0.11697C12.2519 0.049581 12.3562 0.0093648 12.466 0.000669408ZM12.5019 1.25281C9.90847 3.13427 6.75096 4.81792 3.15324 6.07332C3.18911 11.7384 3.89887 15.2404 5.39122 17.7469C6.87704 20.2425 9.18567 21.8718 12.5106 23.775C15.8355 21.8718 18.1441 20.2425 19.631 17.7469C21.1223 15.2404 21.8331 11.7384 21.8668 6.07332C18.2702 4.81792 15.0975 3.13536 12.5019 1.25281ZM18.2688 8.75216C19.0113 9.48091 19.41 10.4571 19.41 11.5021C19.41 12.5334 19.0113 13.5096 18.2826 14.2383L13.9239 18.597C13.6351 18.8858 13.2639 19.037 12.8789 19.037C12.554 19.037 12.2187 18.9212 11.9465 18.6988L11.8339 18.597L7.47519 14.2383L7.46144 14.2246C6.74645 13.4959 6.3477 12.5334 6.3477 11.5021C6.3477 10.4709 6.7602 9.48091 7.48894 8.75216C8.97392 7.26718 11.3526 7.22593 12.8789 8.64217C14.4051 7.22593 16.7838 7.26718 18.2688 8.75216ZM13.6524 9.34914L13.5114 9.48091L13.4976 9.49466L13.4839 9.51356L13.4701 9.52215L13.2364 9.7559C13.1594 9.8439 13.056 9.8967 12.9473 9.9143L12.8651 9.9209L12.783 9.91441C12.7014 9.90154 12.6229 9.86986 12.5562 9.82234L12.4939 9.76965L12.2194 9.49516L12.0778 9.36289C10.97 8.39658 9.27183 8.4405 8.21768 9.49466C7.68144 10.0309 7.39269 10.7459 7.39269 11.5021C7.39269 12.2584 7.68144 12.9596 8.21768 13.4959C8.23143 13.5096 8.23143 13.5096 8.23143 13.5096L8.24518 13.5234L8.25893 13.5371L12.5764 17.8408C12.7207 17.9852 12.9493 18.0032 13.1148 17.8949L13.1814 17.8408L17.5263 13.4959C18.0626 12.9596 18.3513 12.2446 18.3375 11.5021C18.3375 10.8146 18.0989 10.1612 17.6526 9.64523L17.5126 9.49466L17.3715 9.36124C16.3119 8.42537 14.7121 8.42487 13.6524 9.34914ZM15.5601 9.65965C15.8167 9.65965 16.03 9.84434 16.0742 10.0882L16.0826 10.1821V10.9246H16.8251C17.1138 10.9246 17.3476 11.1721 17.3476 11.4471C17.3476 11.7038 17.1629 11.917 16.919 11.9612L16.8251 11.9696H16.0826V12.7121C16.0826 13.0009 15.8488 13.2346 15.5601 13.2346C15.3034 13.2346 15.0902 13.0499 15.046 12.8061L15.0376 12.7121V11.9696H14.2951C14.0064 11.9696 13.7726 11.7359 13.7726 11.4471C13.7726 11.1905 13.9573 10.9773 14.2011 10.933L14.2951 10.9246H15.0376V10.1821C15.0376 9.8934 15.2713 9.65965 15.5601 9.65965Z" fill="black"/>
</g>
<defs>
<clipPath id="clip0_11_21">
<rect width="25" height="25" fill="white"/>
</clipPath>
</defs>
</svg>
