<svg width="25" height="25" viewBox="0 0 25 25" fill="none" xmlns="http://www.w3.org/2000/svg">
<g clip-path="url(#clip0_11_51)">
<path fill-rule="evenodd" clip-rule="evenodd" d="M24.8198 10.6792L24.5245 10.4442C23.7646 9.83461 23.1386 9.13828 22.6608 8.37045L21.406 6.52513C20.6514 5.33072 19.1642 4.58856 17.5249 4.58856C16.0799 4.58856 14.732 5.17199 13.9182 6.14908L12.9298 7.3349V3.90272L13.1083 3.83901C13.8957 3.55878 14.4247 2.81004 14.4247 1.97595C14.4247 0.886639 13.5394 0 12.4501 0C11.3608 0 10.4742 0.886639 10.4742 1.97595C10.4742 2.81004 11.0037 3.55878 11.792 3.83901L11.9698 3.90204V7.33557L10.9821 6.14774C10.1669 5.17132 8.81836 4.58856 7.37463 4.58856C5.72742 4.58856 4.2384 5.33475 3.48697 6.53562L2.32938 8.38631C1.61141 9.53543 0.78391 10.1969 0.179512 10.6793C0.0206504 10.8073 -0.0403673 11.0212 0.027236 11.2129C0.0955114 11.4044 0.277221 11.533 0.480031 11.533H4.48906V12.5502C4.48906 13.6402 5.3757 14.5261 6.46501 14.5261H11.9696V16.5605H9.45689C8.36758 16.5605 7.48094 17.4465 7.48094 18.5358C7.48094 19.6251 8.36758 20.5099 9.45689 20.5099H11.9696V22.5455H10.9538C10.6893 22.5455 10.4742 22.7608 10.4742 23.0245C10.4742 23.2882 10.6895 23.5023 10.9538 23.5023H11.9698V24.5194C11.9698 24.7846 12.1851 24.9998 12.4501 24.9998C12.7146 24.9998 12.9298 24.7845 12.9298 24.5194V23.5023H13.9457C15.035 23.5023 15.921 22.6163 15.921 21.527C15.921 20.4377 15.035 19.5517 13.9457 19.5517H12.9298V17.5173H16.9382C18.0275 17.5173 18.9134 16.6314 18.9134 15.542C18.9134 14.4527 18.0275 13.5661 16.9382 13.5661H12.9298V11.533H24.5191C24.7226 11.533 24.905 11.4037 24.9733 11.2121C25.0402 11.0218 24.9786 10.8071 24.8198 10.6792ZM12.9298 22.5455V20.5099H13.9457C14.5075 20.5099 14.9642 20.9666 14.9642 21.527C14.9642 22.0888 14.5075 22.5455 13.9457 22.5455H12.9298ZM12.9298 16.5605V14.5261H16.9382C17.4986 14.5261 17.9553 14.9816 17.9553 15.542C17.9553 16.1038 17.4986 16.5605 16.9382 16.5605H12.9298ZM11.9698 10.5749H8.6267L9.1635 8.96047C9.2475 8.71048 9.11162 8.43873 8.86164 8.35472C8.81513 8.339 8.76258 8.3304 8.70949 8.3304C8.50346 8.3304 8.32027 8.46171 8.25536 8.65726L7.6148 10.5749H5.63428L6.17242 8.95979C6.2118 8.8391 6.20266 8.70981 6.14554 8.59557C6.07794 8.45902 5.96235 8.38362 5.71627 8.3304C5.50956 8.3304 5.32704 8.46224 5.2628 8.65726L4.62359 10.5749H1.80441L2.21003 10.126C2.55853 9.7408 2.87222 9.32671 3.1425 8.89488L4.30009 7.04419C4.8678 6.13524 6.07458 5.54858 7.37463 5.54858C8.53881 5.54858 9.61186 6.00272 10.245 6.76329L10.8362 7.47333C11.0732 7.75557 11.3992 7.9655 11.7793 8.08095L11.9696 8.13807V10.5749H11.9698ZM11.9698 11.533V13.5661H6.46501C5.90389 13.5661 5.44787 13.1106 5.44787 12.5502V11.533H11.9698ZM11.9698 17.5173V19.5517H9.45689C8.89644 19.5517 8.44096 19.0963 8.44096 18.5358C8.44096 17.974 8.89644 17.5173 9.45689 17.5173H11.9698ZM13.4659 1.97595C13.4659 2.53707 13.0104 2.99309 12.45 2.99309C11.8895 2.99309 11.4342 2.53707 11.4342 1.97595C11.4342 1.4155 11.8897 0.960021 12.4501 0.960021C13.0106 0.960021 13.4659 1.4155 13.4659 1.97595ZM14.0625 7.47279L14.6558 6.76343C15.2897 6.00285 16.362 5.54872 17.5249 5.54872C18.8257 5.54872 20.0358 6.13994 20.6093 7.05937L21.8627 8.90603C22.1238 9.32147 22.435 9.73219 22.7894 10.126L23.195 10.5749H20.2773L19.6381 8.65995C19.5751 8.46305 19.3927 8.33053 19.1853 8.33053L19.033 8.35486C18.7824 8.43819 18.6458 8.70994 18.7285 8.96194L19.2653 10.575H17.2848L16.6456 8.65941C16.6075 8.54262 16.4907 8.34639 16.1416 8.34639C16.1193 8.34639 16.0983 8.34639 16.0733 8.34841L16.0378 8.35472C15.7885 8.43873 15.6519 8.71035 15.7346 8.96181L16.2727 10.5749H12.9298V8.13821L13.1201 8.08109C13.5014 7.96564 13.8262 7.75557 14.0625 7.47279Z" fill="black"/>
</g>
<defs>
<clipPath id="clip0_11_51">
<rect width="25" height="25" fill="white"/>
</clipPath>
</defs>
</svg>
