<svg width="25" height="25" viewBox="0 0 25 25" fill="none" xmlns="http://www.w3.org/2000/svg">
<path fill-rule="evenodd" clip-rule="evenodd" d="M3.35493 17.6172C2.84108 17.8648 2.39246 18.1941 2.00876 18.6034C1.70172 18.9656 1.41475 19.3549 1.16076 19.7542L0.985475 20.032L0.969793 20.022L0.882443 20.1494L0 19.5537L0.299131 19.0972C0.581114 18.6707 0.890211 18.2614 1.21939 17.8791C1.68604 17.3539 2.23769 16.9288 2.86175 16.6139C3.37838 16.2847 3.96022 16.07 4.57856 15.9841L5.18474 15.9826C5.52036 15.9784 5.85379 15.8638 6.12214 15.6592C6.79339 15.0523 7.71086 14.7303 8.62467 14.7961H10.8568C11.1395 14.7976 11.4121 14.7631 11.6805 14.6844C12.6602 14.4411 13.4795 13.7892 13.9362 12.8961C14.3785 11.9686 14.42 10.8838 14.0479 9.92338C13.8676 9.22135 13.464 8.60447 12.9064 8.16787C12.2916 7.6763 11.8924 6.97721 11.7814 6.19794L11.7707 5.76999C11.6469 4.58636 11.571 3.70538 11.5452 3.15006V2.04368H12.6009V2.19038C12.6009 3.06198 12.7627 5.41927 12.8049 5.73203L12.8084 5.75709L12.8034 5.78215C12.787 5.85866 12.787 5.93956 12.8034 6.01548C12.963 6.75898 13.0596 7.12831 13.4826 7.38597C14.2211 7.95345 14.7607 8.74488 15.0125 9.62439C15.4906 10.8596 15.4305 12.2651 14.8437 13.4674C14.2469 14.613 13.1991 15.4776 11.9683 15.844C11.5697 15.9456 11.169 15.9957 10.7711 15.9957C10.7653 15.9957 10.7596 15.9957 10.7539 15.9957C10.4019 15.9942 10.0362 15.9699 9.66613 15.9227H8.6147C7.96207 15.8711 7.32585 16.0845 6.85216 16.5167C6.35122 16.936 5.72364 17.155 5.07672 17.1249H4.74535C4.26375 17.1921 3.78933 17.3581 3.35493 17.6172ZM8.13032 19.2045V19.09C7.82899 18.7708 7.65869 18.3415 7.66158 17.9007C7.66158 17.6172 7.80481 17.1406 8.76082 17.1406L9.49216 17.1463C9.52646 17.1578 9.56368 17.1578 9.59813 17.1463L9.62817 17.1377L9.65822 17.1406C10.0698 17.1922 10.4933 17.2223 10.9178 17.228C11.4338 17.218 11.9554 17.1636 12.4564 17.0147C13.1512 16.833 13.7961 16.5353 14.3785 16.126C15.7296 15.1713 17.3184 14.6547 18.9742 14.6346H20.0161C20.5228 14.7033 20.9465 14.9853 21.1983 15.4089C21.5046 15.8984 21.5046 16.5339 21.1968 17.0262L21.0952 17.1994C21.0136 17.3612 20.9106 17.5271 20.7932 17.6832C20.643 17.9193 20.4611 18.1583 20.2579 18.3817C18.7007 20.1737 16.4852 21.1813 14.1279 21.1813C13.9891 21.1813 13.8488 21.1771 13.7086 21.1699C13.0395 21.1669 12.3631 21.1126 11.6983 21.0068C10.3544 20.865 9.0985 20.2397 8.1696 19.2477L8.13032 19.2045ZM13.8317 20.159C13.929 20.162 14.0278 20.1648 14.1266 20.1648C16.1361 20.1648 18.0453 19.3289 19.4108 17.8475L19.9018 17.2393C20.0249 17.0647 20.1379 16.8872 20.2409 16.7025C20.334 16.5322 20.334 16.3262 20.2395 16.1544C20.1578 16.0027 19.9976 15.9082 19.8273 15.9082C19.8187 15.9082 19.8117 15.9082 19.8045 15.9082H18.947C17.5042 15.9226 16.1131 16.3647 14.9265 17.1863C14.2624 17.6615 13.521 18.005 12.7246 18.2054L12.3296 18.307C11.8565 18.3986 11.3821 18.4444 10.9112 18.4444C10.8826 18.4444 10.8539 18.4444 10.826 18.443C10.3923 18.4688 9.94298 18.4688 9.50066 18.443H9.27379C9.18292 18.4573 9.08487 18.4688 8.9811 18.4586V18.4715L9.05702 18.5788C9.75553 19.4003 10.7867 19.9156 11.8773 19.9829C12.5307 20.1003 13.1754 20.1589 13.8088 20.1589C13.816 20.159 13.8245 20.159 13.8317 20.159ZM23.6101 7.96547C22.1144 6.43259 20.1106 5.54809 17.9651 5.47364L17.3512 5.47437C16.8173 5.4178 16.3307 5.14095 16.0102 4.71372C15.9715 4.40741 15.9128 3.84857 15.9128 3.30469V2H14.8579V3.05978C14.9036 4.70141 14.9395 5.14945 15.1513 5.44491C15.648 6.09755 16.3694 6.51833 17.2023 6.63147L17.5945 6.62927C17.6503 6.61931 17.7075 6.62004 17.769 6.63001C19.7184 6.90832 21.6679 7.3549 22.714 8.72817C24.8323 11.5234 23.8589 15.9167 21.8009 18.8164C20.7218 20.4322 19.1088 21.6503 17.2624 22.2456C16.1346 22.5848 14.9595 22.7423 13.7873 22.7538C12.6294 22.7495 11.4729 22.6021 10.338 22.3158C9.03269 22.1026 7.85112 21.4227 7.02818 20.4252L6.86139 20.1218C6.68611 19.6581 6.31604 19.3061 5.84456 19.1542L5.55261 19.1485C5.04521 19.1957 4.56713 19.389 4.1764 19.7024L2.59559 20.8244L3.17949 21.7104L4.89631 20.5668C5.11893 20.3865 5.38934 20.2805 5.66854 20.2605C5.76087 20.2605 5.89043 20.5196 5.94905 20.6298L6.09723 20.8202C6.13724 20.9147 6.19103 21.0048 6.25683 21.085C7.21798 22.3016 8.58759 23.1159 10.1026 23.378C11.2661 23.6742 12.4656 23.8245 13.67 23.8245C13.71 23.8245 13.7487 23.8245 13.7889 23.8231C15.0827 23.8144 16.3651 23.6155 17.6004 23.2291C19.6585 22.5464 21.4505 21.1724 22.6441 19.3647C23.8006 17.7288 24.5692 15.8166 24.8668 13.8401C25.2502 11.8149 24.798 9.68008 23.6101 7.96547Z" fill="black"/>
</svg>
