<svg width="25" height="25" viewBox="0 0 25 25" fill="none" xmlns="http://www.w3.org/2000/svg">
<g clip-path="url(#clip0_11_12)">
<path fill-rule="evenodd" clip-rule="evenodd" d="M16.4945 14.1809C16.3199 13.9367 16.364 13.606 16.5895 13.4165C16.6946 13.2823 16.8522 13.2008 17.0239 13.1908C17.0281 13.19 17.0324 13.19 17.0367 13.19C17.2112 13.19 17.3745 13.2674 17.481 13.398C19.2568 15.8538 19.2979 19.171 17.5861 21.6608L17.5435 21.7019C17.4825 21.7403 17.2739 21.8637 17.1304 21.8637H17.0765C17.0339 21.8736 16.9899 21.878 16.9473 21.878C16.8976 21.878 16.8478 21.8723 16.7996 21.8595L16.7584 21.8425C16.6236 21.7588 16.5285 21.6224 16.4972 21.4678C16.4618 21.3159 16.4972 21.1556 16.5923 21.0278C18.0361 18.9638 17.9977 16.21 16.4945 14.1809ZM24.9687 3.86632C24.8836 4.5101 24.5288 5.09907 23.9965 5.47815L20.1356 8.36676C20.323 8.81242 20.191 9.34339 19.8035 9.645L19.7523 9.66986L19.626 9.70532C19.4472 9.84021 19.2286 9.91463 19.0043 9.91463C19.0001 9.91391 18.9873 9.91391 18.9787 9.91463C18.638 9.91463 18.3216 9.74428 18.1313 9.45619L18.0149 9.29935L15.5322 11.1872C15.5535 11.1843 15.5748 11.183 15.5975 11.1823L15.765 11.1921C18.8579 12.3731 21.5138 14.4215 23.4414 17.1127C23.4443 17.1127 23.5677 17.2419 23.6046 17.3867C23.6302 17.5684 23.5834 17.7373 23.4768 17.865C18.8181 24.1703 13.0807 24.5606 11.9785 24.5749H11.8692V24.6445H11.7237C11.0538 24.6445 5.04934 24.4586 0.253691 18.0142C0.142204 17.9531 0.0634228 17.8453 0.0400209 17.719C-0.016667 17.5897 -0.0131785 17.4408 0.0507771 17.3143L0.40137 16.8431C2.77834 13.4967 6.47308 11.2227 10.5364 10.6087C10.8097 10.5796 11.0261 10.7251 11.1298 10.9408C11.1956 10.7004 11.3468 10.4895 11.5597 10.3497C11.6179 10.3113 11.6484 10.2418 11.6363 10.1722C11.5171 9.68047 11.7109 9.16301 12.1311 8.86431L15.6343 6.23399L15.5023 6.00826C15.3391 5.79749 15.2625 5.50649 15.3021 5.22465C15.3433 4.93714 15.4924 4.68452 15.7237 4.51286L15.8869 4.40849C16.0615 4.27797 16.2872 4.2034 16.5157 4.2034C16.5199 4.2034 16.5228 4.2034 16.527 4.2034C16.7656 4.21895 16.9855 4.29715 17.1743 4.43117L21.0438 1.4943C21.4724 1.17568 22.0005 1.00097 22.5342 1.00097C22.5485 0.998789 22.5583 1.00097 22.5711 1.00097C23.3405 1.00097 24.063 1.37351 24.5087 2.00376C24.9064 2.53052 25.0753 3.21049 24.9687 3.86632ZM11.9026 13.6812C11.5548 14.085 11.3248 14.5734 11.2354 15.1014C11.2376 15.4392 11.5314 15.7331 11.8926 15.7331C12.2538 15.7331 12.547 15.4394 12.547 15.0773C12.4554 14.5805 12.2326 14.0935 11.9026 13.6812ZM13.8124 11.0786L17.2909 8.44903L16.3157 7.16309L12.8074 9.75998C12.7656 9.79326 12.7464 9.85504 12.7621 9.91333C12.8628 10.3171 12.7586 10.7344 12.496 11.0382C12.6542 10.97 12.8252 10.9324 12.9999 10.9296C13.2136 10.9353 13.4201 10.99 13.6038 11.0872C13.594 11.0808 13.6174 11.0808 13.6378 11.0751L13.6719 11.066L13.7066 11.0738C13.7415 11.0815 13.7777 11.0821 13.8124 11.0786ZM23.2498 4.54193C23.5465 4.33117 23.7495 4.00819 23.8091 3.65338C23.8673 3.29857 23.7808 2.92807 23.5706 2.63634C23.1164 2.06859 22.2916 1.95362 21.6955 2.38793L17.907 5.27655L18.3996 5.94793C18.5784 6.19344 18.5373 6.53909 18.3059 6.7343C18.1781 6.81017 18.0589 6.84636 17.9396 6.85276C17.9297 6.85349 17.9211 6.85349 17.9126 6.85349C17.7365 6.85349 17.5704 6.76613 17.4726 6.62005L16.9147 5.85215L16.7955 5.74851L16.4762 5.32262L16.4464 5.36521L16.8651 6.05797L16.8907 6.03733L18.9248 8.75413L18.946 8.74628C18.814 8.4297 18.8424 8.0621 19.0297 7.76689L19.1489 7.64334L23.2498 4.54193ZM11.1126 11.4398C11.0289 11.5961 10.8777 11.7089 10.6931 11.7379C6.94286 12.3561 3.54115 14.4853 1.34384 17.5868C5.76128 23.3045 11.124 23.4706 11.7237 23.4706H11.9763C12.564 23.4706 17.8245 23.3032 22.2845 17.5316C20.5442 15.1356 18.1637 13.315 15.3944 12.264C15.1064 12.1476 14.9658 11.8317 15.0707 11.5451C15.0722 11.5416 15.0737 11.5387 15.075 11.5359L14.4937 11.9773C14.1133 12.279 13.5476 12.3265 13.1175 12.0916H12.9458L12.9104 12.0694C12.7195 12.2185 12.4945 12.3064 12.2567 12.3292L12.2375 12.3298L12.3574 12.4441C12.779 12.8358 13.1218 13.2922 13.3759 13.7954C13.486 13.6421 13.6421 13.5598 13.8124 13.5556C13.9665 13.5145 14.1608 13.5534 14.3121 13.6706C15.633 14.5152 16.4349 15.9673 16.4464 17.5472C16.4762 18.7594 16.0064 19.9545 15.1561 20.8247C14.2732 21.7162 13.0482 22.2243 11.7913 22.1874H11.7202C9.67042 22.1406 7.9224 20.7821 7.37238 18.8062C6.82091 16.8317 7.61294 14.7636 9.34265 13.6627C9.43844 13.6039 9.54702 13.5719 9.65778 13.5697C9.66272 13.5697 9.66839 13.5697 9.67406 13.5697C9.85866 13.5697 10.0296 13.6613 10.1318 13.8181L10.1481 13.8514C10.1914 13.9806 10.1914 14.1232 10.1481 14.2524C10.1247 14.3816 10.0345 14.5136 9.90677 14.5959C8.59452 15.4135 7.97633 17.0204 8.40149 18.5052C8.82665 19.9885 10.2014 21.0262 11.7451 21.0262C13.288 21.0262 14.6627 19.9885 15.0894 18.5052C15.4981 17.0716 14.936 15.5243 13.7195 14.6854C13.7522 14.8046 13.7806 14.9267 13.8047 15.0488C13.8076 15.5683 13.6031 16.0452 13.2468 16.3845C12.8891 16.7237 12.3959 16.8968 11.9125 16.8784L11.8927 16.734H11.8926L11.8919 16.8784C11.4214 16.8755 10.9622 16.6811 10.6306 16.3446C10.2956 16.0039 10.1139 15.5526 10.1175 15.0757C10.3162 14.0424 10.8173 13.1409 11.5689 12.4426L11.769 12.2524C11.5804 12.1759 11.4135 12.0452 11.295 11.8736C11.2035 11.7423 11.1417 11.5946 11.1126 11.4398ZM6.87193 14.3065C6.93007 14.1709 6.93007 14.0169 6.87978 13.904C6.84431 13.7627 6.75914 13.6386 6.61218 13.5384L6.44401 13.4682L6.38863 13.4569C6.3879 13.4569 6.38645 13.4569 6.38572 13.4569C6.19764 13.4569 6.02307 13.5492 5.91652 13.7031C5.13655 14.8458 4.705 16.1786 4.66953 17.5613C4.65892 18.9409 5.05065 20.2795 5.80155 21.4322C5.90373 21.5939 6.07903 21.6934 6.27206 21.6961L6.28063 21.6976L6.5709 21.6678L6.62701 21.6493C6.75187 21.5797 6.84417 21.4591 6.87193 21.3428C6.93443 21.198 6.93443 21.0333 6.86059 20.8673C5.57523 18.8815 5.57523 16.3137 6.87193 14.3065Z" fill="black"/>
</g>
<defs>
<clipPath id="clip0_11_12">
<rect width="25" height="25" fill="white"/>
</clipPath>
</defs>
</svg>
