<svg width="25" height="25" viewBox="0 0 25 25" fill="none" xmlns="http://www.w3.org/2000/svg">
<g clip-path="url(#clip0_11_4)">
<path fill-rule="evenodd" clip-rule="evenodd" d="M2.50587 19.9463L2.6194 20.0031L2.69106 19.898C2.75996 19.7973 2.82871 19.7035 2.89689 19.6142C2.98701 19.4963 3.08077 19.3756 3.17656 19.2564L3.29154 19.1131L3.12539 19.0336C2.53713 18.7554 2.02038 18.3721 1.58605 17.8937C4.43638 17.0179 4.85879 13.8978 5.26754 10.8764L5.27539 10.8188C5.40025 9.49008 5.70129 8.18346 6.16614 6.945C7.15909 4.79791 9.24077 3.35014 11.5972 3.16627C11.9286 3.14708 12.2658 3.14562 12.6128 3.16699C14.2928 3.10027 15.9543 3.66034 17.2673 4.72349L17.3667 4.80518L18.1531 4.0451L18.0296 3.94146C16.5036 2.65257 14.5539 1.9704 12.5666 2.01663C12.2104 1.99439 11.8485 1.99439 11.4864 2.01706C8.74887 2.2726 6.33083 3.97955 5.16957 6.48364C4.63596 7.89884 4.30875 9.38368 4.19944 10.8863L4.19378 10.9267C3.77078 13.8481 3.37119 16.6061 0.433499 16.934C0.287995 16.9852 0.163132 17.0845 0.0799871 17.2152C-0.027142 17.3926 -0.027142 17.6126 0.0828943 17.793C0.688893 18.7099 1.52718 19.4537 2.50587 19.9463ZM9.16198 9.30199C9.64108 9.05503 10.1798 8.92435 10.715 8.92435C10.7172 8.92435 10.7199 8.92435 10.7221 8.92435C11.3701 8.94848 11.994 9.10314 12.5767 9.38499L12.6839 9.41551L13.4958 8.60645L13.3213 8.51487C12.5312 8.09828 11.6405 7.86759 10.7462 7.84637C10.0165 7.82864 9.304 7.97414 8.65105 8.28492C7.16476 9.03584 6.26978 10.5952 6.36979 12.2497C6.37764 13.188 6.45991 14.1334 6.61472 15.0589L6.66225 15.3413L6.86241 15.1355C7.10022 14.8928 7.34427 14.6429 7.5956 14.3875L7.64531 14.3363L7.63615 14.2667C7.54821 13.5924 7.49981 12.9082 7.49138 12.2227C7.39893 10.9927 8.05333 9.84708 9.16198 9.30199ZM18.501 12.1993C18.3973 12.0985 18.2611 12.0439 18.1177 12.0439C18.1063 12.0439 18.1007 12.0439 18.0893 12.0439C17.946 12.0439 17.8096 12.0993 17.7075 12.2015C17.6011 12.3073 17.5442 12.4541 17.5499 12.6053C17.6804 15.0589 17.0829 17.4692 15.8238 19.5743C15.1012 20.7 13.8699 21.3884 12.5389 21.4169C11.6738 21.3913 10.8547 21.1003 10.1712 20.5751L10.0939 20.5155L10.0094 20.5652C9.75243 20.7142 9.48424 20.8619 9.20166 21.0096L9.01997 21.1047L9.16969 21.2452C10.0853 22.0969 11.2784 22.5824 12.5389 22.6109C14.2651 22.5641 15.8294 21.6556 16.7251 20.1806C18.1361 17.8951 18.809 15.2706 18.6699 12.5976C18.6699 12.4448 18.6103 12.3029 18.501 12.1993ZM24.9286 17.2407C24.8008 17.0463 24.6504 16.9441 24.5127 16.9441C24.5112 16.9441 24.5098 16.9441 24.5085 16.9441L24.2359 16.9015C21.6297 16.4145 21.228 13.4783 20.8418 10.6592V10.3383L20.8404 10.3156C20.7921 10.009 20.504 9.80246 20.186 9.83226L20.088 9.85348C19.9816 9.88967 19.8893 9.95712 19.8226 10.0487C19.7275 10.1757 19.6877 10.3326 19.7076 10.4697V10.8054L19.7133 10.8586C20.115 13.7338 20.5693 16.9839 23.4395 17.8924C22.5069 18.9129 21.1953 19.4937 19.8027 19.4937C19.7899 19.4937 19.7785 19.4937 19.7657 19.4937C19.4023 19.4907 19.0375 19.4567 18.6642 19.3915C18.6556 19.39 18.6472 19.39 18.6386 19.39C18.3661 19.39 18.1347 19.5958 18.1063 19.8528C18.0723 20.0033 18.1021 20.1623 18.1873 20.2886C18.2752 20.4149 18.4116 20.5016 18.5593 20.5242C18.951 20.5895 19.3513 20.6237 19.7531 20.6279C21.8412 20.5966 23.776 19.5362 24.9371 17.7803C25.0223 17.6155 25.0223 17.4181 24.9286 17.2407ZM3.875 22.6447L1.11625 23.4198H1.09633C1.0161 23.4198 0.938038 23.3999 0.857073 23.3587L0.808087 23.3275C0.749944 23.2878 0.705174 23.2438 0.666072 23.1869C0.643396 23.1586 0.630605 23.1372 0.624209 23.1187C0.587288 23.0464 0.567374 22.9698 0.567374 22.8917L0.585834 22.7866C0.609237 22.6758 0.655461 22.5864 0.722181 22.5183L20.1275 3.11394C20.3291 2.9148 20.6776 2.91392 20.8758 3.11365L22.5665 4.80358C22.6659 4.90301 22.7212 5.03921 22.7212 5.17832C22.7212 5.31888 22.6643 5.45508 22.5636 5.55232L14.5171 13.5995C14.5264 14.6785 13.9635 19.4069 3.875 22.6447ZM12.2863 12.4526L2.8934 21.8441C7.13205 20.5636 10.1712 18.8986 11.9329 16.8929C13.2915 15.3442 13.4469 14.0596 13.4562 13.6216L12.2863 12.4526ZM21.0263 5.59491L21.4422 5.17832L20.5011 4.23727L20.0852 4.65386L21.0263 5.59491ZM19.3371 5.4026L13.0358 11.7045L13.9755 12.6442L20.2781 6.34366L19.3371 5.4026ZM16.1049 14.7253C16.1007 14.7253 16.095 14.7253 16.0893 14.7268H15.946L15.8948 14.7353C15.7429 14.7935 15.5868 14.8348 15.4293 14.8589L15.3101 14.8973L15.2888 14.9669C15.2221 15.1713 15.1398 15.3828 15.0433 15.5972L15.0106 15.6668L15.0518 15.7335C15.1525 15.8953 15.3258 15.9989 15.506 16.0075C15.5272 16.0104 15.55 16.0117 15.5727 16.0117C15.6437 16.0117 15.7118 15.9975 15.7658 15.9748L16.3364 15.8158C16.4556 15.752 16.5508 15.6553 16.6176 15.5305C16.6857 15.3857 16.6857 15.2182 16.6218 15.0819C16.5378 14.8673 16.3319 14.7253 16.1049 14.7253Z" fill="black"/>
</g>
<defs>
<clipPath id="clip0_11_4">
<rect width="25" height="25" fill="white"/>
</clipPath>
</defs>
</svg>
