<svg width="25" height="25" viewBox="0 0 25 25" fill="none" xmlns="http://www.w3.org/2000/svg">
<path fill-rule="evenodd" clip-rule="evenodd" d="M5.62922 3.65517L5.62407 3.62962L5.77045 2.60067C5.76894 2.42493 5.80966 2.23495 5.84947 2.05079C5.8746 1.93527 5.89973 1.82047 5.91229 1.70858C5.92788 1.56621 5.97148 1.37624 6.01719 1.17567C6.0682 0.954645 6.12588 0.702995 6.15025 0.49111C6.18355 0.210434 6.43044 0 6.72456 0C6.72607 0 6.72758 0 6.72895 0C6.92179 0 7.09042 0.0715476 7.20274 0.202597C7.31143 0.329583 7.35366 0.496769 7.3196 0.661924L7.08013 2.2975C7.00475 2.7757 6.92634 3.26971 6.87759 3.74732C6.82507 4.04135 6.57016 4.25033 6.2715 4.25614L6.13768 4.25904L6.11558 4.17109C5.99358 4.13496 5.8864 4.06544 5.80512 3.96835C5.72307 3.90029 5.65435 3.78273 5.62922 3.65517ZM7.98852 14.2201V14.0685L7.97232 13.9989C7.78613 13.629 7.54515 13.2917 7.25905 12.9977C7.40028 12.9601 7.52214 12.8738 7.59904 12.7539L7.61599 12.717C7.65959 12.5816 7.65959 12.4393 7.61902 12.3139C7.43192 11.5599 7.25981 10.9568 7.07786 10.4211C6.65735 9.04141 6.4984 7.61495 6.60709 6.18067C6.64327 6.06805 6.64115 5.94759 6.60406 5.85108C6.34764 4.87322 5.82358 3.97619 5.10366 3.27464C5.00178 3.13648 4.8383 3.04999 4.6624 3.04084C4.5463 3.00964 4.42444 3.01182 4.31273 3.04796L4.27292 3.06624C4.10596 3.17335 4.00393 3.3504 4.00015 3.54182C3.99576 3.73383 4.09036 3.91596 4.23084 4.01015C4.73642 4.50909 5.1362 5.08583 5.42002 5.72497L5.42078 5.89215C5.27516 7.53064 5.44818 9.16114 5.9353 10.7436C6.1009 11.2311 6.25454 11.7477 6.40834 12.3252C6.0402 12.1047 5.63149 11.9354 5.19327 11.8262C5.18963 11.8262 5.18509 11.8262 5.18146 11.8262C4.87917 11.8262 4.62047 12.0396 4.57612 12.3265C4.53177 12.6192 4.7225 12.8983 5.0151 12.9749C5.81995 13.208 6.50007 13.7509 6.88441 14.468C6.90651 14.6054 6.93163 14.7443 6.95691 14.8819C7.03532 15.317 7.11661 15.7663 7.11661 16.2226C7.31022 18.8756 7.27253 21.5614 7.00581 24.223C7.00581 24.5475 7.27116 24.8112 7.61039 24.824H7.64505L7.74193 24.7871C7.96521 24.7247 8.12778 24.5349 8.14625 24.3151C8.42493 21.6053 8.45747 18.8545 8.24237 16.1404C8.19923 15.5551 8.11567 14.9188 7.98852 14.2201ZM12.4994 13.5682L12.5467 13.581L12.6812 13.5441H12.9414L12.9806 13.5215C13.1063 13.4507 13.2001 13.3372 13.2409 13.214C13.688 12.1 14.0428 10.9414 14.2956 9.76864C14.8204 7.29408 14.9489 4.7664 14.6792 2.27283L14.6777 1.4147C14.6333 1.10717 14.3421 0.889628 13.9911 0.918653C13.705 0.998764 13.5217 1.26231 13.5542 1.52804L13.555 2.33306C13.7849 4.74028 13.6362 7.15882 13.1137 9.51989C12.9451 10.2638 12.7602 10.9314 12.5386 11.5932C11.7108 10.1682 10.9777 8.67859 10.3649 7.19264C10.2673 6.45989 10.506 5.72511 11.0382 5.15607C11.2088 4.90021 11.1527 4.56221 10.8978 4.36092C10.7942 4.29227 10.6716 4.25672 10.5245 4.25744C10.3722 4.2795 10.2304 4.35105 10.1209 4.46439C9.99224 4.61039 9.87629 4.76423 9.77351 4.9243C9.52813 3.63528 9.58278 2.28822 9.92579 1.041C9.98271 0.910671 9.98271 0.761046 9.91474 0.609388C9.80303 0.431607 9.61684 0.309701 9.37071 0.273564C9.10686 0.281401 8.8792 0.449313 8.8023 0.697335C8.40101 2.18764 8.33592 3.71394 8.61157 5.24315C8.67817 5.51105 8.92431 5.7045 9.21025 5.7151L9.24567 5.71655L9.33286 5.68114C9.36026 5.67548 9.38675 5.66764 9.41188 5.6585C9.20071 6.25091 9.14667 6.89571 9.26792 7.54486C10.0648 9.51278 11.0234 11.443 12.118 13.2833C12.2023 13.4208 12.3382 13.5228 12.4994 13.5682ZM20.9476 5.89578C20.8427 5.73774 20.6652 5.64283 20.5012 5.64283C20.4968 5.64283 20.4937 5.64283 20.4909 5.64283C20.3888 5.62367 20.2795 5.62294 20.173 5.64283L20.1198 5.66271C19.7783 5.85964 19.4635 6.08793 19.1753 6.34306C19.1812 6.30983 19.1842 6.27572 19.1827 6.24104C19.1886 5.34677 19.1132 4.44756 18.9594 3.57302L18.64 1.3713C18.578 1.09992 18.3296 0.910671 18.0516 0.910671C18.0398 0.910671 18.0265 0.912123 18.0117 0.912123C17.8209 0.912123 17.6376 0.997167 17.5209 1.14026L17.4988 1.17785C17.4412 1.31035 17.4412 1.45635 17.4885 1.55126L17.8211 3.72817C17.9675 4.55728 18.0251 5.40046 17.997 6.20345C17.9542 6.37775 18.0014 6.56336 18.1226 6.70167C18.2454 6.83911 18.4049 6.91356 18.6134 6.90151L18.6296 6.90006C18.3414 7.24096 18.093 7.6151 17.8935 8.01826C17.8166 8.0991 17.7648 8.19822 17.7412 8.30953C17.4189 10.018 16.7862 11.6415 15.8593 13.1367C15.5001 13.7213 15.0714 14.3152 14.6612 14.8751L13.973 15.8389C13.6605 16.2838 13.3382 16.743 13.0721 17.2065C11.6573 19.348 10.8318 21.8197 10.684 24.3609C10.684 24.674 10.942 24.9306 11.265 24.9447L11.438 25L11.4913 24.9816C11.7108 24.9078 11.8682 24.725 11.9044 24.4897C12.0285 22.1243 12.7928 19.8171 14.1188 17.8103C14.4677 17.2179 14.8705 16.6481 15.2534 16.1195L15.5223 15.7412C16.0885 14.9546 16.5231 14.314 16.8897 13.7258C17.7914 12.2952 18.4375 10.7446 18.8129 9.11484L18.9134 8.6188C19.3038 7.82263 19.9232 7.15795 20.6978 6.69804C20.8352 6.62504 20.9329 6.49893 20.9654 6.36715C21.0142 6.22682 21.0142 6.0708 20.9476 5.89578Z" fill="black"/>
</svg>
