<svg width="25" height="25" viewBox="0 0 25 25" fill="none" xmlns="http://www.w3.org/2000/svg">
<path fill-rule="evenodd" clip-rule="evenodd" d="M10.5164 13.4343L10.5157 13.4257C10.4378 12.44 10.3751 11.6458 10.588 11.0646C10.9862 11.2718 11.4859 11.5117 11.9008 11.6955C12.2261 11.8396 12.5121 11.9545 12.7499 12.0382L12.7939 12.0538C13.0282 12.1368 13.2136 12.2022 13.4568 12.2022H16.4574C17.48 12.2022 18.3126 11.345 18.3126 10.2916C18.3126 9.23776 17.4802 8.3798 16.4574 8.3798H13.7614C13.0461 8.01571 12.3838 7.45439 11.7429 6.91081L11.4005 6.62128C10.6045 5.95488 9.73621 5.30418 8.65765 5.30272H8.65567C8.64734 5.30272 8.63986 5.30272 8.63224 5.30272C7.1506 5.30272 6.20852 6.44178 5.95914 7.50483C5.47391 9.57496 5.49254 11.3322 5.51526 13.5564L5.52147 14.1475L4.05423 18.7348L2.34861 21.7226C1.74836 22.712 1.93988 23.9468 2.79516 24.5955C3.148 24.8638 3.55941 24.9943 3.96941 24.9943C4.59379 24.9943 5.21535 24.6935 5.62535 24.1199L7.79263 20.739C7.82227 20.6907 7.84428 20.6439 7.85882 20.597L8.64029 18.1372L9.57065 19.7878L9.3749 22.8863L9.37081 22.936C9.37081 23.5448 9.60791 24.1056 10.0206 24.4731C10.3859 24.7968 10.8635 24.9642 11.3885 24.9657C11.9026 24.9615 12.3863 24.7784 12.7509 24.4519C13.1623 24.0843 13.398 23.5307 13.398 22.936L13.5364 18.7361C13.5419 18.6226 13.513 18.5104 13.4551 18.4111L10.5164 13.4343ZM10.7651 23.5849C10.5921 23.4316 10.5143 23.2329 10.5129 22.9491L10.7216 19.6887C10.7292 19.5723 10.703 19.4573 10.6458 19.3551L8.98918 16.4143C8.87471 16.2114 8.66456 16.0893 8.43578 16.1247C8.20912 16.1489 8.02437 16.3035 7.95409 16.5265L6.79974 20.1586L4.71714 23.4089L4.68892 23.4486C4.39324 23.8588 3.85777 23.9454 3.4719 23.653C3.0811 23.3549 3.01702 22.8297 3.32103 22.3329L5.05841 19.2912C5.08043 19.2543 5.09764 19.2146 5.11006 19.1733L6.62473 14.4454C6.64477 14.3858 6.65508 14.3219 6.65508 14.2566L6.64887 13.6271C6.62685 11.3668 6.61033 9.73382 7.0686 7.78141C7.22159 7.12998 7.76468 6.47565 8.63577 6.47565C8.64128 6.47565 8.64608 6.47565 8.65087 6.47565H8.65426C9.28965 6.47565 9.92434 6.89714 10.6817 7.53099C10.8141 7.64174 10.9484 7.75743 11.0862 7.87516C11.7367 8.43517 12.4741 9.06887 13.3603 9.49676C13.4375 9.53441 13.5188 9.55359 13.6043 9.55359H16.4574C16.8585 9.55359 17.1741 9.87785 17.1741 10.2916C17.1741 10.7047 16.8585 11.0282 16.4574 11.0282H13.4776L13.4582 11.024C13.4011 11.0112 13.2673 10.9807 13.1185 10.9283C12.9194 10.8586 12.654 10.7515 12.3514 10.6174C11.8002 10.3741 11.1442 10.0498 10.6376 9.77146C10.4019 9.6437 10.105 9.70257 9.93126 9.91477C9.14697 10.8899 9.25522 12.1949 9.35923 13.4575L9.37433 13.637C9.38054 13.7279 9.40807 13.8165 9.45422 13.894L12.3927 18.871L12.2583 22.9318C12.2583 23.2142 12.1797 23.4101 12.0026 23.5691C11.8462 23.7096 11.6187 23.7919 11.3796 23.7948C11.1456 23.8006 10.9188 23.7211 10.7651 23.5849ZM10.1538 5.14372C11.5315 5.14372 12.6519 3.98983 12.6519 2.57113C12.6519 1.15316 11.5315 0 10.1538 0C8.77691 0 7.65643 1.1533 7.65643 2.57113C7.65643 3.98969 8.77691 5.14372 10.1538 5.14372ZM8.79554 2.57099C8.79554 1.80023 9.40468 1.17365 10.1538 1.17365C10.9042 1.17365 11.5149 1.80037 11.5149 2.57099C11.5149 3.34247 10.9044 3.9705 10.1538 3.9705C9.40482 3.9705 8.79554 3.34247 8.79554 2.57099ZM21.7059 14.1844C21.5902 13.2731 20.9175 12.3506 19.8576 12.3506H17.2871C16.8019 12.3506 16.3347 12.5613 16.0039 12.9289C15.7173 13.2469 15.5215 13.6719 15.4388 14.1574L13.7243 24.3031C13.6857 24.5202 13.7505 24.7218 13.9035 24.8552C14.0123 24.949 14.153 25 14.2936 25C14.3625 25 14.4328 24.9872 14.4976 24.9631C14.685 24.8907 14.8131 24.7246 14.8476 24.5089L16.1073 17.0514H20.9216L21.8616 24.4818C21.907 24.8282 22.1647 24.9942 22.4226 24.9942C22.4489 24.9942 22.475 24.9913 22.5025 24.9885C22.7822 24.9501 23.0413 24.7131 22.9945 24.3314L21.7059 14.1844ZM20.7727 15.8791H16.3058L16.5621 14.3619C16.6049 14.1078 16.7068 13.8764 16.8391 13.7289C16.9701 13.5841 17.0997 13.5253 17.2871 13.5253H19.8576C20.2435 13.5253 20.5123 13.8283 20.5771 14.335L20.7727 15.8791Z" fill="black"/>
</svg>
