<svg width="25" height="25" viewBox="0 0 25 25" fill="none" xmlns="http://www.w3.org/2000/svg">
<path fill-rule="evenodd" clip-rule="evenodd" d="M3.50989 18.7375C2.29018 18.7375 1.15481 18.1038 0.511706 17.0462C-0.170569 15.9215 -0.170569 14.5226 0.511706 13.3979C1.19544 12.2732 2.44292 11.6174 3.74681 11.7144H4.13998L4.08152 11.6481C3.12169 10.6195 2.86751 9.12094 3.43637 7.83123C4.00084 6.55452 5.25913 5.73588 6.65072 5.73588C6.66504 5.73588 6.67922 5.73588 6.69354 5.73588H10.0564L9.99852 5.66601C9.41475 5.03153 9.09291 4.20017 9.09656 3.33081V1.5481C9.14713 1.26046 9.37982 1.06636 9.65168 1.06636C9.92354 1.06636 10.157 1.26046 10.2055 1.52808L10.2077 3.33154C10.2077 4.65751 11.286 5.73588 12.612 5.73588L16.7128 5.73442L16.523 5.92209C16.2333 6.20754 15.932 6.50439 15.6194 6.81425L15.588 6.8464L6.69208 6.84713C5.36685 6.84713 4.28848 7.9255 4.28848 9.25073C4.28848 10.5767 5.36685 11.6551 6.69208 11.6551H10.6679L10.4746 11.8436C10.1648 12.1462 9.86288 12.4432 9.57027 12.7343L9.53811 12.7665H3.73965C2.83039 12.6959 1.97111 13.1348 1.49726 13.9083C1.02414 14.6826 1.02414 15.6447 1.49726 16.4183C1.93764 17.1391 2.71127 17.5672 3.54628 17.5672C3.60767 17.5672 3.66906 17.5658 3.73117 17.5601H5.06722L4.92004 17.7399C4.67814 18.0339 4.45262 18.3165 4.24493 18.5877L4.14144 18.7261L3.74038 18.7304C3.66336 18.7348 3.58618 18.7375 3.50989 18.7375ZM6.21049 9.25863C6.21049 9.53048 6.40532 9.76317 6.69223 9.81389L12.5914 9.81243L13.7168 8.70117L6.67221 8.70483C6.40532 8.75335 6.21049 8.98677 6.21049 9.25863ZM3.1895 15.4875C3.29518 15.6489 3.47349 15.7416 3.64845 15.7416C3.67914 15.7416 3.70983 15.7386 3.7398 15.7329L6.6744 15.7344L6.70655 15.6987C6.97198 15.409 7.24895 15.1135 7.53864 14.808L7.71491 14.6224H3.749C3.5321 14.5967 3.31155 14.6823 3.1895 14.868C3.06454 15.0565 3.06454 15.2991 3.1895 15.4875ZM13.8688 3.8947L18.5955 3.89324L18.6284 3.86181C18.9225 3.57417 19.1965 3.30874 19.452 3.06393L19.5948 2.92683L19.4033 2.87845C19.1164 2.80566 18.8238 2.76854 18.5312 2.76854H13.8666C13.8624 2.76927 13.858 2.76927 13.853 2.76927C13.6733 2.76927 13.4969 2.69648 13.3671 2.56947C13.2358 2.44085 13.1601 2.26034 13.1601 2.07486V1.5481C13.1601 1.24628 12.9138 1 12.612 1C12.3095 1 12.0631 1.24628 12.0631 1.5481V2.07413C12.0597 2.55222 12.2503 3.02037 12.587 3.36019C12.9232 3.69987 13.3906 3.8947 13.8688 3.8947ZM5.24261 21.6151L2.48282 22.3915H2.46791C2.39293 22.3915 2.32014 22.373 2.24458 22.3331C2.22675 22.3231 2.21316 22.3145 2.20029 22.3046C2.1411 22.2647 2.099 22.2219 2.06539 22.1733C2.06685 22.1776 2.05618 22.1704 2.04536 22.1548L2.02329 22.1263L2.02256 22.102C1.98909 22.0292 1.97331 21.9636 1.97331 21.898L1.99187 21.7994C2.01262 21.6967 2.05545 21.611 2.11888 21.5482L21.5772 2.09065V2.09138C21.7628 1.90298 22.0911 1.90298 22.2765 2.09138L23.9723 3.78493C24.0651 3.87848 24.1179 4.00549 24.1179 4.13528C24.1179 4.26595 24.0636 4.39369 23.9694 4.48431L15.8892 12.5652C15.9035 13.6105 15.3854 18.3594 5.24261 21.6151ZM13.6883 11.3782L4.14364 20.9242C8.47202 19.631 11.5722 17.9439 13.3614 15.9057C14.7487 14.3256 14.8915 13.0154 14.8972 12.5871L13.6883 11.3782ZM22.4522 4.60401L22.9204 4.13513L21.9255 3.13949L21.4588 3.60925L22.4522 4.60401ZM20.7579 4.30789L14.3884 10.6789L15.3826 11.673L21.7529 5.30354L20.7579 4.30789ZM9.20574 20.7202L9.14655 20.7459L9.14085 20.8101C9.13164 20.9171 9.12579 21.0257 9.12579 21.1341V24.0603C9.13369 24.3143 9.31346 24.5326 9.57392 24.5927L9.67316 24.6041L9.77664 24.5898C9.8908 24.5626 9.9915 24.5027 10.0685 24.4157C10.1713 24.2986 10.222 24.1431 10.2077 23.9989V21.0757C10.2077 20.8444 10.2406 20.6189 10.3055 20.4077L10.3797 20.1636L10.152 20.2763C9.84593 20.4276 9.52759 20.5774 9.20574 20.7202ZM12.8732 18.6705L20.8991 18.6719C21.2017 18.6719 21.4472 18.4251 21.4472 18.1224C21.4472 17.8154 21.2074 17.5686 20.9021 17.5599H14.2464L14.2149 17.5884C13.8795 17.8939 13.5176 18.1908 13.1388 18.472L12.8732 18.6705ZM21.8826 12.6007C21.9883 12.4937 22.0468 12.3524 22.0468 12.2032C22.0468 12.0554 21.9854 11.912 21.8797 11.8093C21.774 11.7065 21.6301 11.6481 21.483 11.6551L18.0446 11.6536L16.9299 12.7641L21.4845 12.7663C21.6329 12.7663 21.7742 12.7079 21.8826 12.6007ZM23.4314 15.1978L23.3786 15.1622L23.4286 15.1308C24.7174 14.2843 25.2999 12.665 24.8474 11.192C24.3992 9.71406 23.0132 8.68773 21.4703 8.68773C21.4604 8.68773 21.4503 8.68773 21.4404 8.68773L21.0294 8.68626L19.8975 9.8117L21.4846 9.81389C22.8106 9.81389 23.8883 10.8923 23.8883 12.2182C23.8883 13.5442 22.8106 14.6226 21.4846 14.6226L16.476 14.6211L16.4461 14.6853C16.3119 14.9749 16.1478 15.269 15.9594 15.5616L15.8509 15.7315L21.4846 15.7329C22.8106 15.7329 23.8883 16.812 23.8883 18.138C23.8883 19.464 22.8106 20.5416 21.4846 20.5416H15.564C14.6406 20.5416 13.7363 20.9169 13.084 21.5722C12.4224 22.2359 12.0598 23.1194 12.0634 24.0572C12.0634 24.2028 12.1206 24.3399 12.2241 24.4439C12.3254 24.5467 12.4667 24.6053 12.6123 24.6053C12.7601 24.6053 12.9042 24.5439 13.0055 24.4382C13.1089 24.3326 13.1654 24.187 13.1604 24.0456C13.1904 22.7268 14.2467 21.6891 15.564 21.6819H21.4861C23.0361 21.6705 24.4192 20.6214 24.8475 19.1341C25.3012 17.6599 24.7174 16.0413 23.4314 15.1978Z" fill="black"/>
</svg>
