<svg width="25" height="25" viewBox="0 0 25 25" fill="none" xmlns="http://www.w3.org/2000/svg">
<g clip-path="url(#clip0_11_23)">
<path fill-rule="evenodd" clip-rule="evenodd" d="M0.00885977 9.85855C-0.231576 5.61389 4.47421 2.57865 7.73028 1.86367C8.64958 1.67987 9.65932 1.57277 10.7354 1.54561L11.3013 1.53882L11.88 1.54638C13.0947 1.54638 14.271 1.85225 15.4073 2.14763L15.6786 2.21769C16.1849 2.33451 16.6551 2.45211 17.1269 2.56955C17.4434 2.63884 17.7733 2.73529 18.1034 2.85443L18.334 2.93884L17.2474 3.99982L17.1614 3.97574C17.0485 3.94411 16.9338 3.91463 16.8193 3.88901C16.45 3.83253 16.0749 3.73222 15.7116 3.63577C15.5804 3.60104 15.4523 3.56648 15.3273 3.53561C14.0509 3.19502 12.9092 2.91091 11.8331 2.87403C10.4195 2.8319 9.12567 2.94116 7.99155 3.18375C5.05369 3.83253 1.06443 6.50834 1.21829 9.84343C1.29515 10.9217 1.4112 12.5433 2.35921 13.1273C2.64254 13.3037 3.00196 13.379 3.44271 13.4588C4.28362 13.5921 5.13734 13.8205 5.65802 14.5815C5.7409 14.72 5.78766 14.8347 5.8284 14.9356C5.8517 14.9944 5.87439 15.0501 5.90232 15.106L5.95047 15.2025L5.87732 15.2809C5.63688 15.5401 5.40478 15.7948 5.18178 16.042L5.03703 16.2017L4.93224 16.0133C4.89906 15.9529 4.86974 15.8928 4.84104 15.8295C4.81989 15.7874 4.80786 15.7526 4.79659 15.7165C4.78826 15.694 4.7807 15.6698 4.76573 15.6397C4.73332 15.5463 4.69119 15.4739 4.65647 15.4136C4.63841 15.3819 4.62174 15.3518 4.60893 15.3262C4.35276 14.9781 3.87497 14.8636 3.22928 14.743L2.98823 14.6887C2.5572 14.5938 2.1126 14.4974 1.72525 14.2501C0.202381 13.3452 0.0857129 11.2473 0.00885977 9.85855ZM11.8597 7.93105C12.2334 7.61685 12.8122 7.5204 13.4398 7.65898L13.5227 7.67704L14.4969 6.70804L14.2724 6.62362C13.0713 6.17068 11.8158 6.30942 10.9975 6.9869C10.7353 7.19709 10.6863 7.59725 10.8876 7.89864L10.9297 7.94077C11.0714 8.03568 11.2266 8.08321 11.3833 8.08321C11.5447 8.08321 11.7073 8.03275 11.8597 7.93105ZM6.90743 7.92118L6.98505 7.89787C7.35728 7.78707 7.7792 7.66129 8.16439 7.39154C8.93061 6.86699 9.10993 6.05618 9.2675 5.3412L9.28478 5.26434C9.32398 5.10539 9.36395 4.94628 9.40083 4.75955C9.45284 4.57791 9.42645 4.38732 9.32845 4.23655C9.23586 4.09334 9.0911 4.00136 8.92768 3.97883L8.80931 3.95691L8.67968 3.96062C8.40622 3.99303 8.19742 4.19426 8.16208 4.44442C8.12288 4.60338 8.08291 4.80153 8.04309 5.0006C7.93754 5.52654 7.82889 6.0713 7.43861 6.35464C7.23058 6.5031 6.99323 6.57918 6.719 6.6673L6.5298 6.72841C5.83966 6.93181 4.97993 7.18428 4.56696 8.25961C4.44103 8.54217 4.39288 8.87675 4.42297 9.25731C3.81787 9.39512 3.33484 9.67398 3.01986 10.0674C2.69069 10.4795 2.55118 10.976 2.5964 11.5992C2.64995 11.9178 2.91739 12.1591 3.21879 12.1591L3.33407 12.1546L3.46293 12.1214C3.75228 12.0145 3.9242 11.7319 3.88114 11.4342C3.8458 11.1893 3.88423 11.01 3.99426 10.8999L4.0296 10.845C4.11788 10.6084 4.481 10.4328 4.94289 10.3965H5.15308L5.50571 10.5141L5.68812 10.5118C5.73333 10.5087 5.77253 10.4998 5.81621 10.4839C6.19754 10.59 6.59986 10.734 7.0724 10.9308C7.45512 11.1049 7.85837 11.2593 8.42798 11.4492C8.7482 11.5359 9.082 11.5675 9.44744 11.5788H9.51071L9.55515 11.5351C9.9959 11.1041 10.4549 10.6626 10.9311 10.2081L10.7428 9.96565C10.2012 10.3039 9.41441 10.4033 8.7874 10.212C8.40236 10.0959 8.00683 9.93849 7.62935 9.78695C7.01885 9.52028 6.36791 9.25345 5.68287 9.16008C5.65571 9.04017 5.66852 8.86162 5.75448 8.68755C5.91806 8.22874 6.20819 8.12689 6.90743 7.92118ZM19.4099 12.193L19.4024 12.1825C19.1914 11.9172 18.7876 11.872 18.4846 12.077C18.4033 12.1381 18.3309 12.199 18.2601 12.2601C18.1937 12.3166 18.1289 12.3731 18.046 12.435L17.9496 12.5163C17.5412 12.8592 17.1539 13.1824 16.7364 13.1824C16.6384 13.1824 16.536 13.1696 16.435 13.1439L16.2813 13.1055L16.2466 13.26C16.1818 13.5494 16.0838 13.856 15.9542 14.1702L15.8878 14.3344L16.0582 14.3781C16.2979 14.4398 16.5193 14.47 16.7289 14.47C16.7289 14.47 16.7289 14.47 16.7304 14.47C16.7621 14.4716 16.7937 14.4731 16.8269 14.4731C17.7733 14.4731 18.4318 13.8612 18.9201 13.4069C19.0331 13.2946 19.1386 13.1892 19.2999 13.1047C19.5623 12.8946 19.6104 12.4944 19.4099 12.193ZM23.883 9.2249C23.8046 9.08694 23.7157 8.93925 23.6268 8.79156C23.5395 8.64542 23.452 8.49912 23.3676 8.35374C23.3315 8.29958 23.3028 8.22797 23.2711 8.1451C23.244 8.07874 23.2168 8.00945 23.1927 7.97102C23.1535 7.815 23.0751 7.64092 22.9862 7.50913C22.849 7.23629 22.6728 6.95526 22.4316 6.62517L22.3246 6.48041L21.3692 7.42904L21.4445 7.53521C21.5862 7.73491 21.7083 7.93152 21.8003 8.09664C21.8214 8.16223 21.8546 8.22782 21.8862 8.29325C21.9134 8.34526 21.939 8.39726 21.9646 8.46964C22.0415 8.62258 22.1183 8.81471 22.1996 9.01826C22.3609 9.33771 22.5614 9.65948 22.7572 9.97368C23.2003 10.6549 23.6736 11.4573 23.6736 12.357C23.6736 12.5907 23.6435 12.8242 23.6088 13.0955L23.5952 13.2003C23.5545 13.5304 23.5168 13.8852 23.5168 14.2409C23.5529 15.7765 23.1325 16.7651 22.3021 17.1028C22.2825 17.1059 22.2614 17.1104 22.2358 17.1164C22.1845 17.1269 22.1228 17.1405 22.0444 17.1405L21.9887 17.148C21.6526 17.1872 20.9502 17.2701 20.7769 18.0085C20.7348 18.2195 20.7348 18.423 20.7348 18.5872L20.7272 18.8781C20.7047 19.0423 20.6384 19.1675 20.5087 19.2971C20.0144 19.7569 18.8374 19.9226 17.9497 19.8442C17.579 19.8442 17.2881 20.1184 17.2881 20.4681C17.2881 20.8404 17.561 21.1313 17.8985 21.1313H17.9C17.9874 21.1373 18.1533 21.1464 18.3718 21.1464C19.1525 21.1464 20.5918 21.0288 21.4222 20.23C21.8291 19.8653 22.0612 19.3227 22.0612 18.744V18.3929C22.0973 18.3899 22.1336 18.3885 22.1637 18.3885C22.349 18.3794 22.5736 18.3463 22.7861 18.2619C24.1921 17.724 24.8839 16.3434 24.8432 14.1597C24.8432 13.8952 24.8824 13.581 24.9216 13.2773C24.9608 12.9646 25 12.6413 25 12.2788C24.9997 11.0808 24.4466 10.1103 23.883 9.2249ZM4.04102 21.8382L1.1203 22.6581H1.09915C1.01397 22.6581 0.931097 22.637 0.845139 22.5933L0.793132 22.5601C0.728316 22.5149 0.680167 22.4668 0.642358 22.4109L0.607635 22.3702C0.600073 22.355 0.595598 22.3401 0.593283 22.328C0.554856 22.2467 0.538344 22.1728 0.538344 22.099L0.557943 21.9874C0.576924 21.897 0.610104 21.8186 0.657636 21.7553V21.7493L0.702852 21.7026L21.2484 1.15857C21.4624 0.947144 21.8293 0.94699 22.0429 1.15903L23.8318 2.94718C23.9373 3.05273 23.996 3.19733 23.996 3.34425C23.996 3.49271 23.9356 3.63731 23.8287 3.74055L15.3077 12.2608C15.3184 13.4032 14.723 18.4082 4.04102 21.8382ZM12.9463 11.0468L3.00412 20.9897C7.49062 19.6334 10.7083 17.8701 12.5725 15.7466C14.0109 14.1069 14.1745 12.7483 14.1835 12.2841L12.9463 11.0468ZM22.1996 3.78438L22.6398 3.34425L21.6436 2.34809L21.2049 2.78899L22.1996 3.78438ZM20.4107 3.5816L13.7404 10.2533L14.735 11.2479L21.4067 4.5776L20.4107 3.5816ZM12.5845 18.6568L12.4316 18.4548L12.3111 18.5468L12.2757 18.4987L11.3405 19.1482L11.4393 19.2778C12.3361 20.4624 13.183 21.5807 13.733 23.1495C13.831 23.3952 14.0781 23.5594 14.3464 23.5594C14.3932 23.5594 14.4957 23.5594 14.5755 23.5051C14.7352 23.4507 14.8603 23.3423 14.9312 23.1932C15.002 23.0455 15.014 22.8691 14.9628 22.6884C14.3975 21.0697 13.5196 19.8911 12.5845 18.6568ZM14.0494 16.9644L13.9665 17.0503L14.0298 17.1528C14.1639 17.3669 14.3463 17.6486 14.5784 17.9395C15.2807 18.8181 16.4471 19.4075 17.4811 19.4075C17.8533 19.4075 18.2301 19.3246 18.6068 19.1573C18.9249 18.9976 19.0575 18.6254 18.9113 18.2832C18.7531 17.9667 18.3869 17.8311 18.0448 17.9758C17.2175 18.342 16.1113 17.813 15.5596 17.1153C15.3319 16.8547 15.1617 16.5682 14.9643 16.2367L14.871 16.0786L14.6057 16.2367L14.6418 16.3L14.5077 16.4628C14.3659 16.6283 14.2137 16.7942 14.0494 16.9644ZM20.7226 9.18725C20.801 8.9144 20.703 8.65066 20.4649 8.49927L20.3609 8.43214L18.0641 10.7146L18.4002 10.7394C18.4862 10.7462 18.572 10.7492 18.6548 10.7492C19.101 10.7492 19.4746 10.6519 19.7866 10.4561C20.2555 10.2007 20.5976 9.73571 20.7226 9.18725Z" fill="black"/>
</g>
<defs>
<clipPath id="clip0_11_23">
<rect width="25" height="25" fill="white"/>
</clipPath>
</defs>
</svg>
