<svg width="25" height="25" viewBox="0 0 25 25" fill="none" xmlns="http://www.w3.org/2000/svg">
<path fill-rule="evenodd" clip-rule="evenodd" d="M13.4133 14.8406C13.4133 15.3649 12.987 15.792 12.4618 15.792C11.9367 15.792 11.5097 15.3649 11.5097 14.8406C11.5097 14.3156 11.9368 13.8877 12.4618 13.8877C12.9868 13.8877 13.4133 14.3156 13.4133 14.8406ZM8.72239 15.4916C8.19741 15.4916 7.7703 15.9187 7.7703 16.4431C7.7703 16.9675 8.19741 17.3946 8.72239 17.3946C9.24738 17.3946 9.67448 16.9675 9.67448 16.4431C9.67448 15.9187 9.24753 15.4916 8.72239 15.4916ZM9.25703 11.7514C8.73204 11.7514 8.30494 12.1785 8.30494 12.7035C8.30494 13.2285 8.73204 13.6556 9.25703 13.6556C9.78201 13.6556 10.2091 13.2285 10.2091 12.7035C10.2091 12.1785 9.78216 11.7514 9.25703 11.7514ZM10.3248 7.47812C9.79981 7.47812 9.3727 7.90522 9.3727 8.43021C9.3727 8.95519 9.79981 9.38245 10.3248 9.38245C10.8498 9.38245 11.2769 8.95534 11.2769 8.43036C11.2769 7.90537 10.8499 7.47812 10.3248 7.47812ZM23.8406 14.4592L21.9127 10.9509L21.1807 10.0643L21.1896 10.0267C21.6653 7.587 21.1439 5.33068 19.6784 3.5022C17.967 1.36592 15.1466 0.0904885 11.9374 0.00437361L11.59 0C9.79317 0 8.05157 0.407952 6.55369 1.17967C2.42832 3.30268 0.585972 6.41171 1.07778 10.4193C1.36131 12.7316 2.36347 15.1161 4.05651 17.5048C4.49915 18.1307 4.75613 19.1293 4.81797 20.4754C4.86065 21.4032 4.80982 22.4416 4.667 23.5594L4.60592 24.0058C4.57651 24.2076 4.54846 24.3755 4.52569 24.5022L4.47562 24.7658L5.66192 25L5.76794 24.3888C5.79886 24.1987 5.83129 23.9705 5.86371 23.7142C6.01618 22.5256 6.06912 21.4167 6.02357 20.4181C5.94847 18.8172 5.62739 17.636 5.04117 16.8082C3.48733 14.6137 2.53072 12.3538 2.27524 10.2727C1.84602 6.7705 3.4255 4.14663 7.10612 2.25196C8.43464 1.56862 9.98546 1.20697 11.59 1.20697C14.5281 1.20697 17.1055 2.28649 18.6609 4.17016C19.9481 5.72913 20.4135 7.66799 20.0086 9.77487L19.8745 10.3795L20.9172 11.6232L22.2958 14.1455L20.8789 15.2735L20.9481 17.4842L20.2722 18.4518L20.393 18.929C20.4121 19.0158 20.4328 19.1205 20.4533 19.2353C20.5182 19.599 20.555 19.929 20.5637 20.219C20.5814 20.9378 20.4268 21.1867 20.331 21.2191C19.5003 21.5093 18.5048 21.6565 17.375 21.6565C17.1291 21.6565 16.892 21.6491 16.6695 21.6358L16.2115 21.6005L15.2983 21.4753L15.1333 24.8539L16.3381 24.9128L16.4412 22.8289L17.3749 22.8613C18.6414 22.8613 19.7697 22.6919 20.7284 22.3591C21.4605 22.1029 21.802 21.393 21.7683 20.1853C21.7594 19.8289 21.7152 19.4371 21.6401 19.0202L21.5739 18.6917L22.051 18.0099L22.1601 17.6697L22.1041 15.8389L23.8406 14.4592ZM12.9957 10.149C12.4707 10.149 12.0436 10.5761 12.0436 11.1011C12.0436 11.6261 12.4707 12.0532 12.9957 12.0532C13.5207 12.0532 13.9478 11.6261 13.9478 11.1011C13.9478 10.5761 13.5208 10.149 12.9957 10.149ZM16.6181 13.2374C16.6181 12.7124 16.191 12.2853 15.6666 12.2853C15.1422 12.2853 14.7151 12.7124 14.7151 13.2374C14.7151 13.7624 15.1422 14.1895 15.6666 14.1895C16.191 14.1895 16.6181 13.7625 16.6181 13.2374Z" fill="black"/>
</svg>
