<svg width="25" height="25" viewBox="0 0 25 25" fill="none" xmlns="http://www.w3.org/2000/svg">
<g clip-path="url(#clip0_11_47)">
<path fill-rule="evenodd" clip-rule="evenodd" d="M20.9924 21.4846C20.8778 21.6792 20.6488 21.7771 20.4392 21.7165L20.3315 21.6751C18.7421 20.7562 16.8134 20.7066 15.1992 21.5164C16.0215 21.7303 16.7817 22.1386 17.4136 22.7098C18.08 23.3113 18.8512 23.7583 19.7079 24.0383C19.9659 24.1252 20.1052 24.4054 20.0183 24.6648C19.9479 24.8689 19.7534 25 19.5478 25C19.4981 25 19.4485 24.9931 19.4002 24.978C18.4124 24.6551 17.5211 24.1391 16.7485 23.4438C15.9552 22.7264 14.9328 22.3345 13.8636 22.3345C13.8464 22.3345 13.8291 22.3345 13.8112 22.3345C11.6279 23.4604 9.01077 23.4796 6.81011 22.3884C5.20564 21.5909 3.33613 21.5274 1.68052 22.2146C1.42594 22.3125 1.13971 22.1926 1.03616 21.9428C0.935428 21.6889 1.05198 21.4089 1.30105 21.3013C3.22085 20.5052 5.38958 20.5798 7.24934 21.5027C7.43766 21.5951 7.62457 21.6779 7.80596 21.7482C9.14498 21.4489 10.2907 20.6514 11.0364 19.4966C11.6607 18.5349 12.6657 17.8699 13.7942 17.6741C14.0536 17.6313 14.3199 17.8079 14.3668 18.0756V18.077C14.3889 18.2067 14.3599 18.3378 14.2826 18.4468C14.2068 18.5544 14.0936 18.6262 13.9625 18.6482C13.1051 18.7985 12.3408 19.3036 11.8668 20.0347C11.2791 20.9426 10.4741 21.6738 9.52007 22.1677C11.1108 22.3457 12.7029 21.9525 14.0439 21.0488C16.0527 19.6913 18.7071 19.5961 20.8083 20.8088C21.0448 20.9452 21.1262 21.2474 20.9924 21.4846ZM23.346 2.1462C23.346 2.28352 23.2908 2.41589 23.1929 2.5097L15.3923 10.3096C15.402 11.356 14.8571 15.9386 5.07736 19.0773L2.40357 19.8277H2.38435C2.30637 19.8277 2.23051 19.8084 2.15181 19.7684L2.10844 19.7409C2.04218 19.6954 2.00008 19.6511 1.96632 19.6016L1.92351 19.5326C1.89173 19.4733 1.8711 19.3946 1.8711 19.316L1.88071 19.2567C1.88 19.2539 1.88353 19.2388 1.88763 19.2236C1.90698 19.1325 1.93736 19.0595 1.98002 19.0016V18.996L2.02142 18.9532L20.8306 0.145161C21.0266 -0.048387 21.3624 -0.0485283 21.5579 0.145585L23.1956 1.78255C23.2922 1.87918 23.346 2.01156 23.346 2.1462ZM13.2304 9.19827L4.12813 18.3005C8.23544 17.0587 11.1811 15.4445 12.8877 13.5007C14.2045 11.9996 14.355 10.7558 14.3632 10.3309L13.2304 9.19827ZM20.0639 2.36404L13.9575 8.47169L14.8681 9.38221L20.9757 3.27513L20.0639 2.36404ZM21.1924 1.23412L20.7909 1.63774L21.7029 2.54968L22.1044 2.1462L21.1924 1.23412Z" fill="black"/>
</g>
<defs>
<clipPath id="clip0_11_47">
<rect width="25" height="25" fill="white"/>
</clipPath>
</defs>
</svg>
