<svg width="25" height="25" viewBox="0 0 25 25" fill="none" xmlns="http://www.w3.org/2000/svg">
<path fill-rule="evenodd" clip-rule="evenodd" d="M16.6494 5.81413C15.7508 4.68288 15.6046 3.57139 15.5933 0.583579V0.00014535H16.8296L16.8353 1.30597C16.8608 3.32516 16.9729 4.18316 17.5606 4.97299L17.6372 5.07517L16.7488 5.94044L16.6494 5.81413ZM4.85322 12.4386C4.85322 12.9588 5.07183 13.4357 5.50337 13.8594C4.96543 14.5371 4.7788 15.5379 5.02793 16.4505C5.08549 16.6776 5.16703 16.8991 5.26994 17.1106L5.36369 17.3036L5.50846 17.1446C5.73549 16.8933 5.97256 16.6364 6.22023 16.3725L6.27634 16.3114L6.22518 16.1341C6.05701 15.5194 6.22023 14.8254 6.61617 14.4805C6.96253 14.1624 7.45861 14.1072 8.08667 14.3258L8.1733 14.3556L8.23711 14.2903C8.47272 14.0533 8.714 13.8142 8.96167 13.57L9.10005 13.4331L8.82461 13.2819C7.89699 12.8909 7.04466 12.8568 6.34916 13.1825C6.1227 12.9511 6.01282 12.7071 6.01282 12.4387C6.01282 12.2201 6.10584 11.9924 6.2868 11.7659C6.64102 11.9454 7.0121 12.0335 7.41951 12.0335C7.84742 12.0335 8.33013 11.9249 8.78071 11.7283C8.90208 11.6736 9.02345 11.6111 9.19525 11.5175L9.96168 11.0966C11.1604 10.4472 11.8637 10.1732 12.4713 10.1207L12.5238 10.1165L12.7217 9.91924C12.9701 9.67229 13.2129 9.43029 13.4485 9.19322L13.6393 9.00165L13.3739 8.94845C13.1297 8.89947 12.8941 8.87462 12.6742 8.87462C11.604 8.87462 10.6096 9.31822 9.03973 10.1905L8.4749 10.4996L8.28042 10.5948C7.99365 10.7204 7.67228 10.795 7.41951 10.795C7.1137 10.795 6.84887 10.6999 6.59335 10.5012C6.21006 10.1669 6.05817 9.49628 6.22285 8.87171C6.39189 8.28188 6.76239 7.76022 7.54233 7.01138C9.36066 5.32721 9.71967 4.67706 9.7531 0.995791L9.75732 0H8.51894L8.51749 0.557852C8.50891 4.02124 8.37054 4.5102 7.03492 5.78986L6.69349 6.11079C5.73404 7.02984 5.26703 7.71124 5.02924 8.54365C4.7929 9.43654 4.95337 10.3896 5.44508 11.0639L5.39479 11.1193C5.03563 11.5415 4.85322 11.9858 4.85322 12.4386ZM20.4577 9.34497L17.7281 12.0553L18.11 12.0341C18.3882 12.0191 18.6508 11.9617 18.8907 11.8623C19.034 12.0802 19.1177 12.3059 19.1177 12.4819C19.1177 12.6976 19.0325 12.9071 18.8664 13.1065C18.2021 12.8467 17.4087 12.9021 16.5697 13.2726L16.5116 13.2996L15.8773 13.8957L15.8802 13.9582C15.8831 14.0675 15.8773 14.3699 15.7553 14.8396L15.6701 15.1661L15.9653 15.0043C16.0803 14.9405 16.1967 14.8751 16.3145 14.8084L16.8751 14.5018L17.0681 14.4053C17.7069 14.1214 18.2235 14.1087 18.5969 14.3585L18.6452 14.3869C18.6806 14.4139 18.7161 14.4422 18.7516 14.4735C19.159 14.8283 19.3193 15.4954 19.1518 16.1299C18.9815 16.7203 18.611 17.2412 17.8303 17.9893C16.0632 19.6274 15.6784 20.2917 15.626 23.6174L15.6174 25H16.8552L16.8651 23.3577C16.9148 20.8283 17.1888 20.3131 18.3385 19.2116L18.6806 18.8908C19.6415 17.971 20.1071 17.2896 20.3442 16.4579C20.6081 15.4616 20.3895 14.4254 19.7678 13.739C20.1014 13.3579 20.276 12.9264 20.276 12.4822C20.276 12.0762 20.0943 11.6114 19.7834 11.2161C20.1155 10.8315 20.3341 10.3211 20.4051 9.76401L20.4577 9.34497ZM9.59482 21.3462L9.56502 21.1475L9.38551 21.2383C9.10092 21.3817 8.80426 21.5251 8.49336 21.667L8.39757 21.711L8.40964 21.8161C8.47214 22.3612 8.50469 23.0539 8.51472 24.0589L8.51894 25H9.75674L9.75528 24.418C9.74816 22.97 9.69991 22.0517 9.59482 21.3462ZM23.0936 5.33433C23.0936 5.47416 23.0368 5.61035 22.936 5.70759L14.9105 13.7323V13.8594C14.8736 15.1617 13.9964 19.6386 4.29886 22.7514L1.54811 23.5251H1.5282C1.44797 23.5251 1.36991 23.5052 1.28896 23.4641L1.23997 23.4328C1.17893 23.3903 1.13358 23.3449 1.09797 23.2923L1.06526 23.2539C1.05814 23.2397 1.05392 23.2256 1.05174 23.2142C1.01555 23.1376 1 23.068 1 22.9985L1.01846 22.8934C1.04113 22.7827 1.08736 22.6933 1.15538 22.6251L20.5058 3.27545C20.7045 3.07531 21.0523 3.07604 21.2538 3.27618L22.9386 4.96035C23.0382 5.05977 23.0936 5.19596 23.0936 5.33433ZM12.6864 12.589L3.3224 21.9538C7.548 20.6763 10.5778 19.0155 12.3344 17.0155C13.6892 15.4712 13.8432 14.1908 13.8517 13.7543L12.6864 12.589ZM21.4017 5.74887L21.8163 5.33433L20.878 4.3961L20.4648 4.81137L21.4017 5.74887ZM19.7168 5.55788L13.4344 11.8416L14.3712 12.7784L20.6549 6.49597L19.7168 5.55788Z" fill="black"/>
</svg>
