<svg width="25" height="25" viewBox="0 0 25 25" fill="none" xmlns="http://www.w3.org/2000/svg">
<g clip-path="url(#clip0_11_19)">
<path fill-rule="evenodd" clip-rule="evenodd" d="M24.1648 10.6295C23.2255 6.30818 22.2698 5.75424 21.5413 5.75424C21.0628 5.75424 20.5464 5.96417 19.97 6.39542L20.4712 3.13375C20.4757 3.10508 20.4788 3.07579 20.4788 3.04651V2.6356C20.4788 1.41644 19.5064 0 18.2541 0C18.2149 0 14.02 0.338621 12.4998 1.35834C10.9795 0.338775 6.78383 0 6.74545 0C5.49238 0 4.52075 1.41629 4.52075 2.6356V3.04651C4.52075 3.07579 4.52383 3.10523 4.52753 3.13452L5.02953 6.39542C4.45386 5.96417 3.93676 5.75424 3.45742 5.75424C0.876839 5.75424 0 16.1091 0 17.0212V19.4867C0 23.531 2.55885 25 4.27923 25C5.536 25 6.72217 24.7005 7.80955 24.109V25H8.97014V23.7673H16.0292V25H17.1912V24.109C18.278 24.7005 19.464 25 20.7194 25C22.4398 25 25 23.531 25 19.4867V17.0212C25 15.7705 24.687 13.0385 24.1648 10.6295ZM13.7 20.9603H11.2986C11.3279 20.9302 11.3534 20.9076 11.3738 20.8895H13.6248C13.6466 20.9076 13.6729 20.9332 13.7 20.9603ZM9.92281 22.4805L9.98446 22.4188C10.0823 22.318 10.1756 22.2201 10.2644 22.1238H14.7347C14.8235 22.2186 14.9169 22.318 15.0132 22.4173L15.0719 22.4775C15.114 22.5211 15.1563 22.5634 15.2014 22.6055H9.79797C9.84082 22.5632 9.88228 22.5225 9.92281 22.4805ZM15.0359 20.7134C14.5075 20.0993 14.19 19.7276 13.7324 19.7276H11.267C10.8101 19.7276 10.4911 20.0993 9.96042 20.7149C9.84297 20.8519 9.71428 21.0008 9.57587 21.1545C9.48262 21.2599 9.37566 21.3758 9.25682 21.5007L9.23725 21.5218C8.77517 22.0033 8.32743 22.3917 7.85178 22.7243C6.76132 23.4738 5.59256 23.8383 4.27923 23.8383C1.72116 23.8383 1.16059 20.6969 1.16059 19.4868V17.0214C1.16059 12.527 2.92768 6.91499 3.45742 6.91499C3.76968 6.91499 4.36431 7.1656 5.42688 8.36442C5.5397 8.49157 5.65344 8.62412 5.76704 8.76099C6.14789 9.22014 6.55726 9.76267 6.96893 10.343L6.98928 10.3813C7.59208 11.2475 8.222 12.2403 8.86318 13.3323C8.87366 13.3503 8.88722 13.367 8.894 13.3714C9.27563 14.0239 9.62396 14.6509 9.93036 15.2364C10.0312 15.4275 10.2284 15.5465 10.4444 15.5465H14.5542C14.7709 15.5465 14.9682 15.4277 15.069 15.235C15.3716 14.6586 15.7329 14.0091 16.1046 13.3716L16.1453 13.3181C16.7609 12.269 17.3705 11.3072 17.95 10.4689L17.9787 10.4245C18.3911 9.83141 18.796 9.29258 19.1813 8.82218L19.234 8.76053C19.3469 8.62428 19.4598 8.49188 19.5787 8.35563C20.6368 7.16499 21.2299 6.91499 21.5413 6.91499C22.2533 6.91499 23.8382 13.3625 23.8382 17.0215V19.487C23.8382 20.6972 23.2782 23.8383 20.7195 23.8383C19.407 23.8383 18.239 23.4755 17.1629 22.7366L17.1297 22.708C16.3862 22.1932 15.7991 21.576 15.4229 21.1562C15.2828 21.0008 15.1549 20.8518 15.0359 20.7134ZM12.4997 11.0247C13.28 11.0247 14.8929 10.9894 16.2926 10.8607C16.1572 11.0692 16.0262 11.2761 15.8998 11.4794L15.8666 11.5313C15.6831 11.8294 15.5069 12.119 15.3263 12.4202C14.2561 12.3537 13.1709 12.3303 12.4997 12.3303C11.8081 12.3303 10.7146 12.3567 9.67898 12.4297C9.50589 12.1384 9.31924 11.8314 9.12288 11.516L9.09422 11.4709C8.96413 11.2625 8.83004 11.051 8.6924 10.838C9.93268 10.9749 11.4821 11.0247 12.4997 11.0247ZM12.4997 13.4909C13.0038 13.4909 13.816 13.5068 14.6717 13.5481C14.4745 13.8973 14.3164 14.1856 14.2065 14.3842H10.7921C10.6845 14.1871 10.5264 13.9003 10.3308 13.5533C11.0487 13.5142 11.8405 13.4909 12.4997 13.4909ZM17.5932 8.97014C17.4472 9.16804 17.2966 9.37581 17.1447 9.59251C15.6982 9.80691 13.4833 9.86409 12.4997 9.86409C11.4189 9.86409 9.07248 9.79411 7.81109 9.53148C7.67407 9.33728 7.53936 9.15001 7.4062 8.97014H17.5932ZM18.591 7.72232L18.5835 7.73064C18.5594 7.75622 18.5368 7.78258 18.5143 7.80971H6.48512C6.46016 7.78104 6.43457 7.7516 6.40837 7.72154L5.68211 3.01491V2.6356C5.68211 2.00491 6.20815 1.16059 6.74545 1.16059C8.02487 1.16059 11.5116 1.90565 11.93 2.33613C11.9827 2.60693 12.2183 2.80499 12.4997 2.80499C12.7811 2.80499 13.0166 2.60709 13.0694 2.33613C13.4878 1.90565 16.9745 1.16059 18.2539 1.16059C18.7912 1.16059 19.3167 2.00506 19.3167 2.6356L19.3197 2.98933L18.591 7.72232Z" fill="black"/>
</g>
<defs>
<clipPath id="clip0_11_19">
<rect width="25" height="25" fill="white"/>
</clipPath>
</defs>
</svg>
