<svg width="25" height="25" viewBox="0 0 25 25" fill="none" xmlns="http://www.w3.org/2000/svg">
<g clip-path="url(#clip0_11_64)">
<path fill-rule="evenodd" clip-rule="evenodd" d="M18.582 0H6.41415C2.8794 0.00444777 0.00230057 2.88323 0 6.41798V18.5851C0.00230057 22.1183 2.8794 24.9971 6.41415 25H18.582C22.1152 24.9969 24.994 22.1183 25 18.5851V6.41798C24.994 2.88323 22.1168 0.00444777 18.582 0ZM23.7448 6.41798V18.5851C23.7417 21.4278 21.4248 23.7463 18.582 23.7494H6.41415C3.57064 23.7463 1.25366 21.4278 1.24906 18.5851V6.41798C1.25136 3.57294 3.56849 1.25581 6.41415 1.25289H18.582C21.4278 1.25581 23.7434 3.57294 23.7448 6.41798ZM15.4158 2.74397L14.9516 2.60547C14.1548 2.38753 13.3303 2.27603 12.5005 2.27373C12.4893 2.27373 12.4788 2.27373 12.4676 2.27373C10.9923 2.27373 9.51992 2.63247 8.20338 3.31466L7.77562 3.55116C7.4971 3.71143 7.22441 3.88827 6.96536 4.07692C6.27044 4.58473 6.00081 5.50051 6.31016 6.30556L7.37655 9.03526C7.65063 9.75795 8.35015 10.2388 9.11778 10.2388C9.12606 10.2388 9.13357 10.2388 9.1417 10.2388H15.8427C16.6365 10.25 17.333 9.76546 17.61 9.03756L18.6779 6.30709C18.9834 5.50511 18.7138 4.59133 18.0219 4.08597C17.2296 3.50101 16.3549 3.05025 15.4158 2.74397ZM12.8651 5.15374C12.6449 5.00021 12.3521 5.00098 12.1297 5.15374C11.92 5.30067 11.8196 5.56125 11.8728 5.81063V7.76151C11.2953 7.95538 10.8363 8.41595 10.6438 8.99339H9.14768C9.14615 8.99339 9.14462 8.99339 9.14247 8.99339C8.88036 8.99339 8.64141 8.82944 8.54632 8.58374L7.47992 5.86001C7.3787 5.58441 7.47532 5.27138 7.71581 5.09761C7.74878 5.07368 7.78253 5.05037 7.81535 5.02798C7.92623 5.1269 8.07301 5.1838 8.23252 5.1838C8.30736 5.1815 8.38236 5.16739 8.47147 5.13518C8.74938 5.0108 8.89754 4.70682 8.83389 4.4148C9.11548 4.26955 9.40535 4.14072 9.70028 4.02983L9.70626 4.06358C9.77298 4.35943 10.023 4.572 10.3398 4.56234L10.4702 4.55636C10.7952 4.48075 11.0087 4.16327 10.9547 3.82846L10.9308 3.70116C11.249 3.63981 11.5719 3.59702 11.8938 3.57386V3.73935L11.9013 3.79932C11.9762 4.07723 12.2301 4.27109 12.5183 4.27109C12.8059 4.27109 13.059 4.07707 13.1347 3.80008L13.143 3.57386C13.4651 3.59625 13.787 3.63904 14.1053 3.70116L14.0798 3.83521C14.0289 4.16403 14.2416 4.48075 14.6175 4.56234H14.7014C14.9934 4.55406 15.2436 4.34961 15.3111 4.05453L15.3154 4.03351C15.6089 4.14287 15.898 4.27017 16.1825 4.41388C16.1212 4.69178 16.256 4.98457 16.5405 5.12905C16.6124 5.15451 16.6873 5.16877 16.7741 5.17092C16.9253 5.16785 17.0661 5.11248 17.177 5.01816C17.2115 5.04132 17.2458 5.0654 17.2819 5.09162C17.523 5.26463 17.6188 5.57919 17.5126 5.85541L16.4431 8.58589C16.3503 8.83005 16.1137 8.99324 15.85 8.99324C15.8469 8.99324 15.844 8.99324 15.841 8.99324H14.3539C14.1591 8.40981 13.706 7.95676 13.122 7.76136V5.8114C13.1758 5.56201 13.0755 5.30128 12.8651 5.15374ZM12.8389 8.99339H12.1596C12.364 8.88021 12.6329 8.88021 12.8389 8.99339Z" fill="black"/>
</g>
<defs>
<clipPath id="clip0_11_64">
<rect width="25" height="25" fill="white"/>
</clipPath>
</defs>
</svg>
