<svg width="25" height="25" viewBox="0 0 25 25" fill="none" xmlns="http://www.w3.org/2000/svg">
<g clip-path="url(#clip0_11_43)">
<path fill-rule="evenodd" clip-rule="evenodd" d="M20.7457 7.71153C20.8877 8.24454 20.5214 9.85144 19.7435 10.532C19.2892 10.9301 18.7343 11.0054 18.1892 10.7371C18.1651 10.725 18.1395 10.713 18.1139 10.7009C18.3594 11.1622 18.6149 11.7194 18.8776 12.3617C20.0601 15.2553 18.7754 17.3618 15.6709 22.4521C14.6787 24.0802 13.4892 24.9362 12.1358 24.9958C12.0853 24.9987 12.035 25 11.9839 25C11.0732 25 10.1307 24.6381 9.18186 23.9226C8.29186 23.2512 7.68646 22.4777 7.57424 22.33C7.47351 22.2236 7.0732 21.7834 6.56853 21.1049L6.45501 20.953L6.63176 20.8834C6.90503 20.7756 7.16972 20.669 7.42816 20.5612L7.53253 20.5186L7.59997 20.608C7.98894 21.1218 8.28764 21.4554 8.39768 21.576L8.45088 21.6371C8.5282 21.7378 10.2444 23.9523 12.0897 23.8799C13.0471 23.8359 13.9315 23.1602 14.72 21.8714C17.83 16.7712 18.7697 15.0493 17.8443 12.7838C17.586 12.1528 17.3361 11.6114 17.1005 11.1734L17.0493 11.0784L17.8145 10.3147L17.8344 10.2672C17.8415 10.2693 17.8472 10.2721 17.8543 10.275L17.8699 10.2608V10.2622L18.4915 9.64547L18.6789 9.7321C18.7953 9.79097 18.8577 9.78327 18.9088 9.75914L18.9785 9.71727C19.1872 9.56829 19.4044 9.15592 19.5506 8.62145L19.5605 8.5838L19.5888 8.55676L20.6804 7.46878L20.7457 7.71153ZM11.2046 18.6125C10.8575 18.8368 10.4842 19.0597 10.0945 19.2783L10.0222 19.3179L10.0201 19.4002C10.0059 19.9495 10.2784 20.2917 10.3629 20.3853C10.4921 20.5273 10.6241 20.5982 10.7617 20.5982C10.8703 20.5982 10.9825 20.5542 11.0988 20.4662C11.3869 20.2491 11.4203 19.9467 11.1867 19.6316C11.1789 19.6203 10.9888 19.3733 11.4152 18.8111L11.2046 18.6125ZM4.15201 16.6962L4.31815 16.5032C4.52049 16.2675 4.73271 16.0277 4.95481 15.7778L5.00873 15.7168L4.98533 15.6402C4.43168 13.7977 4.37848 12.0403 4.82704 10.4179C5.33244 8.58961 6.17768 7.37096 7.33949 6.79463C8.90017 6.02309 10.5588 6.66614 10.5736 6.67181C10.8561 6.78605 11.1833 6.6484 11.3004 6.3638C11.3565 6.22542 11.3551 6.0728 11.2969 5.93515C11.2388 5.79822 11.1308 5.69168 10.9931 5.6363C10.9151 5.60505 9.18477 4.91447 7.32656 5.58804C7.59837 5.17785 8.04475 4.6867 8.77371 4.24526C9.30382 3.92373 9.84192 3.62067 10.3678 3.32327C12.0166 2.39286 13.0492 1.81013 13.1996 1.11664C13.2678 1.1181 13.3621 1.12871 13.4756 1.16345C13.6864 1.22726 14.0739 1.40837 14.3095 1.90083C14.5523 2.41045 13.7723 3.22661 13.1974 3.82707C12.7022 4.34526 12.3438 4.71998 12.3034 5.14805C12.2736 5.45751 12.4986 5.73354 12.8051 5.76334C13.1003 5.78674 13.3842 5.56885 13.4078 5.2921C13.4142 5.27364 13.4531 5.1934 13.7037 4.9181C14.1656 5.23105 14.3808 5.63354 14.48 5.92512L14.4857 5.94213L14.3252 5.96916C12.7114 6.23109 12.116 6.91033 11.7113 7.37227C11.6823 7.4057 11.6325 7.46181 11.5929 7.50294C11.5921 7.50222 11.5907 7.50149 11.5894 7.50076C10.221 6.74419 9.14218 7.60658 9.09741 7.6435C8.98171 7.73711 8.90932 7.87054 8.89304 8.01822C8.87749 8.16663 8.92066 8.31199 9.01442 8.42842C9.10802 8.54412 9.24146 8.61723 9.38987 8.63278C9.54103 8.64558 9.68363 8.60444 9.7973 8.51214C9.81924 8.49586 10.3494 8.0941 11.05 8.47885C11.8378 8.91463 12.2913 8.40356 12.5624 8.09483C12.6965 7.9422 12.8484 7.76909 13.0734 7.60585L15.4283 5.28643L15.3815 5.1921C15.1686 4.75705 14.8648 4.38872 14.476 4.09409C15.1744 3.30917 15.7791 2.38792 15.3163 1.41985C14.7229 0.17431 13.4205 -0.164221 12.7122 0.0684921C12.2317 0.226638 12.0804 0.5986 12.0946 0.890327C11.8824 1.187 10.5481 1.94008 9.81924 2.351C9.32169 2.63124 8.75743 2.94927 8.19534 3.28999C6.1925 4.50428 5.83406 6.09344 5.77301 6.52413C4.866 7.33826 4.18603 8.54761 3.75098 10.1196C3.20517 12.0941 3.3123 14.2247 4.07032 16.4548L4.15201 16.6962ZM14.1387 18.4378C14.2146 18.496 14.3084 18.5272 14.4049 18.5272C14.4305 18.5272 14.4546 18.5258 14.4802 18.5215C14.5966 18.5016 14.6973 18.4378 14.7655 18.3413C14.8337 18.2448 14.8593 18.1284 14.8394 18.0134C14.7812 17.6712 14.5683 17.1433 14.1879 16.3994L14.0948 16.2177L13.8223 16.5045C13.7251 16.6039 13.6243 16.7032 13.5185 16.8068L13.4425 16.8806L13.49 16.9757C13.8392 17.6698 13.9443 18.0048 13.9713 18.1638C13.9911 18.2746 14.0514 18.374 14.1387 18.4378ZM23.9778 2.91875C23.9778 3.06207 23.9197 3.2019 23.8188 3.30278L15.4638 11.6557C15.4751 12.77 14.8988 17.6786 4.42455 21.04L1.56281 21.8433H1.5429C1.46121 21.8433 1.38112 21.8234 1.2974 21.7795L1.24129 21.7441C1.18373 21.7044 1.13838 21.6589 1.10146 21.605L1.07093 21.5709C1.06236 21.5539 1.05742 21.5382 1.05465 21.5256C1.01628 21.4446 1 21.3737 1 21.3013L1.01846 21.1949C1.03765 21.1041 1.07021 21.0288 1.11643 20.9664V20.9607L1.15902 20.9167L21.2962 0.780584C21.5049 0.574471 21.863 0.575489 22.0658 0.78102L23.8189 2.53342C23.921 2.63691 23.9778 2.77674 23.9778 2.91875ZM13.155 10.4597L3.3889 20.2251C7.79925 18.8951 10.9611 17.1647 12.7922 15.0781C14.206 13.4684 14.3649 12.1319 14.3735 11.6784L13.155 10.4597ZM20.4717 3.14376L13.9251 9.69111L14.9088 10.6741L21.4555 4.12825L20.4717 3.14376ZM21.6797 1.93426L21.2411 2.37425L22.2248 3.35859L22.6635 2.9186L21.6797 1.93426Z" fill="black"/>
</g>
<defs>
<clipPath id="clip0_11_43">
<rect width="25" height="25" fill="white"/>
</clipPath>
</defs>
</svg>
