<svg width="25" height="25" viewBox="0 0 25 25" fill="none" xmlns="http://www.w3.org/2000/svg">
<g clip-path="url(#clip0_11_66)">
<path fill-rule="evenodd" clip-rule="evenodd" d="M17.1565 23.9759L17.0238 24.0673L17.1845 24.8472L16.6552 24.4373L16.4149 24.4476L16.0685 25.0403L15.9624 24.3474L15.8827 24.2855L15.1044 24.4476L15.5717 23.8344L15.4891 23.6899L14.895 23.3435L15.5201 23.2476L15.6454 23.1666L15.6837 23.1091L15.669 23.0132L15.4995 22.3587L16.0198 22.751L16.2601 22.7407L16.6066 22.148L16.7009 22.7716L16.7923 22.9043L17.5825 22.7392L17.1063 23.3923L17.1859 23.5353L17.78 23.8817L17.1565 23.9759ZM24.2813 18.1631C23.4631 19.344 22.2395 20.1784 20.8375 20.5086C20.0857 20.7238 19.3191 20.8534 18.5481 20.8948C18.2621 20.9906 18.0085 21.0363 17.752 21.0378C17.4852 21.0378 17.2272 20.9877 16.981 20.8889C16.3692 20.6501 15.868 20.14 15.4921 19.369L15.4184 19.2201L15.2783 19.3101C14.4203 19.8717 13.6728 20.572 13.0552 21.3902C12.9461 21.5361 12.7722 21.6245 12.5894 21.629C12.5481 21.629 12.5054 21.6231 12.467 21.6172L12.3461 21.6231C12.1869 21.5995 12.0425 21.514 11.9466 21.3828C11.3393 20.5779 10.6051 19.8865 9.76334 19.3263L9.62329 19.2319L9.54958 19.3838C9.17071 20.1533 8.67096 20.6663 8.06359 20.9035C7.82624 20.9921 7.5771 21.0377 7.32059 21.0377C7.0228 21.0377 6.76924 20.9949 6.52747 20.9094L6.53484 20.8903C5.7314 20.8534 4.93533 20.7222 4.1717 20.5025C2.76089 20.1679 1.5373 19.332 0.717648 18.1438C-0.309869 16.5237 -0.234685 14.3404 0.947623 11.6632C1.83509 10.1286 3.21052 9.06717 4.21298 8.29321C4.55499 8.04554 4.87784 7.77724 5.18447 7.49419C5.3658 7.10795 5.80216 5.62638 7.07735 -0.522507C7.13632 -0.798035 7.38251 -1 7.66555 -1C7.9486 -0.952826 8.08275 -0.859951 8.1712 -0.725799C8.25818 -0.591647 8.28914 -0.429485 8.25523 -0.273219C7.34713 4.05503 6.76777 6.5538 6.4287 7.59016L6.38005 7.73464C6.28423 8.00736 6.22231 8.10908 6.18546 8.16215C5.76973 8.59999 5.37022 8.94053 4.94713 9.24127C3.96826 9.99606 2.76679 10.9248 2.02379 12.1764C1.01986 14.457 0.921088 16.2467 1.7201 17.5071C2.27588 18.2958 3.08079 18.887 3.99332 19.1789L4.28816 19.2732L4.17465 18.9828C4.04934 18.6658 4.00217 18.3164 4.04049 17.9759C4.08619 17.5499 4.3545 17.171 4.73927 16.9867C5.05327 16.8231 5.4572 16.7405 5.94369 16.7405C6.9889 16.7405 8.30683 17.1268 9.5599 17.799C10.639 18.371 11.5928 19.1243 12.3977 20.0398L12.5083 20.1651L12.6189 20.0398C13.4194 19.1304 14.3687 18.3798 15.4405 17.8123C16.695 17.14 18.013 16.7553 19.0567 16.7553C19.5432 16.7553 19.9471 16.8363 20.2552 17C20.6474 17.1857 20.9157 17.5646 20.9599 17.9906C20.9982 18.3312 20.9525 18.6791 20.8272 18.996L20.7122 19.2865L21.0085 19.1921C21.9196 18.9002 22.726 18.3076 23.2773 17.5263C24.0793 16.2673 23.9805 14.4791 22.9869 12.2059C22.2336 10.9395 21.0336 10.0108 20.0665 9.26338C19.6316 8.95232 19.2351 8.61178 18.8709 8.24029C18.6734 7.97051 18.4198 7.30564 17.6606 3.93267L17.5221 3.31056C17.3039 2.33317 17.0503 1.15823 16.7496 -0.258477C16.7053 -0.467814 16.7776 -0.68747 16.9368 -0.831941C17.0488 -0.930713 17.1904 -0.985258 17.3407 -0.985258C17.4041 -0.985258 17.466 -0.976413 17.5265 -0.955774C17.7299 -0.889435 17.8832 -0.718575 17.9275 -0.509091C19.2424 5.75773 19.6655 7.1479 19.7864 7.45306C20.1255 7.79213 20.4469 8.05749 20.783 8.30368C21.7972 9.08795 23.1682 10.1435 24.0233 11.6177C25.238 14.3508 25.3147 16.5327 24.2813 18.1631ZM8.55892 18.6526L8.42329 18.5906C7.82477 18.315 7.18791 18.1189 6.52894 18.0039C6.36973 17.9671 6.19872 17.9479 6.02772 17.9479C5.79922 17.9479 5.57219 17.9833 5.35401 18.0509L5.25524 18.0819L5.25081 18.1851C5.24049 18.4578 5.35696 18.7233 5.59725 18.9723C6.03951 19.4308 6.81494 19.7256 6.88718 19.7256C7.09799 19.8229 7.18791 19.8347 7.27784 19.8347C7.40167 19.8347 7.52256 19.8111 7.63754 19.7684C7.96187 19.6342 8.25671 19.2952 8.49553 18.788L8.55892 18.6526ZM19.751 18.1956L19.7481 18.0909L19.6464 18.0599C19.4283 17.9921 19.2012 17.9567 18.9727 17.9567C18.8017 17.9567 18.6321 17.9774 18.4641 18.0142C17.8331 18.1233 17.2095 18.312 16.6213 18.573L16.4857 18.6349L16.5491 18.7705C16.7863 19.282 17.0813 19.6211 17.4012 19.7523C17.5221 19.7979 17.6444 19.8201 17.7697 19.8201C17.8536 19.8201 17.9393 19.8098 18.0218 19.7877L18.1574 19.7273C18.2297 19.7022 19.782 19.1243 19.751 18.1956ZM11.9997 9.31498L12.0203 9.48746V9.55232L11.8184 9.83095L12.2061 9.72923L12.3506 9.7366L12.4213 10.1833L12.6115 9.85896L12.8429 9.84274L13.1348 10.0698L13.0655 9.77493L12.8783 9.53758L13.471 9.44323L13.1614 9.26486L13.1334 9.09237V9.02161L13.3427 8.74151L12.9476 8.84618L12.8031 8.83881L12.7324 8.39213L12.5481 8.70908L12.3771 8.7312H12.3108L12.0174 8.50269L12.0837 8.79459L12.2886 9.03488L11.6813 9.1307L11.9997 9.31498ZM9.75892 23.8815L9.16481 23.5351L9.08668 23.3951L9.55105 22.7243L8.75204 22.8894L8.67243 22.8275L8.56776 22.1317L8.22133 22.7287L7.98103 22.7376L7.46064 22.3454L7.63165 23.0015L7.60511 23.1489L7.54319 23.2241L6.85327 23.3302L7.44885 23.675L7.52993 23.8195L7.09062 24.4298L7.72305 24.2647L7.87194 24.2883L7.94713 24.3502L8.05179 25.0401L8.39676 24.4475L8.63853 24.4372L9.16187 24.8308L9.00265 24.0673L9.06457 23.9877L9.75892 23.8815ZM7.08619 13.2776L7.06408 13.1081V13.0403L7.26752 12.7617L6.87833 12.8649L6.73386 12.8575L6.66457 12.4108L6.4803 12.7278L6.30929 12.7499H6.24148L5.95106 12.5243L6.02329 12.8206L6.19578 13.058L5.61347 13.1494L5.93042 13.3336L5.95253 13.5061V13.5725L5.74762 13.8511L6.13828 13.7494L6.28128 13.7567L6.35204 14.2005L6.53632 13.885L6.70732 13.8629H6.77366L7.06261 14.087L6.99037 13.7877L6.82968 13.5533L7.40315 13.4619L7.08619 13.2776ZM20.208 13.9292L20.2228 14.1607L20.0164 14.4378L20.4085 14.3361L20.5515 14.3435L20.6223 14.7872L20.7992 14.482L20.9702 14.4496H21.0439L21.3358 14.6781L21.265 14.3789L21.0896 14.143L21.6719 14.0501L21.3638 13.8732L21.3343 13.6992V13.627L21.5363 13.3499L21.1486 13.4516L21.0041 13.4442L20.9334 12.9975L20.7432 13.3233L20.5117 13.3381L20.2228 13.1125L20.295 13.4103L20.466 13.6462L19.8808 13.7376L20.208 13.9292Z" fill="black"/>
</g>
<defs>
<clipPath id="clip0_11_66">
<rect width="25" height="25" fill="white"/>
</clipPath>
</defs>
</svg>
