<svg width="25" height="25" viewBox="0 0 25 25" fill="none" xmlns="http://www.w3.org/2000/svg">
<g clip-path="url(#clip0_11_39)">
<path fill-rule="evenodd" clip-rule="evenodd" d="M24.5713 3.9371C24.118 3.19111 23.4153 2.62642 22.5914 2.34653C21.8315 2.08249 21.0461 1.97053 20.2315 2.00658C18.8181 2.04453 17.4355 2.33193 16.1236 2.86057C15.0076 2.30121 13.7637 2.00658 12.5191 2.00658C12.4957 2.00658 12.4717 2.00658 12.4483 2.00658C11.237 1.98924 10.0163 2.27649 8.93912 2.8465C7.58052 2.34053 6.15583 2.05791 4.70521 2.00658C3.89655 1.98719 3.10864 2.09518 2.34462 2.34653C1.51998 2.62724 0.816717 3.19179 0.358661 3.9472C-0.0846497 4.84775 -0.117963 5.89439 0.264046 6.80845C0.394705 7.22705 0.640731 7.59309 0.97673 7.87106L0.968674 8.01837C0.967309 8.39574 1.06793 8.76628 1.26003 9.09163C1.75604 9.92692 2.59269 10.4775 3.55331 10.6016C3.67127 10.619 3.79197 10.6197 3.89791 10.6037C4.70862 10.5651 5.50049 10.3197 6.19256 9.89442C6.56051 10.0144 6.95658 10.0785 7.32453 10.069C7.61247 10.0837 7.90519 10.0737 8.19244 10.0404C8.35041 10.7503 8.58838 11.4436 8.89912 12.1024V12.2423L8.92178 12.2756C9.09914 12.545 9.21382 12.8542 9.25505 13.1715C8.80846 13.7422 8.66702 14.4915 8.87441 15.1822L9.94166 19.4767C9.97497 19.6927 10.165 19.9233 10.597 19.9233H10.625L10.7476 19.8699C10.8523 19.8112 10.937 19.7247 10.9936 19.6167C11.057 19.486 11.057 19.338 11.0037 19.234L9.91708 14.8902C9.83708 14.6476 9.85305 14.3862 9.96036 14.1582C10.2351 14.2849 10.5283 14.3622 10.8377 14.3888C10.8444 14.3902 10.8511 14.3902 10.8576 14.3902C11.1504 14.3902 11.3916 14.1662 11.4122 13.8662C11.4175 13.5729 11.2129 13.3209 10.9189 13.2662C10.7429 13.2408 10.5756 13.1875 10.4536 13.1475C10.421 13.1369 10.3917 13.1276 10.3656 13.1195C10.3249 12.6209 10.1662 12.1369 9.91094 11.7235L9.79762 11.4835C9.29901 10.2962 9.01094 9.04289 8.94158 7.7602C8.93626 7.61356 8.87086 7.47349 8.76232 7.37491C8.65296 7.27757 8.50701 7.22418 8.36229 7.23825C8.21443 7.24767 8.07844 7.31511 7.98041 7.42775C7.88239 7.54038 7.83446 7.68374 7.84511 7.83106C7.85713 8.01906 7.88307 8.20364 7.90846 8.387C7.93645 8.58634 7.96253 8.77761 7.97181 8.96698C7.75978 8.97899 7.54775 8.97572 7.32712 8.9577C7.00177 8.97504 6.67041 8.93039 6.33919 8.84301C6.24786 8.82895 6.15788 8.82895 6.06791 8.84301L6.01657 8.86172C5.37721 9.25369 4.64323 9.49235 3.90597 9.55037L3.73258 9.55105C3.12925 9.48702 2.58996 9.13437 2.28468 8.59835C2.14597 8.39438 2.10528 8.14098 2.17327 7.90301L2.1786 7.80634L2.21724 7.76771C2.34858 7.65507 2.52456 7.59568 2.69454 7.61165C3.19588 7.65493 3.67045 7.83966 4.06721 8.1463L4.49318 8.48367L4.67053 8.60627C4.7945 8.71031 4.92789 8.80233 5.05514 8.87291C5.14115 8.93421 5.24177 8.96821 5.35577 8.97094C5.54173 8.96425 5.7158 8.87701 5.84305 8.71768C6.00101 8.45773 5.93643 8.125 5.693 7.94438L5.11848 7.51376L4.75518 7.22241C4.16251 6.76845 3.45665 6.50904 2.71256 6.47177C2.28127 6.45511 1.8852 6.57908 1.54988 6.82579L1.50592 6.79179C1.39328 6.69035 1.30194 6.56311 1.24132 6.42235C0.960619 5.79581 1.00663 5.07043 1.36393 4.48254C1.6759 3.96987 2.16262 3.58595 2.73591 3.39986C3.28462 3.21254 3.85859 3.12926 4.44048 3.14714H4.6992C6.14382 3.1638 7.56318 3.42785 8.91578 3.93314L9.12248 3.94174L9.52975 3.75647C10.4517 3.33187 11.4717 3.11779 12.489 3.14714C13.6136 3.15247 14.737 3.42716 15.7462 3.94516C15.8343 3.98243 15.9302 3.98653 16.0262 3.95649H16.1608L16.2101 3.9472C17.4981 3.4486 18.854 3.1739 20.2353 3.13253H20.4806C20.4846 3.13253 20.4887 3.13253 20.4926 3.13253C21.0807 3.13253 21.6579 3.23657 22.2152 3.44382C22.7872 3.62855 23.2753 4.01315 23.5819 4.51708C23.8832 5.11303 23.9126 5.80906 23.6645 6.42439C23.6046 6.56434 23.5165 6.69104 23.4071 6.79439L23.3473 6.74838C23.0194 6.53171 22.646 6.44037 22.2514 6.4431C21.5101 6.47914 20.8088 6.73909 20.2248 7.19305L19.9875 7.373C19.9221 7.42966 19.8582 7.47635 19.7688 7.53301C19.6154 7.66968 19.4515 7.79706 19.2702 7.91693C19.1582 8.00431 19.0782 8.12965 19.0569 8.2416C18.9903 8.38359 18.9903 8.54688 19.0729 8.71426C19.1129 8.76765 19.1609 8.81366 19.2156 8.85025C19.1448 8.81229 19.0742 8.77229 19.0063 8.73092L18.9716 8.71631C18.8862 8.69365 18.7982 8.69365 18.7156 8.71167H18.5743L18.5262 8.72027C18.233 8.83031 17.9249 8.88561 17.601 8.88561C17.5982 8.88561 17.597 8.88561 17.5943 8.88561C17.3917 8.90158 17.1889 8.905 16.9849 8.89489C17.0476 8.52162 17.0929 8.1463 17.1196 7.78232C17.1383 7.63295 17.0969 7.48031 16.9982 7.35498C16.8875 7.2336 16.7315 7.16493 16.5729 7.16493C16.2596 7.1622 16.0209 7.38693 16.0103 7.6836C15.9836 8.11299 15.9356 8.54087 15.8689 8.94418L15.7649 9.34681C15.6463 10.0822 15.4409 10.8007 15.1583 11.4701L15.0929 11.5901C14.9916 11.7408 14.9102 11.8995 14.8503 12.0621L14.7463 12.3461L15.0277 12.2354C15.369 12.1033 15.7223 12.002 16.077 11.9366L16.1477 11.9233L16.1771 11.8579C16.4345 11.2772 16.6317 10.6692 16.7624 10.0465C17.0344 10.0611 17.3104 10.0585 17.5784 10.0398C17.9464 10.0378 18.3131 9.99177 18.6704 9.90384C19.4011 10.3025 20.2223 10.5391 21.0597 10.5885L21.3623 10.5879C22.337 10.4919 23.2077 9.92583 23.6917 9.07784C23.9037 8.72724 24.0064 8.32789 23.9904 7.91925C24.0117 7.90123 24.0277 7.88321 24.0344 7.87065C24.3917 7.58271 24.6571 7.20138 24.7996 6.76995C25.1312 5.84114 25.0486 4.81048 24.5713 3.9371ZM19.5394 8.95633C19.5421 8.95633 19.5461 8.95633 19.55 8.95633C19.6673 8.95633 19.7781 8.91305 19.8527 8.84369L20.4274 8.4311L20.898 8.01646C21.2927 7.70518 21.7673 7.51977 22.2619 7.4825C22.446 7.47185 22.6125 7.53315 22.7325 7.62244C22.9379 7.86382 22.9379 8.21511 22.7166 8.47902C22.4219 9.01163 21.8832 9.3636 21.29 9.41971L21.1287 9.42026C20.5127 9.36687 19.9034 9.19498 19.3474 8.91824C19.4075 8.94104 19.4728 8.95374 19.5394 8.95633ZM19.3341 18.1834L19.7901 17.6087C20.3007 16.8914 20.3821 15.9981 20.0033 15.2128L19.3887 14.0674C18.9794 13.3675 18.142 12.9209 17.2448 12.9209C16.2915 12.9181 15.4288 13.3462 14.9635 14.0848L14.4249 15.4034C14.0942 16.1994 14.2262 17.0927 14.7835 17.7966L15.1156 18.1779L12.3276 21.6231C12.2263 21.8405 12.329 22.0965 12.5476 22.1978L14.5729 23.4364L14.6048 23.4563H14.7702C14.7755 23.4563 14.7822 23.4577 14.7875 23.4577C14.9568 23.4577 15.1154 23.3857 15.2155 23.2616L17.1955 20.7977L19.3541 23.2496L19.3955 23.2949H19.8862L21.9635 22.0203L21.9901 21.999C22.1621 21.8216 22.1621 21.5536 21.9968 21.3843L19.3341 18.1834ZM20.7768 21.678L19.7288 22.322L17.8434 20.0035L18.6221 19.0195L20.7768 21.678ZM18.7929 17.1714L14.7037 22.3232L13.6064 21.6899L18.8129 15.2288L19.0329 15.7007C19.2394 16.1942 19.1502 16.7434 18.7929 17.1714ZM18.0488 14.4529L17.1182 15.6035L16.1076 14.2769C16.3876 14.0209 16.7769 13.8743 17.1915 13.8702C17.1955 13.8702 17.1996 13.8702 17.2035 13.8702C17.6195 13.8702 18.0129 14.0274 18.2821 14.2901C18.1914 14.3236 18.1102 14.3796 18.0488 14.4529ZM15.5009 17.0674C15.1968 16.622 15.1515 16.0714 15.3769 15.6008L15.5596 15.2634L16.5222 16.4301L15.7582 17.378L15.5009 17.0674Z" fill="black"/>
</g>
<defs>
<clipPath id="clip0_11_39">
<rect width="25" height="25" fill="white"/>
</clipPath>
</defs>
</svg>
