<svg width="25" height="25" viewBox="0 0 25 25" fill="none" xmlns="http://www.w3.org/2000/svg">
<g clip-path="url(#clip0_11_60)">
<path fill-rule="evenodd" clip-rule="evenodd" d="M9.05719 8.72136C10.8844 8.16649 12.0702 6.33708 11.8232 4.43733C11.5736 2.51579 9.92437 1.03837 7.98437 1C5.87113 1 3.13705 1.63291 0.732859 6.57906C-0.357113 9.22667 -0.226607 12.2027 1.09328 14.7504C1.81004 15.9723 3.13414 16.7358 4.54907 16.7444C4.55968 16.7444 4.57029 16.7444 4.58177 16.7444C5.61927 16.7444 6.63469 16.3257 7.3705 15.5892C8.11269 14.847 8.53429 13.8179 8.52645 12.7636C8.4952 11.9721 8.28869 11.1851 7.929 10.4798C7.96024 10.4528 7.99498 10.4267 8.03334 10.4004C8.10644 10.3393 8.18594 10.2925 8.2711 10.2598C9.15383 10.3165 9.85127 11.0468 9.86479 11.9324L9.86551 22.4142C9.85272 22.5675 9.90809 22.7194 10.0174 22.8286C10.121 22.9323 10.2679 22.9975 10.4083 22.9833C10.4431 22.9904 10.4785 22.9946 10.5141 22.9946C10.639 22.9946 10.761 22.9478 10.8568 22.8627C10.9846 22.7448 11.0456 22.5746 11.0215 22.427V11.9317C11.0143 10.638 10.1097 9.50047 8.83019 9.19324C8.88062 9.10387 8.9245 9.00868 8.98278 8.88166L9.05719 8.72136ZM6.67437 9.96029C6.54023 10.0447 6.44518 10.1747 6.40609 10.3258L6.40115 10.362C6.40115 10.5166 6.40115 10.6926 6.55941 10.7856C7.06748 11.3129 7.34492 12.0068 7.33998 12.7406C7.34913 14.3187 6.12081 15.6088 4.55401 15.677C3.51301 15.6514 2.54788 15.0724 2.03835 14.1712C0.91641 11.9565 0.811482 9.36924 1.74595 7.07855C4.09898 2.09985 6.72174 2.0984 7.9835 2.0984C8.73369 2.11192 9.45743 2.43484 9.96913 2.98404C10.4814 3.53193 10.7533 4.27689 10.7157 5.03769C10.7405 6.39667 9.79023 7.56962 8.44346 7.83005C8.25047 7.88615 8.09366 8.02232 8.00486 8.22956C7.82814 8.96609 7.34637 9.59494 6.67437 9.96029ZM24.2736 6.57048C21.8723 1.63291 19.1388 1 17.0242 1C14.8484 1.017 13.0851 2.80107 13.0935 4.97593C13.0935 6.75287 14.2673 8.34655 15.9583 8.87948C15.9739 8.92133 15.9938 8.96391 16.0179 9.00998C16.0661 9.0966 16.1031 9.19019 16.1243 9.26693C14.8428 9.55715 13.9408 10.6762 13.9294 11.9911L13.9301 22.4736C13.918 22.6226 13.9719 22.7702 14.0785 22.8766C14.175 22.9746 14.3055 23.027 14.4418 23.027C14.4546 23.027 14.4674 23.027 14.4802 23.0256C14.6192 23.0199 14.7505 22.956 14.84 22.8552C14.9323 22.7531 14.9791 22.614 14.9692 22.4848V11.9427C15.033 11.0543 15.7781 10.361 16.668 10.361C16.6709 10.361 16.6722 10.361 16.6736 10.361H16.712C16.8057 10.4596 16.9107 10.5483 17.0242 10.6236C16.6168 11.2672 16.4096 12.0067 16.4253 12.7681C16.4167 13.8063 16.8312 14.8267 17.5593 15.5675C18.2888 16.3084 19.3021 16.737 20.341 16.7441C20.3538 16.7441 20.3651 16.7456 20.3779 16.7456C21.8042 16.7441 23.1356 15.9835 23.8608 14.7444C25.2189 12.2133 25.3706 9.23728 24.2736 6.57048ZM20.46 15.6032C20.4586 15.6032 20.4571 15.6032 20.4544 15.6032C19.7065 15.6032 18.9784 15.2952 18.4561 14.7573C17.9352 14.218 17.6472 13.48 17.6684 12.7243C17.6655 11.9927 17.9423 11.2986 18.4561 10.7644C18.5597 10.6416 18.6136 10.4862 18.608 10.3258C18.5994 10.1434 18.476 9.98369 18.3269 9.94126C17.6485 9.57444 17.139 8.9379 16.9346 8.22826C16.9248 7.97989 16.7232 7.77701 16.4975 7.76916C15.1889 7.48882 14.238 6.31368 14.2353 4.97186C14.2126 4.22181 14.4999 3.4831 15.0215 2.94524C15.5453 2.40664 16.2732 2.09869 17.0227 2.09869C17.0242 2.09869 17.0242 2.09869 17.0256 2.09869C18.2817 2.09869 20.8959 2.09869 23.2745 7.07172C24.2126 9.34962 24.1232 11.9212 23.0332 14.1204C22.5024 15.034 21.516 15.6032 20.46 15.6032Z" fill="black"/>
</g>
<defs>
<clipPath id="clip0_11_60">
<rect width="25" height="25" fill="white"/>
</clipPath>
</defs>
</svg>
