<svg width="25" height="25" viewBox="0 0 25 25" fill="none" xmlns="http://www.w3.org/2000/svg">
<path fill-rule="evenodd" clip-rule="evenodd" d="M12.9722 6.55702C13.0885 6.77646 13.0473 7.0247 12.8823 7.17854C12.785 7.27053 12.6606 7.31548 12.5362 7.31548C12.4021 7.31548 12.2682 7.26239 12.168 7.15787L11.0722 5.96703C10.9692 5.76011 11.0015 5.53992 11.1422 5.38609L11.4265 5.07677L10.6753 4.21817C10.5649 3.99722 10.6134 3.75049 10.782 3.60028C10.9882 3.41477 11.3085 3.43242 11.4942 3.63858L12.5553 4.84843C12.6518 5.05384 12.6179 5.27117 12.4802 5.42063L12.2041 5.72256L12.9722 6.55702ZM9.66343 5.78304L10.078 5.37282C10.1753 5.27856 10.2297 5.14599 10.229 5.01056C10.229 4.92142 10.204 4.83305 10.145 4.73592L8.98445 3.61053C8.9196 3.5487 8.84012 3.50526 8.73621 3.48174L8.62521 3.46922L8.4934 3.49124C8.32102 3.54206 8.18784 3.68202 8.14501 3.85651C8.11259 3.98622 8.134 4.12165 8.21499 4.25422L8.99773 5.0193L8.57137 5.44053C8.47274 5.53706 8.41754 5.67249 8.4204 5.81245C8.42266 5.90369 8.44981 5.99358 8.51165 6.08859L9.71712 7.18728C9.81364 7.2734 9.93369 7.31608 10.0543 7.31608C10.1928 7.31608 10.3312 7.25937 10.4306 7.14822C10.5192 7.04883 10.5656 6.91627 10.559 6.78445C10.5546 6.69547 10.5265 6.60921 10.4662 6.51947L9.66343 5.78304ZM12.6526 7.91422C12.5215 7.88104 12.3867 7.90245 12.2712 7.9753L11.1473 9.14246C11.0045 9.29418 10.9692 9.51362 11.0678 9.72129L11.4265 10.1395L10.7409 10.9032C10.556 11.1109 10.5744 11.4305 10.7813 11.6154C10.8742 11.6992 10.992 11.7427 11.1135 11.7427C11.2122 11.7427 11.3138 11.714 11.4066 11.6535L12.4832 10.4739C12.6202 10.3214 12.6518 10.105 12.5532 9.90167L12.2041 9.49371L12.9037 8.75215C13.0266 8.62109 13.0716 8.43257 13.02 8.25883C12.9678 8.08645 12.8263 7.95463 12.6526 7.91422ZM10.2113 7.92447C10.0839 7.88315 9.9441 7.89506 9.82616 7.95388L8.58826 9.04006C8.48525 9.13296 8.42342 9.26553 8.4204 9.40382C8.41829 9.49597 8.44106 9.58646 8.49853 9.68525L8.99788 10.1971L8.28633 10.8744C8.15678 10.9996 8.10218 11.1853 8.14486 11.3598C8.18754 11.535 8.32162 11.675 8.49249 11.7243C8.53819 11.7383 8.58449 11.7449 8.6317 11.7449C8.71781 11.7449 8.80619 11.7222 8.89381 11.6735L10.0727 10.5681C10.1706 10.4739 10.2273 10.3421 10.2288 10.2072C10.2297 10.1182 10.207 10.0299 10.1503 9.93334L9.66343 9.43338L10.391 8.78171C10.525 8.66241 10.5854 8.47827 10.5493 8.30151C10.5125 8.12551 10.383 7.98118 10.2113 7.92447ZM8.55961 7.81468C8.67302 7.74032 8.74963 7.62616 8.77678 7.49434C8.82172 7.27129 8.71193 7.04446 8.49174 6.93542L7.26349 6.66968C7.04707 6.62761 6.82387 6.7285 6.71709 6.92667L6.54109 7.61666L5.5647 7.37957C5.39307 7.33976 5.20305 7.39209 5.07938 7.52089C4.9542 7.65119 4.9085 7.83971 4.95933 8.0121C4.99688 8.13953 5.08451 8.24918 5.21934 8.32142L6.79974 8.71912C6.8403 8.72862 6.87997 8.7339 6.92054 8.7339C7.01329 8.7339 7.10393 8.70811 7.18416 8.65804C7.26003 8.61159 7.32186 8.54538 7.37268 8.4481L7.54507 7.75888L8.1806 7.88843C8.31001 7.91422 8.4477 7.88767 8.55961 7.81468ZM15.297 7.12907C15.2263 7.24324 15.2043 7.37942 15.2352 7.51199C15.2896 7.73218 15.484 7.89129 15.733 7.89793L16.2897 7.77637L16.4192 8.34193C16.4517 8.4745 16.5326 8.5864 16.6476 8.65789C16.7227 8.70494 16.8095 8.73073 16.9201 8.73224L18.5064 8.36108C18.6816 8.31916 18.8216 8.18508 18.8716 8.0121C18.9232 7.83836 18.876 7.64984 18.7523 7.52089C18.6596 7.42361 18.5329 7.36841 18.3797 7.36555L17.2912 7.61666L17.1617 7.05034C17.1293 6.92004 17.0468 6.80587 16.9172 6.72639L16.8319 6.68808L16.6832 6.65943L15.608 6.90239C15.4766 6.93406 15.3662 7.01505 15.297 7.12907ZM23.8407 14.4578L21.9128 10.9503L21.1809 10.0636L21.1898 10.0268C21.6655 7.58634 21.1441 5.32999 19.6787 3.50225C17.9672 1.36519 15.1453 0.0904896 11.9368 0.00437366L11.5899 0C9.79388 0 8.05151 0.407957 6.553 1.17893C2.42834 3.30347 0.585968 6.41179 1.07778 10.4194C1.35754 12.6993 2.38792 15.1501 4.05654 17.5051C4.49979 18.1309 4.75618 19.1295 4.81726 20.4757C4.86069 21.4021 4.81062 22.4404 4.66705 23.5597L4.60597 24.006C4.57656 24.2078 4.54851 24.3741 4.52573 24.5008L4.47566 24.7644L5.66047 25L5.768 24.3887C5.79892 24.1972 5.83135 23.9705 5.86377 23.7141C6.01625 22.5256 6.06918 21.4166 6.02364 20.4181C5.94853 18.8172 5.62744 17.636 5.04122 16.8081C3.48721 14.6139 2.53059 12.3539 2.27511 10.2721C1.84498 6.77043 3.42463 4.14744 7.10589 2.25183C8.43367 1.56773 9.98451 1.20607 11.5898 1.20607C14.528 1.20607 17.1039 2.28637 18.6593 4.16931C19.948 5.72904 20.4134 7.66793 20.0083 9.77483L19.8743 10.3787L20.917 11.6232L22.2956 14.1447L20.8787 15.2722L20.9479 17.4829L20.272 18.452L20.3913 18.9307C20.4119 19.0176 20.4324 19.1223 20.4531 19.2355C20.518 19.5993 20.5548 19.9293 20.5635 20.2193C20.5827 20.9394 20.4192 21.1884 20.3308 21.2193C19.5031 21.508 18.5074 21.6554 17.3748 21.6554C17.1288 21.6554 16.8902 21.648 16.6693 21.6362L16.2113 21.6009L15.2981 21.4757L15.1331 24.8543L16.3378 24.9133L16.4409 22.8293L17.3746 22.8617C18.6412 22.8617 19.7695 22.6924 20.7282 22.3595C21.4602 22.1033 21.8018 21.3934 21.7681 20.1857C21.7592 19.8293 21.715 19.4375 21.6399 19.0206L21.5737 18.6906L22.0508 18.0101L22.1599 17.6699L22.1039 15.8378L23.8407 14.4578ZM15.7389 11.5888C15.895 11.4254 15.923 11.175 15.7948 10.9643L15.0099 10.197L15.4385 9.77574C15.5371 9.67786 15.5917 9.54152 15.5872 9.40382C15.5857 9.31183 15.5591 9.22269 15.4973 9.12693L14.2926 8.02974C14.2264 7.97002 14.1452 7.92884 14.0392 7.90818L13.9288 7.89929L13.797 7.92447C13.6261 7.98118 13.4973 8.12551 13.459 8.30227C13.4325 8.43257 13.4583 8.57102 13.543 8.69695L14.3457 9.43338L13.9288 9.8436C13.833 9.94013 13.7786 10.0719 13.7793 10.2074C13.7809 10.298 13.8059 10.3864 13.8633 10.4799L15.0231 11.6059C15.1218 11.6994 15.2469 11.7451 15.3721 11.7451C15.5062 11.7449 15.6401 11.6926 15.7389 11.5888ZM13.4596 6.91551C13.4972 7.09076 13.6261 7.23509 13.7976 7.2918C13.8462 7.30733 13.897 7.31608 13.9486 7.31608C14.0303 7.31608 14.1143 7.29466 14.2004 7.25123L15.4192 6.17682C15.5237 6.08331 15.5857 5.94999 15.587 5.81229C15.59 5.72105 15.5679 5.63117 15.5104 5.53102L15.0097 5.01915L15.7226 4.34169C15.8537 4.21651 15.9068 4.03025 15.8641 3.85712C15.8214 3.68262 15.6873 3.54191 15.5151 3.49033C15.3855 3.45353 15.25 3.46756 15.1322 3.53151L13.9354 4.64784C13.8376 4.7421 13.7809 4.87392 13.7793 5.00875C13.7786 5.09894 13.8021 5.18792 13.8588 5.28293L14.3457 5.78289L13.6174 6.43456C13.4831 6.55401 13.4228 6.73815 13.4596 6.91551Z" fill="black"/>
</svg>
