<svg width="25" height="25" viewBox="0 0 25 25" fill="none" xmlns="http://www.w3.org/2000/svg">
<path fill-rule="evenodd" clip-rule="evenodd" d="M19.9883 10.5378C20.7658 9.84395 21.1227 8.17269 20.9623 7.67971L20.9508 7.64357C20.6979 6.82193 19.9262 5.87708 16.1615 5.85999C16.0906 5.86151 16.0241 5.86075 15.9577 5.86151C15.8494 5.39724 15.5675 4.66494 14.8391 4.09728C15.488 3.35031 16.1123 2.39503 15.6585 1.42357C15.076 0.176059 13.8029 -0.166507 13.1034 0.0697823C12.6316 0.228518 12.482 0.601319 12.4951 0.895055C12.287 1.18955 10.9842 1.94105 10.2724 2.35149C9.78268 2.63434 9.22701 2.95393 8.68361 3.29045C6.72329 4.50409 6.37138 6.08963 6.31071 6.52442C5.42267 7.34016 4.75793 8.54988 4.33307 10.12C3.62275 12.742 4.05338 15.6946 5.57879 18.6591C6.6786 20.7968 7.94444 22.189 8.07378 22.3278C8.18284 22.4755 8.77033 23.246 9.64831 23.9223C10.5775 24.6369 11.4996 25 12.3919 25C12.4425 25 12.4924 24.9985 12.5423 24.9956C13.8682 24.9365 15.033 24.0802 16.0055 22.4504L16.0128 22.4401C19.0461 17.3586 20.3019 15.2549 19.1429 12.3597C18.8885 11.7256 18.6414 11.1742 18.403 10.715C18.4232 10.7246 18.442 10.7342 18.4622 10.7438C18.991 11.008 19.5475 10.9335 19.9883 10.5378ZM9.5175 6.42101C10.3463 6.42101 10.9705 6.66456 11.0118 6.68088C11.2878 6.79306 11.6137 6.6573 11.7301 6.37006C11.8442 6.08147 11.7076 5.7516 11.4257 5.63489C11.3485 5.60315 9.65764 4.91892 7.85047 5.58107C8.1164 5.17426 8.55073 4.69079 9.25512 4.2545C9.77617 3.93189 10.3043 3.62772 10.8152 3.33323C12.4251 2.40455 13.4359 1.82222 13.5869 1.12832C13.6533 1.13059 13.743 1.14162 13.8506 1.17549C14.0558 1.23898 14.433 1.41903 14.6627 1.9093C14.8983 2.41634 14.1353 3.23134 13.5752 3.82773C13.0896 4.34747 12.7392 4.72239 12.6994 5.15128C12.6849 5.30336 12.7298 5.45242 12.8252 5.57049C12.9192 5.68705 13.0506 5.75871 13.1959 5.77277C13.4965 5.79423 13.7681 5.58228 13.7912 5.29732C13.798 5.27842 13.8362 5.19935 14.0763 4.93071C14.5286 5.24516 14.7382 5.65258 14.835 5.94344C13.1397 6.18638 12.5118 6.91717 12.1318 7.35997C12.1057 7.3896 12.0523 7.45234 12.0097 7.49875C10.7083 6.76509 9.67865 7.54818 9.56515 7.64131C9.32882 7.83769 9.29197 8.1934 9.48272 8.43483C9.67362 8.67551 10.0211 8.71164 10.2589 8.51889C10.282 8.5012 10.7928 8.10255 11.4763 8.48654C12.2546 8.92721 12.6968 8.41125 12.9627 8.1027C13.3442 7.65839 13.9201 6.98807 16.1066 6.98807C16.1224 6.98807 16.1384 6.98807 16.1557 6.98807C18.9983 7.00138 19.7585 7.53579 19.8986 7.97949C19.9202 8.21563 19.6616 9.39979 19.2209 9.72225C19.1442 9.77985 19.0792 9.79678 18.9477 9.73042C17.134 8.8232 15.4346 8.95685 13.4439 10.1644C12.8246 10.5409 12.3882 11.0053 12.1556 11.5285C12.1469 11.5439 12.1383 11.5639 12.1245 11.5971C11.941 12.0452 11.4525 13.1007 10.9199 13.8847C10.8397 13.9836 10.7682 14.0855 10.7074 14.1771C10.5325 14.4015 10.3743 14.564 10.237 14.6613C9.76951 14.9861 9.34746 15.1412 9.07 15.0998C8.95649 15.0806 8.84018 15.1087 8.74488 15.1809C8.65091 15.2503 8.58876 15.3551 8.57144 15.4718C8.54688 15.6342 8.61184 15.798 8.74118 15.8969C8.79682 15.9397 8.86178 15.9678 8.9377 15.9811C9.25423 16.0313 9.60244 15.9752 9.97891 15.8187C9.89648 16.1509 9.87769 16.3695 9.87709 16.3813C9.86555 16.5349 9.92978 16.6809 10.049 16.774C10.1134 16.8227 10.1907 16.8537 10.2759 16.8626C10.2882 16.8641 10.3005 16.8641 10.312 16.8641C10.5368 16.8641 10.7281 16.687 10.7469 16.4552C10.7563 16.3637 10.8575 15.5324 11.4074 14.7087C11.6184 14.4355 11.838 14.099 12.0606 13.7077C12.1827 14.1786 12.3591 14.6172 12.4962 14.9552L12.5569 15.1073C12.869 15.8853 12.1711 16.7003 11.4318 17.5639L11.4007 17.5993C11.2909 17.7278 11.1811 17.8562 11.0769 17.9831C9.89988 19.4122 10.7691 20.3497 10.8024 20.3837C11.0293 20.6405 11.2656 20.6686 11.5301 20.4679C11.8148 20.2494 11.8479 19.9438 11.6168 19.6234C11.6146 19.6204 11.4015 19.34 11.9218 18.708C12.0107 18.6018 12.1025 18.494 12.1957 18.3847L12.2629 18.305C12.7499 17.7366 13.2933 17.1033 13.5657 16.3976C14.0108 17.239 14.2811 17.8592 14.3317 18.1603C14.3505 18.2725 14.4097 18.3714 14.4993 18.4423C14.5961 18.5147 14.7204 18.547 14.836 18.525C15.0731 18.4822 15.232 18.2504 15.1914 18.0097C15.0483 17.1535 13.963 15.2682 13.5136 14.5182C12.9103 13.0212 12.6183 11.9774 14.0079 11.1336C15.0513 10.4996 15.9487 10.2346 16.823 10.2766C16.9906 10.4715 17.4443 11.0989 18.1208 12.7871C19.0254 15.0496 18.1063 16.7695 15.0643 21.8643C14.2956 23.1502 13.4306 23.8249 12.4956 23.8692C12.4624 23.8707 12.4299 23.8707 12.3974 23.8707C10.6075 23.8707 8.96152 21.6576 8.94776 21.6384C8.93326 21.6177 8.91817 21.5985 8.90011 21.5793C8.8495 21.5261 3.85361 16.1169 5.39559 10.4205C5.89133 8.59432 6.71722 7.37781 7.85092 6.80349C8.42494 6.51262 9.00947 6.42101 9.5175 6.42101Z" fill="black"/>
</svg>
